<svg width="19" height="40" viewBox="0 0 19 40" fill="none" xmlns="http://www.w3.org/2000/svg">
<path d="M18.8182 17.2951V16.0753C18.8182 13.8439 18.1008 11.7017 16.729 9.87943L14.1432 6.42819V3.37116C14.1432 2.01001 12.9764 0.90918 11.5337 0.90918H7.29234C5.84964 0.90918 4.68287 2.01001 4.68287 3.37116V6.41331L2.09704 9.87943C0.725292 11.7017 0.00788361 13.8439 0.00788361 16.0679V17.2951C0.00788361 18.0241 0.331112 18.7084 0.898732 19.1993C0.315344 19.8538 0 20.672 0 21.5199C0 22.5166 0.441482 23.4612 1.20619 24.153C0.441482 24.8373 0 25.7819 0 26.786C0 27.6488 0.315344 28.467 0.898732 29.1141C0.331112 29.605 0.00788361 30.2893 0.00788361 31.0108V35.2133C0.00788361 37.5042 1.97879 39.3637 4.40694 39.3637H14.4191C16.8473 39.3637 18.8182 37.5042 18.8182 35.2133V31.0108C18.8182 30.2745 18.495 29.5902 17.9195 29.1067C18.5028 28.4522 18.8182 27.6414 18.8182 26.7935C18.8182 25.7968 18.3767 24.8447 17.612 24.1604C18.3846 23.4761 18.8182 22.5241 18.8182 21.5274C18.8182 20.6794 18.5028 19.8612 17.9195 19.2067C18.495 18.7158 18.8182 18.0241 18.8182 17.2951ZM6.74837 5.74389V3.37116C6.74837 3.09596 6.99276 2.86538 7.28446 2.86538H11.5258C11.8175 2.86538 12.0619 3.09596 12.0619 3.37116V5.74389H6.74837ZM16.7369 17.2951C16.7369 17.6298 16.4452 17.905 16.0905 17.905H2.71985C2.36508 17.905 2.07339 17.6298 2.07339 17.2951V16.0679C2.07339 14.2381 2.66466 12.4902 3.77625 11.0026L6.2517 7.70753H12.5586L15.0419 11.0026C16.1614 12.4902 16.7448 14.2455 16.7448 16.0679L16.7369 17.2951ZM3.82355 19.8687H14.9789C15.9407 19.8687 16.729 20.6125 16.729 21.5199C16.729 22.4274 15.9407 23.1712 14.9789 23.1712H3.82355C2.86175 23.1712 2.07339 22.4274 2.07339 21.5199C2.07339 20.6125 2.86175 19.8687 3.82355 19.8687ZM3.82355 25.1274H14.9789C15.9407 25.1274 16.729 25.8712 16.729 26.7786C16.729 27.686 15.9407 28.4298 14.9789 28.4298H3.81567C2.85387 28.4298 2.06551 27.686 2.06551 26.7786C2.07339 25.8712 2.86175 25.1274 3.82355 25.1274ZM2.07339 31.0108C2.07339 30.6761 2.36508 30.4009 2.71985 30.4009H16.0983C16.4531 30.4009 16.7448 30.6761 16.7448 31.0108V35.0274H16.7369V35.2133C16.7369 36.4257 15.6963 37.4075 14.4112 37.4075H4.39906C3.11403 37.4075 2.07339 36.4257 2.07339 35.2133V31.0108Z" fill="black"/>
</svg>
