<?xml version="1.0" encoding="utf-8"?>
<!-- Generator: Adobe Illustrator 24.1.3, SVG Export Plug-In . SVG Version: 6.00 Build 0)  -->
<svg version="1.1" id="Layer_1" xmlns="http://www.w3.org/2000/svg" xmlns:xlink="http://www.w3.org/1999/xlink" x="0px" y="0px"
	 viewBox="0 0 100 100" style="enable-background:new 0 0 100 100;" xml:space="preserve">
<style type="text/css">
	.st0{fill:#23DCCC;}
	.st1{fill:#4155FE;}
	.st2{fill:#112867;}
</style>
<g>
	<path class="st0" d="M27.52,71.04c-3.69-1.18-7.34-2.43-10.61-4.58C7.22,60.11,1.56,51.24,0.25,39.69
		c-2.05-18.07,10.29-35.41,29-39.04C31.45,0.22,33.69,0,35.95,0c17.74,0.01,35.49,0,53.23,0c0.31,0,0.61,0,0.99,0
		c-0.05,0.66-0.53,0.9-0.85,1.23c-2.83,2.9-5.83,5.65-8.49,8.69c-4.74,5.43-7.34,11.89-8.35,19.01c-0.11,0.11-0.23,0.18-0.38,0.22
		c-2.73-0.19-5.42-0.76-8.18-0.72c-7.97,0.12-15.16,2.51-21.43,7.39c-8.4,6.54-13.03,15.21-13.98,25.81
		c-0.23,2.5,0.1,5.04-0.31,7.54c-0.09,0.53-0.08,1.08-0.35,1.57C27.76,70.87,27.65,70.97,27.52,71.04z"/>
	<path class="st1" d="M72.22,28.99c0.08-0.02,0.17-0.04,0.25-0.06c3.78,1.19,7.49,2.52,10.83,4.72c9.1,6,14.72,14.35,16.3,25.14
		c2.93,20.03-10.9,38.03-30.65,40.87c-1.55,0.22-3.14,0.32-4.71,0.32C46.56,100.01,28.87,100,11.18,100c-0.4,0-0.8,0-1.21,0
		c-0.07-0.64,0.43-0.83,0.71-1.13c3.5-3.68,7.42-6.97,10.39-11.15c3.55-5.01,5.67-10.59,6.45-16.68c0.05-0.08,0.1-0.15,0.15-0.23
		c1.51-0.21,2.92,0.36,4.39,0.52c6.14,0.68,12.04-0.21,17.7-2.61c8.1-3.45,14.12-9.21,18.1-17.02c2.38-4.66,3.61-9.68,3.66-14.95
		C71.53,34.14,71.61,31.54,72.22,28.99z"/>
	<path class="st2" d="M72.22,28.99c0.41,0.9-0.05,1.78-0.11,2.65c-0.32,4.38-0.03,8.82-1.3,13.11
		c-4.28,14.53-13.8,23.44-28.62,26.58c-4.58,0.97-9.21,0.77-13.78-0.25c-0.26-0.06-0.5-0.18-0.75-0.28
		c0.64-4.23,0.12-8.55,0.95-12.76c2.53-12.87,9.82-21.99,21.82-27.23C57.44,27.76,64.77,27.34,72.22,28.99z"/>
</g>
</svg>
