<svg width="62" height="62" viewBox="0 0 62 62" fill="none" xmlns="http://www.w3.org/2000/svg">
<path fill-rule="evenodd" clip-rule="evenodd" d="M6.28809 55.9332L9.76784 43.2297C7.62109 39.5122 6.49217 35.2937 6.49346 30.973C6.49992 17.4557 17.4998 6.4585 31.0183 6.4585C37.5787 6.46108 43.7348 9.0147 48.3654 13.6479C52.9948 18.2824 55.5445 24.4411 55.5419 30.9924C55.5367 44.5097 44.5343 55.5082 31.0183 55.5082H31.008C26.9044 55.507 22.8705 54.4775 19.2887 52.5232L6.28809 55.9332Z" fill="white"/>
<path fill-rule="evenodd" clip-rule="evenodd" d="M6.28785 56.5789C6.11735 56.5789 5.95201 56.5117 5.82931 56.3877C5.66785 56.2237 5.60456 55.9847 5.66526 55.7638L9.07397 43.3173C6.96081 39.5637 5.8461 35.3013 5.84868 30.9742C5.85385 17.0991 17.1443 5.8125 31.0181 5.8125C37.7477 5.81508 44.0704 8.43588 48.8224 13.1918C53.5745 17.949 56.1901 24.2704 56.1875 30.9923C56.1823 44.866 44.8906 56.1539 31.0181 56.1539C26.899 56.1526 22.8238 55.1361 19.2071 53.2128L6.45189 56.5569C6.39764 56.5724 6.34339 56.5789 6.28785 56.5789Z" fill="white"/>
<path fill-rule="evenodd" clip-rule="evenodd" d="M31.0185 6.45817C37.5789 6.46075 43.735 9.01438 48.3656 13.6476C52.995 18.2821 55.5447 24.4408 55.5421 30.9921C55.537 44.5094 44.5345 55.5079 31.0185 55.5079H31.0082C26.9046 55.5066 22.8707 54.4772 19.2889 52.5229L6.28829 55.9329L9.76804 43.2293C7.62129 39.5119 6.49237 35.2933 6.49367 30.9727C6.50012 17.4554 17.5 6.45817 31.0185 6.45817ZM31.0185 5.1665C16.7895 5.1665 5.20846 16.7424 5.202 30.9727C5.20071 35.3218 6.29862 39.6075 8.38079 43.4011L5.04183 55.5932C4.92042 56.0388 5.04442 56.5141 5.36992 56.8422C5.61533 57.0902 5.94729 57.2258 6.28829 57.2258C6.39808 57.2258 6.50788 57.2116 6.61638 57.1832L19.1287 53.9024C22.7816 55.7985 26.8762 56.7996 31.0082 56.8009C45.2475 56.8009 56.8286 45.2237 56.8351 30.9934C56.8377 24.0972 54.1549 17.613 49.2814 12.7357C44.4054 7.85705 37.9199 5.16909 31.0185 5.1665Z" fill="#CFD8DC"/>
<path fill-rule="evenodd" clip-rule="evenodd" d="M45.4355 16.5749C41.5863 12.7231 36.47 10.6009 31.0244 10.5996C19.7817 10.5996 10.638 19.7394 10.6328 30.9744C10.6315 34.8248 11.7088 38.5732 13.7496 41.8192L14.2353 42.5903L12.1751 50.1091L19.8902 48.0864L20.6355 48.5281C23.7639 50.3855 27.3521 51.3672 31.0101 51.3685H31.0179C42.2528 51.3685 51.3965 42.2274 51.4004 30.9911C51.4017 25.5468 49.2846 20.4266 45.4355 16.5749Z" fill="#40C351"/>
<path fill-rule="evenodd" clip-rule="evenodd" d="M24.8877 20.7248C24.4292 19.7044 23.9461 19.6837 23.5082 19.6656C23.1504 19.6501 22.7423 19.6514 22.3341 19.6514C21.9259 19.6514 21.262 19.8051 20.7001 20.4186C20.1383 21.0322 18.5547 22.5137 18.5547 25.5285C18.5547 28.5432 20.7505 31.4572 21.0566 31.8654C21.3628 32.2736 25.2959 38.6583 31.5243 41.115C36.7 43.1559 37.754 42.7503 38.8778 42.6482C40.0015 42.5462 42.5035 41.1667 43.0137 39.7355C43.5239 38.3044 43.5239 37.0786 43.3715 36.8228C43.2178 36.5671 42.8096 36.4146 42.1974 36.1072C41.5851 35.7998 38.5716 34.3183 38.0098 34.1142C37.4479 33.9101 37.0397 33.8081 36.6303 34.4216C36.2221 35.0339 35.048 36.4146 34.6902 36.8228C34.3324 37.2323 33.9746 37.2839 33.3624 36.9765C32.7501 36.6691 30.7764 36.0233 28.4346 33.9359C26.6134 32.3123 25.3837 30.3064 25.0259 29.6928C24.6681 29.0806 24.9872 28.7486 25.2946 28.4425C25.5697 28.1674 25.9069 27.7269 26.2143 27.3691C26.5204 27.0113 26.6224 26.7556 26.8265 26.3474C27.0306 25.9379 26.9286 25.5801 26.7749 25.274C26.6237 24.9666 25.4328 21.9364 24.8877 20.7248Z" fill="white"/>
</svg>
