<?xml version="1.0" encoding="utf-8"?>
<!-- Generator: Adobe Illustrator 24.1.3, SVG Export Plug-In . SVG Version: 6.00 Build 0)  -->
<svg version="1.1" id="Layer_1" xmlns="http://www.w3.org/2000/svg" xmlns:xlink="http://www.w3.org/1999/xlink" x="0px" y="0px"
	 viewBox="0 0 290 218" style="enable-background:new 0 0 290 218;" xml:space="preserve">
<style type="text/css">
	.st0{opacity:0.5;}
	.st1{clip-path:url(#SVGID_2_);}
	.st2{fill:#4F4F4F;}
</style>
<g class="st0">
	<g>
		<defs>
			<rect id="SVGID_1_" width="290" height="248"/>
		</defs>
		<clipPath id="SVGID_2_">
			<use xlink:href="#SVGID_1_"  style="overflow:visible;"/>
		</clipPath>
		<g class="st1">
			<path class="st2" d="M286.3,208.7L167.3,12.5C162.6,4.8,154.1,0,145,0c-9.1,0-17.6,4.8-22.3,12.5L3.7,208.7c-4.9,8-5,18-0.4,26.1
				c4.6,8.1,13.3,13.2,22.7,13.2h237.9c9.4,0,18.1-5.1,22.7-13.2C291.2,226.7,291.1,216.7,286.3,208.7z M270.2,225.6
				c-1.2,2.3-3.7,3.6-6.2,3.6H26.1c-2.6,0-5-1.4-6.2-3.6c-1.2-2.3-1.2-5,0.1-7.2L138.9,22.2c1.3-2.1,3.6-3.4,6.1-3.4
				s4.9,1.3,6.1,3.4l118.9,196.2C271.4,220.6,271.5,223.3,270.2,225.6z"/>
			<path class="st2" d="M145.1,77.2c-7.2,0-12.8,3.8-12.8,10.6c0,20.7,2.4,50.5,2.4,71.3c0,5.4,4.8,7.7,10.3,7.7
				c4.2,0,10.1-2.3,10.1-7.7c0-20.7,2.4-50.5,2.4-71.3C157.7,81.1,151.9,77.2,145.1,77.2z"/>
			<path class="st2" d="M145.3,178.8c-7.7,0-13.5,6.1-13.5,13.4c0,7.2,5.8,13.4,13.5,13.4c7.2,0,13.3-6.3,13.3-13.4
				C158.6,184.9,152.4,178.8,145.3,178.8z"/>
		</g>
	</g>
</g>
</svg>
