<svg width="187" height="232" viewBox="0 0 187 232" fill="none" xmlns="http://www.w3.org/2000/svg">
<path fill-rule="evenodd" clip-rule="evenodd" d="M93.2596 263C96.6306 263 99.7786 261.316 101.648 258.513C107.375 249.928 113.911 240.779 120.858 231.056C122.95 228.127 125.08 225.146 127.236 222.113C136.475 209.114 146.088 195.301 154.779 181.179C171.943 153.287 186.519 122.64 186.519 93.2088C186.519 41.795 144.702 0 93.2596 0C41.8178 0 0 41.795 0 93.2088C0 122.64 14.5764 153.287 31.7406 181.179C40.4311 195.301 50.0442 209.114 59.2837 222.113C61.4395 225.146 63.569 228.127 65.6613 231.056C72.608 240.779 79.1442 249.928 84.8708 258.513C86.7407 261.316 89.8886 263 93.2596 263ZM48.9164 170.621C32.0534 143.218 20.1642 116.68 20.1642 93.2088C20.1642 52.9253 52.9542 20.1533 93.2596 20.1533C133.565 20.1533 166.355 52.9253 166.355 93.2088C166.355 116.68 154.466 143.218 137.603 170.621C129.28 184.147 119.989 197.509 110.797 210.442C108.72 213.365 106.641 216.273 104.579 219.159C100.709 224.576 96.8972 229.912 93.2596 235.103C89.6221 229.912 85.8101 224.576 81.9397 219.159C79.8779 216.273 77.7996 213.364 75.7223 210.442C66.5303 197.509 57.2395 184.147 48.9164 170.621Z" fill="#A1D29F"/>
<path fill-rule="evenodd" clip-rule="evenodd" d="M45.3065 93.1102C45.3065 119.512 66.7285 140.934 93.1299 140.934C119.531 140.934 140.953 119.512 140.953 93.1102C140.953 66.7088 119.531 45.2868 93.1299 45.2868C66.7285 45.2868 45.3065 66.7088 45.3065 93.1102ZM93.1299 120.797C77.8494 120.797 65.4427 108.391 65.4427 93.1102C65.4427 77.8297 77.8494 65.423 93.1299 65.423C108.41 65.423 120.817 77.8297 120.817 93.1102C120.817 108.391 108.41 120.797 93.1299 120.797Z" fill="#A1D29F"/>
</svg>
