<svg width="58" height="58" viewBox="0 0 58 58" fill="none" xmlns="http://www.w3.org/2000/svg">
<path d="M17.4012 47H8.69375V18.9594H17.4012V47ZM13.0428 15.1344C10.2584 15.1344 8 12.8282 8 10.0438C8 8.70635 8.53129 7.42369 9.47701 6.47798C10.4227 5.53227 11.7054 5.00098 13.0428 5.00098C14.3802 5.00098 15.6629 5.53227 16.6086 6.47798C17.5543 7.42369 18.0856 8.70635 18.0856 10.0438C18.0856 12.8282 15.8262 15.1344 13.0428 15.1344ZM49.9906 47H41.3019V33.35C41.3019 30.0969 41.2362 25.925 36.7747 25.925C32.2475 25.925 31.5538 29.4594 31.5538 33.1157V47H22.8556V18.9594H31.2069V22.7844H31.3288C32.4913 20.5813 35.3309 18.2563 39.5675 18.2563C48.38 18.2563 50 24.0594 50 31.5969V47H49.9906Z" fill="#007BB5"/>
</svg>
