<svg width="279" height="217" viewBox="0 0 279 217" fill="none" xmlns="http://www.w3.org/2000/svg">
<path d="M254.164 47.8772H249.595V43.2943C249.595 35.6921 243.413 29.4918 235.833 29.4918H217.502C209.922 29.4918 203.74 35.6921 203.74 43.2943V47.8772H189.978V29.4918C189.978 14.2335 177.668 1.88672 162.454 1.88672H111.976C96.7631 1.88672 84.4527 14.2335 84.4527 29.4918V47.8772H75.2602V43.2943C75.2602 35.6921 69.0781 29.4918 61.4984 29.4918H43.1671C35.5874 29.4918 29.4053 35.6921 29.4053 43.2943V47.8772H24.8359C12.1492 47.8772 1.93535 58.1752 1.88159 70.8994V218.144C1.88159 230.869 12.1492 241.113 24.8359 241.166H254.218C266.905 241.166 277.119 230.869 277.172 218.144V70.8994C277.119 58.1752 266.851 47.9311 254.164 47.8772ZM212.879 43.2943C212.879 40.7602 214.921 38.7114 217.448 38.7114H235.779C238.306 38.7114 240.349 40.7602 240.349 43.2943V47.8772H212.879V43.2943ZM93.6452 29.4918C93.6452 19.3555 101.87 11.1064 111.976 11.1064H162.454C172.561 11.1064 180.786 19.3555 180.786 29.4918V47.8772H171.593V29.4918C171.593 24.4237 167.508 20.2721 162.401 20.2721H111.923C106.869 20.2721 102.73 24.3697 102.73 29.4918V47.8772H93.5377L93.6452 29.4918ZM162.454 29.4918V47.8772H111.976V29.4918H162.454ZM38.5978 43.2943C38.5978 40.7602 40.6406 38.7114 43.1671 38.7114H61.4984C64.0249 38.7114 66.0677 40.7602 66.0677 43.2943V47.8772H38.5978V43.2943ZM267.926 218.144C267.926 225.746 261.744 231.947 254.164 231.947H24.8359C17.2562 231.947 11.0741 225.746 11.0741 218.144V70.8994C11.0741 63.2972 17.2562 57.0968 24.8359 57.0968H254.218C261.798 57.0968 267.98 63.2972 267.98 70.8994L267.926 218.144Z" fill="#A1D29F" stroke="#A1D29F" stroke-width="7" stroke-miterlimit="10"/>
<path d="M189.978 121.527H157.885V89.3388C157.885 84.2707 153.8 80.1191 148.693 80.1191H121.169C116.116 80.1191 111.976 84.2168 111.976 89.3388V121.527H79.8834C74.8302 121.527 70.6909 125.624 70.6909 130.746V158.351C70.6909 163.42 74.7765 167.571 79.8834 167.571H111.976V199.759C111.976 204.827 116.062 208.979 121.169 208.979H148.693C153.746 208.979 157.885 204.881 157.885 199.759V167.571H189.978C195.031 167.571 199.171 163.473 199.171 158.351V130.746C199.117 125.624 195.031 121.527 189.978 121.527ZM189.978 158.298H157.885C152.832 158.298 148.693 162.395 148.693 167.517V199.705H121.169V167.517C121.169 162.449 117.083 158.298 111.976 158.298H79.8834V130.692H111.976C117.03 130.692 121.169 126.595 121.169 121.473V89.2849H148.693V121.473C148.693 126.541 152.778 130.692 157.885 130.692H189.978V158.298Z" fill="#A1D29F" stroke="#A1D29F" stroke-width="7" stroke-miterlimit="10"/>
</svg>
