<svg width="268" height="225" viewBox="0 0 268 225" fill="none" xmlns="http://www.w3.org/2000/svg">
<path d="M257.531 0H10.4688C4.71094 0 0 4.71094 0 10.4688C0 16.2266 4.71094 20.9375 10.4688 20.9375H20.9375V157.031C20.9375 174.357 35.018 188.438 52.3438 188.438H59.7242L42.2414 254.862C40.7758 260.462 44.1258 266.168 49.7266 267.634C50.6164 267.843 51.5062 268 52.3961 268C57.0547 268 61.2945 264.912 62.4984 260.201L81.3422 188.438H123.531V236.594C123.531 242.352 128.242 247.062 134 247.062C139.758 247.062 144.469 242.352 144.469 236.594V188.438H186.658L205.554 260.201C206.81 264.912 211.05 268 215.656 268C216.546 268 217.436 267.895 218.326 267.634C223.927 266.168 227.277 260.41 225.811 254.862L208.276 188.438H215.656C232.982 188.438 247.062 174.357 247.062 157.031V52.3438C247.062 46.5859 242.352 41.875 236.594 41.875C230.836 41.875 226.125 46.5859 226.125 52.3438V157.031C226.125 162.789 221.414 167.5 215.656 167.5H52.3438C46.5859 167.5 41.875 162.789 41.875 157.031V20.9375H257.531C263.289 20.9375 268 16.2266 268 10.4688C268 4.71094 263.289 0 257.531 0Z" fill="#C4C4C4"/>
<path d="M92.125 83.75C86.3672 83.75 81.6562 88.4609 81.6562 94.2188V125.625H73.2812C67.5234 125.625 62.8125 130.336 62.8125 136.094C62.8125 141.852 67.5234 146.562 73.2812 146.562H194.719C200.477 146.562 205.188 141.852 205.188 136.094C205.188 130.336 200.477 125.625 194.719 125.625H186.344V73.2812C186.344 67.5234 181.633 62.8125 175.875 62.8125C170.117 62.8125 165.406 67.5234 165.406 73.2812V125.625H144.469V52.3438C144.469 46.5859 139.758 41.875 134 41.875C128.242 41.875 123.531 46.5859 123.531 52.3438V125.625H102.594V94.2188C102.594 88.4609 97.8828 83.75 92.125 83.75Z" fill="#C4C4C4"/>
</svg>
