<svg width="281" height="242" viewBox="0 0 281 242" fill="none" xmlns="http://www.w3.org/2000/svg">
<g clip-path="url(#clip0_266_434)">
<path d="M266.802 121H262.135V23.2692C262.135 10.413 251.693 0 238.802 0H42.8018C29.9101 0 19.4684 10.413 19.4684 23.2692V93.0769H14.8018C7.04342 93.0769 0.801758 99.3014 0.801758 107.038V228.038C0.801758 235.775 7.04342 242 14.8018 242H192.135C194.702 242 196.802 239.906 196.802 237.346C196.802 224.49 186.36 214.077 173.468 214.077H159.468V186.154H215.468V228.038C215.468 235.775 221.71 242 229.468 242H266.802C274.56 242 280.802 235.775 280.802 228.038V134.962C280.802 127.225 274.56 121 266.802 121ZM103.468 228.038C103.468 230.598 101.368 232.692 98.8018 232.692H14.8018C12.2351 232.692 10.1351 230.598 10.1351 228.038V223.385H103.468V228.038ZM103.468 214.077H10.1351V107.038C10.1351 104.479 12.2351 102.385 14.8018 102.385H98.8018C101.368 102.385 103.468 104.479 103.468 107.038V214.077ZM173.468 223.385C179.418 223.385 184.668 227.108 186.652 232.692H111.927C112.452 231.18 112.743 229.609 112.802 228.038V223.385H173.468ZM112.802 214.077V186.154H122.135V214.077H112.802ZM131.468 214.077V186.154H150.135V214.077H131.468ZM215.468 176.846H112.802V148.923H215.468V176.846ZM215.468 134.962V139.615H112.802V107.038C112.802 104.828 112.218 102.675 111.227 100.698C111.285 100.639 111.402 100.639 111.46 100.523L157.66 54.45C159.468 52.5885 159.41 49.6798 157.543 47.8764C155.735 46.1313 152.877 46.1313 151.068 47.8764L104.868 93.9495C104.752 94.0659 104.693 94.2404 104.635 94.3567C102.827 93.5423 100.843 93.0769 98.8601 93.0769H28.8018V23.2692C28.8018 15.5322 35.0434 9.30769 42.8018 9.30769H238.802C246.56 9.30769 252.802 15.5322 252.802 23.2692V121H229.468C221.71 121 215.468 127.225 215.468 134.962ZM271.468 228.038C271.468 230.598 269.368 232.692 266.802 232.692H229.468C226.902 232.692 224.802 230.598 224.802 228.038V223.385H271.468V228.038ZM271.468 214.077H224.802V134.962C224.802 132.402 226.902 130.308 229.468 130.308H266.802C269.368 130.308 271.468 132.402 271.468 134.962V214.077Z" fill="#A1D29F"/>
<path d="M56.5684 149.737C54.7601 147.934 51.7851 147.934 49.9768 149.737L30.2018 169.458C28.3351 171.261 28.2768 174.17 30.0851 176.032C31.8934 177.893 34.8101 177.951 36.6768 176.148C36.7351 176.09 36.7351 176.09 36.7934 176.032L56.5684 156.311C57.3851 154.857 55.7518 152.122 56.5684 149.737Z" fill="#A1D29F"/>
<path d="M84.4518 149.737C82.6434 147.991 79.7851 147.991 77.9768 149.737L58.2018 169.457C56.3351 171.261 56.2768 174.169 58.0851 176.031C59.8934 177.892 62.8101 177.951 64.6768 176.147C64.7351 176.089 64.7351 176.089 64.7934 176.031L84.5684 156.31C86.3768 154.449 86.3184 151.482 84.4518 149.737Z" fill="#A1D29F"/>
<path d="M186.01 47.8773C184.202 46.1321 181.343 46.1321 179.535 47.8773L133.335 93.9503C131.468 95.7537 131.41 98.6623 133.218 100.524C135.027 102.385 137.943 102.444 139.81 100.64C139.868 100.582 139.868 100.582 139.927 100.524L186.127 54.4508C187.877 52.6474 187.818 49.6806 186.01 47.8773Z" fill="#A1D29F"/>
<path d="M257.935 162.303C256.127 160.558 253.268 160.558 251.46 162.303L238.218 175.508C236.352 177.312 236.293 180.22 238.102 182.082C239.91 183.943 242.827 184.002 244.693 182.198C244.752 182.14 244.752 182.14 244.81 182.082L257.993 168.935C259.802 167.073 259.802 164.106 257.935 162.303Z" fill="#A1D29F"/>
<path d="M140.918 158.23C138.293 158.23 136.193 160.325 136.252 162.884C136.31 165.444 138.352 167.538 140.918 167.538C143.485 167.538 145.585 165.444 145.585 162.884C145.585 160.325 143.485 158.23 140.918 158.23Z" fill="#A1D29F"/>
<path d="M150.135 18.6152H131.468C128.902 18.6152 126.802 20.7095 126.802 23.2691C126.802 25.8287 128.902 27.9229 131.468 27.9229H150.135C152.702 27.9229 154.802 25.8287 154.802 23.2691C154.802 20.7095 152.702 18.6152 150.135 18.6152Z" fill="#A1D29F"/>
</g>
<defs>
<clipPath id="clip0_266_434">
<rect width="280" height="242" fill="white" transform="translate(0.801758)"/>
</clipPath>
</defs>
</svg>
