<svg width="368" height="304" viewBox="0 0 368 304" fill="none" xmlns="http://www.w3.org/2000/svg">
<path d="M129.942 52.8577V136.384L89.5829 176.743C85.2882 181.038 85.2882 188.03 89.5829 192.325C91.7302 194.472 94.5383 195.574 97.3464 195.574C100.154 195.574 102.963 194.472 105.11 192.325L148.718 148.718C150.81 146.625 151.966 143.872 151.966 140.954V52.8577C151.966 46.8011 147.011 41.8457 140.954 41.8457C134.897 41.8457 129.942 46.8011 129.942 52.8577Z" fill="#98B1DB"/>
<path d="M270.896 23.6759C264.839 23.6759 259.884 28.6313 259.884 34.6879V65.2463C234.226 25.0524 189.517 0 140.954 0C103.293 0 67.8892 14.646 41.2951 41.2951C14.646 67.8892 0 103.293 0 140.954C0 178.615 14.646 214.019 41.2951 240.613C67.9443 267.262 103.293 281.908 140.954 281.908C141.064 281.908 141.119 281.908 141.229 281.908C141.339 281.908 141.395 281.908 141.505 281.908C145.469 281.908 149.488 281.743 153.398 281.413C159.454 280.917 163.969 275.576 163.474 269.52C162.978 263.463 157.637 258.948 151.581 259.444C148.277 259.719 144.863 259.884 141.505 259.884C141.395 259.884 141.339 259.884 141.229 259.884C141.119 259.884 141.064 259.884 140.954 259.884C75.3774 259.884 22.0241 206.531 22.0241 140.954C22.0241 75.3774 75.3774 22.0241 140.954 22.0241C183.24 22.0241 222.113 44.5437 243.311 80.3879H213.028C206.971 80.3879 202.016 85.3433 202.016 91.3999C202.016 97.4565 206.971 102.412 213.028 102.412H246.67C253.387 102.412 259.664 100.54 265.005 97.2363C265.335 97.016 265.665 96.8508 265.996 96.5755C275.576 90.2987 281.908 79.4518 281.908 67.1734V34.6879C281.908 28.6313 276.953 23.6759 270.896 23.6759Z" fill="#98B1DB"/>
<path d="M359.047 122.29C354.698 117.94 347.209 117.555 337.409 121.078C330.636 123.501 323.589 127.576 320.175 130.934L293.746 157.363C293.251 157.859 292.535 158.079 291.874 157.969L204.438 144.204C203.723 144.094 203.062 144.314 202.566 144.809L182.91 164.466C181.809 165.567 182.194 167.494 183.681 168.045L251.9 194.914C253.387 195.465 253.772 197.392 252.671 198.493L231.693 219.471C231.308 219.856 230.812 220.077 230.262 220.132L197.941 222.004C197.391 222.004 196.895 222.279 196.51 222.664L183.02 236.154C181.974 237.2 182.249 239.017 183.626 239.678L214.955 254.765C216.331 255.425 225.967 265.116 226.628 266.437L241.769 297.712C242.43 299.088 244.247 299.363 245.293 298.317L258.783 284.827C259.168 284.442 259.389 283.946 259.444 283.396L261.316 251.076C261.316 250.525 261.591 250.029 261.976 249.644L283.34 228.281C284.441 227.179 286.368 227.565 286.919 229.051L313.678 297.381C314.228 298.868 316.156 299.253 317.257 298.152L336.913 278.496C337.409 278 337.629 277.284 337.519 276.623L323.754 189.188C323.644 188.472 323.864 187.811 324.36 187.316L350.403 161.272C353.817 157.859 357.836 150.811 360.259 144.039C363.838 134.128 363.397 126.64 359.047 122.29ZM350.238 140.35C348.201 146.021 344.842 151.692 342.86 153.619L311.255 185.003L313.788 200.035C313.843 200.751 313.435 197.973 312.94 195L326.066 272.824C326.177 273.54 325.956 274.201 325.461 274.696L321.221 278.936C320.12 280.037 318.193 279.652 317.642 278.165L294.297 219.196C294.021 218.535 293.03 217.709 293.361 217.158C291.323 212.478 285.212 211.267 281.633 214.901L251.46 245.019C251.074 245.404 250.854 245.9 250.799 246.451L248.927 278.771C248.927 279.321 248.652 279.817 248.266 280.202C247.22 281.249 245.403 280.973 244.743 279.597L233.896 257.132C233.51 256.306 225.086 247.882 224.26 247.497L201.796 236.65C200.419 235.989 200.144 234.172 201.19 233.126C201.575 232.741 202.071 232.52 202.621 232.465L234.942 230.593C235.492 230.538 235.988 230.318 236.373 229.932L264.619 201.687C269.024 197.282 267.648 189.904 261.976 187.371L202.732 164.191C201.245 163.585 200.86 161.713 201.961 160.612L206.2 156.372C206.696 155.877 207.412 155.656 208.072 155.766L275.301 166.338L297.105 169.256L327.718 138.643C329.7 136.716 335.316 133.302 340.988 131.265C347.485 128.952 350.899 129.448 351.449 129.998C352.11 130.439 352.55 133.852 350.238 140.35Z" fill="#98B1DB" stroke="#98B1DB" stroke-width="10" stroke-miterlimit="10"/>
</svg>
