<svg width="92" height="35" viewBox="0 0 92 35" fill="none" xmlns="http://www.w3.org/2000/svg">
<g clip-path="url(#clip0_430_666)">
<path d="M87.3642 15.4884C79.2243 11.6483 66.161 11.6483 66.161 11.6483L54.9126 4.37032C51.9118 2.43197 48.4259 1.38965 44.8501 1.38965H32.0204C28.8938 1.38965 25.8032 2.13939 23.0001 3.54743L17.6813 6.25381L16.1899 7.02183C13.9978 8.1373 11.6438 8.86875 9.2001 9.17962L5.67822 9.61849L3.88135 9.83792C2.44385 10.0208 1.36572 11.2643 1.36572 12.7454V21.5412C1.36572 23.4795 2.62354 25.1984 4.43838 25.747L11.6259 27.9414L13.1712 28.4168L15.7587 29.2031H80.9134L81.4884 29.0203L83.0696 28.5448L89.161 26.7162L90.6704 26.259V20.7549C90.6524 18.5239 89.3767 16.4393 87.3642 15.4884ZM89.2868 20.3343H86.3399C85.6032 20.3343 84.9923 19.7125 84.9923 18.9628C84.9923 18.2131 85.6032 17.5913 86.3399 17.5913H88.029C88.011 17.5913 89.2509 18.5788 89.2868 20.3343ZM4.079 17.4085V14.6655H4.24072C4.97744 14.6655 5.58838 15.2872 5.58838 16.037C5.58838 16.805 4.97744 17.4085 4.24072 17.4085H4.079Z" fill="#262626"/>
<path d="M87.436 24.8324C86.7712 24.8324 86.1962 24.3569 86.0345 23.6986C84.8306 18.3225 80.2126 14.5738 74.804 14.5738C69.3774 14.5738 64.7595 18.3225 63.5735 23.6986C63.4298 24.3752 62.8548 24.7227 62.172 24.7227H31.2657C30.6009 24.7227 30.0259 24.3569 29.8642 23.6986C28.6602 18.3225 24.0423 14.5738 18.6337 14.5738C14.2313 14.5738 10.2782 17.079 8.31963 21.102C8.06807 21.5957 7.58291 21.9249 7.04385 21.9249C6.9001 21.9249 6.77432 21.9066 6.63057 21.87C6.05557 21.6871 5.67822 21.1751 5.67822 20.5534V9.61816L3.88135 9.8376C2.44385 10.0205 1.36572 11.2639 1.36572 12.7451V21.5408C1.36572 23.4792 2.62354 25.1981 4.43838 25.7467L11.6259 27.9411L13.1712 28.4165L15.7587 29.2028H87.7774C89.3766 29.2028 90.6524 27.8862 90.6524 26.277V24.8141H87.436V24.8324ZM4.079 17.4081V14.6652H4.24072C4.97744 14.6652 5.58838 15.2869 5.58838 16.0367C5.58838 16.8047 4.97744 17.4081 4.24072 17.4081H4.079Z" fill="#161616"/>
<path d="M18.6337 33.6285C22.6132 33.6285 25.8392 30.3455 25.8392 26.2957C25.8392 22.2459 22.6132 18.9629 18.6337 18.9629C14.6542 18.9629 11.4282 22.2459 11.4282 26.2957C11.4282 30.3455 14.6542 33.6285 18.6337 33.6285Z" fill="#AAAAAA"/>
<path d="M74.8041 33.6285C78.7836 33.6285 82.0096 30.3455 82.0096 26.2957C82.0096 22.2459 78.7836 18.9629 74.8041 18.9629C70.8246 18.9629 67.5986 22.2459 67.5986 26.2957C67.5986 30.3455 70.8246 33.6285 74.8041 33.6285Z" fill="#AAAAAA"/>
<path d="M54.9125 4.35176C51.9118 2.41341 48.4258 1.37109 44.868 1.37109H32.0383C28.9118 1.37109 25.8211 2.12083 23.018 3.52888L17.6633 6.25354L20.8438 9.49022L66.161 11.6297L54.9125 4.35176Z" fill="#A0BAD8"/>
<path d="M25.9291 11.6299H58.1111L52.5947 8.06411C50.2767 6.56463 47.5994 5.77832 44.8681 5.77832H32.0384C29.5947 5.77832 27.133 6.36348 24.9587 7.47895L20.9158 9.5453C22.2455 10.8802 24.0423 11.6299 25.9291 11.6299Z" fill="#889FBF"/>
<path d="M17.6093 28.6914C17.9507 28.6914 18.2921 28.5634 18.5616 28.2891L20.5921 26.2228C21.1132 25.6925 21.1132 24.8147 20.5921 24.2844C20.071 23.7541 19.2085 23.7541 18.6874 24.2844L16.6569 26.3508C16.1358 26.8811 16.1358 27.7588 16.6569 28.2891C16.9265 28.5634 17.2679 28.6914 17.6093 28.6914Z" fill="black"/>
<path d="M74.8759 28.2891C75.1454 28.5634 75.4868 28.6914 75.8282 28.6914C76.1696 28.6914 76.511 28.5634 76.7806 28.2891C77.3017 27.7588 77.3017 26.8811 76.7806 26.3508L74.7501 24.2844C74.229 23.7541 73.3665 23.7541 72.8454 24.2844C72.3243 24.8147 72.3243 25.6925 72.8454 26.2228L74.8759 28.2891Z" fill="black"/>
<path d="M87.9391 14.245C80.3203 10.6426 68.8742 10.2952 66.5562 10.2586L55.6312 3.18182C52.4148 1.09718 48.6953 0 44.868 0H32.0383C28.7141 0 25.3898 0.804598 22.425 2.30408L15.5969 5.77847C13.5305 6.82079 11.3383 7.51567 9.05625 7.78997L3.7375 8.46656C1.59922 8.75914 0 10.5878 0 12.7638V21.523C0 24.0831 1.68906 26.3689 4.11484 27.0637L10.4758 28.9107C11.5719 32.4399 14.8062 35 18.6336 35C21.8141 35 24.5812 33.2262 26.0547 30.6113H67.3828C68.8562 33.2262 71.6414 35 74.8039 35C78.5055 35 81.668 32.5862 82.8539 29.2398C82.9258 29.0204 82.9977 28.8192 83.0516 28.5998C83.2492 27.8683 83.357 27.1003 83.357 26.314C83.357 21.523 79.5297 17.6097 74.8039 17.6097C70.0781 17.6097 66.2508 21.5047 66.2508 26.314C66.2508 26.8443 66.3047 27.3746 66.3945 27.8683H27.043C27.1328 27.3563 27.1867 26.8443 27.1867 26.314C27.1867 21.523 23.3594 17.6097 18.6336 17.6097C14.0336 17.6097 10.2781 21.3218 10.0984 25.9666L4.85156 24.4122C3.57578 24.0465 2.69531 22.8396 2.69531 21.5047V17.4086H4.07891V14.6656H2.69531V12.7638C2.69531 11.9775 3.27031 11.3192 4.04297 11.2095L5.67812 11.0084L9.37969 10.5329C11.9672 10.2038 14.4648 9.43574 16.8008 8.24713L17.4117 7.93626L19.9094 10.4598C21.5266 12.1055 23.6648 13.0016 25.9469 13.0016H28.732C29.4687 13.0016 30.0797 12.3798 30.0797 11.6301C30.0797 10.8621 29.4687 10.2586 28.732 10.2586H25.9469C25.7133 10.2586 25.4797 10.2403 25.2461 10.222L25.3539 9.71003L25.9469 7.02194L26.7195 3.52926C28.4445 3.01724 30.2414 2.74295 32.0203 2.74295H38.8844V10.2586H34.4641C33.7273 10.2586 33.1164 10.8804 33.1164 11.6301C33.1164 12.3798 33.7273 13.0016 34.4641 13.0016H66.143C66.2687 13.0016 79.0086 13.0564 86.7711 16.732C87.2203 16.9514 87.6336 17.244 87.975 17.5914C87.975 17.5914 89.2148 18.5789 89.2508 20.3344C89.2687 20.4807 89.2687 20.627 89.2687 20.7915V25.6557C89.2687 26.0763 89.2148 26.442 89.107 26.7529C88.8734 27.4478 88.3883 27.8501 87.7414 27.8501C87.0047 27.8501 86.3937 28.4718 86.3937 29.2215C86.3937 29.9713 87.0047 30.593 87.7414 30.593C88.9273 30.593 90.0234 30.0993 90.7961 29.185C91.5687 28.2889 91.9641 27.0637 91.9641 25.6557V20.7915C92 17.9754 90.4008 15.3971 87.9391 14.245ZM22.8562 8.53971L22.6945 9.25287C22.5148 9.14316 22.3531 9.01515 22.1914 8.86886C22.0477 8.75914 21.9219 8.63114 21.7961 8.50313L19.9453 6.63793L23.6109 4.77273L23.6828 4.73615L22.8562 8.53971ZM18.6336 20.3344C21.868 20.3344 24.4914 23.0042 24.4914 26.2957C24.4914 27.3563 24.2219 28.3621 23.7367 29.2215C22.7305 31.0319 20.8258 32.2388 18.6336 32.2388C16.1539 32.2388 14.0156 30.6479 13.1711 28.4169C12.9195 27.7586 12.7758 27.0272 12.7758 26.2774C12.7758 23.0042 15.3992 20.3344 18.6336 20.3344ZM74.8039 20.3344C78.0383 20.3344 80.6617 23.0042 80.6617 26.2957C80.6617 27.3563 80.3922 28.3621 79.907 29.2215C78.9008 31.0319 76.9961 32.2388 74.8219 32.2388C72.6477 32.2388 70.725 31.0136 69.7187 29.2215C69.2336 28.3621 68.9641 27.3563 68.9641 26.2957C68.9461 23.0042 71.5875 20.3344 74.8039 20.3344ZM41.5797 2.74295H44.868C48.1742 2.74295 51.4086 3.69384 54.1937 5.50418L61.525 10.2586H41.5797V2.74295Z" fill="black"/>
<path d="M31.5891 21.9805C30.8524 21.9805 30.2415 22.6022 30.2415 23.3519C30.2415 24.1017 30.8524 24.7234 31.5891 24.7234H61.8305C62.5672 24.7234 63.1782 24.1017 63.1782 23.3519C63.1782 22.6022 62.5672 21.9805 61.8305 21.9805H31.5891Z" fill="black"/>
<path d="M4.22266 14.666H4.06094H2.69531V17.409H4.07891H4.24062C4.97734 17.409 5.58828 16.8055 5.58828 16.0375C5.57031 15.2695 4.97734 14.666 4.22266 14.666Z" fill="#B24646"/>
<path d="M89.2867 20.3347H86.3398C85.6031 20.3347 84.9922 19.713 84.9922 18.9633C84.9922 18.2135 85.6031 17.5918 86.3398 17.5918H88.0289C88.0109 17.5918 89.2508 18.5793 89.2867 20.3347Z" fill="white"/>
</g>
<defs>
<clipPath id="clip0_430_666">
<rect width="92" height="35" fill="white"/>
</clipPath>
</defs>
</svg>
