<svg width="1165" height="220" viewBox="0 0 1165 220" fill="none" xmlns="http://www.w3.org/2000/svg">
<path d="M762.493 35.5527H696.086V217.613H762.493V35.5527Z" stroke="white" stroke-width="2" stroke-miterlimit="10"/>
<path d="M758.671 23.8613H700.385V35.5533H758.671V23.8613Z" stroke="white" stroke-width="2" stroke-miterlimit="10"/>
<path d="M748.877 11.9307H710.179V23.6226H748.877V11.9307Z" stroke="white" stroke-width="2" stroke-miterlimit="10"/>
<path d="M863.538 66.0947H791.159V217.613H863.538V66.0947Z" stroke="white" stroke-width="2" stroke-miterlimit="10"/>
<path d="M811.463 217.613V83.5131C811.463 73.9686 818.629 66.333 827.468 66.333C836.306 66.333 843.234 73.9686 843.234 83.5131V217.851" stroke="white" stroke-width="2" stroke-miterlimit="10"/>
<path d="M811.463 173.708C811.463 164.164 818.629 156.528 827.468 156.528C836.306 156.528 843.472 164.164 843.472 173.708" stroke="white" stroke-width="2" stroke-miterlimit="10"/>
<path d="M791.159 83.5137H863.538" stroke="white" stroke-width="2" stroke-miterlimit="10"/>
<path d="M559.448 74.4465C579.37 74.4465 595.519 58.3151 595.519 38.4161C595.519 18.5171 579.37 2.38574 559.448 2.38574C539.527 2.38574 523.378 18.5171 523.378 38.4161C523.378 58.3151 539.527 74.4465 559.448 74.4465Z" stroke="white" stroke-width="2" stroke-miterlimit="10"/>
<path d="M543.921 70.6289V217.614H574.737V70.6289" stroke="white" stroke-width="2" stroke-miterlimit="10"/>
<path d="M553.238 74.9238V217.614" stroke="white" stroke-width="2" stroke-miterlimit="10"/>
<path d="M565.42 74.9238V217.614" stroke="white" stroke-width="2" stroke-miterlimit="10"/>
<path d="M595.28 23.8604H523.139V56.3115H595.28V23.8604Z" stroke="white" stroke-width="2" stroke-miterlimit="10"/>
<path d="M300.506 216.898V130.52C300.506 124.317 305.523 119.306 311.973 119.306C318.422 119.306 323.439 124.317 323.439 130.52V216.898" stroke="white" stroke-width="2" stroke-miterlimit="10"/>
<path d="M304.328 122.169L216.183 216.898" stroke="white" stroke-width="2" stroke-miterlimit="10"/>
<path d="M319.139 122.169L230.993 216.898" stroke="white" stroke-width="2" stroke-miterlimit="10"/>
<path d="M322.961 136.247L247.237 217.375" stroke="white" stroke-width="2" stroke-miterlimit="10"/>
<path d="M322.961 154.382L264.436 217.375" stroke="white" stroke-width="2" stroke-miterlimit="10"/>
<path d="M322.961 172.516L280.919 217.613" stroke="white" stroke-width="2" stroke-miterlimit="10"/>
<path d="M322.961 192.798L299.551 217.613" stroke="white" stroke-width="2" stroke-miterlimit="10"/>
<path d="M319.378 121.931L407.523 216.421" stroke="white" stroke-width="2" stroke-miterlimit="10"/>
<path d="M304.328 121.931L392.474 216.421" stroke="white" stroke-width="2" stroke-miterlimit="10"/>
<path d="M300.745 135.771L376.469 217.137" stroke="white" stroke-width="2" stroke-miterlimit="10"/>
<path d="M300.745 154.144L359.27 216.898" stroke="white" stroke-width="2" stroke-miterlimit="10"/>
<path d="M300.745 172.039L342.788 217.375" stroke="white" stroke-width="2" stroke-miterlimit="10"/>
<path d="M300.745 192.321L323.916 217.376" stroke="white" stroke-width="2" stroke-miterlimit="10"/>
<path d="M638.994 52.2559L606.268 89.4793V217.614H671.959V89.4793L638.994 52.2559Z" stroke="white" stroke-width="2" stroke-miterlimit="10"/>
<path d="M606.268 89.4795L671.959 217.614" stroke="white" stroke-width="2" stroke-miterlimit="10"/>
<path d="M492.085 95.4443H455.298V116.919H492.085V95.4443Z" stroke="white" stroke-width="2" stroke-miterlimit="10"/>
<path d="M440.488 217.614V96.8762C440.488 81.1279 453.148 68.4814 468.914 68.4814V95.4446" stroke="white" stroke-width="2" stroke-miterlimit="10"/>
<path d="M440.488 96.876H433.561V217.614H440.488V96.876Z" stroke="white" stroke-width="2" stroke-miterlimit="10"/>
<path d="M506.896 217.614V96.8762C506.896 81.1279 494.235 68.4814 478.469 68.4814V95.4446" stroke="white" stroke-width="2" stroke-miterlimit="10"/>
<path d="M506.791 217.836L513.719 217.836L513.719 97.0984L506.791 97.0984L506.791 217.836Z" stroke="white" stroke-width="2" stroke-miterlimit="10"/>
<path d="M958.611 47.0059H896.264V217.852H958.611V47.0059Z" stroke="white" stroke-width="2" stroke-miterlimit="10"/>
<path d="M946.428 39.3711H908.686V47.0067H946.428V39.3711Z" stroke="white" stroke-width="2" stroke-miterlimit="10"/>
<path d="M939.978 31.7354H914.896V39.3709H939.978V31.7354Z" stroke="white" stroke-width="2" stroke-miterlimit="10"/>
<path d="M927.557 15.748L924.451 19.3272V31.4964H930.662V19.3272L927.557 15.748Z" stroke="white" stroke-width="2" stroke-miterlimit="10"/>
<path d="M899.608 31.2578L896.264 34.837V47.0062H902.714V34.837L899.608 31.2578Z" stroke="white" stroke-width="2" stroke-miterlimit="10"/>
<path d="M955.505 31.2578L952.4 34.837V47.0062H958.611V34.837L955.505 31.2578Z" stroke="white" stroke-width="2" stroke-miterlimit="10"/>
<path d="M958.611 217.613L896.264 47.0059" stroke="white" stroke-width="2" stroke-miterlimit="10"/>
<path d="M896.264 217.613L958.611 47.0059" stroke="white" stroke-width="2" stroke-miterlimit="10"/>
<path d="M0 217.614H1165" stroke="#3DB54A" stroke-width="2" stroke-miterlimit="10"/>
</svg>
