<svg width="357" height="82" viewBox="0 0 357 82" fill="none" xmlns="http://www.w3.org/2000/svg">
<path d="M125.017 19.6248L122.068 12.2076L119.135 19.5755C119.898 19.5515 120.67 19.5376 121.459 19.5376C122.676 19.5376 123.861 19.5673 125.017 19.6248ZM149.5 27.145C143.178 24.3959 136.069 22.36 127.715 21.6727L130.259 27.8506H128.29L125.779 21.5394C124.376 21.4617 122.937 21.4182 121.462 21.4182C120.416 21.4182 119.389 21.4396 118.378 21.4807L115.843 27.8506H113.873L116.452 21.583C107.591 22.1642 100.044 24.2639 93.415 27.1431V26.754C97.8393 24.2847 102.214 22.4415 106.937 21.2375V17.4455L101.618 9.27974H103.595L107.815 16.0646L112.038 9.27974H114.012L108.694 17.4455L108.693 20.8219C111.396 20.235 114.221 19.8472 117.243 19.6633L121.627 9.00938H122.505L126.924 19.748C129.89 19.9849 132.67 20.4214 135.335 21.06V10.7004H130.989V9.27974H141.478V10.7004H137.134V21.5268C141.42 22.7238 145.44 24.4648 149.5 26.7578V27.145ZM156.528 9.27974H146.04V10.7004H150.385V23.5046H152.184V10.7004H156.528V9.27974ZM96.317 23.5046L94.5186 23.5065V16.4872H86.7628V23.5046H84.9644V9.27974H86.7628V15.0679H94.5186V9.27974H96.317V23.5046Z" fill="#4B77A9"/>
<path d="M161.273 10.3878C161.187 10.3373 161.048 10.3126 160.857 10.3126H160.564V11.0245H160.874C161.022 11.0245 161.129 11.0087 161.203 10.9803C161.336 10.9241 161.406 10.823 161.406 10.674C161.406 10.5318 161.36 10.4371 161.273 10.3878ZM160.903 10.0802C161.143 10.0802 161.322 10.1035 161.436 10.149C161.637 10.2337 161.738 10.4004 161.738 10.6455C161.738 10.8192 161.675 10.9487 161.548 11.0321C161.48 11.0757 161.388 11.1054 161.265 11.125C161.421 11.149 161.531 11.2128 161.603 11.3164C161.671 11.42 161.707 11.5217 161.707 11.6208V11.763C161.707 11.8091 161.709 11.8577 161.712 11.9076C161.715 11.9594 161.72 11.9929 161.729 12.0112L161.741 12.0352H161.421C161.419 12.0283 161.417 12.0226 161.415 12.0163C161.413 12.0093 161.413 12.0005 161.411 11.9929L161.403 11.9297V11.7743C161.403 11.5495 161.339 11.4004 161.218 11.3277C161.143 11.2867 161.018 11.2646 160.835 11.2646H160.564V12.0352H160.218V10.0802H160.903ZM159.855 9.9791C159.557 10.2791 159.409 10.6417 159.409 11.065C159.409 11.4913 159.556 11.8552 159.853 12.1559C160.15 12.4578 160.511 12.6069 160.936 12.6069C161.361 12.6069 161.722 12.4578 162.022 12.1559C162.318 11.8552 162.467 11.4913 162.467 11.065C162.467 10.6417 162.318 10.2791 162.022 9.9791C161.72 9.68031 161.359 9.52997 160.936 9.52997C160.514 9.52997 160.155 9.68031 159.855 9.9791ZM162.196 12.3252C161.85 12.6758 161.43 12.8501 160.936 12.8501C160.443 12.8501 160.024 12.6758 159.676 12.3252C159.332 11.9758 159.161 11.5564 159.161 11.0631C159.161 10.5735 159.334 10.1541 159.682 9.80665C160.029 9.45986 160.447 9.28614 160.936 9.28614C161.43 9.28614 161.85 9.45986 162.196 9.80665C162.545 10.1509 162.719 10.5716 162.719 11.0631C162.719 11.5545 162.545 11.9752 162.196 12.3252Z" fill="#4B77A9"/>
<g clip-path="url(#clip0_6872_884)">
<path d="M181.212 54.8619C181.212 54.1833 181.494 53.7154 182.057 53.458C182.645 53.2006 183.279 53.0602 183.96 53.0368C185.181 52.99 186.145 53.2591 186.849 53.8441C187.577 54.429 187.941 54.7215 187.941 54.7215H187.977V53.7388C187.977 53.7388 187.554 53.5984 186.708 53.3176C185.886 53.0134 184.97 52.8613 183.96 52.8613C183.349 52.8613 182.621 53.0251 181.775 53.3527C180.953 53.6803 180.542 54.3588 180.542 55.3884C180.542 56.418 180.906 57.0731 181.635 57.3539C182.363 57.6113 183.161 57.7751 184.03 57.8453C184.923 57.8921 185.745 57.9623 186.497 58.0559C187.225 58.1495 187.589 58.5473 187.589 59.2492C187.589 60.0214 187.202 60.5128 186.426 60.7234C185.675 60.9106 185.146 61.0159 184.841 61.0393C183.431 61.0393 182.41 60.7351 181.775 60.1267C181.165 59.5183 180.859 59.2141 180.859 59.2141C180.836 59.2141 180.812 59.2141 180.789 59.2141C180.789 59.2141 180.777 59.2141 180.754 59.2141L180.824 60.4777C180.824 60.4777 181.282 60.6064 182.198 60.8638C183.114 61.0978 183.96 61.2148 184.735 61.2148C186.262 61.2148 187.272 60.8521 187.765 60.1267C188.259 59.4013 188.505 58.8983 188.505 58.6175C188.482 57.5411 188.094 56.8625 187.342 56.5817C186.591 56.301 185.757 56.1372 184.841 56.0904C183.925 56.0436 183.091 55.9851 182.339 55.9149C181.588 55.8447 181.212 55.4937 181.212 54.8619ZM178.781 51.5978L176.772 50.8958C176.561 50.8022 176.338 50.7905 176.103 50.8607C175.891 50.9308 175.727 51.0712 175.609 51.2818L178.287 52.1944C178.358 52.0774 178.428 51.9721 178.499 51.8785C178.593 51.7849 178.687 51.6914 178.781 51.5978ZM176.244 57.0731L175.116 56.687L173.848 56.2308C173.848 56.3712 173.953 56.5466 174.165 56.7572C174.4 56.9678 174.517 57.0731 174.517 57.0731C174.517 57.0731 174.4 57.1784 174.165 57.389C173.953 57.5996 173.848 57.7751 173.848 57.9155L175.116 57.4592L176.244 57.0731ZM180.789 50.1587L178.358 49.3164C178.123 49.2462 177.876 49.2344 177.618 49.2812C177.383 49.328 177.171 49.4333 176.984 49.5971L179.943 50.615C180.084 50.5448 180.225 50.4746 180.366 50.4044C180.507 50.3108 180.648 50.2289 180.789 50.1587ZM177.547 53.2825L175.645 52.6156C175.433 52.5454 175.234 52.5571 175.046 52.6507C174.858 52.7209 174.717 52.8496 174.623 53.0368L177.195 53.9494C177.242 53.8324 177.289 53.7154 177.336 53.5984C177.406 53.4814 177.477 53.3761 177.547 53.2825ZM176.772 55.1427L174.905 54.5109C174.693 54.4407 174.505 54.4641 174.341 54.5811C174.177 54.6747 174.071 54.8151 174.024 55.0023L176.596 55.8798C176.643 55.7628 176.666 55.6458 176.666 55.5288C176.69 55.3884 176.725 55.2597 176.772 55.1427ZM184.348 49.2812C184.629 49.2812 184.9 49.3046 185.158 49.3514C185.44 49.3748 185.71 49.4099 185.968 49.4567L189.844 48.0879C189.586 47.9241 189.304 47.8305 188.999 47.8071C188.693 47.7837 188.4 47.8305 188.118 47.9475L184.348 49.2461L180.613 47.9826C180.331 47.8656 180.037 47.8305 179.732 47.8773C179.426 47.9007 179.145 47.9943 178.886 48.1581L182.727 49.4918C182.985 49.4216 183.244 49.3748 183.502 49.3514C183.784 49.3046 184.066 49.2812 184.348 49.2812ZM191.5 53.9143L194.107 53.0017C194.014 52.8145 193.861 52.6858 193.649 52.6156C193.462 52.522 193.274 52.5103 193.086 52.5805L191.183 53.2474C191.23 53.3643 191.277 53.4813 191.324 53.5983C191.394 53.6919 191.453 53.7973 191.5 53.9143ZM190.408 52.1593L193.086 51.2468C192.968 51.0596 192.792 50.9309 192.557 50.8607C192.346 50.7905 192.134 50.7905 191.923 50.8607L189.879 51.5627C189.973 51.6563 190.067 51.7616 190.161 51.8785C190.255 51.9721 190.337 52.0657 190.408 52.1593ZM188.752 50.615L191.747 49.5971C191.559 49.4333 191.336 49.328 191.077 49.2812C190.842 49.2345 190.608 49.2462 190.373 49.3164L187.906 50.1587C188.047 50.2055 188.188 50.2757 188.329 50.3693C188.47 50.4395 188.611 50.5214 188.752 50.615ZM187.061 46.9297C187.014 46.9297 186.955 46.9179 186.884 46.8945C186.814 46.8711 186.755 46.8594 186.708 46.8594C186.379 46.7658 186.039 46.7307 185.686 46.7541C185.334 46.7775 185.005 46.8477 184.7 46.9647L184.348 47.1051L183.995 46.9998C183.643 46.8828 183.279 46.8126 182.903 46.7892C182.551 46.7658 182.187 46.8009 181.811 46.8945C181.787 46.9179 181.752 46.9413 181.705 46.9647C181.681 46.9647 181.646 46.9647 181.599 46.9647L184.312 47.9123L187.061 46.9297ZM192.099 55.8447L194.671 54.9321C194.624 54.7449 194.519 54.6045 194.354 54.5109C194.19 54.3939 194.002 54.3705 193.79 54.4408L191.923 55.1076C191.97 55.2246 192.005 55.3533 192.029 55.4937C192.052 55.6107 192.076 55.7277 192.099 55.8447ZM178.252 61.9869L175.574 62.9346C175.692 63.1218 175.856 63.2505 176.067 63.3207C176.302 63.3675 176.526 63.3675 176.737 63.3207L178.745 62.5836C178.651 62.49 178.557 62.3964 178.463 62.3028C178.393 62.2092 178.322 62.1039 178.252 61.9869ZM191.183 60.934L193.086 61.6008C193.274 61.671 193.462 61.671 193.649 61.6008C193.861 61.5072 194.014 61.3668 194.107 61.1797L191.535 60.3022C191.488 60.3958 191.43 60.5011 191.359 60.6181C191.312 60.7351 191.254 60.8404 191.183 60.934ZM187.941 64.0928L190.373 64.9001C190.608 64.9937 190.842 65.0171 191.077 64.9703C191.336 64.9235 191.559 64.8065 191.747 64.6193L188.787 63.6015C188.646 63.6717 188.505 63.7536 188.364 63.8472C188.223 63.9174 188.082 63.9992 187.941 64.0928ZM189.95 62.6187L191.958 63.3207C192.17 63.4143 192.381 63.426 192.592 63.3558C192.827 63.2856 193.003 63.1569 193.121 62.9697L190.443 62.022C190.373 62.139 190.29 62.2443 190.196 62.3379C190.103 62.4315 190.02 62.5251 189.95 62.6187ZM194.107 57.0731C194.107 57.0731 194.237 56.9678 194.495 56.7572C194.753 56.5233 194.883 56.3478 194.883 56.2308L193.473 56.687L192.346 57.0731L193.473 57.4592L194.883 57.9506C194.883 57.8102 194.753 57.6347 194.495 57.4241C194.237 57.1901 194.107 57.0731 194.107 57.0731ZM191.958 59.0737L193.826 59.7055C194.037 59.7757 194.225 59.764 194.389 59.6704C194.554 59.5768 194.66 59.4247 194.706 59.2141L192.134 58.3367C192.087 58.4536 192.052 58.5823 192.029 58.7227C192.029 58.8397 192.005 58.9567 191.958 59.0737ZM176.596 58.3016L174.024 59.2141C174.047 59.4013 174.141 59.5417 174.306 59.6353C174.494 59.7289 174.693 59.7406 174.905 59.6705L176.772 59.0387C176.725 58.9217 176.69 58.8047 176.666 58.6877C176.643 58.5473 176.619 58.4186 176.596 58.3016ZM179.873 63.5313L176.913 64.5842C177.101 64.7714 177.312 64.8884 177.547 64.9352C177.806 64.982 178.064 64.9586 178.322 64.865L180.718 64.0577C180.577 63.9641 180.437 63.8822 180.296 63.812C180.178 63.7185 180.037 63.6249 179.873 63.5313ZM177.195 60.232L174.623 61.1095C174.717 61.3201 174.858 61.4721 175.046 61.5657C175.234 61.6359 175.433 61.6359 175.645 61.5657L177.547 60.934C177.453 60.817 177.383 60.7 177.336 60.583C177.289 60.466 177.242 60.349 177.195 60.232ZM184.348 64.9352C184.042 64.9352 183.749 64.9235 183.467 64.9001C183.185 64.8533 182.903 64.8065 182.621 64.7597L178.816 66.0584C179.074 66.2222 179.344 66.3275 179.626 66.3743C179.932 66.3976 180.237 66.3625 180.542 66.269L184.312 64.9352L188.118 66.269C188.4 66.3626 188.693 66.3976 188.999 66.3743C189.304 66.3509 189.586 66.2573 189.844 66.0935L186.039 64.7597C185.757 64.8065 185.475 64.8533 185.193 64.9001C184.935 64.9235 184.653 64.9352 184.348 64.9352ZM181.529 67.2166C181.952 67.3336 182.363 67.3921 182.762 67.3921C183.185 67.3687 183.596 67.2868 183.995 67.1464L184.312 67.0762L184.594 67.1464C184.994 67.2868 185.405 67.3687 185.827 67.3921C186.274 67.4155 186.708 67.3687 187.131 67.2517L184.312 66.2689L181.529 67.2166ZM223 72.8324V81.7474L216.164 74.7277V81.5368H215.213V72.6569L222.048 79.6766V72.8324H223ZM207.708 72.692C206.369 72.692 205.253 73.1249 204.361 73.9906C203.492 74.8564 203.057 75.921 203.057 77.1846C203.057 78.4715 203.492 79.5479 204.361 80.4137C205.253 81.2794 206.369 81.7123 207.708 81.7123C209.047 81.7123 210.163 81.2794 211.055 80.4137C211.948 79.5479 212.394 78.4715 212.394 77.1846C212.394 75.921 211.948 74.8564 211.055 73.9906C210.163 73.1249 209.047 72.692 207.708 72.692ZM207.708 80.9401C206.627 80.9401 205.723 80.5775 204.995 79.8521C204.267 79.1501 203.903 78.261 203.903 77.1846C203.903 76.1316 204.267 75.2425 204.995 74.5171C205.723 73.7917 206.627 73.4291 207.708 73.4291C208.789 73.4291 209.693 73.7917 210.421 74.5171C211.149 75.2425 211.513 76.1316 211.513 77.1846C211.513 78.261 211.149 79.1501 210.421 79.8521C209.693 80.5775 208.789 80.9401 207.708 80.9401ZM194.883 72.8324H201.154V73.6045H198.512V81.5719H197.56V73.6045H194.918V72.8324H194.883ZM153.2 79.3958C153.2 80.0978 152.93 80.6594 152.39 81.0805C151.873 81.5017 151.157 81.7123 150.241 81.7123C149.465 81.7123 148.796 81.5368 148.232 81.1858C147.668 80.8348 147.257 80.3435 146.999 79.7117L147.809 79.3958C148.021 79.8872 148.338 80.2616 148.761 80.519C149.207 80.7997 149.712 80.9401 150.276 80.9401C150.91 80.9401 151.403 80.7997 151.756 80.519C152.132 80.2382 152.319 79.8638 152.319 79.3958C152.319 78.8342 152.12 78.4247 151.72 78.1674C151.345 77.91 150.816 77.6409 150.135 77.3601C149.383 77.0559 148.772 76.74 148.303 76.4124C147.833 76.0614 147.598 75.5467 147.598 74.8681C147.598 74.2129 147.845 73.6864 148.338 73.2887C148.855 72.8909 149.501 72.692 150.276 72.692C150.84 72.692 151.333 72.809 151.756 73.043C152.178 73.2536 152.531 73.5811 152.813 74.0257L152.038 74.4118C151.85 74.0842 151.603 73.8385 151.298 73.6747C151.016 73.5109 150.663 73.4291 150.241 73.4291C149.771 73.4291 149.36 73.5694 149.007 73.8502C148.679 74.1076 148.514 74.4352 148.514 74.833C148.514 75.301 148.714 75.6637 149.113 75.921C149.512 76.155 149.982 76.3773 150.522 76.5879C151.439 76.9857 152.108 77.3718 152.531 77.7462C152.977 78.1206 153.2 78.6704 153.2 79.3958ZM162.995 72.8324H163.947V81.5719H162.995V78.0621H157.428V81.5719H156.512V72.8324H157.428V77.2548H162.96L162.995 72.8324ZM168.739 80.7997H173.249V81.5719H167.823V72.8324H173.178V73.6045H168.739V77.2548H172.685V78.027H168.739V80.7997ZM180.859 77.9217L183.185 81.5719H182.093L179.943 78.0972L179.908 78.0621H178.358L178.64 77.2899H179.838C180.401 77.2899 180.871 77.1144 181.247 76.7634C181.646 76.4124 181.846 75.9678 181.846 75.4297C181.846 74.9149 181.658 74.4937 181.282 74.1661C180.93 73.8151 180.472 73.6397 179.908 73.6397H177.653V81.607H176.737V72.8324H179.978C180.777 72.8324 181.447 73.0781 181.987 73.5695C182.551 74.0608 182.832 74.6692 182.832 75.3946C182.832 75.9562 182.668 76.4592 182.339 76.9038C182.01 77.3484 181.564 77.6643 181 77.8515L180.859 77.9217ZM189.527 72.6569L185.228 81.5719H186.215L187.448 78.9395H191.535L192.733 81.4315L192.804 81.5368H193.826L189.527 72.6569ZM187.836 78.1674L189.527 74.5873L191.183 78.1674H187.836Z" fill="#030303"/>
</g>
<path d="M312.08 7.60254H308.247C308.659 7.81193 308.907 8.31328 308.907 8.85709C308.907 9.35844 308.763 10.0485 308.474 10.8218L306.557 16.1945L303.116 7.60254H300.026C300.891 8.2714 301.303 9.63036 300.664 11.1356L298.398 16.4458L294.977 7.60254H291.371C291.948 8.00008 292.381 8.91962 292.896 10.1948L296.42 19.1631C296.893 20.3758 297.429 21.0028 298.563 21.5466L302.23 13.1634L304.744 19.1631C305.259 20.3551 305.774 21.0028 306.908 21.5466L312.08 7.60254Z" fill="#827662"/>
<path d="M320.251 18.9543C319.365 19.6231 318.437 19.9157 317.139 19.9157C316.439 19.9157 315.821 19.8532 315.367 19.7482V16.3201H316.315C317.469 16.3201 317.86 16.4039 318.169 16.7589V14.7523H315.367V11.93C315.367 11.93 315.8 11.8669 316.686 11.8669C317.716 11.8669 318.437 12.0344 318.849 12.4945V10.4248H312.132C312.668 10.7174 312.75 11.1562 312.75 12.9752V18.808C312.75 20.6264 312.668 21.0658 312.132 21.3584H319.488L320.251 18.9543Z" fill="#827662"/>
<path d="M328.947 17.972C328.947 14.6271 323.94 14.8572 323.94 12.8081C323.94 12.2018 324.476 11.6792 325.403 11.6792C326.392 11.6792 327.237 12.0349 328.164 12.9338V10.5503C327.216 10.2996 326.453 10.1533 325.506 10.1533C323.446 10.1533 321.343 11.4079 321.343 13.4776C321.343 17.2401 326.351 16.6968 326.351 18.8078C326.351 19.5604 325.691 20.1043 324.558 20.1043C323.28 20.1043 322.044 19.5817 320.767 18.4527L321.446 21.0657C322.477 21.442 323.342 21.6301 324.29 21.6301C326.928 21.6301 328.947 20.1668 328.947 17.972Z" fill="#827662"/>
<path d="M338.517 10.4248H329.719L329.121 12.4945C329.78 12.0344 330.378 11.8669 331.47 11.8669H332.521V18.808C332.521 20.6264 332.438 21.0658 331.882 21.3584H335.735C335.2 21.0658 335.117 20.6264 335.117 18.808V11.8669H336.045C337.013 11.8669 337.672 12.0132 338.002 12.4945L338.517 10.4248Z" fill="#827662"/>
<path d="M343.567 21.3584C343.031 21.0658 342.949 20.627 342.949 18.808V12.9752C342.949 11.1568 343.031 10.7174 343.567 10.4248H339.714C340.25 10.7174 340.332 11.1568 340.332 12.9752V18.808C340.332 20.627 340.25 21.0658 339.714 21.3584H343.567Z" fill="#827662"/>
<path d="M356.361 10.4248H352.838C353.539 10.8011 353.621 11.5956 353.621 12.8083V17.2396L349.108 11.8044C348.655 11.2399 348.346 10.8223 348.057 10.4248H344.946C345.585 10.8011 345.894 11.5118 345.894 12.9958V18.9749C345.894 20.1876 345.811 20.9821 345.111 21.3584H348.634C347.934 20.9821 347.851 20.1876 347.851 18.9749V14.4598L352.508 20.0619C353.167 20.8564 354.013 21.1909 355.578 21.4421V12.8083C355.578 11.5956 355.681 10.8011 356.361 10.4248Z" fill="#827662"/>
<path d="M297.282 27.5557V28.5189C297.282 28.7584 297.319 29.1471 297.051 29.2479V29.2639H298.053V29.2479C297.786 29.1471 297.817 28.7584 297.817 28.5189V26.5076C297.817 26.2682 297.786 25.8795 298.053 25.7786V25.7627H297.051V25.7786C297.319 25.8795 297.282 26.2682 297.282 26.5129V27.1729H295.389V26.5129C295.389 26.2682 295.357 25.8795 295.619 25.7786V25.7627H294.623V25.7786C294.89 25.8795 294.854 26.2682 294.854 26.5076V28.5189C294.854 28.7584 294.885 29.1471 294.623 29.2479V29.2639H295.619V29.2479C295.357 29.1471 295.389 28.7584 295.389 28.5189V27.5557H297.282Z" fill="#827662"/>
<path d="M301.448 26.0559C302.277 26.0559 302.765 26.8061 302.765 27.5829C302.765 28.3757 302.255 28.9667 301.458 28.9667C300.635 28.9667 300.115 28.2005 300.115 27.4555C300.115 26.6516 300.635 26.0559 301.448 26.0559ZM301.484 25.6725C300.383 25.6459 299.518 26.4923 299.518 27.5027C299.518 28.5939 300.394 29.3494 301.432 29.3494C302.476 29.3494 303.362 28.562 303.362 27.4768C303.362 26.5189 302.586 25.6672 301.484 25.6725Z" fill="#827662"/>
<path d="M305.945 26.1461H306.417C306.59 26.1461 306.8 26.1727 306.868 26.3591H306.884L307.052 25.7256H307.036C306.968 25.758 306.884 25.7633 306.794 25.7633H304.838H304.707C304.639 25.7527 304.571 25.7527 304.508 25.7256H304.492L304.309 26.3591H304.324C304.487 26.2045 304.723 26.1461 304.949 26.1461H305.41V28.5196C305.41 28.7591 305.442 29.1477 305.179 29.2486V29.2645H306.218V29.2486C305.94 29.0835 305.945 28.8764 305.945 28.5727V26.1461Z" fill="#827662"/>
<path d="M309.225 27.556H309.613C309.776 27.556 309.996 27.5507 310.08 27.7052H310.096V27.1413H310.08C310.017 27.1732 309.933 27.1732 309.849 27.1732H309.225V26.1829C309.393 26.151 309.577 26.1457 309.76 26.1457C310.001 26.1457 310.216 26.1675 310.379 26.3586H310.395V25.7363H310.379C310.311 25.7735 310.221 25.7628 310.133 25.7628H308.454V25.7788C308.722 25.8796 308.69 26.2683 308.69 26.5131V28.5191C308.69 28.7585 308.722 29.1525 308.454 29.2481V29.264H310.641L310.877 28.5668H310.862C310.599 28.801 310.237 28.9131 309.891 28.8812L309.225 28.8175L309.225 27.556Z" fill="#827662"/>
<path d="M313.066 28.8333V26.5129C313.066 26.2735 313.029 25.8801 313.297 25.7786V25.7627H312.295V25.7786C312.562 25.8801 312.531 26.2682 312.531 26.5129V28.5195C312.531 28.7584 312.562 29.1524 312.295 29.2485V29.2644H314.451L314.723 28.5567H314.708C314.445 28.7802 314.136 28.9023 313.779 28.8811L313.066 28.8333Z" fill="#827662"/>
<path d="M318.15 25.7945C317.899 25.7149 317.631 25.6777 317.369 25.6777C316.729 25.6777 316.052 25.9325 316.052 26.6032C316.052 27.7315 317.857 27.5823 317.857 28.4128C317.857 28.7849 317.406 28.966 317.107 28.966C316.698 28.966 316.267 28.7955 315.958 28.5242L316.11 29.1896C316.409 29.301 316.729 29.3488 317.049 29.3488C317.867 29.3488 318.454 28.8174 318.454 28.2476C318.454 27.2632 316.65 27.2738 316.65 26.5448C316.65 26.1773 317.028 26.0605 317.327 26.0605C317.621 26.0605 317.946 26.1826 318.15 26.3956V25.7945Z" fill="#827662"/>
<path d="M324.06 28.5248C323.876 28.7696 323.609 28.9825 323.289 28.9825C322.885 28.9825 322.555 28.7218 322.555 28.2853C322.555 27.955 322.77 27.6843 323.027 27.4979L324.06 28.5248ZM323.116 26.8857C322.975 26.7583 322.749 26.5453 322.749 26.3324C322.749 26.1301 322.906 26.0292 323.095 26.0292C323.289 26.0292 323.456 26.1513 323.456 26.3536C323.456 26.5719 323.284 26.7636 323.116 26.8857ZM325.959 29.2644V29.2485C324.967 28.7855 324.197 27.9609 323.415 27.2001C323.656 26.9818 323.871 26.7636 323.871 26.4121C323.871 25.9703 323.536 25.6777 323.116 25.6777C322.706 25.6777 322.298 25.9762 322.298 26.4174C322.298 26.7152 322.523 26.9659 322.717 27.1676C322.334 27.4767 321.993 27.7905 321.993 28.3172C321.993 28.9772 322.586 29.3335 323.179 29.3335C323.683 29.3335 324.002 29.1477 324.27 28.7106C324.433 28.8705 324.705 29.0781 324.894 29.1795C325.035 29.2538 325.203 29.2645 325.387 29.2645L325.959 29.2644Z" fill="#827662"/>
<path d="M328.968 25.7627V25.7786C329.235 25.8801 329.199 26.2682 329.199 26.513V28.519C329.199 28.7584 329.235 29.1524 328.968 29.2486V29.2645H329.969V29.2486C329.702 29.1524 329.733 28.7643 329.733 28.519V26.1355C329.854 26.1136 329.969 26.0977 330.09 26.0924C330.442 26.0765 330.767 26.3 330.767 26.6834C330.767 27.1836 330.279 27.3806 329.86 27.4443L330.342 28.1945L330.982 28.9979C331.139 29.1949 331.312 29.2645 331.59 29.2645H332.073C331.774 29.0728 331.443 28.7962 331.223 28.5189L330.468 27.5558C330.898 27.4549 331.302 27.0874 331.302 26.6191C331.302 26.1355 330.919 25.7627 330.217 25.7627H328.968Z" fill="#827662"/>
<path d="M334.12 27.556H334.508C334.67 27.556 334.89 27.5507 334.975 27.7052H334.99V27.1413H334.975C334.911 27.1732 334.828 27.1732 334.744 27.1732H334.12V26.1829C334.287 26.151 334.471 26.1457 334.654 26.1457C334.896 26.1457 335.111 26.1675 335.274 26.3586H335.289V25.7363H335.274C335.206 25.7735 335.116 25.7628 335.027 25.7628H333.349V25.7788C333.616 25.8796 333.585 26.2683 333.585 26.5131V28.5191C333.585 28.7585 333.616 29.1525 333.349 29.2481V29.264H335.536L335.772 28.5668H335.756C335.494 28.801 335.132 28.9131 334.786 28.8812L334.12 28.8175L334.12 27.556Z" fill="#827662"/>
<path d="M339.314 25.7945C339.063 25.7149 338.795 25.6777 338.533 25.6777C337.893 25.6777 337.216 25.9325 337.216 26.6032C337.216 27.7315 339.021 27.5823 339.021 28.4128C339.021 28.7849 338.57 28.966 338.27 28.966C337.862 28.966 337.431 28.7955 337.122 28.5242L337.274 29.1896C337.573 29.301 337.893 29.3488 338.213 29.3488C339.031 29.3488 339.618 28.8174 339.618 28.2476C339.618 27.2632 337.814 27.2738 337.814 26.5448C337.814 26.1773 338.192 26.0605 338.491 26.0605C338.785 26.0605 339.11 26.1826 339.314 26.3956V25.7945Z" fill="#827662"/>
<path d="M342.957 26.0559C343.786 26.0559 344.273 26.8061 344.273 27.5829C344.273 28.3757 343.764 28.9667 342.967 28.9667C342.143 28.9667 341.624 28.2005 341.624 27.4555C341.624 26.6516 342.143 26.0559 342.957 26.0559ZM342.993 25.6725C341.891 25.6459 341.026 26.4923 341.026 27.5027C341.026 28.5939 341.902 29.3494 342.941 29.3494C343.984 29.3494 344.871 28.562 344.871 27.4768C344.871 26.5189 344.095 25.6672 342.993 25.6725Z" fill="#827662"/>
<path d="M346.321 25.7627V25.7786C346.589 25.8801 346.552 26.2682 346.552 26.513V28.519C346.552 28.7584 346.589 29.1524 346.321 29.2486V29.2645H347.323V29.2486C347.056 29.1524 347.087 28.7643 347.087 28.519V26.1355C347.208 26.1136 347.323 26.0977 347.444 26.0924C347.795 26.0765 348.121 26.3 348.121 26.6834C348.121 27.1836 347.633 27.3806 347.213 27.4443L347.696 28.1945L348.335 28.9979C348.493 29.1949 348.666 29.2645 348.944 29.2645H349.426C349.128 29.0728 348.797 28.7962 348.577 28.5189L347.822 27.5558C348.251 27.4549 348.655 27.0874 348.655 26.6191C348.655 26.1355 348.273 25.7627 347.57 25.7627H346.321Z" fill="#827662"/>
<path d="M351.775 26.1461H352.247C352.42 26.1461 352.63 26.1727 352.698 26.3591H352.714L352.882 25.7256H352.866C352.798 25.758 352.714 25.7633 352.625 25.7633H350.669H350.537C350.469 25.7527 350.401 25.7527 350.338 25.7256H350.322L350.139 26.3591H350.155C350.317 26.2045 350.553 26.1461 350.779 26.1461H351.24V28.5196C351.24 28.7591 351.272 29.1477 351.01 29.2486V29.2645H352.048V29.2486C351.77 29.0835 351.775 28.8764 351.775 28.5727L351.775 26.1461Z" fill="#827662"/>
<path d="M356.098 25.7945C355.846 25.7149 355.578 25.6777 355.316 25.6777C354.676 25.6777 353.999 25.9325 353.999 26.6032C353.999 27.7315 355.803 27.5823 355.803 28.4128C355.803 28.7849 355.353 28.966 355.054 28.966C354.645 28.966 354.215 28.7955 353.905 28.5242L354.057 29.1896C354.356 29.301 354.676 29.3488 354.996 29.3488C355.814 29.3488 356.402 28.8174 356.402 28.2476C356.402 27.2632 354.598 27.2738 354.598 26.5448C354.598 26.1773 354.975 26.0605 355.274 26.0605C355.567 26.0605 355.893 26.1826 356.098 26.3956V25.7945Z" fill="#827662"/>
<path fill-rule="evenodd" clip-rule="evenodd" d="M113.124 68.7819C112.475 68.7819 111.953 69.3048 111.953 69.9523C111.953 70.5999 112.475 71.1228 113.124 71.1228C113.771 71.1228 114.294 70.5999 114.294 69.9523C114.294 69.3048 113.771 68.7819 113.124 68.7819ZM113.125 71.0199C112.528 71.0199 112.071 70.5439 112.071 69.9529C112.071 69.3487 112.521 68.886 113.125 68.886C113.727 68.886 114.174 69.3524 114.174 69.9499C114.174 70.5409 113.724 71.0199 113.125 71.0199ZM51.3299 75.5852L51.1638 64.8828C51.8912 64.9202 52.5877 65.1886 53.1521 65.649C53.7166 66.1094 54.1194 66.7378 54.3022 67.4429C55.1453 67.3087 56.0081 67.4927 56.7231 67.9591C57.4381 68.4256 57.9542 69.1411 58.1711 69.9668C53.5535 69.5179 51.5465 73.8273 51.6904 75.5846H52.4709C52.9481 70.8677 56.6113 70.1648 58.2331 70.2526C58.2662 70.4434 58.2831 70.6402 58.2831 70.8406C58.2831 72.1242 57.6103 73.2442 56.5679 73.8357C56.9051 74.379 57.0832 75.006 57.0819 75.6453C57.0819 76.7707 56.5415 77.7697 55.7062 78.3974C55.5148 75.8578 54.3268 75.2518 53.6721 74.9244L52.8916 75.5557C54.5297 75.8728 55.1802 77.5741 55.3704 78.6206C54.8458 78.9258 54.2495 79.0862 53.6426 79.0852C53.137 79.0858 52.6375 78.9746 52.1799 78.7597C51.7222 78.5447 51.3177 78.2314 50.9953 77.8419H51.0055C50.6831 78.2314 50.2787 78.5449 49.821 78.7598C49.3634 78.9747 48.8638 79.0859 48.3582 79.0852C47.7513 79.0862 47.1551 78.9258 46.6305 78.6206C46.82 77.5747 47.4706 75.8734 49.1093 75.5557L48.3287 74.9244C47.674 75.2524 46.486 75.8584 46.2947 78.3974C45.8672 78.0772 45.5203 77.6617 45.2815 77.184C45.0427 76.7063 44.9185 76.1794 44.919 75.6453C44.9176 75.006 45.0957 74.379 45.4329 73.8357C44.3906 73.2448 43.7178 72.1242 43.7178 70.8406C43.7178 70.6402 43.7346 70.444 43.7677 70.2526C45.3896 70.1648 49.0527 70.8677 49.5299 75.5846H50.3105C50.4549 73.8267 48.4479 69.5179 43.8297 69.9668C44.0468 69.1411 44.563 68.4255 45.2781 67.9591C45.9932 67.4926 46.8561 67.3087 47.6993 67.4429C47.8818 66.7377 48.2846 66.1091 48.849 65.6487C49.4135 65.1882 50.1101 64.9199 50.8376 64.8828L50.6715 75.5852H51.3299Z" fill="black"/>
<path fill-rule="evenodd" clip-rule="evenodd" d="M113.31 70.0089C113.508 69.9776 113.668 69.8681 113.668 69.643C113.668 69.3921 113.53 69.2609 113.217 69.2609H112.698V70.6444H112.817V70.0059H113.177L113.592 70.6444H113.724L113.31 70.0089ZM113.11 69.903H112.817V69.3644H113.199C113.364 69.3644 113.549 69.427 113.549 69.64C113.549 69.8808 113.32 69.903 113.11 69.903ZM26.6399 78.6134C25.7902 78.4317 25.7306 77.7553 25.7306 76.6684L25.5952 70.9429C25.5952 69.9602 25.9244 69.2567 26.401 69.0039C26.5051 68.9444 26.5948 68.9143 26.5948 68.8403C26.5804 68.7807 26.401 68.7656 26.3565 68.7656L25.204 68.7783C24.994 68.8078 24.8436 68.8078 24.6943 69.1333L21.0173 76.9759L17.2465 69.1333C17.0966 68.8078 16.9468 68.8078 16.7368 68.7783L15.2238 68.7807C15.1793 68.7807 15.0006 68.7807 14.9855 68.8403C14.9855 68.9149 15.0746 68.9444 15.1787 69.0039C15.6553 69.2567 16.555 69.9 16.555 70.8834L16.3751 76.6083C16.3751 77.6957 16.1807 78.3872 15.541 78.5695C15.4176 78.605 15.3177 78.673 15.3177 78.7175C15.3177 78.7627 15.3322 78.8373 15.4513 78.8373L16.6128 78.8379L17.6262 78.8373C17.8495 78.8373 17.9091 78.8223 17.9091 78.7777C17.9091 78.7175 17.8657 78.6459 17.7303 78.5839C17.3356 78.4022 16.8511 78.5593 16.8511 77.0403L17.031 71.2637H17.0611L20.4228 78.5099C20.5341 78.7025 20.9066 78.738 21.0053 78.5099L24.4873 71.0838H24.5168L24.6522 76.9802C24.6474 78.1922 24.2424 78.5075 23.8482 78.614C23.8241 78.6207 23.6394 78.655 23.6394 78.7627C23.6394 78.8072 23.699 78.8524 23.9228 78.8524C24.0715 78.8524 25.0307 78.8379 25.5663 78.8379L26.7284 78.8373C26.8476 78.8373 26.8319 78.7928 26.8319 78.7482C26.8319 78.7037 26.7651 78.6405 26.6399 78.6134ZM37.1329 68.7957C36.8199 68.7957 36.4179 68.8553 36.105 68.8553C35.8071 68.8553 35.1668 68.7957 34.9435 68.7957C34.7798 68.7957 34.6902 68.8553 34.6902 68.9299C34.6902 69.0045 34.819 69.0557 35.0326 69.1081C35.3359 69.1833 35.8667 69.2362 35.8667 70.5024V76.9182L28.73 69.1087C28.5952 68.9588 28.4736 68.7927 28.198 68.7801C27.8405 68.7801 27.2748 68.7951 27.1256 68.7951C26.9619 68.7951 26.9324 68.8396 26.9324 68.8992C26.9324 68.9293 26.9884 68.9853 27.0666 69.0033C27.8285 69.1827 28.7113 70.5283 28.7264 71.3179V76.5613C28.7264 77.8871 28.7155 78.1374 28.1685 78.4564C27.9031 78.6116 27.7003 78.6718 27.7003 78.7615C27.7003 78.806 27.7147 78.8361 27.8189 78.8361C27.9976 78.8361 28.6517 78.7916 28.9641 78.7916C29.5003 78.7916 29.9769 78.8361 30.1556 78.8361C30.2303 78.8361 30.2748 78.8217 30.2748 78.7765C30.2748 78.7019 30.1707 78.7019 29.9619 78.5677C29.6345 78.3739 29.2024 78.3926 29.2024 76.8736V71.3979C31.5259 73.6462 33.9963 76.6546 35.8131 78.7398C35.9648 78.8963 36.046 78.9216 36.1929 78.8939C36.297 78.8939 36.3421 78.2686 36.3421 77.4784V70.5024C36.3253 69.1381 36.971 69.1231 37.1461 69.0485C37.3116 68.9781 37.3844 68.9594 37.3844 68.9143C37.3844 68.8691 37.3411 68.7957 37.1329 68.7957ZM41.0548 78.6736C40.5077 78.3866 40.1443 77.9039 40.1443 76.5487V70.2996C40.1443 69.7189 40.4289 69.1381 40.935 68.9889C41.0096 68.9739 41.0391 68.9293 41.0391 68.8697C41.0391 68.7951 40.8454 68.7951 40.7864 68.7951C40.444 68.7951 39.9059 68.8547 39.5635 68.8547C39.0129 68.8547 38.5351 68.7951 38.3563 68.7951C38.1625 68.7951 38.118 68.7951 38.118 68.8842C38.118 68.9444 38.1625 68.9588 38.2221 68.9883C38.7439 69.1821 38.9984 69.8224 38.9984 70.299V76.6973C38.9984 77.6506 38.7288 78.2253 38.0735 78.6423C37.9694 78.7163 38.0301 78.7615 38.0301 78.791C38.0301 78.8355 37.9248 78.8511 38.044 78.8511C38.1776 78.8511 38.73 78.8066 39.5641 78.8066C40.2791 78.8066 40.9212 78.8511 41.0554 78.8511C41.1444 78.8511 41.2191 78.8361 41.2191 78.8066C41.2185 78.7627 41.1679 78.732 41.0548 78.6736ZM8.29295 66.4216C4.8609 66.4216 1.70508 68.8421 1.70508 72.7122C1.70508 76.6564 4.68036 78.9565 8.11241 78.9565C11.5445 78.9565 14.9404 76.6564 14.9404 72.7122C14.941 68.8427 11.725 66.4216 8.29295 66.4216ZM10.0875 78.1585C7.24462 79.1918 4.67013 77.5266 3.58329 74.5417C2.40978 71.3166 3.75721 68.3727 6.15356 67.3508C8.80628 66.2194 11.7509 67.742 12.925 70.9676C14.0112 73.9525 13.3474 76.9741 10.0875 78.1585ZM72.1141 66.7147C71.8945 66.7147 71.1019 66.7875 70.4273 66.7875C70.0066 66.7875 69.3591 66.7147 68.9378 66.7147C68.865 66.7147 68.6273 66.7147 68.6273 66.8056C68.6273 66.879 68.6646 66.9338 68.7555 66.9518C69.376 67.1342 69.7767 67.2304 69.7767 67.9424V72.2422H63.0499V67.9279C63.0499 67.216 63.4645 67.1348 64.0856 66.9518C64.177 66.9338 64.2137 66.8784 64.2137 66.8056C64.2137 66.7147 63.976 66.7147 63.9032 66.7147C63.4826 66.7147 62.835 66.7875 62.415 66.7875C61.7391 66.7875 60.9472 66.7147 60.7281 66.7147C60.4904 66.7147 60.4357 66.7147 60.4357 66.8242C60.4357 66.897 60.491 66.9151 60.5638 66.9518C61.2023 67.1895 61.765 67.3436 61.765 67.9279V77.0271C61.7512 77.9918 61.4503 78.3372 60.7721 78.5713C60.6228 78.6225 60.5157 78.7169 60.5157 78.7537C60.5157 78.809 60.5885 78.8271 60.7354 78.8271C60.8984 78.8271 61.3925 78.7717 62.415 78.7717C63.2906 78.7717 63.8569 78.8271 64.0206 78.8271C64.1313 78.8271 64.2216 78.809 64.2216 78.7717C64.2216 78.7169 64.1602 78.6772 64.0206 78.608C63.5066 78.3517 63.0565 78.4118 63.0499 77.0271V72.6996H69.7767V76.982C69.7683 78.3673 69.3338 78.3517 68.8199 78.608C68.6803 78.6772 68.6189 78.7175 68.6189 78.7717C68.6189 78.809 68.7104 78.8271 68.8199 78.8271C68.983 78.8271 69.5499 78.7717 70.4267 78.7717C71.4479 78.7717 71.942 78.8271 72.1063 78.8271C72.2519 78.8271 72.3248 78.809 72.3248 78.7537C72.3248 78.7169 72.2062 78.6477 72.0696 78.5713C71.4052 78.2018 71.0742 77.946 71.061 76.9814V67.9424C71.061 67.358 71.6381 67.1889 72.2766 66.9518C72.3494 66.9151 72.4048 66.897 72.4048 66.8242C72.4054 66.7147 72.3506 66.7147 72.1141 66.7147ZM90.8216 70.6733L90.6007 68.7801H83.1956L82.9736 70.6733C82.9639 70.8196 83.1312 70.902 83.2275 70.763C83.6554 69.9488 83.6602 69.5576 84.7777 69.5576L86.3009 69.5528V76.6714C86.3009 78.2199 86.0626 78.4949 85.4662 78.6435C85.258 78.6881 85.0949 78.6881 85.0949 78.7627C85.0949 78.8072 85.1087 78.8517 85.2291 78.8517C85.3771 78.8517 85.7791 78.8072 86.9556 78.8072C87.9992 78.8072 88.3566 78.8517 88.4601 78.8517C88.5649 78.8517 88.6244 78.8367 88.6244 78.7916C88.6244 78.7621 88.669 78.7314 88.4764 78.6881C87.939 78.5659 87.4834 78.206 87.4774 76.6979V69.5528L89.0186 69.5576C90.1361 69.5576 90.141 69.9488 90.5688 70.763C90.6651 70.902 90.8324 70.8196 90.8216 70.6733ZM98.2333 77.0223C98.1888 77.0223 98.1455 77.0524 98.0991 77.0969C96.9647 78.327 93.2565 78.5665 92.9652 77.7806V74.103H95.385C96.1999 74.1084 96.2998 74.4243 96.6145 75.2055C96.6452 75.25 96.7343 75.2795 96.7649 75.2795C96.8239 75.2795 96.8239 75.1308 96.8239 75.0412V72.5064C96.8239 72.3578 96.8239 72.2681 96.7499 72.2681C96.7054 72.2681 96.6747 72.2982 96.6452 72.3427C96.4454 72.7543 96.3347 73.3868 95.385 73.3844H92.9652V69.4523H95.6757C97.2199 69.5131 97.0249 70.639 96.9954 70.8045C96.9647 70.9694 97.2199 71.0151 97.2506 70.8346L97.5527 68.7795H91.3265C91.1923 68.7795 91.0136 68.7795 91.0136 68.8685C91.0136 68.9137 91.0581 68.9281 91.1171 68.9582C91.6545 69.226 91.7881 69.7327 91.7881 70.2984V77.1932C91.7881 77.8931 91.6388 78.4197 90.9395 78.6128C90.7458 78.6574 90.6705 78.732 90.6705 78.7916C90.6705 78.8367 90.7307 78.8367 90.88 78.8367H97.262L98.2779 77.2744C98.3085 77.1998 98.3085 77.1402 98.3085 77.0957C98.3085 77.0512 98.2785 77.0223 98.2333 77.0223ZM105.209 77.3063C102.453 78.7019 101.103 78.2367 100.885 77.9605L100.888 70.2996C100.888 69.7189 101.159 69.1381 101.665 68.9889C101.739 68.9739 101.769 68.9293 101.769 68.8697C101.769 68.7951 101.576 68.7951 101.516 68.7951C101.174 68.7951 100.636 68.8547 100.294 68.8547C99.7426 68.8547 99.2642 68.7951 99.0855 68.7951C98.8929 68.7951 98.8478 68.7951 98.8478 68.8842C98.8478 68.9438 98.8923 68.9588 98.9513 68.9883C99.473 69.1821 99.6975 69.8224 99.6975 70.299L99.7095 76.9525C99.7095 77.6524 99.6048 78.4197 98.9043 78.6128C98.7105 78.6574 98.6365 78.732 98.6365 78.7916C98.6365 78.8367 98.6967 78.8367 98.8448 78.8367H104.506L105.388 77.4845C105.5 77.3045 105.351 77.1854 105.209 77.3063ZM109.693 73.0414C108.632 72.6526 106.46 72.1411 106.51 70.9098C106.572 69.4685 107.682 69.1081 108.793 69.1381C109.904 69.1682 111.165 70.6095 111.375 71.2101C111.466 71.4051 111.601 71.36 111.615 71.2101C111.615 70.3989 111.466 69.6334 111.375 69.2579C111.346 69.0479 111.165 69.0328 111.09 69.093C111.015 69.1532 110.715 69.1231 110.52 68.9726C110.325 68.8222 109.379 68.567 108.808 68.567C108.237 68.567 105.67 69.1977 105.61 71.0296C105.542 73.1004 106.721 73.4921 107.592 73.852C108.463 74.2119 111.285 74.7228 111.285 76.4042C111.285 78.2963 109.815 78.4762 108.913 78.4762C108.013 78.4762 106.631 78.3559 105.821 76.1936C105.67 75.7134 105.371 75.9234 105.46 76.2839C105.579 76.7039 105.88 78.1151 106.18 78.596C106.751 78.9565 107.651 79.1665 109.003 79.1069C110.354 79.0461 112.096 77.9358 112.096 76.0438C112.096 74.1517 110.595 73.3718 109.693 73.0414Z" fill="black"/>
<path fill-rule="evenodd" clip-rule="evenodd" d="M77.9522 68.5713C75.069 68.5713 72.4175 70.6048 72.4175 73.8569C72.4175 77.1704 74.9173 79.1027 77.8018 79.1027C80.685 79.1027 83.5375 77.1704 83.5375 73.8569C83.5375 70.6054 80.8366 68.5713 77.9522 68.5713ZM79.4603 78.4323C77.0718 79.3001 74.9095 77.9016 73.996 75.3933C73.0096 72.6834 74.1416 70.21 76.1552 69.3512C78.3837 68.4004 80.8577 69.6798 81.844 72.3897C82.7576 74.8986 82.1991 77.437 79.4603 78.4323Z" fill="black"/>
<path fill-rule="evenodd" clip-rule="evenodd" d="M30.1428 11.846C30.1428 12.4488 29.9821 13.1488 29.513 13.7668H30.8364V4.10156H26.603V8.05126C28.8915 8.72219 30.1428 10.1089 30.1428 11.846Z" fill="#2F489A"/>
<path fill-rule="evenodd" clip-rule="evenodd" d="M22.8249 7.70564C23.7807 7.70564 24.6695 7.91664 25.3496 8.08825C23.9077 7.84851 21.6745 8.19375 20.5226 9.05527V13.7667H24.756V8.40503C25.4787 8.5281 26.1699 8.79264 26.7901 9.18347V13.767H27.7091C26.8433 14.6915 25.2246 15.2546 23.8267 15.0474V15.2408C27.854 15.5412 29.5592 13.7368 29.5592 11.7062C29.5592 9.31513 27.1848 7.9152 24.7563 7.63148V4.10148H20.5223V7.67029C17.7794 8.19059 15.0968 9.73224 15.0968 12.282C15.0968 16.2073 20.8986 18.638 25.9547 18.638C33.6296 18.638 39.5372 15.1322 39.5372 10.2106C39.5372 4.25067 31.006 0 24.3076 0C16.6333 0 10.9818 4.60884 10.9818 9.53245C10.9818 12.0808 12.4959 14.2175 14.4063 15.7054L14.5501 15.6157C13.038 14.4285 11.6746 12.5778 11.6746 10.0346C12.0733 4.64621 19.0991 1.61236 25.3514 1.61236C29.7722 1.61236 37.719 2.5765 37.719 9.56321C37.719 13.2096 33.5986 17.9516 24.9409 17.9516C20.5088 17.9516 17.0668 15.7056 17.0668 12.4818C17.0668 9.69113 19.3791 7.70564 22.8249 7.70564ZM6.42587 32.6603V32.1098H7.90974V27.3535H3.94538V32.1098H5.46748V32.6603H0V32.1098H1.39073V22.417H0V21.8659H5.46748V22.417H3.94538V26.7142H7.90974V22.417H6.42587V21.8659H11.837V22.417H10.4477V32.1098H11.837V32.6603H6.42587ZM13.9349 21.8659H16.4131V23.146H13.9349V21.8659ZM12.7135 32.6603V32.1101H14.0473V25.4686H12.7135V24.9216H16.5094V32.1101H17.7489V32.6603H12.7135ZM18.2836 32.6603V32.1098H19.6548V20.9955H18.2836V20.4464H22.1353V32.1098H23.4317V32.6603H18.2836ZM27.2923 32.6603C25.9381 32.6603 25.2068 32.0052 25.2068 30.9916V25.4686H23.8732V24.9216H25.2068V21.8478C25.9579 21.8478 26.7473 21.8659 27.5182 21.8478V24.9216H29.4339V25.4686H27.5182V32.1101H29.4715V32.6603H27.2923ZM38.77 30.3356C38.4891 31.0612 37.3238 32.8552 34.4868 32.8552C31.3308 32.8552 29.7144 30.8131 29.7144 28.7368C29.7144 25.8604 32.4194 24.6712 34.4311 24.6712C36.2153 24.6712 38.8082 25.6819 39.014 28.6123C39.0517 29.1815 38.9933 29.8024 38.77 30.3356ZM36.084 26.1611C35.7646 25.4888 35.1799 25.1832 34.4115 25.1832C32.4763 25.1832 32.4393 27.0689 32.4393 28.702C32.4393 30.9008 32.6454 31.2946 32.794 31.5599C33.0403 32.0049 33.5661 32.4119 34.4311 32.4119C36.3657 32.4119 36.3657 30.4397 36.3473 28.6304C36.3266 26.6579 36.1975 26.4095 36.084 26.1611ZM45.636 32.6603V32.1101H46.7246V27.5464C46.7246 26.5176 46.7246 25.506 45.5218 25.506C44.8463 25.506 43.7376 26.1453 43.4748 27.1908C43.3817 27.5099 43.3995 27.8479 43.3995 28.702V32.1098H44.639V32.66H39.6045V32.1098H40.938V25.4686H39.6045V24.9216H43.3992V26.0907C43.812 25.5937 44.1527 25.2384 44.959 24.9374C45.4306 24.749 45.9338 24.6521 46.4417 24.652C46.5932 24.652 47.0442 24.652 47.5697 24.7963C49.1496 25.2384 49.2232 26.375 49.2232 27.1908V32.1098H50.5202V32.66L45.636 32.6603ZM37.3821 16.8578H36.9817V16.7161H37.9749V16.8578H37.5719V18.2278H37.3821V16.8578ZM39.104 17.9516H39.1118L39.6048 16.7161H39.8586V18.2278H39.6666V17.0915H39.6571L39.1882 18.2278H39.0126L38.5291 17.0915H38.5213V18.2278H38.3287V16.7161H38.5978L39.104 17.9516Z" fill="#2F489A"/>
<path fill-rule="evenodd" clip-rule="evenodd" d="M260.183 25.8521C259.273 25.3765 259.132 24.0321 259.153 20.7645L259.174 15.7556L257.448 15.7533L257.835 14.825H259.174V12.453L262.379 11.267L262.379 14.7459L263.848 14.7486L263.46 15.7762L262.379 15.7746L262.374 24.4429C262.445 25.1413 262.68 25.552 263.014 25.8517L260.183 25.8521ZM228.682 4.43234C228.927 5.10319 229.481 5.79578 229.087 6.573C228.895 7.36109 228.149 8.00049 227.361 8.12783C226.541 8.20236 225.753 8.06416 225.145 7.56335C224.708 5.2841 225.635 3.17489 227.435 1.91821L228.682 4.43234Z" fill="#B01842"/>
<path fill-rule="evenodd" clip-rule="evenodd" d="M231.861 11.3768C231.451 12.7562 227.377 11.8508 226.099 9.5875C227.777 9.77384 229.667 8.28812 229.699 6.59469L231.861 11.3768ZM233.528 11.1982C233.714 11.1155 234.091 10.9292 234.183 10.5297L229.8 1.02332C229.508 0.986047 229.294 0.95926 228.921 1.22558L233.528 11.1982ZM235.499 9.13444C237.363 6.31168 235.792 1.67825 231.776 1.02875L235.499 9.13444ZM235.088 15.2124C235.675 14.7194 236.709 14.7078 237.377 15.0245C237.66 15.1655 237.929 15.3538 238.105 15.5999L236.814 17.6086C236.649 17.4789 236.532 17.4207 236.321 17.3151C235.681 17.039 235.006 17.2005 234.617 17.5495V23.4101C234.609 24.423 234.785 25.3474 235.31 25.8288H232.375C231.764 25.3594 231.612 24.6078 231.553 23.9498L231.529 16.1582C231.556 15.5273 231.394 15.2482 231.142 14.8957L234.183 14.9077C234.43 15.0836 234.442 15.3891 234.571 15.6243L235.088 15.2124ZM238.799 17.1384C238.775 16.3985 238.939 15.5122 238.455 14.872H241.277C241.464 15.0129 241.57 15.2482 241.629 15.471C241.782 15.6705 241.77 15.9524 241.84 16.1877L241.864 24.4906C241.981 24.9836 242.169 25.4825 242.533 25.8699L239.516 25.8761C238.529 24.9223 238.852 23.3511 238.776 21.7307L238.799 17.1384ZM243.262 17.2207C243.566 16.3744 244.518 15.952 245.211 15.4943C246.267 15.1068 247.43 14.1437 248.616 14.931C249.602 15.5762 250.471 16.3049 251.094 17.3026C251.247 17.6901 251.317 18.1245 251.423 18.5356C251.423 19.0877 251.54 19.4984 251.528 20.0505C251.563 20.6495 251.563 21.1903 251.528 21.7769C251.493 22.7746 251.023 23.6671 250.236 24.3601C249.062 25.4056 247.582 26.5916 245.986 25.781C244.553 25.1113 242.862 23.7844 242.967 21.9648C242.909 20.6728 242.85 19.5574 243.026 18.3004C243.097 17.9366 243.061 17.5379 243.262 17.2207ZM246.197 23.0926C246.337 23.6089 246.608 24.2429 247.23 24.3135C247.594 24.3256 247.865 24.02 248.076 23.7615C248.734 22.4703 248.64 21.0606 248.64 19.5928C248.428 18.5011 248.687 17.0095 247.512 16.3398C247.101 16.1873 246.784 16.4695 246.526 16.7273C246.068 17.4203 246.015 18.2126 245.986 19.0939C245.833 20.5035 245.997 21.6717 246.197 23.0926ZM253.619 25.8521C252.708 25.3765 252.568 24.0321 252.589 20.7644L252.609 15.7556L250.883 15.7532L251.27 14.825H252.609V12.453L255.815 11.2669L255.814 14.7458L257.283 14.7485L256.896 15.7761L255.815 15.7746L255.809 24.4428C255.88 25.1412 256.114 25.552 256.449 25.8517L253.619 25.8521ZM224.307 16.1578C224.288 15.5254 224.172 15.2478 223.92 14.8953L226.961 14.9073C227.208 15.0832 227.219 15.3887 227.349 15.624L227.865 15.2121C228.452 14.719 229.486 14.7074 230.155 15.0242C230.437 15.1651 230.707 15.3534 230.883 15.5995L229.592 17.6082C229.427 17.4785 229.31 17.4203 229.098 17.3147C228.459 17.0386 227.783 17.2001 227.395 17.5492V23.4098C227.387 24.4226 227.563 25.347 228.089 25.8284H225.153C224.542 25.359 224.368 24.6591 224.331 23.9494L224.307 16.1578ZM201.301 19.241L200.19 21.5141C199.435 22.8554 198.376 24.5014 196.752 24.9102C196.123 25.13 195.568 24.9308 194.96 24.8889L193 28.0964C193.147 28.2532 193.354 28.386 193.556 28.4632C197.004 29.7782 198.392 28.3631 201.789 20.691L204.996 27.5253H209.267L207.249 22.9128L208.391 20.5288L211.546 27.4197L215.634 27.4461L208.481 11.7247L205.186 13.3622L207.768 19.2294L206.636 21.535L201.903 11.3186L198.432 13.0873L201.301 19.241ZM214.431 22.0122C214.513 20.8723 215.135 19.804 216.192 19.2286C217.237 18.5826 218.459 18.324 219.539 17.7607C219.727 17.6082 219.962 17.4203 219.974 17.1737C219.985 16.8682 219.833 16.633 219.563 16.5277C217.918 16.1752 216.556 17.2087 215.358 18.2309C215.511 17.4785 215.628 16.6566 215.981 15.9524C216.157 15.7645 216.263 15.5059 216.498 15.3654C217.66 14.7897 219.116 14.6255 220.42 14.719C221.489 14.7893 222.475 15.5525 222.839 16.5277C223.027 16.9858 223.015 17.5022 223.05 17.9723L223.062 24.3372C223.074 24.8893 223.332 25.4064 223.661 25.8521H220.619C220.255 25.5229 220.076 25.1121 219.974 24.5958C219.122 25.3474 217.346 26.4635 216.286 25.7232C215.188 25.2294 214.184 23.5736 214.431 22.0122ZM219.821 19.7981C219.797 19.3575 219.48 19.3113 219.257 19.3113C218.529 19.4165 217.902 20.0264 217.554 20.6495C217.243 21.2078 217.17 21.6767 217.143 22.1643C217.14 22.69 217.108 23.0802 217.319 23.48C217.437 23.7378 217.695 23.8554 217.942 23.9257C218.411 24.0197 218.847 23.8908 219.21 23.6442C220.068 23.1621 219.915 22.1989 219.927 21.3421L219.821 19.7981ZM265.234 24.3725C265.386 24.5286 265.463 24.7122 265.463 24.9246C265.463 25.1428 265.386 25.3303 265.232 25.4864C265.079 25.6416 264.894 25.7193 264.677 25.7193C264.46 25.7193 264.274 25.642 264.121 25.4879C264.046 25.4149 263.987 25.3272 263.947 25.2303C263.907 25.1334 263.887 25.0294 263.889 24.9246C263.889 24.7115 263.965 24.5282 264.117 24.3725C264.271 24.2134 264.458 24.1346 264.677 24.1346C264.894 24.1346 265.079 24.2134 265.234 24.3725ZM265.351 24.2506C265.264 24.1606 265.159 24.0894 265.043 24.0414C264.927 23.9934 264.803 23.9696 264.677 23.9715C264.427 23.9715 264.208 24.0581 264.022 24.2301C263.824 24.4153 263.724 24.6462 263.724 24.9246C263.724 25.1929 263.816 25.4188 264 25.6024C264.184 25.7868 264.41 25.8785 264.677 25.8785C264.938 25.8785 265.16 25.7884 265.346 25.6094C265.438 25.5214 265.511 25.415 265.561 25.2971C265.61 25.1792 265.634 25.0523 265.631 24.9246C265.631 24.6614 265.538 24.437 265.351 24.2506ZM264.796 24.8528C264.75 24.8809 264.697 24.8945 264.644 24.8916H264.537V24.5853H264.604C264.673 24.5853 264.726 24.5923 264.765 24.6074C264.821 24.6296 264.85 24.6695 264.85 24.7274C264.849 24.7852 264.831 24.8268 264.796 24.8528ZM264.537 25.0818H264.595L264.655 25.0857C264.688 25.0862 264.72 25.0919 264.75 25.1024C264.768 25.1087 264.784 25.1189 264.797 25.1323C264.811 25.1457 264.821 25.1618 264.827 25.1797C264.836 25.2026 264.842 25.2457 264.844 25.3093C264.847 25.373 264.852 25.4215 264.861 25.4557H265.125L265.117 25.4262C265.109 25.4063 265.106 25.3852 265.107 25.3641V25.2693C265.107 25.1618 265.076 25.083 265.014 25.0329C264.969 25.0015 264.918 24.9808 264.864 24.9724C264.93 24.9669 264.994 24.9421 265.047 24.9009C265.097 24.8613 265.121 24.7969 265.121 24.7084C265.121 24.5915 265.075 24.5073 264.981 24.456C264.916 24.4232 264.845 24.4045 264.772 24.4013C264.699 24.3998 264.627 24.3993 264.554 24.3997C264.424 24.3989 264.326 24.3989 264.26 24.3989V25.4561H264.537V25.0818Z" fill="#B01842"/>
<defs>
<clipPath id="clip0_6872_884">
<rect width="76" height="35" fill="white" transform="translate(147 46.7471)"/>
</clipPath>
</defs>
</svg>
