<svg xmlns="http://www.w3.org/2000/svg" width="557" height="71" fill="none" xmlns:v="https://vecta.io/nano"><style><![CDATA[.B{fill:#fff}.C{fill-rule:evenodd}.D{fill:#63003c}]]></style><path d="M125.743 7.244l-5.955 9.421c-.783 1.239-2.056 2.433-3.592 2.56v.29h6.624c1.758 0 3.041-1.251 3.909-2.63l6.115-9.64h-7.1-.001z" fill="red"/><path d="M16.073 19.515V8.279h2.998v11.235h-2.998zm69.146 0l-7.204-6.672v6.672h-2.532V8.279h2.151l7.108 6.567V8.279h2.532v11.235h-2.055zm15.667-7.611c-1.354-.729-2.88-1.32-4.903-1.32-2.416 0-4.217 1.366-4.217 3.266 0 1.946 1.834 3.325 4.195 3.325 1.95 0 3.495-.545 5.021-1.507v2.78c-1.346.73-3.135 1.274-5.148 1.274-4.11 0-7.342-2.293-7.342-5.872 0-3.521 3.295-5.78 7.331-5.78 1.907 0 3.634.394 5.064 1.032v2.802zm-65.129 7.611V8.279h10.021v2.409h-7.023v2.792h6.865v2.409h-6.865v3.626h-2.998 0zm66.942 0V8.279h10.403v2.409h-7.405v1.947h7.288v2.409h-7.288v2.062h7.373v2.409h-10.371zm-46.507-4.217l4.142 4.217h-3.199c-.71 0-1.175-.243-1.547-.638l-2.818-2.988a.33.33 0 0 0-.113-.072c-.042-.016-.086-.023-.13-.02h-1.918v3.718H47.61V8.279h6.494c3.368 0 4.788 1.657 4.788 3.486 0 2.132-1.738 3.149-2.702 3.533zm-2.393-1.853c1.185 0 1.758-.659 1.758-1.401s-.508-1.356-1.758-1.356h-3.189v2.757h3.189zm-23.34 1.854l4.142 4.216h-3.198c-.71 0-1.176-.243-1.547-.638l-2.818-2.988c-.033-.032-.071-.056-.113-.072s-.086-.023-.13-.02h-1.917v3.718h-2.999V8.279h6.494c3.369 0 4.789 1.657 4.789 3.486 0 2.132-1.738 3.15-2.702 3.533zm-2.393-1.854c1.187 0 1.759-.659 1.759-1.401s-.509-1.356-1.759-1.356h-3.189v2.757h3.189zm-16.686 6.07l-1.313-2.467H4.324l-1.197 2.467H.267L5.988 8.29h2.606l6.484 11.224h-3.699zm-5.911-4.808h3.348l-1.738-3.428-1.61 3.428zm65.777 4.808l-1.282-2.467h-5.592l-1.155 2.467h-2.787L66.001 8.29h2.532l6.304 11.224h-3.591zm-5.752-4.808h3.263l-1.695-3.428-1.568 3.428z" fill="#051039"/><g clip-path="url(#E)" class="C"><path d="M338.841 22.36L321.62 5.218c-2.291-2.271-5.405-3.62-8.646-3.62h-3.598l.269.692 1.199 3.105 6.516 16.965h21.481z" fill="url(#A)"/><path d="M320.057 15.928c.036.248.234.46.485.495a21.33 21.33 0 0 1 10.043 4.388c.017.018.035.018.072.018.018 0 .054-.018.072-.035.036-.035.036-.106 0-.142-2.081-2.158-4.645-3.892-7.497-5.024l-.879-.354a1.2 1.2 0 0 1-.753-1.114c.054-1.84 4.466-1.469 4.914-2.353l.071-.159c-.915-.761-1.991-1.344-3.174-1.664-.018.053-.037.265.197.654.269.426-.287 1.097-1.094.372l-.072-.053c-5.953-5.414-10.437-2.611-12.804-8.678l1.201 3.094c2.349 3.963 8.536 4.381 9.218 10.556z" class="B"/><path d="M323.606 10.63a.47.47 0 0 1 .016.459c-.075.143-.226.242-.426.242v1.447c.646-.177 1.382-.301 1.991-.425v-.814s-.989.063-1.581-.911z" fill="url(#B)"/><path d="M321.259 16.549a21.34 21.34 0 0 1 9.308 4.246c-6.258-5.255-9.093-4.317-9.308-4.247v.001z" fill="url(#C)"/><path d="M309.638 2.288l1.202 3.096c2.349 3.963 8.536 4.388 9.218 10.562-.7-7.891-4.197-6.723-7.963-10.296-.969-.69-1.793-1.681-2.457-3.362z" fill="url(#D)"/><path d="M334.25 13.456c0-2.845 2.921-5.037 7.255-5.037 4.315 0 7.255 2.192 7.255 4.928 0 1.215-.552 2.229-1.599 3.063h2.572l-.607 1.032c-.386.653-.863 1.051-1.892 1.028l-5.858.023c-4.354 0-7.127-2.229-7.127-5.036l.001-.001zm7.237 2.754c2.368 0 4.389-1.16 4.389-2.754s-2.002-2.754-4.39-2.754c-2.37 0-4.39 1.16-4.39 2.755s2.02 2.754 4.39 2.754h.001zm12.18.442l-1.087 1.817h-2.848l4.758-8.093c.367-.635.918-1.142 1.984-1.251h1.065c1.084.109 1.616.599 1.984 1.251l4.757 8.093h-2.902l-1.12-1.817h-6.591zm5.579-1.817l-2.111-3.771c-.056-.09-.093-.109-.166-.109s-.111.019-.165.109l-2.093 3.771h4.535zm18.675 3.634h-2.622l-7.396-6.119v6.119h-2.636V9.125h1.638c.809.109 1.231.327 1.69.707l6.69 5.526V9.125h2.636v9.344zm8.964 0h-2.637v-7.268h-5.272V9.125h13.181v2.077h-5.272m6.854 5.451l-1.047 1.817h-2.847l4.757-8.093c.367-.635.918-1.142 1.984-1.251h1.065c1.083.109 1.616.599 1.983 1.251l4.757 8.093h-2.901l-1.16-1.817h-6.591zm5.638-1.817l-2.111-3.771c-.056-.09-.093-.109-.166-.109s-.111.019-.165.109l-2.093 3.771h4.536-.001zm5.676 2.914l.643-2.011c1.836.58 3.783.815 5.547.815 2.883 0 3.599-.325 3.599-.688 0-.145-.092-.254-.331-.327-.293-.09-1.083-.253-3.453-.633-2.607-.417-3.802-.634-4.664-1.033s-1.397-1.033-1.397-1.957c0-.706.349-1.268.919-1.721 1.01-.761 2.718-1.069 4.573-1.069 2.406 0 4.426.2 6.667.743l.202.055-.532 1.957c-2.498-.526-3.894-.671-5.804-.707-1.341-.018-2.259.09-2.755.236-.276.09-.386.216-.386.362s.092.253.368.344c.294.09.79.218 3.361.616l4.463.924c1.047.399 1.672 1.123 1.672 2.03 0 1.141-.9 1.994-2.462 2.464-.955.291-2.259.453-3.71.453-2.296.018-4.72-.272-6.281-.779l-.239-.073z" fill="#323232"/></g><g clip-path="url(#F)"><g fill="#53616f"><path d="M193.292 23.404l-.599.026c-.228 0-.447-.02-.676-.026l.661-1.588.614 1.588zm.736 1.798l.48-.038c.183 0 .411.032.509.038l-.969-2.162-.937-2.327c-.073.019-.138.032-.208.032-.08 0-.144-.013-.218-.032-.156.528-.534 1.368-1.191 2.825l-.754 1.664c.089-.012.182-.038.293-.038.103 0 .227.026.311.038a14.15 14.15 0 0 1 .521-1.4l.782-.026.834.026.273.686.274.713z" class="C"/><path d="M195.587 22.268l-.071 2.934.47-.038c.148 0 .304.032.454.038-.051-.521-.064-1.219-.064-2.179l.072-2.245-.462.039a6.38 6.38 0 0 1-.463-.039c.064.624.064 1.084.064 1.49z"/><path d="M199.459 23.01c.591-.109 1.133-.479 1.133-1.195a1.01 1.01 0 0 0-.298-.723c-.281-.264-.601-.315-1.022-.315l-1.076.032c-.331 0-.502-.02-.651-.032l.047 1.767-.059 2.657.449-.038c.163 0 .305.026.434.038l-.025-1.187v-.915h.158l1.086 1.567.338.535c.196-.026.274-.038.528-.038.234 0 .397.021.58.038l-1.099-1.451-.339-.484-.184-.256zm-1.068-1.884l.464-.033c.214 0 .429.033.604.163.228.169.274.399.274.672 0 .419-.241.89-.89.89-.172 0-.328-.015-.451-.022v-1.67h-.001z" class="C"/><path d="M202.85 23.692l-.932-2.914c-.164.026-.305.039-.456.039s-.379-.026-.508-.039l.671 1.805.73 2.129.163.49c.09-.018.195-.038.267-.038s.137.012.247.038l.32-1.011.618-1.755.194-.535.268.741.481 1.406.372 1.153c.061-.006.181-.038.28-.038.091 0 .163.021.261.038l.637-1.877.971-2.547a1.16 1.16 0 0 1-.294.039c-.124 0-.228-.021-.299-.039l-.539 1.799-.534 1.499-.598-1.684-.508-1.612c-.091.02-.157.039-.286.039-.116 0-.201-.026-.286-.039-.196.787-.887 2.683-.95 2.857l-.164.42-.126-.363z"/><path d="M209.416 23.404l-.598.026c-.227 0-.449-.02-.676-.026l.664-1.588.61 1.588zm.737 1.798l.482-.038c.181 0 .41.032.506.038l-.967-2.162-.94-2.327a.75.75 0 0 1-.207.032c-.076 0-.145-.013-.215-.032-.156.528-.534 1.368-1.192 2.825l-.754 1.664c.089-.012.182-.038.29-.038s.229.026.316.038c.103-.368.313-.903.521-1.4l.78-.026.833.026.274.686.273.713z" class="C"/><path d="M212.885 23.473c0-.057.039-.128.084-.206l.82-1.412.671-1.077a.74.74 0 0 1-.274.039c-.143 0-.275-.021-.379-.039l-1.124 2.179-1.14-2.179c-.189.032-.379.039-.534.039a4.94 4.94 0 0 1-.533-.039l1.223 2.018.382.66-.038 1.747.435-.038c.15 0 .301.026.451.038l-.046-1.49v-.238m1.954.76c-.033.309-.04.392-.152.728.235.117.659.33 1.218.33 1.191 0 1.65-.754 1.65-1.411 0-.182-.045-.563-.316-.853-.189-.206-.385-.278-.885-.471-.573-.219-.906-.348-.906-.818 0-.382.255-.698.769-.698.408 0 .755.193.852.562h.089a3.18 3.18 0 0 1 .203-.614c-.318-.14-.606-.264-1.081-.264-1.178 0-1.518.723-1.518 1.291 0 .535.19.865.821 1.143l.673.271c.124.05.533.231.533.741 0 .464-.338.806-.853.806-.383 0-.711-.098-1.008-.741h-.089"/></g><g class="C D"><path d="M178.674 12.315c0-4.876 2.636-6.193 4.629-6.193 3.204 0 4.59 2.632 4.59 5.439 0 1.604-.194 3.115-.997 4.335s-2.126 1.953-3.573 1.953c-3.614-.001-4.649-3.405-4.649-5.534zm9.726 9.966c.584-.405 1.501-.909 2.167-1.2l-4.413-2.71c2.714-.947 4.413-3.347 4.413-6.618 0-4.644-3.575-6.617-7.226-6.617-3.942 0-7.341 2.166-7.341 7.082 0 1.043.234 3.018 1.872 4.662 1.701 1.705 3.712 1.956 5.41 1.956.215 0 .431 0 .644-.02l4.474 3.464zm11.276-9.116l-1.796.079c-.685 0-1.349-.059-2.03-.079l1.991-4.759 1.835 4.759zm2.208 5.401l1.445-.118c.548 0 1.23.098 1.524.118l-2.912-6.485-2.811-6.987a2.27 2.27 0 0 1-.626.099 2.28 2.28 0 0 1-.644-.099c-.469 1.589-1.6 4.104-3.574 8.476l-2.265 4.995c.276-.039.546-.119.88-.119.312 0 .683.078.938.119.312-1.103.939-2.712 1.562-4.201l2.344-.077 2.499.077.819 2.052.821 2.15z"/></g><path d="M210.549 8.755l.039-2.168 3.886.137c-.06-.31-.099-.484-.099-.696 0-.156.039-.408.099-.735l-5.215.116c-1.503 0-3.672-.021-5.214-.116a2.92 2.92 0 0 1 .097.716c0 .231-.037.484-.097.716.996-.098 2.872-.137 3.048-.137h.976l.039 2.149.02 5.399-.196 4.434 1.328-.118c.233 0 .861.06 1.427.118-.059-.542-.137-1.181-.137-2.653v-7.16" class="D"/><g class="C D"><path d="M221.419 13.165l-1.797.079c-.683 0-1.348-.059-2.033-.079l1.993-4.759 1.837 4.759zm2.206 5.401l1.445-.118c.547 0 1.229.098 1.521.118l-2.909-6.485-2.811-6.987c-.217.06-.412.099-.626.099a2.31 2.31 0 0 1-.645-.099c-.468 1.589-1.599 4.104-3.573 8.476l-2.263 4.995c.273-.039.545-.119.877-.119.313 0 .682.078.939.119.314-1.103.938-2.712 1.562-4.201l2.342-.077 2.501.077.82 2.052.82 2.15zm10.833-6.579c1.776-.33 3.396-1.433 3.396-3.581 0-.813-.313-1.606-.898-2.167-.838-.793-1.797-.947-3.066-.947l-3.222.095c-.995 0-1.503-.059-1.954-.095l.137 5.302-.176 7.972 1.346-.119c.488 0 .918.078 1.31.119l-.078-3.562v-2.747h.467l3.263 4.703 1.016 1.606c.586-.077.82-.119 1.581-.119.703 0 1.191.06 1.737.119l-3.299-4.355-1.016-1.451-.544-.774zm-3.203-5.652l1.386-.096c.645 0 1.289.096 1.817.484.683.503.818 1.198.818 2.011 0 1.258-.721 2.673-2.674 2.673-.508 0-.977-.039-1.346-.059V6.335h-.001z"/></g><g fill="#77838f"><path d="M263.647 12.023c0 .123-1.768.241-4.289.34a6.15 6.15 0 0 1-1.031-.719l5.32.38zm-1.812-4.222c0 .103-1.484.202-3.6.285l.943-.531 2.657.247zm-15.783 9.083l-2.513.016c-.965 0-1.748-.294-1.748-.662s.783-.657 1.748-.657l3.348.026-.782 1.204-.053.073zm.528.885a8.82 8.82 0 0 0 1.05 1.068s.156.221.631.03c.482-.193.892-.46 1.355-1.074l4.187.084.642.939-10.367.161c-.91 0-1.647-.28-1.647-.623s.735-.622 1.647-.622l2.501.017zm-1.518 3.244c-.806 0-1.459-.247-1.459-.55s.653-.551 1.459-.551c2.135 0 6.509.065 10.256.17l.534.745-10.79.186zm12.444 1.762a329.43 329.43 0 0 1-10.804.23c-.633 0-1.146-.195-1.146-.432s.514-.432 1.146-.432c2.151 0 7.198.082 10.385.21a12.95 12.95 0 0 0 .419.425zm-8.209 1.169l7.506.307c0 .172-5.651.307-7.506.307-.363 0-.654-.134-.654-.307s.292-.307.654-.307zm.02-11.321l-5.778.062c-.965 0-1.748-.297-1.748-.661s.783-.662 1.748-.662l6.927.082-1.149 1.179zm11.46-2.952c1.369.073 2.229.153 2.229.237 0 .093-1.041.181-2.655.261.346-.259.42-.484.426-.498zm-16.699.859c-.91 0-1.647-.28-1.647-.622s.735-.623 1.647-.623l8.642.121-1.184 1.03-7.458.094zm10.143-2.319l-9.16.14c-.806 0-1.459-.246-1.459-.55s.653-.552 1.459-.552c2.129 0 6.492.067 10.234.172l-.565.409-.509.38zm-7.519-2.087c-.633 0-1.146-.193-1.146-.432s.514-.432 1.146-.432c2.385 0 8.34.103 11.361.253l-.58.385a330.39 330.39 0 0 1-10.781.227zm-3.343 8.681c-.983 0-1.781-.299-1.781-.674s.798-.67 1.781-.67l5.168.049-1.026 1.261-4.142.035zm5.284-10.793c0-.171.291-.307.654-.307l7.506.307c0 .169-5.651.308-7.506.308-.362 0-.654-.139-.654-.308z"/></g><g class="D"><path d="M263.833 13.634l-.005.993-6.406.546c0 .216 3.048.412 6.298.54l-.223 1.093-6.175.536c0 .208 2.774.393 5.85.524a11.29 11.29 0 0 1-.483 1.129c-2.638.125-4.82.293-4.82.476 0 .171 1.906.33 4.308.451l-.422.634-.507.65c-1.502.115-2.531.241-2.531.38 0 .117.738.228 1.875.327a10.88 10.88 0 0 1-2.219 1.673s-1.021-.869-1.858-1.884c-.75-.905-2.337-3.289-2.715-3.824s-.619-.691-1.056-.535c-.587.205-1.271.31-1.481.31s-.326-.082.028-.221 1.735-.789 2.415-2.128c.768-1.507.093-3.591.093-3.591-.256 1.113-.84 1.529-.84 1.529.188-1.033-.018-1.971-.533-2.63l-.288 1.309s-.18-.009-.625.361-.567.912-.567.912c.351.139.771-.208.771-.208-.537 1.992-1.307 3.614-1.871 4.473s-1.025 1.181-1.588 1.406c-.475.189-.631-.03-.631-.03a8.82 8.82 0 0 1-1.05-1.067s-.025-.045.062-.043c.233.002.645-.391.736-.552.103-.186.092-.329.038-.338s-.138.138-.584.419-.649.083-.796-.071c-.115-.123-.004-.276.07-.373.067-.084 2.414-4.423 8.627-8.98 8.141-5.972 13.338-7.583 13.635-7.7.197-.077.519-.178.591-.104.082.083.12.15.11.248s-.064.147-.439.31c-3.125 1.364-6.772 3.639-8.845 4.963-2.549 1.231-4.982 2.988-5.072 3.029-.196.121-.051.296.068.224 4.304-2.837 9.354-4.769 14.928-6.353.267-.077.413-.077.457-.016s.071.137.078.219c.007.101-.077.155-.306.244-5.99 2.205-10.406 4.252-13.247 6.146 0 0-.294.176-.297.38-.001.077.159.085.159.085 1.422.026 3.322.11 4.226.161 0 0-.13.454-.996.82-.669.281-1.285.236-1.899.242-.138-.004-.251.133-.142.278.056.072 1.359 2.151 6.094 2.627zm-43.411 10.871h-.803s-.109-.489.181-.678.622-.335.622-.335v1.013zm3.808-1.832s-.488.279-.797.55.064.374.064.374v.909h-2.331v-3.183l-.927.877c-.081.11.201.209.201.209l-.047.3s-.338.175-.749.451-.711.617-.711.857-.102 1.186-.102 1.186h5.4v-2.53h-.001zm-4.822-1.165c.266 0 .454-.104.454-.313s-.127-.358-.454-.358c-.292 0-.37.127-.37.358s.1.313.37.313zm.993 0c.27 0 .45-.104.45-.313s-.123-.358-.45-.358c-.293 0-.37.127-.37.358s.101.313.37.313zm1.504 3.967c-.289 0-.371.125-.371.355s.104.314.371.314.455-.104.455-.314-.123-.355-.455-.355zm1.033 0c-.291 0-.371.125-.371.355s.105.314.371.314.454-.104.454-.314-.123-.355-.454-.355zm11.634-4.028c.268 0 .454-.103.454-.313s-.123-.357-.454-.357c-.289 0-.368.126-.368.357s.102.313.368.313zm1.031 0c.266 0 .452-.103.452-.313s-.125-.357-.452-.357c-.292 0-.371.126-.371.357s.102.313.371.313zm2.847.087c-.145.125-.102.275.082.253v3.421h.765v-4.259a14.93 14.93 0 0 0-.847.585zm-3.074 1.919h-.494c0-.271.494-.42.494-.42v.42zm-3.26.564l-.011.489h-4.322v-.754c.113-.288.304-.323.599-.323h3.157c.683 0 .577.354.577.588zm5.054-2.233v2.723h-1.029v-2.472l-.499.206c-.285.127-1.32.544-1.32 1.107v.651h1.052v.508h-2.501l.005-.552c0-.812-.697-1.253-1.319-1.253h-2.89c-.505 0-.75.122-.888.26v-2.096l-.783.563c-.33.25 0 .419 0 .419v2.66h-.947l-.022-2.283-.846.623c-.185.144-.082.274.124.274l-.038 2.084c0 .401-.331.857-1.035.65 0 0-.224.041-.038.209s.408.292.657.292 1.157-.171 1.157-1.151h11.92v-4.257l-.844.585c-.145.121-.104.27.084.25z"/></g></g><g clip-path="url(#G)"><path d="M8.306 59.429c.933-3.485-.131-7.136-2.676-9.071C2.163 52.54.164 56.642.886 60.917c.238 1.413.753 2.712 1.479 3.85 2.711-.75 5.094-2.171 5.941-5.337zm4.679 10.056c5.721-.955 9.579-6.341 8.618-12.028-.8-4.734-4.681-8.183-9.258-8.66-.924-.097-1.878-.07-2.841.09-1.141.19-2.205.559-3.174 1.07 5.042 1.701 7.754 4.285 7.942 6.934.092 1.635-.672 2.818-1.676 3.782l7.13-.495c.202-.014.265.22.021.29L2.739 65.317a10.54 10.54 0 0 0 10.246 4.169zm-.574-21.311c5.601.58 9.969 5.286 9.971 11.008.002 6.114-4.982 11.074-11.132 11.075S.112 65.306.11 59.191s4.981-11.074 11.131-11.076c.394 0 .784.021 1.169.061z" class="B"/><path d="M.886 60.917a10.34 10.34 0 0 0 1.479 3.849c2.711-.75 5.094-2.171 5.941-5.337.932-3.485-.132-7.136-2.677-9.071C2.163 52.54.164 56.643.886 60.917zm20.716-3.461c.961 5.688-2.896 11.074-8.618 12.029-.962.161-1.916.186-2.841.09a10.54 10.54 0 0 1-7.405-4.258l17.007-4.848c.244-.07.181-.303-.021-.29l-7.13.495c1.004-.964 1.769-2.147 1.676-3.782-.188-2.649-2.899-5.234-7.942-6.934.969-.511 2.033-.88 3.174-1.07a10.6 10.6 0 0 1 2.841-.09c4.577.477 8.458 3.926 9.258 8.659z" fill="#c70a0c"/><g fill="#000"><path d="M80.057 63.529v-3.641h-3.671v3.641h-2.015v-8.672h2.015v3.454h3.671v-3.454h2.03v8.672h-2.03zm-43.428-8.672v5.429c0 .6.089 1.119.264 1.541a2.62 2.62 0 0 0 .75 1.035 3.1 3.1 0 0 0 1.172.592 5.85 5.85 0 0 0 1.536.19c.562 0 1.072-.064 1.52-.19.441-.123.817-.321 1.119-.59s.537-.616.703-1.035.25-.94.25-1.543v-5.429h-1.885v5.371c0 .547-.137.989-.406 1.313-.275.33-.713.498-1.3.498-.578 0-1.012-.167-1.292-.496-.275-.324-.414-.766-.414-1.315v-5.371H36.63zm-5.812 8.673v-7.054h-2.369v-1.619h6.768v.777c0 .465-.379.843-.847.843h-1.536v7.054h-2.015zm32.388-8.674h2.016v8.672h-2.016v-8.672zm-6.711 4.629l.068.086 2.575 3.299a1.71 1.71 0 0 0 1.357.661h1.605l-3.688-4.665-.054-.069.054-.068 3.032-3.875h-2.097l-2.781 3.738-.07.09-.001-.157v-3.672h-2.016v8.672h2.016V59.64l.001-.154zm-8.674-.659h1.175c.423 0 .746-.116.958-.343s.317-.517.317-.868c0-.36-.104-.656-.309-.881s-.533-.344-.966-.344H47.82v2.436zm4.03 4.701c-.597 0-1.16-.315-1.468-.823l-1.568-2.574h-.994v3.397h-2.014v-8.67h3.591c.922 0 1.645.239 2.147.712s.755 1.117.755 1.918a2.61 2.61 0 0 1-.324 1.225c-.212.399-.588.726-1.119.971l-.117.054 2.447 3.79H51.85zm15.025-.367v-1.663c.642.294 1.468.587 2.323.587.983 0 1.482-.335 1.482-.978 0-.754-.669-.838-2.009-1.411-.912-.405-1.781-1.034-1.781-2.486 0-1.69 1.297-2.487 3.093-2.487.954 0 1.767.223 2.223.391v1.621c-.456-.21-1.269-.461-2.081-.461-.884 0-1.297.321-1.297.88 0 .587.499.769 1.397 1.104 1.154.572 2.494.824 2.494 2.78 0 1.69-1.354 2.612-3.164 2.612-1.112 0-1.995-.196-2.679-.489zm62.254.369v-8.672h5.461v.787c0 .459-.376.832-.837.832h-2.609v1.865h2.93v1.447h-2.93v2.121h3.446v1.618h-5.461zm-19.926-.001v-8.672h.979c.571 0 1.036.462 1.036 1.03v6.08h3.217v1.562h-5.232zm-12.475-.002V54.86h2.016l-.001 8.666h-2.015zm5.878-4.701h1.175c.423 0 .745-.115.958-.342s.317-.517.317-.869c0-.359-.104-.656-.31-.881s-.532-.344-.965-.344h-1.175v2.436zm4.03 4.701a1.73 1.73 0 0 1-1.469-.822L103.6 60.13h-.994v3.397h-2.014v-8.669h3.591c.923 0 1.645.239 2.148.712s.754 1.117.754 1.918c0 .407-.109.819-.324 1.226-.212.399-.589.725-1.118.971l-.117.054 2.447 3.79h-1.337zm-16.835-3.158l.791-2.192.469-1.397h.029c.103.397.279.89.454 1.397l.762 2.192H89.8zm2.49-5.513h-2.314l-3.289 8.672h1.452a.85.85 0 0 0 .809-.581l.338-1.018h3.537l.517 1.599h2.183l-3.234-8.672zm43.918 8.305v-1.662c.641.293 1.468.586 2.323.586.983 0 1.482-.335 1.482-.978 0-.754-.67-.838-2.009-1.41-.912-.406-1.782-1.034-1.782-2.487 0-1.69 1.297-2.487 3.093-2.487.955 0 1.767.223 2.223.391v1.621a5.38 5.38 0 0 0-2.081-.461c-.883 0-1.297.321-1.297.88 0 .586.499.768 1.397 1.104 1.154.572 2.494.824 2.494 2.78 0 1.69-1.354 2.612-3.164 2.612-1.112 0-1.995-.196-2.679-.489zm-16.616-8.303h1.249a1.72 1.72 0 0 1 1.458.805l2.432 3.886c.275.432.593 1.002.782 1.405h.043l-.043-1.322v-4.774h1.766v8.671h-2.21l-2.958-4.691-.768-1.336h-.028l.043 1.239v4.788h-1.766v-8.671zm-3.861 8.669V54.86h2.015v8.666h-2.015z"/></g></g><g clip-path="url(#H)"><g fill="#1c4e9d"><path d="M229.268 59.292l1.064-2.291s.911 1.27 1.233 2.313c0 0-1.027.163-2.297-.022zm-21.325-1.351v-2.004s.021-1.495 1.185-1.495c1.171 0 1.024 1.453 1.036 1.637s-.065 1.863-2.221 1.863zm3.649-5.013s-5.682.431-8.747.141c0 0-.365-.099-.465.329 0 0-.199.326.121.552s1.25.778 1.25 2.825v3.948s.182 2.171-1.291 2.987c0 0-.301.103-.141.535 0 0 .021.388.446.328s2.801-.247 6.066-.021c0 0 .281.021.359-.166l.104-.202s.284-.286-.144-.573c-.421-.286-1.127-.717-1.186-2.538V59.21h.26s.904-.084 1.511 1.313l1.351 3.208c.183.35.525 1.085 1.795.962a81.22 81.22 0 0 1 13.483.021s.686.102.948-.574l1.348-3.439 3.55-.04a3.93 3.93 0 0 0 .461 1.761c0 .962-.824 1.188-.824 1.188s-.344.141-.182.573c0 0 .061.41.464.368s4.009-.388 9.451-.042c0 0 .364.145.483-.346 0 0 .222-.389-.161-.574 0 0-1.428-.326-1.428-2.641l.02-3.947s1.086 1.574 2.376 3.929 1.977 3.356 1.977 3.356.645 1.269 1.913.593 2.64-1.452 3.426-2.007c0 0 .305-.142.141-.534l-.119-.244s-.022-.142-.444-.184c0 0-.947.227-.969-1.145s-.081-3.314 0-5.298c0 0 .042-1.23 1.15-1.577 0 0 .401-.039.221-.531l-.121-.248s0-.205-.281-.162-1.854.183-3.525.042c0 0-.364 0-.406.407 0 0-.099.37.184.492s1.267.492 1.331 2.065l.079 3.766s-2.299-3.437-3.77-6.076c0 0-.24-.717-1.111-.654-.861.06-2.941.163-4.452.017 0 0-.424-.059-.484.432 0 0-.121.428.242.612 0 0 1.21.778 1.21 1.044l-.023 5.71s.104 2.231-.482 1.944c0 0-.342.225-1.168-1.311s-1.895-3.723-3.627-7.981c0 0-.365-1.186-1.109-1.186 0 0-.443.022-.906.284-.464.269-1.936 1.107-3.467 1.559 0 0-.403.121-.284.531 0 0-.058.305.384.474.442.161.826.346.946.569 0 0-.462 1.515-1.31 3.073-.847 1.553-1.933 4.13-5.058 4.13h-1.23s-.321.039-.321-.409V59.19h.806s1.308-.288 1.936 1.431c0 0 .118.532.562.326 0 0 .503-.06.463-.573a23.77 23.77 0 0 1 .02-3.129s.042-.368-.363-.449c0 0-.321-.163-.564.102s-.746.898-1.895.898h-.944v-3.068s-.021-.203.118-.224 1.896-.452 2.923.385 1.091 1.189 1.31 1.496a.44.44 0 0 0 .724.166s.405-.064.203-.698-.261-.859-.603-2.456c0 0-.063-.676-.747-.612s-4.976.573-9.008.244c0 0-.422-.102-.504.35 0 0-.183.304.16.59 0 0 1.187.556 1.187 2.681v3.562s.204 2.825-.783 2.825c0 0-.425.184-1.148-1.27l-.766-1.495s-.585-1.906-3.106-1.985c0 0 3.487-.593 3.165-3.253 0 0-.059-2.027-2.678-2.107m47.238 3.93c1.09 1.574 1.233 2.312 1.233 2.312-.865.145-2.296-.02-2.296-.02.419-1.146 1.063-2.292 1.063-2.292zm9.133 3.316s.079 2.678-.908 2.494c0 0-.344.227-1.17-1.308s-1.894-3.723-3.627-7.978c0 0-.363-1.189-1.109-1.189 0 0-.441.022-.905.284-.465.269-1.935 1.109-3.466 1.559 0 0-.406.121-.285.531 0 0-.061.308.385.47s.827.347.945.574c0 0-.461 1.513-1.309 3.068s-1.594 3.827-3.587 4.849c0 0-.386.084-.261.556.141.531.403.388.403.388 2.317-.247 3.023-.042 3.548 0s.442-.388.442-.388c.14-.269-.04-.431-.04-.431l-.221-.287s-.868-.227.361-2.741l3.549-.042s.465.796.465 1.758-.828 1.188-.828 1.188-.344.145-.184.573c0 0 .063.41.467.371s7.094-.329 12.536.018c0 0 .381.021.481-.325 0 0 .223-.431-.159-.676 0 0-1.07-.492-1.149-2.228l-.06-5.038s-.082-1.84 1.066-2.41c0 0 .302-.146.143-.557 0 0-.081-.386-.447-.347s-4.168.247-5.962.021c0 0-.407-.021-.485.326 0 0-.201.331.143.597s1.228.878 1.228 2.782v3.54zm12.575-2.312v-2.006s.042-1.491 1.15-1.491 1.126 1.263 1.068 1.677c-.056.409-.16 1.821-2.218 1.821zm3.467-5.096s-4.434.532-8.545.124c0 0-.524-.144-.586.407 0 0-.038.368.185.514.221.139 1.127.694 1.188 2.616s.101 1.37.062 3.991c0 0 .156 2.515-1.25 3.13 0 0-.365.081-.163.616 0 0 .121.409.46.265 0 0 3.308-.223 6.171.021 0 0 .324.123.423-.308 0 0 .262-.286-.139-.594s-1.131-.839-1.214-2.128l-.059-2.31h.284s.947-.125 1.591 1.39l1.089 2.62s.421 1.207 1.108 1.596c0 0 .282.268 1.33.141 0 0 1.713-.099 3.406-.896 0 0 .382-.084.26-.534 0 0 .083-.352-.399-.451s-.846-.574-1.19-1.271l-.87-1.718s-.703-1.775-3.002-1.8c0 0 3.164-.552 3.164-2.97 0-2.41-2.819-2.452-2.819-2.452"/></g><path d="M202.234 58.898c0 3.745-2.988 6.782-6.676 6.782s-6.682-3.036-6.682-6.782 2.992-6.785 6.682-6.785 6.676 3.036 6.676 6.785z" class="B"/><path d="M198.426 54.809c2.034.634 3.515 2.557 3.515 4.835 0 .335-.034.656-.093.968l-.008.044c-.154.893-.512 1.718-1.019 2.416l-.01.011a6.83 6.83 0 0 0 1.425-4.191c0-3.745-2.993-6.785-6.686-6.785a6.6 6.6 0 0 0-4.389 1.671l-.016.015c-.926.863-1.504 2.101-1.504 3.477 0 .567.096 1.116.28 1.622l.009.024c.466 1.031 1.492 1.751 2.684 1.751 1.627 0 2.949-1.338 2.949-2.993l-.009-1.288a1.57 1.57 0 0 1 .806-1.372l.005-.002a2.59 2.59 0 0 1 1.262-.33 2.57 2.57 0 0 1 .795.123l.004.003" fill="#ed192d"/><path d="M190.438 63.262c1.226 1.48 3.064 2.423 5.119 2.423 1.681 0 3.219-.63 4.393-1.67l.016-.012a4.75 4.75 0 0 0 1.505-3.479c0-.568-.099-1.116-.282-1.623l-.009-.021c-.466-1.037-1.49-1.755-2.684-1.755-1.628 0-2.948 1.339-2.948 2.991l.009 1.292c0 .589-.326 1.106-.806 1.371l-.005.003c-.374.208-.805.329-1.261.329a2.69 2.69 0 0 1-.796-.123l-.003-.004c-2.036-.636-3.516-2.56-3.516-4.834a5.17 5.17 0 0 1 .093-.971l.005-.042c.156-.895.513-1.714 1.023-2.415l.006-.011a6.84 6.84 0 0 0-1.423 4.188c0 1.088.254 2.12.702 3.033l-.055.042s-.259.202-.786-.409l-3.607-4.4s1.956-2.128 3.871-2.987c0 0 .501-.164.382-.613l-.082-.268s-.016-.288-.463-.227-2.54.227-4.634.021c0 0-.323 0-.444.269 0 0-.203.347 0 .549.203.208.929.718.929 1.413 0 0 .157.514-.949 1.33l-2.256 1.599.017-1.924s-.059-1.616 1.09-2.376c0 0 .281-.12.181-.386l-.078-.205s-.064-.329-.406-.29c0 0-1.993.227-5.966.042 0 0-.263-.021-.362.184l-.08.163s-.141.371.08.534 1.149.718 1.191 2.412l-.042 4.462c-.142 1.25-.241 1.966-1.229 2.844 0 0-.262.209-.141.514l.141.265s.1.206.442.166 2.823-.29 5.966-.042c0 0 .223.081.323-.142l.141-.287s.161-.286-.141-.513-1.11-.878-1.127-2.146l-.02-2.072s.544.228 3.444 4.588c0 0 1.029 1.882 3.205.717 0 0 1.592-.881 2.257-1.453l.07-.042z" fill="#1c4e9d"/></g><path d="M465.453 11.903l-.156.005-.174.284c1.271 0 2.425.105 3.701.334l-.36.348c-1.152-.204-2.109-.286-3.329-.286l-.257.002c-.043.064-.139.188-.234.304l.607-.011c1.003 0 1.94.075 2.957.238l-.36.35c-.774-.121-1.72-.19-2.569-.19l-.951.028-.306.335c.407-.043.854-.062 1.387-.062.758 0 1.482.05 2.167.151l-.36.346c-.488-.06-1.081-.096-1.605-.096-1.351 0-2.416.293-3.516.966 1.049 1.125 2.767 1.837 4.432 1.837h.156l-.582.563c-2.402-.451-4.929-1.507-7.065-2.954-2.053-1.386-2.772-1.796-4.375-2.504l-.011-.412 1.085.465.369-.293 3.541 1.622-.231.185-1.817-.79-.18.14.945.527c.797.444 1.404.643 1.965.643 1.226 0 2.327-.87 3.037-2.398.534-.069 1.104-.101 1.789-.101 1.406 0 2.771.135 4.317.424l-.376.364a21.52 21.52 0 0 0-3.641-.364zm-3.442 10.109a8.35 8.35 0 0 1-8.344-8.344 8.35 8.35 0 0 1 8.344-8.344 8.35 8.35 0 0 1 8.344 8.344 8.35 8.35 0 0 1-8.344 8.344zm0-17.22a8.87 8.87 0 0 0-8.876 8.876 8.87 8.87 0 1 0 17.753 0 8.87 8.87 0 0 0-8.877-8.876zm23.451 12.41h5.089v2.384h-7.828V7.751h2.739v9.451zm11.243-6.138h2.553v8.521h-2.4v-.981c-.355.659-1.082 1.234-2.418 1.234-2.181 0-3.314-.981-3.314-3.787v-4.988h2.553v4.869c0 1.133.49 1.64 1.522 1.64.93 0 1.504-.507 1.504-1.64v-4.869zm4.515-.321c0-2.063 1.302-3.162 3.347-3.162.66 0 1.083.101 1.083.101v2.063s-.355-.034-.66-.034c-.795 0-1.217.271-1.217 1.014v.338h1.877v2.08h-1.877v6.442h-2.553v-6.442h-1.285v-2.08h1.285v-.321zm8.927.321h1.944v2.08h-1.944v3.314c0 .913.473 1.15 1.217 1.15.305 0 .727-.051.727-.051v2.046s-.592.135-1.217.135c-2.046 0-3.28-.93-3.28-2.992v-3.601h-1.285v-2.08h1.285V8.579h2.553v2.485zm7.596-.254c2.165 0 3.298.981 3.298 3.787v4.988h-2.554v-4.869c0-1.133-.49-1.64-1.555-1.64-.964 0-1.538.507-1.538 1.64v4.869h-2.554V7.768h2.57v4.125c.44-.626 1.133-1.082 2.333-1.082zm9.807 5.461c0 .93-.88 1.623-2.232 1.623-.659 0-1.048-.304-1.048-.879 0-.44.27-.812 1.133-.93l1.471-.203c.253-.034.524-.085.676-.135v.524zm-1.42-5.461c-2.52 0-3.737.964-3.838 2.773h2.485c.034-.473.304-.828 1.353-.828.93 0 1.369.304 1.369.761 0 .406-.254.558-.879.626l-1.623.169c-2.198.237-3.196 1.15-3.196 2.807 0 1.538.947 2.722 2.959 2.722 1.37 0 2.181-.44 2.891-1.319v1.065h2.334V13.99c0-2.35-1.37-3.179-3.855-3.179zm9.758 0c2.215 0 3.348.981 3.348 3.787v4.988h-2.553v-4.869c0-1.133-.491-1.64-1.556-1.64-.964 0-1.538.507-1.538 1.64v4.869h-2.553v-8.521h2.4v.981c.356-.659 1.083-1.234 2.452-1.234zm8.733 3.432c2.164.287 3.247.964 3.247 2.739 0 1.792-1.268 2.857-3.957 2.857-2.925 0-3.956-1.166-4.007-2.874h2.52c.067.626.506.93 1.487.93.998 0 1.403-.237 1.403-.71 0-.44-.338-.643-1.217-.761l-.896-.118c-1.877-.254-2.959-.981-2.959-2.671 0-1.623 1.201-2.824 3.72-2.824 2.333 0 3.585.93 3.703 2.773h-2.486c-.084-.49-.355-.795-1.217-.795-.845 0-1.166.287-1.166.659s.202.575.929.676l.896.118zm9.638 2.029c0 .93-.88 1.623-2.232 1.623-.66 0-1.048-.304-1.048-.879 0-.44.27-.812 1.132-.93l1.471-.203c.254-.034.524-.085.677-.135v.524zm-1.421-5.461c-2.519 0-3.736.964-3.838 2.773h2.486c.034-.473.304-.828 1.352-.828.93 0 1.37.304 1.37.761 0 .406-.254.558-.879.625l-1.624.169c-2.197.237-3.195 1.15-3.195 2.807 0 1.538.947 2.722 2.959 2.722 1.369 0 2.181-.44 2.891-1.319v1.065h2.333V13.99c0-2.35-1.369-3.179-3.855-3.179z" fill="#0a1d3d"/><g clip-path="url(#I)"><path d="M323.383 51.482v13.315h2.644v-5.385h4.78v-2.252h-4.78v-3.407h5.681v-2.271h-8.325zm50.305 0v13.315h2.586V60.02c0-.489.039-.94.157-1.351.391-1.253 1.449-2.154 2.821-2.154 1.312 0 1.645.842 1.645 2.114v6.168h2.566v-6.697c0-2.761-1.293-3.956-3.604-3.956-1.802 0-3.076 1.057-3.585 2.056h-.039s.039-.372.039-.881v-3.838h-2.586zm-28.424 2.663c-3.095 0-5.289 2.252-5.289 5.463 0 2.957 2.135 5.444 5.583 5.444 2.586 0 4.172-1.488 4.172-1.488l-.999-1.86s-1.331 1.135-2.997 1.135c-1.547 0-2.958-.94-3.114-2.761h7.189l.059-.999c0-2.761-1.607-4.935-4.604-4.935zm12.459 0c-2.096 0-3.232 1.273-3.683 2.154h-.039s.039-.313.039-.705V54.4h-2.488v10.398h2.586V60.02c0-.489.039-.959.176-1.39.392-1.234 1.411-2.114 2.802-2.114 1.312 0 1.645.842 1.645 2.114v6.168h2.566v-6.697c0-2.761-1.293-3.956-3.604-3.956zm10.539 0c-3.448 0-5.642 2.487-5.642 5.463 0 3.015 2.194 5.444 5.642 5.444 2.801 0 4.29-1.684 4.29-1.684l-.999-1.841s-1.293 1.331-3.056 1.331c-1.978 0-3.252-1.508-3.252-3.27 0-1.782 1.234-3.231 3.154-3.231 1.646 0 2.723 1.116 2.723 1.116l1.136-1.782s-1.273-1.547-3.996-1.547zm-29.306.118c-1.606 0-2.84 1.175-3.31 2.663h-.039s.039-.333.039-.725V54.4h-2.488v10.378h2.605v-4.112c0-.607.059-1.175.216-1.684.49-1.547 1.743-2.173 2.84-2.173a4.84 4.84 0 0 1 .608.039v-2.546s-.236-.039-.471-.039zm6.249 1.88c1.137 0 2.018.744 2.057 2.154h-4.544c.235-1.331 1.155-2.154 2.487-2.154z" fill="#0c51a0"/><g fill="#00ade9"><path d="M385.951 51.482v13.296h2.449v-.587c0-.392-.039-.705-.039-.705h.039s.94 1.547 3.095 1.547c2.762 0 4.78-2.134 4.78-5.444 0-3.211-1.783-5.444-4.604-5.444-2.194 0-3.114 1.508-3.114 1.508h-.04s.04-.372.04-.881v-3.29h-2.586-.02zm16.906 2.663c-3.095 0-5.27 2.252-5.309 5.463 0 2.957 2.135 5.444 5.583 5.444 2.606 0 4.192-1.488 4.192-1.488l-.999-1.86s-1.332 1.135-2.997 1.135c-1.547 0-2.958-.94-3.115-2.761h7.189l.059-.999c0-2.761-1.606-4.935-4.603-4.935zm11.185 0c-3.095 0-5.269 2.252-5.289 5.463 0 2.957 2.135 5.444 5.583 5.444 2.586 0 4.173-1.488 4.173-1.488l-1-1.86s-1.331 1.135-2.997 1.135c-1.547 0-2.958-.94-3.114-2.761h7.189l.059-.999c0-2.761-1.607-4.935-4.604-4.935zm-11.244 1.997c1.136 0 2.018.744 2.057 2.154h-4.545c.235-1.331 1.156-2.154 2.488-2.154zm11.185 0c1.137 0 2.018.744 2.057 2.154h-4.544c.235-1.331 1.155-2.154 2.487-2.154zm-22.899.215c1.528 0 2.585 1.292 2.585 3.27 0 2.076-1.175 3.231-2.605 3.231-1.744 0-2.586-1.605-2.586-3.211 0-2.311 1.254-3.29 2.606-3.29zm36.357-2.545c-3.095-4.484-3.584-10.828-.352-9.732 3.252 1.096 7.855 4.425.352 9.732z"/></g><path d="M427.441 53.812c-3.075 2.036-7.267 2.193-6.778.333.49-1.958 2.488-4.993 6.778-.333z" fill="#0c51a0"/><path d="M427.677 54.145c.96 1.645 3.33 2.311 5.113.568 2.448-2.369 6.013-7.519-5.113-.568z" fill="#7bcdf3"/><path d="M427.677 54.146c-2.41 1.606-4.349 4.21-3.174 4.19s4.055-1.606 3.174-4.19z" fill="#5491ce"/></g><defs><linearGradient id="A" x1="328.044" y1="22.283" x2="320.171" y2="-.675" gradientUnits="userSpaceOnUse"><stop stop-color="#be0000"/><stop offset=".39" stop-color="#de0000"/><stop offset=".768" stop-color="#f60000"/><stop offset="1" stop-color="red"/></linearGradient><linearGradient id="B" x1="324.289" y1="11.705" x2="324.289" y2="10.802" gradientUnits="userSpaceOnUse"><stop stop-color="#fff" stop-opacity="0"/><stop offset=".512" stop-color="#e0e0e0" stop-opacity=".262"/><stop offset=".665" stop-color="#c5c5c5" stop-opacity=".549"/><stop offset=".824" stop-color="#b5b5b5" stop-opacity=".805"/><stop offset="1" stop-color="#afafaf"/></linearGradient><linearGradient id="C" x1="321.262" y1="18.624" x2="329.641" y2="18.624" gradientUnits="userSpaceOnUse"><stop stop-color="#fff" stop-opacity="0"/><stop offset=".084" stop-color="#f1f1f1" stop-opacity=".093"/><stop offset=".248" stop-color="#d4d4d4" stop-opacity=".325"/><stop offset=".445" stop-color="silver" stop-opacity=".555"/><stop offset=".703" stop-color="#b3b3b3" stop-opacity=".781"/><stop offset="1" stop-color="#afafaf"/></linearGradient><linearGradient id="D" x1="312.238" y1="9.1" x2="320.042" y2="9.1" gradientUnits="userSpaceOnUse"><stop stop-color="#fff" stop-opacity="0"/><stop offset=".286" stop-color="#ededed" stop-opacity=".282"/><stop offset=".886" stop-color="#bdbdbd" stop-opacity=".848"/><stop offset="1" stop-color="#afafaf"/></linearGradient><clipPath id="E"><path transform="translate(309.376 1.598)" d="M0 0h108.617v20.765H0z" class="B"/></clipPath><clipPath id="F"><path transform="translate(176)" d="M0 0h94.242v26.356H0z" class="B"/></clipPath><clipPath id="G"><path transform="translate(0 48.114)" d="M0 0h142.161v22.362H0z" class="B"/></clipPath><clipPath id="H"><path transform="translate(175.705 52.107)" d="M0 0h114.208v13.577H0z" class="B"/></clipPath><clipPath id="I"><path transform="translate(322.657 43.322)" d="M0 0h113.409v22.362H0z" class="B"/></clipPath></defs></svg>