<svg width="328" height="242" viewBox="0 0 328 242" fill="none" xmlns="http://www.w3.org/2000/svg">
<g clip-path="url(#clip0_132_222)">
<path d="M289.562 168.997V48.0469C289.562 32.0953 276.686 19.2188 260.734 19.2188H251.125V9.60938C251.125 4.29219 246.833 0 241.516 0H203.078C197.761 0 193.469 4.29219 193.469 9.60938V19.2188H96.0938V9.60938C96.0938 4.29219 91.8016 0 86.4844 0H48.0469C42.7297 0 38.4375 4.29219 38.4375 9.60938V19.2188H28.8281C12.8766 19.2188 0 32.0953 0 48.0469V260.094C0 265.411 4.29219 269.703 9.60938 269.703H159.9C171.752 303.592 203.847 328 241.516 328C289.178 328 328 288.922 328 240.875C328 210.958 312.753 184.564 289.562 168.997ZM212.688 19.2188H231.906V28.8281C231.906 34.1453 227.614 38.4375 222.297 38.4375C216.98 38.4375 212.688 34.1453 212.688 28.8281V19.2188ZM57.6562 19.2188H76.875V28.8281C76.875 34.1453 72.5828 38.4375 67.2656 38.4375C61.9484 38.4375 57.6562 34.1453 57.6562 28.8281V19.2188ZM19.2188 48.0469C19.2188 42.7297 23.5109 38.4375 28.8281 38.4375H40.1031C44.075 49.6484 54.7734 57.6562 67.2656 57.6562C79.7578 57.6562 90.4562 49.6484 94.4281 38.4375H195.134C199.106 49.6484 209.805 57.6562 222.297 57.6562C234.789 57.6562 245.488 49.6484 249.459 38.4375H260.734C266.052 38.4375 270.344 42.7297 270.344 48.0469V77.5156H19.2188C19.2188 72.1344 19.2188 61.6922 19.2188 48.0469ZM155.544 250.484H19.2188V96.7344H270.344V159.323C261.311 156.12 251.637 154.391 241.516 154.391C193.853 154.391 155.031 193.212 155.031 240.875C155.031 244.142 155.223 247.345 155.544 250.484ZM241.516 308.781C204.103 308.781 174.25 278.031 174.25 240.875C174.25 203.783 204.423 173.609 241.516 173.609C278.608 173.609 308.781 203.783 308.781 240.875C308.781 278.288 278.608 308.781 241.516 308.781Z" fill="#98B1DB"/>
<path d="M279.953 231.266H251.125V202.438C251.125 197.12 246.833 192.828 241.516 192.828C236.198 192.828 231.906 197.12 231.906 202.438V240.875C231.906 246.192 236.198 250.484 241.516 250.484H279.953C285.27 250.484 289.562 246.192 289.562 240.875C289.562 235.558 285.27 231.266 279.953 231.266Z" fill="#98B1DB"/>
<path d="M86.4844 115.953H48.0469C42.7297 115.953 38.4375 120.245 38.4375 125.562C38.4375 130.88 42.7297 135.172 48.0469 135.172H86.4844C91.8016 135.172 96.0938 130.88 96.0938 125.562C96.0938 120.245 91.8016 115.953 86.4844 115.953Z" fill="#98B1DB"/>
<path d="M124.922 135.172H164.641C169.958 135.172 174.25 130.88 174.25 125.562C174.25 120.245 169.958 115.953 164.641 115.953H124.922C119.605 115.953 115.312 120.245 115.312 125.562C115.312 130.88 119.605 135.172 124.922 135.172Z" fill="#98B1DB"/>
<path d="M86.4844 154.391H48.0469C42.7297 154.391 38.4375 158.683 38.4375 164C38.4375 169.317 42.7297 173.609 48.0469 173.609H86.4844C91.8016 173.609 96.0938 169.317 96.0938 164C96.0938 158.683 91.8016 154.391 86.4844 154.391Z" fill="#98B1DB"/>
<path d="M86.4844 192.828H48.0469C42.7297 192.828 38.4375 197.12 38.4375 202.438C38.4375 207.755 42.7297 212.047 48.0469 212.047H86.4844C91.8016 212.047 96.0938 207.755 96.0938 202.438C96.0938 197.12 91.8016 192.828 86.4844 192.828Z" fill="#98B1DB"/>
<path d="M174.25 164C174.25 158.683 169.958 154.391 164.641 154.391H124.922C119.605 154.391 115.312 158.683 115.312 164C115.312 169.317 119.605 173.609 124.922 173.609H164.641C169.958 173.609 174.25 169.317 174.25 164Z" fill="#98B1DB"/>
<path d="M203.078 135.172H241.516C246.833 135.172 251.125 130.88 251.125 125.562C251.125 120.245 246.833 115.953 241.516 115.953H203.078C197.761 115.953 193.469 120.245 193.469 125.562C193.469 130.88 197.761 135.172 203.078 135.172Z" fill="#98B1DB"/>
</g>
<defs>
<clipPath id="clip0_132_222">
<rect width="328" height="328" fill="white"/>
</clipPath>
</defs>
</svg>
