<svg width="208" height="218" viewBox="0 0 208 218" fill="none" xmlns="http://www.w3.org/2000/svg">
<path fill-rule="evenodd" clip-rule="evenodd" d="M9.22936 9.19743C15.1359 3.3062 23.1429 0 31.4878 0H127.865C129.822 0 131.7 0.776324 133.086 2.15873L205.369 74.2536C206.759 75.6407 207.541 77.5242 207.541 79.4885V223.678C207.541 232.019 204.219 240.014 198.312 245.906C192.405 251.797 184.398 255.103 176.053 255.103H31.4878C23.1429 255.103 15.1359 251.797 9.22936 245.906C3.32214 240.014 0 232.019 0 223.678V31.4252C0 23.0845 3.32213 15.0893 9.22936 9.19743ZM31.4878 14.7871C27.0523 14.7871 22.8023 16.5447 19.6718 19.6671C16.542 22.7888 14.7871 27.0187 14.7871 31.4252V223.678C14.7871 228.085 16.542 232.315 19.6718 235.436C22.8023 238.559 27.0523 240.316 31.4878 240.316H176.053C180.489 240.316 184.739 238.559 187.869 235.436C190.999 232.315 192.754 228.085 192.754 223.678V82.5566L124.808 14.7871H31.4878Z" fill="#C4C4C4"/>
<path fill-rule="evenodd" clip-rule="evenodd" d="M127.552 0C131.635 0 134.946 3.31021 134.946 7.39355V72.5956H200.148C204.231 72.5956 207.541 75.9058 207.541 79.9891C207.541 84.0725 204.231 87.3827 200.148 87.3827H127.552C123.469 87.3827 120.159 84.0725 120.159 79.9891V7.39355C120.159 3.31021 123.469 0 127.552 0Z" fill="#C4C4C4"/>
<path fill-rule="evenodd" clip-rule="evenodd" d="M47.5638 140.069C47.5638 135.986 50.874 132.676 54.9574 132.676H152.586C156.669 132.676 159.979 135.986 159.979 140.069C159.979 144.153 156.669 147.463 152.586 147.463H54.9574C50.874 147.463 47.5638 144.153 47.5638 140.069Z" fill="#C4C4C4"/>
<path fill-rule="evenodd" clip-rule="evenodd" d="M47.5638 187.632C47.5638 183.548 50.874 180.238 54.9574 180.238H152.586C156.669 180.238 159.979 183.548 159.979 187.632C159.979 191.715 156.669 195.025 152.586 195.025H54.9574C50.874 195.025 47.5638 191.715 47.5638 187.632Z" fill="#C4C4C4"/>
<path fill-rule="evenodd" clip-rule="evenodd" d="M47.5638 92.5049C47.5638 88.4215 50.874 85.1113 54.9574 85.1113H79.9904C84.0737 85.1113 87.3839 88.4215 87.3839 92.5049C87.3839 96.5882 84.0737 99.8984 79.9904 99.8984H54.9574C50.874 99.8984 47.5638 96.5882 47.5638 92.5049Z" fill="#C4C4C4"/>
</svg>
