<svg width="320" height="263" viewBox="0 0 320 263" fill="none" xmlns="http://www.w3.org/2000/svg">
<path d="M208.042 244.729C204.65 244.729 201.896 247.478 201.896 250.872C201.896 254.262 204.65 257.016 208.042 257.016C211.434 257.016 214.183 254.262 214.183 250.872C214.183 247.478 211.434 244.729 208.042 244.729ZM208.042 255.698C207.408 255.698 206.78 255.574 206.194 255.331C205.609 255.089 205.077 254.734 204.628 254.285C204.18 253.837 203.825 253.305 203.583 252.719C203.34 252.134 203.216 251.506 203.216 250.872C203.216 248.206 205.372 246.05 208.042 246.05C210.708 246.05 212.866 248.206 212.866 250.872C212.866 253.539 210.708 255.698 208.042 255.698ZM210.566 249.448C210.566 249.174 210.512 248.904 210.407 248.651C210.302 248.398 210.149 248.169 209.955 247.975C209.761 247.782 209.532 247.629 209.279 247.524C209.026 247.42 208.755 247.366 208.482 247.367H205.521V254.379H206.837V251.531H207.782L209.111 254.379H210.566L209.178 251.41C210.009 251.115 210.564 250.329 210.566 249.448ZM208.482 250.215H206.837V248.68H208.482C208.904 248.68 209.25 249.024 209.25 249.448C209.249 249.872 208.905 250.214 208.482 250.215Z" fill="#010101"/>
<path d="M214.729 159.299C216.128 156.895 217.403 154.462 218.521 152.035L319.234 98.0981H213.261C205.316 89.7716 193.827 84.7006 179.703 83.2692L171.306 0L121.277 82.8437H94.348L85.2298 98.0985H0.234375L57.6146 144.326L21.9911 203.948H48.1324L13.0007 262.109L121.606 203.941C124.825 203.918 128.042 203.825 131.256 203.664L197.181 256.783L190.108 186.547C199.962 179.711 208.036 170.766 214.729 159.299H214.729Z" fill="#006341"/>
<path d="M214.272 148.079L297.324 103.598H210.808C203.023 94.3132 190.601 89.1001 174.698 88.4194L167.489 16.9553L124.382 88.3383H97.4644L88.3528 103.598H15.8223L64.7888 143.042L31.6819 198.441H57.8752L28.0677 247.801L120.223 198.441C124.505 198.441 128.787 198.314 133.062 198.062L190.396 244.248L184.308 183.795C194.702 177.226 203.113 168.291 209.977 156.53C211.616 153.721 213.062 150.885 214.272 148.079Z" fill="#010101"/>
<path d="M207.118 119.701C207.118 119.701 206.283 116.979 205.069 114.592L188.19 122.838C189.288 125.705 190.861 132.558 186.67 142.743C181.888 154.343 167.653 174.86 128.826 174.86H76.7317L51.0679 187.443H97.0517L91.1608 189.036L58.1932 219.19L117.465 187.443H119.938C125.904 187.443 131.439 187.216 136.588 186.774L147.017 185.516C149.036 185.188 150.983 184.82 152.871 184.418C172.247 180.279 184.742 172.048 193.85 160.7C196.274 157.677 198.466 154.436 200.476 150.987C203.306 146.13 205.302 141.486 206.541 137.102C208.357 130.658 208.513 124.782 207.117 119.701H207.118ZM87.1231 127.09L47.0048 114.595L47.002 114.592L79.1296 140.476L87.1231 127.09ZM148.37 99.3377H164.743L159.853 50.8721L148.37 99.3377ZM210.804 125.256C211.198 126.026 211.557 126.812 211.881 127.614C211.948 127.779 212.003 127.95 212.067 128.115C212.309 128.739 212.53 129.372 212.73 130.011C212.8 130.249 212.863 130.484 212.936 130.722C213.111 131.357 213.269 131.998 213.411 132.642C213.454 132.856 213.506 133.065 213.55 133.282C213.723 134.153 213.863 135.043 213.979 135.966L213.981 135.964L239.656 122.079L253.492 114.592L210.804 125.256ZM173.31 185.414C172.137 185.539 170.97 185.635 169.811 185.712C169.727 185.718 169.64 185.724 169.556 185.727C168.432 185.805 167.312 185.857 166.211 185.897C166.115 185.904 166.022 185.906 165.927 185.908C164.812 185.947 163.718 185.97 162.646 185.978H162.504C161.403 185.985 160.323 185.982 159.281 185.966V185.97L176.817 219.19L173.31 185.414Z" fill="#A2AAAD"/>
<path d="M162.597 111.14H114.856L114.763 111.093L76.7324 174.86L102.468 162.29L117.153 138.312L121.648 130.973L118.322 128.297L111.679 122.942L111.676 122.939H151.508C152.264 122.939 152.99 122.948 153.706 122.968C153.763 122.968 153.819 122.971 153.87 122.974C154.505 122.991 155.128 123.017 155.733 123.052C155.927 123.064 156.11 123.078 156.309 123.093C156.758 123.122 157.202 123.151 157.636 123.191C157.885 123.215 158.125 123.246 158.371 123.269C158.722 123.31 159.078 123.351 159.423 123.391C159.695 123.429 159.959 123.472 160.225 123.512C160.52 123.556 160.81 123.602 161.088 123.654C161.372 123.704 161.639 123.758 161.908 123.817C162.16 123.869 162.403 123.921 162.641 123.976C162.922 124.042 163.191 124.118 163.452 124.191C163.66 124.248 163.874 124.306 164.071 124.367C164.347 124.454 164.607 124.54 164.862 124.634C165.038 124.697 165.215 124.761 165.383 124.827C165.644 124.932 165.896 125.033 166.142 125.146L166.58 125.352C166.945 125.539 167.303 125.74 167.654 125.954C167.88 126.099 168.1 126.244 168.314 126.4C168.416 126.473 168.511 126.548 168.607 126.623C168.821 126.791 169.021 126.962 169.215 127.144C169.293 127.217 169.363 127.292 169.438 127.368C169.632 127.564 169.82 127.761 169.988 127.973C170.046 128.039 170.095 128.109 170.148 128.178C170.324 128.405 170.492 128.636 170.643 128.885C170.672 128.934 170.704 128.992 170.733 129.044C170.892 129.317 171.042 129.592 171.17 129.882C171.182 129.905 171.185 129.931 171.199 129.954C171.338 130.275 171.46 130.609 171.564 130.959L171.566 130.956L188.191 122.838C183.635 112.308 170.692 111.14 162.597 111.14H162.597Z" fill="#A2AAAD"/>
<path d="M136.59 186.778L176.818 219.19L159.281 185.97C154.086 185.897 149.703 185.593 147.019 185.516L136.589 186.775M73.5416 193.79L58.1943 219.19L91.1619 189.036M102.469 162.29L76.7328 174.86H128.827C167.654 174.86 181.89 154.343 186.671 142.743C190.862 132.558 189.289 125.705 188.192 122.838L171.566 130.956C171.662 131.281 171.749 131.605 171.819 131.956C173.29 139.685 166.97 150.735 156.272 156.993C147.818 161.937 137.646 162.29 128.859 162.29H102.468" fill="white"/>
<path d="M114.763 111.093L114.856 111.14H162.597C170.692 111.14 183.636 112.307 188.191 122.838L205.07 114.592C206.284 116.979 207.118 119.701 207.118 119.701C208.601 121.514 209.811 123.353 210.805 125.256L253.493 114.592H205.07C199.88 105.061 188.096 99.3376 171.126 99.3376H148.371L159.854 50.872V50.8691L130.582 99.3376H103.708L94.591 114.592H47.0059V114.595L87.1241 127.09L79.1306 140.476L51.069 187.443L76.7327 174.859L114.763 111.093H114.763Z" fill="white"/>
</svg>
