<svg width="319" height="304" viewBox="0 0 319 304" fill="none" xmlns="http://www.w3.org/2000/svg">
<g clip-path="url(#clip0_194_31)">
<path d="M159.537 0.0185547L258.143 303.414L0 115.937H319L60.9318 303.414L159.537 0.0185547Z" fill="#0D254C"/>
<path d="M159.537 28.0325L241.646 280.751L26.6763 124.557H292.398L77.428 280.751L159.537 28.0325Z" fill="white"/>
<path d="M159.537 49.8044L228.866 263.14L47.3335 131.319H271.666L90.2086 263.14L159.537 49.8044Z" fill="#0D254C"/>
<path d="M148.094 212.834L156.862 219.15L161.989 217.292L159.463 212.834H148.094Z" fill="white"/>
<path d="M148.094 221.082L156.714 223.162L165.259 216.921L159.463 212.834L148.094 221.082ZM103.807 221.305L114.507 188.387L108.786 184.226L96.1533 223.162L103.807 221.305Z" fill="white"/>
<path d="M153.816 216.921L159.463 212.834L116.662 181.699L114.507 188.387L113.467 191.508L148.094 221.082L153.816 216.921Z" fill="#0D254C"/>
</g>
<defs>
<clipPath id="clip0_194_31">
<rect width="319" height="303.433" fill="white"/>
</clipPath>
</defs>
</svg>
