<svg width="320" height="81" viewBox="0 0 320 81" fill="none" xmlns="http://www.w3.org/2000/svg">
<path d="M156.847 34.9574H131.721V42.4126H149.542C148.659 52.8481 139.963 57.3272 131.751 57.3272C129.15 57.3386 126.573 56.8317 124.169 55.836C121.766 54.8403 119.585 53.3757 117.754 51.5279C115.922 49.6801 114.477 47.486 113.504 45.0736C112.53 42.6613 112.046 40.0792 112.081 37.4779C112.081 26.1916 120.819 17.5022 131.776 17.5022C140.229 17.5022 145.209 22.8906 145.209 22.8906L150.427 17.4842C150.427 17.4842 143.724 10.0249 131.503 10.0249C115.94 10.0249 103.901 23.1594 103.901 37.3455C103.901 51.2466 115.225 64.8026 131.896 64.8026C146.56 64.8026 157.295 54.7565 157.295 39.9022C157.295 36.7675 156.839 34.9574 156.839 34.9574H156.847Z" fill="white"/>
<path d="M177.429 29.5567C167.119 29.5567 159.729 37.6181 159.729 47.0159C159.729 56.5562 166.894 64.766 177.55 64.766C187.194 64.766 195.095 57.395 195.095 47.2206C195.095 35.5812 185.904 29.5547 177.429 29.5547V29.5567ZM177.53 36.4722C182.6 36.4722 187.403 40.572 187.403 47.1765C187.403 53.6383 182.619 57.8566 177.506 57.8566C171.886 57.8566 167.472 53.3573 167.472 47.1242C167.472 41.0236 171.847 36.4722 177.546 36.4722H177.53Z" fill="white"/>
<path d="M215.922 29.5567C205.611 29.5567 198.222 37.6181 198.222 47.0159C198.222 56.5562 205.386 64.766 216.042 64.766C225.686 64.766 233.588 57.395 233.588 47.2206C233.588 35.5812 224.396 29.5547 215.922 29.5547V29.5567ZM216.022 36.4722C221.092 36.4722 225.895 40.572 225.895 47.1765C225.895 53.6383 221.111 57.8566 215.998 57.8566C210.379 57.8566 205.964 53.3573 205.964 47.1242C205.964 41.0236 210.339 36.4722 216.038 36.4722H216.022Z" fill="white"/>
<path d="M253.676 29.5776C244.212 29.5776 236.775 37.8658 236.775 47.1692C236.775 57.7652 245.398 64.7929 253.512 64.7929C258.529 64.7929 261.198 62.8002 263.145 60.5145V63.9862C263.145 70.0608 259.456 73.6992 253.889 73.6992C248.511 73.6992 245.813 69.6996 244.859 67.4319L238.091 70.2414C240.492 75.3186 245.324 80.6106 253.946 80.6106C263.377 80.6106 270.526 74.6845 270.526 62.2543V30.6352H263.172V33.6174C260.905 31.169 257.799 29.5776 253.68 29.5776H253.676ZM254.359 36.4811C258.999 36.4811 263.763 40.4425 263.763 47.2074C263.763 54.0847 259.006 57.8735 254.257 57.8735C249.212 57.8735 244.518 53.7796 244.518 47.2716C244.518 40.5127 249.394 36.4811 254.359 36.4811Z" fill="white"/>
<path d="M303.388 29.5359C294.462 29.5359 286.967 36.64 286.967 47.1155C286.967 58.205 295.321 64.7812 304.225 64.7812C311.674 64.7812 316.265 60.7075 318.975 57.0551L312.889 53.0053C311.309 55.4537 308.668 57.8518 304.263 57.8518C299.314 57.8518 297.038 55.1426 295.628 52.5137L319.234 42.7205L318.03 39.8508C315.75 34.2318 310.428 29.5359 303.388 29.5359ZM303.695 36.3068C306.912 36.3068 309.226 38.0166 310.21 40.0675L294.444 46.6559C293.762 41.5545 298.598 36.3068 303.675 36.3068H303.695Z" fill="white"/>
<path d="M275.694 63.738H283.448V11.8481H275.694V63.738Z" fill="white"/>
<path d="M66.9794 0H14.0866C6.43624 0 0.234375 6.20186 0.234375 13.8522V63.9335C0.234375 71.5838 6.43624 77.7857 14.0866 77.7857H66.9794C74.6298 77.7857 80.8317 71.5838 80.8317 63.9335V13.8522C80.8317 6.20186 74.6298 0 66.9794 0Z" fill="white"/>
<path d="M57.4989 55.93C63.2521 50.5602 65.8091 41.6107 64.2749 33.0447H41.3896V42.5057H54.4305C53.9191 45.574 52.1292 48.1311 49.5722 49.7931L57.4989 55.93Z" fill="#4285F4"/>
<path d="M19.6562 48.3875C21.3381 51.7007 23.7501 54.5888 26.7106 56.8341C29.6709 59.0794 33.1023 60.6234 36.7462 61.3498C40.3901 62.0761 44.1513 61.9657 47.7464 61.0271C51.3414 60.0883 54.6764 58.3458 57.5001 55.9307L49.5733 49.7939C42.7972 54.2687 31.5464 52.6066 27.7108 42.1228L19.6562 48.3875Z" fill="#34A853"/>
<path d="M27.7101 42.1222C26.6873 38.9259 26.6873 35.9854 27.7101 32.789L19.6556 26.5244C16.715 32.4055 15.82 40.7158 19.6556 48.3869L27.7101 42.1222Z" fill="#FBBC02"/>
<path d="M27.7108 32.789C30.5236 23.9672 42.5416 18.8532 50.5961 26.3964L57.6279 19.4924C47.6556 9.90369 28.2223 10.2872 19.6562 26.5243L27.7108 32.789Z" fill="#EA4335"/>
</svg>
