<svg width="320" height="38" viewBox="0 0 320 38" fill="none" xmlns="http://www.w3.org/2000/svg">
<g clip-path="url(#clip0_194_62)">
<path d="M149.721 19.7839C149.721 19.7839 151.806 14.8869 152.695 13.4756C152.695 13.4756 155.242 16.9722 156.142 19.8447C156.142 19.8447 153.27 20.2949 149.721 19.7839ZM90.1118 16.0635V10.5451C90.1118 10.5451 90.1699 6.427 93.4262 6.427C96.6991 6.427 96.2876 10.4291 96.3207 10.9345C96.3483 11.451 96.1384 16.0635 90.1118 16.0635ZM100.312 2.25922C100.312 2.25922 84.4305 3.44686 75.8629 2.64865C75.8629 2.64865 74.8437 2.37522 74.562 3.55457C74.562 3.55457 74.0068 4.4522 74.9017 5.07364C75.7966 5.69785 78.3956 7.21695 78.3956 12.8513C78.3956 18.4885 78.3956 23.7224 78.3956 23.7224C78.3956 23.7224 78.9038 29.6993 74.7857 31.9475C74.7857 31.9475 73.9461 32.232 74.3935 33.4197C74.3935 33.4197 74.4516 34.4886 75.6391 34.3228C76.8157 34.1487 83.4693 33.6434 92.5948 34.2647C92.5948 34.2647 93.3792 34.3228 93.5974 33.8062C93.8294 33.3118 93.8902 33.2511 93.8902 33.2511C93.8902 33.2511 94.6829 32.4639 93.487 31.674C92.3104 30.8869 90.3356 29.6992 90.1698 24.6862C90.0013 19.6678 90.1698 19.5601 90.1698 19.5601H90.899C90.899 19.5601 93.4262 19.328 95.1221 23.1754C95.1221 23.1754 98.3949 31.0526 98.8976 32.0082C99.4086 32.9721 100.364 34.9966 103.916 34.6569C107.462 34.3227 124.018 33.1351 141.603 34.715C141.603 34.715 143.52 34.9968 144.252 33.1352C144.252 33.1352 147.293 24.9681 148.022 23.6644C148.022 23.6644 154.449 23.4987 157.943 23.554C157.943 23.554 159.233 25.7552 159.233 28.404C159.233 31.0527 156.929 31.6741 156.929 31.6741C156.929 31.6741 155.968 32.0636 156.421 33.2512C156.421 33.2512 156.59 34.3808 157.716 34.2648C158.838 34.1488 168.924 33.196 184.135 34.1488C184.135 34.1488 185.151 34.5493 185.485 33.196C185.485 33.196 186.107 32.1243 185.035 31.6161C185.035 31.6161 181.044 30.7185 181.044 24.3439C181.044 17.9748 181.099 13.4756 181.099 13.4756C181.099 13.4756 184.135 17.8091 187.742 24.2942C191.349 30.771 193.266 33.5357 193.266 33.5357C193.266 33.5357 195.069 37.0296 198.613 35.168C202.162 33.312 205.993 31.1687 208.191 29.6413C208.191 29.6413 209.042 29.2519 208.583 28.1719L208.252 27.5008C208.252 27.5008 208.191 27.1086 207.012 26.9926C207.012 26.9926 204.363 27.6168 204.302 23.8384C204.253 20.0684 204.076 14.7129 204.302 9.24973C204.302 9.24973 204.418 5.86357 207.517 4.90793C207.517 4.90793 208.639 4.80034 208.133 3.44687L207.796 2.76465C207.796 2.76465 207.796 2.20122 207.012 2.31723C206.225 2.43323 201.828 2.82266 197.157 2.43323C197.157 2.43323 196.141 2.43322 196.022 3.55457C196.022 3.55457 195.746 4.57373 196.536 4.90793C197.323 5.24489 200.079 6.2613 200.256 10.5948C200.419 14.9449 200.477 20.966 200.477 20.966C200.477 20.966 194.053 11.5007 189.94 4.23401C189.94 4.23401 189.269 2.25922 186.836 2.43323C184.427 2.59895 178.613 2.88066 174.39 2.48032C174.39 2.48032 173.205 2.31725 173.037 3.67072C173.037 3.67072 172.7 4.85009 173.714 5.35553C173.714 5.35553 177.097 7.49879 177.097 8.23071C177.097 8.96815 177.033 23.9546 177.033 23.9546C177.033 23.9546 177.323 30.0972 175.686 29.3073C175.686 29.3073 174.73 29.926 172.421 25.6974C170.112 21.4716 167.124 15.445 162.282 3.72043C162.282 3.72043 161.263 0.455811 159.183 0.455811C159.183 0.455811 157.943 0.516587 156.65 1.23743C155.352 1.9779 151.237 4.28666 146.958 5.52954C146.958 5.52954 145.832 5.86372 146.166 6.9906C146.166 6.9906 146.003 7.83025 147.237 8.29703C148.475 8.7417 149.546 9.24988 149.883 9.86304C149.883 9.86304 148.591 14.0336 146.221 18.3257C143.854 22.6012 140.819 29.6995 132.083 29.6995H128.644C128.644 29.6995 127.746 29.8071 127.746 28.5726C127.746 27.3352 127.746 19.5051 127.746 19.5051H130C130 19.5051 133.657 18.7124 135.411 23.4464C135.411 23.4464 135.742 24.9102 136.982 24.344C136.982 24.344 138.388 24.1783 138.278 22.7669C138.167 21.3639 138.06 17.5275 138.333 14.1496C138.333 14.1496 138.449 13.136 137.319 12.9123C137.319 12.9123 136.422 12.462 135.742 13.194C135.068 13.9231 133.657 15.6659 130.445 15.6659C127.241 15.6659 127.807 15.6659 127.807 15.6659V7.21707C127.807 7.21707 127.746 6.65917 128.136 6.60117C128.528 6.54307 133.436 5.35551 136.306 7.66174C139.178 9.97903 139.355 10.9347 139.968 11.7826C139.968 11.7826 140.529 13.194 141.992 12.2411C141.992 12.2411 143.125 12.0643 142.559 10.3188C141.992 8.56215 141.829 7.95452 140.874 3.55472C140.874 3.55472 140.697 1.69316 138.786 1.86993C136.872 2.03565 124.877 3.44701 113.605 2.54108C113.605 2.54108 112.426 2.25935 112.196 3.505C112.196 3.505 111.685 4.34187 112.644 5.12903C112.644 5.12903 115.964 6.65918 115.964 12.5118C115.964 18.3727 115.964 22.3195 115.964 22.3195C115.964 22.3195 116.533 30.0972 113.773 30.0972C113.773 30.0972 112.586 30.6026 110.564 26.6005C108.537 22.6012 108.424 22.4852 108.424 22.4852C108.424 22.4852 106.788 17.2375 99.7427 17.0193C99.7427 17.0193 109.49 15.387 108.589 8.06226C108.589 8.06226 108.424 2.48033 101.104 2.25937" fill="#1C4E9D"/>
<path d="M233.143 13.0778C236.189 17.4113 236.587 19.4441 236.587 19.4441C234.17 19.8446 230.171 19.3889 230.171 19.3889C231.342 16.232 233.143 13.0778 233.143 13.0778ZM258.672 22.2089C258.672 22.2089 258.893 29.5833 256.133 29.0751C256.133 29.0751 255.169 29.6993 252.863 25.4735C250.56 21.2532 247.568 15.2211 242.724 3.50488C242.724 3.50488 241.71 0.231934 239.625 0.231934C239.625 0.231934 238.39 0.29274 237.095 1.01358C235.794 1.75378 231.684 4.0683 227.406 5.30566C227.406 5.30566 226.271 5.63987 226.611 6.76675C226.611 6.76675 226.439 7.61466 227.685 8.0621C228.922 8.52058 229.997 9.01777 230.328 9.64197C230.328 9.64197 229.038 13.807 226.669 18.0908C224.304 22.3774 222.214 28.6277 216.643 31.4421C216.643 31.4421 215.563 31.6741 215.911 32.9723C216.306 34.4333 217.038 34.0411 217.038 34.0411C223.515 33.3617 225.489 33.9251 226.956 34.0411C228.417 34.1487 228.191 32.9723 228.191 32.9723C228.583 32.2321 228.08 31.7846 228.08 31.7846L227.461 30.9947C227.461 30.9947 225.036 30.3705 228.472 23.4463C228.472 23.4463 234.902 23.2805 238.391 23.3302C238.391 23.3302 239.691 25.5232 239.691 28.172C239.691 30.829 237.377 31.4421 237.377 31.4421C237.377 31.4421 236.416 31.8399 236.863 33.0192C236.863 33.0192 237.037 34.1489 238.167 34.0411C239.291 33.9251 257.998 33.1352 273.208 34.0908C273.208 34.0908 274.274 34.1489 274.553 33.196C274.553 33.196 275.177 32.0083 274.108 31.3344C274.108 31.3344 271.117 29.981 270.896 25.2001C270.667 20.3998 270.73 11.3267 270.73 11.3267C270.73 11.3267 270.501 6.26129 273.708 4.68973C273.708 4.68973 274.553 4.2865 274.108 3.15686C274.108 3.15686 273.882 2.09349 272.86 2.2012C271.849 2.31721 261.207 2.88064 256.194 2.25909C256.194 2.25909 255.056 2.2012 254.838 3.15674C254.838 3.15674 254.277 4.06819 255.238 4.80011C256.194 5.52927 258.672 7.21683 258.672 12.4618C258.672 17.7012 258.672 22.2089 258.672 22.2089Z" fill="#1C4E9D"/>
<path d="M293.821 15.8426V10.3187C293.821 10.3187 293.937 6.21164 297.036 6.21164C300.134 6.21164 300.181 9.68895 300.021 10.8297C299.864 11.9565 299.574 15.8426 293.821 15.8426ZM303.512 1.80908C303.512 1.80908 291.117 3.27293 279.627 2.15158C279.627 2.15158 278.163 1.75384 277.989 3.27292C277.989 3.27292 277.881 4.28657 278.506 4.68982C279.124 5.07373 281.657 6.60109 281.825 11.893C281.999 17.1877 282.107 15.6658 281.999 22.8828C281.999 22.8828 282.436 29.8071 278.505 31.5002C278.505 31.5002 277.486 31.7239 278.05 33.196C278.05 33.196 278.389 34.3229 279.337 33.9252C279.337 33.9252 288.581 33.312 296.585 33.9833C296.585 33.9833 297.491 34.323 297.767 33.1354C297.767 33.1354 298.499 32.3482 297.378 31.5003C296.243 30.6634 294.218 29.1913 293.986 25.6394C293.76 22.0848 293.821 19.2786 293.821 19.2786H294.613C294.613 19.2786 297.262 18.9334 299.063 23.1067C300.869 27.2745 302.106 30.3209 302.106 30.3209C302.106 30.3209 303.283 33.6436 305.203 34.7152C305.203 34.7152 305.99 35.4527 308.92 35.1046C308.92 35.1046 313.709 34.8312 318.441 32.6382C318.441 32.6382 319.51 32.4062 319.167 31.1689C319.167 31.1689 319.399 30.1994 318.051 29.926C316.698 29.6415 315.687 28.3461 314.726 26.4265C313.762 24.518 312.295 21.6953 312.295 21.6953C312.295 21.6953 310.329 16.8066 303.902 16.7404C303.902 16.7404 312.745 15.2213 312.745 8.56216C312.745 1.92517 304.868 1.80917 304.868 1.80917" fill="#1C4E9D"/>
<path d="M74.1534 18.6983C74.1534 29.0114 65.8013 37.3719 55.4908 37.3719C45.1777 37.3719 36.8145 29.0114 36.8145 18.6983C36.8145 8.37681 45.1777 0.0163574 55.4908 0.0163574C65.8013 0.0163574 74.1534 8.37681 74.1534 18.6983Z" fill="white"/>
<path d="M63.5087 7.43784C69.1956 9.18341 73.333 14.4781 73.333 20.7505C73.333 21.673 73.2391 22.5568 73.0734 23.4158L73.0513 23.5373C72.6204 25.9955 71.6206 28.2686 70.2037 30.1909L70.1761 30.2214C72.6674 27.0507 74.1588 23.0403 74.1588 18.6819C74.1588 8.36874 65.7929 0 55.4714 0C50.7761 0 46.4895 1.73725 43.2028 4.60141L43.1559 4.64291C40.5679 7.0182 38.9521 10.4292 38.9521 14.2159C38.9521 15.7764 39.2228 17.2899 39.7365 18.682L39.7615 18.7483C41.0624 21.5876 43.9321 23.5707 47.263 23.5707C51.812 23.5707 55.5075 19.8862 55.5075 15.329L55.4825 11.7826C55.4825 10.1641 56.3939 8.7334 57.7335 8.00424L57.7468 8.00024C58.7936 7.42851 59.9895 7.09155 61.2766 7.09155C62.0527 7.09155 62.7957 7.20756 63.4972 7.43127L63.5083 7.44028" fill="#ED192D"/>
<path d="M41.181 30.713C44.6086 34.7896 49.7459 37.3859 55.4907 37.3859C60.1888 37.3859 64.4892 35.6514 67.7704 32.7872L67.8146 32.7541C70.4026 30.3705 72.0211 26.9595 72.0211 23.1756C72.0211 21.6124 71.7449 20.1016 71.2339 18.7068L71.2089 18.6487C69.9053 15.7928 67.0439 13.8152 63.7047 13.8152C59.1557 13.8152 55.4658 17.5025 55.4658 22.0514L55.4907 25.6088C55.4907 27.2301 54.5793 28.6553 53.237 29.3844L53.2237 29.3934C52.1769 29.9652 50.9727 30.2993 49.6994 30.2993C48.9178 30.2993 48.172 30.1723 47.4733 29.9596L47.4643 29.9486C41.7746 28.1976 37.6372 22.9001 37.6372 16.6387C37.6372 15.7245 37.7282 14.8296 37.8968 13.9651L37.9123 13.8491C38.346 11.3855 39.3458 9.12894 40.771 7.19833L40.7887 7.16803C38.3029 10.3388 36.8087 14.3492 36.8087 18.6993C36.8087 21.696 37.5185 24.538 38.7724 27.0514L38.6178 27.1674C38.6178 27.1674 37.8941 27.7226 36.422 26.0405C34.9554 24.3447 26.3381 13.9238 26.3381 13.9238C26.3381 13.9238 31.8068 8.06291 37.1594 5.69867C37.1594 5.69867 38.5598 5.24571 38.2283 4.01111L37.9991 3.27368C37.9991 3.27368 37.9522 2.481 36.7037 2.64948C35.4664 2.8236 29.6027 3.27369 23.7501 2.70758C23.7501 2.70758 22.847 2.70758 22.51 3.44779C22.51 3.44779 21.941 4.40341 22.51 4.95856C23.0762 5.53029 25.1062 6.93615 25.1062 8.85019C25.1062 8.85019 25.5454 10.2646 22.4548 12.5125C19.3505 14.7717 17.4393 16.2328 16.1467 16.915L16.1963 11.6176C16.1963 11.6176 16.0306 7.16802 19.2428 5.07446C19.2428 5.07446 20.0272 4.74303 19.7483 4.01111L19.5301 3.44766C19.5301 3.44766 19.3505 2.54174 18.395 2.64945C18.395 2.64945 12.8241 3.27367 1.71825 2.76547C1.71825 2.76547 0.983558 2.70735 0.707358 3.27365L0.483664 3.7211C0.483664 3.7211 0.0886776 4.74302 0.707358 5.19046C1.33157 5.64066 3.91954 7.16802 4.03554 11.833C4.03554 11.833 4.31451 20.6823 3.91955 24.1182C3.52182 27.5596 3.24563 29.5316 0.483664 31.9484C0.483664 31.9484 -0.248285 32.5229 0.0886747 33.3625L0.483664 34.0916C0.483664 34.0916 0.762612 34.6579 1.71825 34.5501C2.67942 34.4341 9.60917 33.7519 18.395 34.4341C18.395 34.4341 19.0192 34.6578 19.2981 34.0419L19.6931 33.252C19.6931 33.252 20.1433 32.4648 19.2981 31.8406C18.4502 31.2192 16.1965 29.4239 16.1467 25.9301C16.0915 22.4362 16.0915 20.2238 16.0915 20.2238C16.0915 20.2238 17.6134 20.8508 25.7197 32.8571C25.7197 32.8571 28.595 38.0385 34.6768 34.8318C34.6768 34.8318 39.1263 32.4069 40.9851 30.8298L41.181 30.713Z" fill="#1C4E9D"/>
</g>
<defs>
<clipPath id="clip0_194_62">
<rect width="319.235" height="37.3858" fill="white"/>
</clipPath>
</defs>
</svg>
