<svg width="320" height="41" viewBox="0 0 320 41" fill="none" xmlns="http://www.w3.org/2000/svg">
<path fill-rule="evenodd" clip-rule="evenodd" d="M315.918 11.0482C314.08 11.0482 312.601 12.53 312.601 14.3643C312.601 16.1986 314.08 17.6804 315.918 17.6804C317.753 17.6804 319.234 16.1986 319.234 14.3643C319.234 12.53 317.753 11.0482 315.918 11.0482ZM315.922 17.3883C314.231 17.3883 312.935 16.0399 312.935 14.3657C312.935 12.6536 314.21 11.3431 315.922 11.3431C317.628 11.3431 318.893 12.6634 318.893 14.3573C318.894 16.0315 317.619 17.3883 315.922 17.3883ZM140.837 30.3241L140.367 0C142.427 0.106745 144.401 0.866612 146.001 2.17143C147.599 3.47626 148.741 5.25581 149.258 7.25448C151.647 6.87384 154.092 7.39493 156.117 8.71661C158.143 10.0383 159.606 12.065 160.22 14.405C147.137 13.1325 141.451 25.3436 141.859 30.3213H144.069C145.422 16.9571 155.8 14.9654 160.396 15.2154C160.49 15.7548 160.538 16.3124 160.538 16.8812C160.538 20.5176 158.632 23.6905 155.678 25.3675C156.633 26.9055 157.137 28.6822 157.134 30.4941C157.134 33.6824 155.603 36.5126 153.237 38.2907C152.695 31.0966 149.328 29.3789 147.473 28.4519L145.262 30.2399C149.902 31.1388 151.747 35.9592 152.284 38.9242C150.798 39.7879 149.109 40.243 147.39 40.2402C145.957 40.2416 144.541 39.927 143.245 39.3174C141.948 38.7093 140.802 37.8216 139.889 36.7176H139.917C139.005 37.8216 137.858 38.7093 136.562 39.3188C135.265 39.927 133.85 40.2416 132.417 40.2402C130.698 40.243 129.008 39.7879 127.522 38.9242C128.059 35.9606 129.902 31.1402 134.545 30.2399L132.334 28.4519C130.479 29.3803 127.113 31.098 126.571 38.2907C125.359 37.3848 124.377 36.2064 123.7 34.8538C123.023 33.4998 122.672 32.0068 122.673 30.4941C122.669 28.6822 123.174 26.9055 124.129 25.3675C121.176 23.6919 119.27 20.5176 119.27 16.8812C119.27 16.3124 119.317 15.7576 119.411 15.2154C124.006 14.9654 134.385 16.9571 135.737 30.3213H137.948C138.358 25.3408 132.671 13.1325 119.587 14.405C120.202 12.065 121.664 10.0383 123.69 8.71661C125.716 7.39493 128.161 6.87384 130.55 7.25448C131.067 5.25581 132.209 3.47484 133.808 2.17002C135.407 0.865197 137.381 0.105341 139.443 0L138.972 30.3241H140.837Z" fill="black"/>
<path fill-rule="evenodd" clip-rule="evenodd" d="M316.446 14.5243C317.005 14.4358 317.459 14.1254 317.459 13.4878C317.459 12.7771 317.068 12.4048 316.183 12.4048H314.711V16.3249H315.047V14.5159H316.067L317.245 16.3249H317.619L316.446 14.5243ZM315.88 14.2237H315.047V12.6984H316.13C316.599 12.6984 317.123 12.8754 317.123 13.4793C317.123 14.1605 316.473 14.2237 315.88 14.2237ZM70.8825 38.903C68.4749 38.3889 68.3062 36.4717 68.3062 33.393L67.9224 17.1705C67.9224 14.3867 68.8551 12.3922 70.2055 11.6773C70.5005 11.5073 70.7546 11.4231 70.7546 11.2124C70.7137 11.0438 70.2055 11.0017 70.0794 11.0017L66.8141 11.0368C66.2192 11.1211 65.7929 11.1211 65.37 12.0439L54.9519 34.2638L44.2679 12.0439C43.8433 11.1211 43.4188 11.1211 42.8238 11.0368L38.5373 11.0438C38.411 11.0438 37.9047 11.0438 37.862 11.2124C37.862 11.4245 38.1144 11.5073 38.4093 11.6773C39.7598 12.3922 42.3089 14.2153 42.3089 17.0019L41.799 33.2216C41.799 36.3032 41.2483 38.2625 39.4357 38.7794C39.0862 38.8791 38.8031 39.0715 38.8031 39.198C38.8031 39.3258 38.8442 39.5379 39.1817 39.5379L42.4725 39.5393L45.3438 39.5379C45.9764 39.5379 46.1453 39.4957 46.1453 39.3693C46.1453 39.1979 46.0225 38.9957 45.6388 38.8201C44.5203 38.3047 43.1477 38.7499 43.1477 34.4464L43.6575 18.0792H43.7428L53.2673 38.6094C53.5827 39.1558 54.6383 39.2569 54.9179 38.6094L64.7834 17.5694H64.867L65.2506 34.2764C65.237 37.7091 64.0894 38.6038 62.9727 38.9044C62.9044 38.9241 62.381 39.021 62.381 39.3258C62.381 39.4522 62.5498 39.58 63.1841 39.58C63.6052 39.58 66.3231 39.5393 67.8406 39.5393L71.1331 39.5379C71.4708 39.5379 71.4264 39.4114 71.4264 39.285C71.4264 39.1586 71.2372 38.9802 70.8825 38.903ZM100.612 11.0874C99.7256 11.0874 98.5865 11.2559 97.6999 11.2559C96.8559 11.2559 95.0417 11.0874 94.4091 11.0874C93.9453 11.0874 93.6912 11.2559 93.6912 11.4666C93.6912 11.6787 94.0561 11.8234 94.6615 11.9723C95.5208 12.1843 97.0246 12.3346 97.0246 15.9218V34.1009L76.8042 11.9737C76.4222 11.5495 76.0778 11.079 75.2969 11.0424C74.2841 11.0424 72.6813 11.0846 72.2584 11.0846C71.7946 11.0846 71.7112 11.211 71.7112 11.3795C71.7112 11.4652 71.8698 11.6239 72.0914 11.6745C74.2501 12.1829 76.7513 15.9963 76.794 18.2323V33.0896C76.794 36.8453 76.7632 37.5546 75.2133 38.4577C74.4615 38.8988 73.8869 39.0687 73.8869 39.323C73.8869 39.4494 73.9277 39.5336 74.2227 39.5336C74.7292 39.5336 76.5826 39.4086 77.4675 39.4086C78.9868 39.4086 80.3371 39.5336 80.8436 39.5336C81.0549 39.5336 81.1811 39.4929 81.1811 39.3651C81.1811 39.1544 80.8861 39.1544 80.2945 38.7738C79.367 38.2246 78.1426 38.278 78.1426 33.9745V18.4598C84.726 24.8295 91.7253 33.3536 96.8729 39.2612C97.3026 39.705 97.5328 39.7766 97.9488 39.698C98.2438 39.698 98.3717 37.9268 98.3717 35.688V15.9218C98.324 12.0565 100.154 12.0144 100.65 11.8023C101.119 11.6029 101.325 11.5509 101.325 11.4231C101.325 11.2953 101.202 11.0874 100.612 11.0874ZM111.724 39.0744C110.174 38.2611 109.144 36.8931 109.144 33.0531V15.3474C109.144 13.7027 109.951 12.0565 111.385 11.6338C111.596 11.5916 111.68 11.4652 111.68 11.2967C111.68 11.0846 111.131 11.0846 110.964 11.0846C109.993 11.0846 108.469 11.2545 107.499 11.2545C105.939 11.2545 104.585 11.0846 104.079 11.0846C103.529 11.0846 103.403 11.0846 103.403 11.3374C103.403 11.5073 103.529 11.5495 103.698 11.6324C105.177 12.1815 105.898 13.9962 105.898 15.346V33.4744C105.898 36.1754 105.134 37.8032 103.277 38.9859C102.982 39.1951 103.154 39.323 103.154 39.4058C103.154 39.5322 102.856 39.5772 103.194 39.5772C103.572 39.5772 105.137 39.4508 107.501 39.4508C109.526 39.4508 111.346 39.5772 111.726 39.5772C111.978 39.5772 112.19 39.5336 112.19 39.4508C112.188 39.3258 112.045 39.2387 111.724 39.0744ZM18.8999 4.35962C9.17579 4.35962 0.234375 11.218 0.234375 22.1833C0.234375 33.3578 8.66427 39.8749 18.3884 39.8749C28.1123 39.8749 37.7341 33.3578 37.7341 22.1833C37.7358 11.2194 28.6238 4.35962 18.8999 4.35962ZM23.9843 37.615C15.9296 40.5421 8.63528 35.8242 5.55592 27.3675C2.23102 18.2295 6.04869 9.88791 12.8383 6.99314C20.3543 3.78797 28.6972 8.10132 32.0238 17.2407C35.1015 25.6975 33.2208 34.2582 23.9843 37.615ZM199.724 5.1911C199.102 5.1911 196.857 5.39758 194.946 5.39758C193.753 5.39758 191.919 5.1911 190.725 5.1911C190.519 5.1911 189.846 5.19111 189.846 5.44814C189.846 5.65602 189.951 5.81192 190.208 5.86248C191.967 6.37935 193.102 6.65184 193.102 8.66876V20.8518H174.043V8.62803C174.043 6.61111 175.218 6.38076 176.977 5.86248C177.236 5.81192 177.34 5.65461 177.34 5.44814C177.34 5.19111 176.667 5.1911 176.461 5.1911C175.27 5.1911 173.434 5.39758 172.244 5.39758C170.33 5.39758 168.085 5.1911 167.465 5.1911C166.792 5.1911 166.636 5.1911 166.636 5.50151C166.636 5.70657 166.793 5.75855 167 5.86248C168.809 6.53526 170.403 6.97207 170.403 8.62803V34.4085C170.364 37.1417 169.511 38.1207 167.59 38.7836C167.167 38.9283 166.863 39.1965 166.863 39.3005C166.863 39.4578 167.07 39.5084 167.486 39.5084C167.948 39.5084 169.347 39.3525 172.244 39.3525C174.725 39.3525 176.33 39.5084 176.794 39.5084C177.107 39.5084 177.362 39.4578 177.362 39.3525C177.362 39.1966 177.188 39.0842 176.794 38.8875C175.337 38.1614 174.062 38.3328 174.043 34.4085V22.1482H193.102V34.2806C193.078 38.2063 191.847 38.1614 190.391 38.8875C189.996 39.0842 189.822 39.198 189.822 39.3525C189.822 39.4578 190.081 39.5084 190.391 39.5084C190.853 39.5084 192.46 39.3525 194.944 39.3525C197.838 39.3525 199.237 39.5084 199.703 39.5084C200.115 39.5084 200.321 39.4578 200.321 39.3005C200.321 39.1965 199.985 38.9999 199.599 38.7836C197.716 37.7372 196.779 37.0125 196.741 34.2792V8.66876C196.741 7.01281 198.376 6.53385 200.185 5.86248C200.391 5.75855 200.549 5.70657 200.549 5.50151C200.55 5.1911 200.395 5.1911 199.724 5.1911ZM252.729 16.4064L252.102 11.0424H231.123L230.493 16.4064C230.465 16.8207 230.94 17.0539 231.213 16.6606C232.425 14.3544 232.439 13.2448 235.605 13.2448L239.921 13.2321V33.4014C239.921 37.7878 239.245 38.5673 237.556 38.9887C236.966 39.1151 236.504 39.1151 236.504 39.3258C236.504 39.4522 236.543 39.5786 236.884 39.5786C237.303 39.5786 238.442 39.4522 241.775 39.4522C244.731 39.4522 245.745 39.5786 246.038 39.5786C246.335 39.5786 246.504 39.5364 246.504 39.4086C246.504 39.3244 246.63 39.2373 246.084 39.1151C244.561 38.7682 243.271 37.7485 243.254 33.4758V13.2321L247.621 13.2448C250.786 13.2448 250.8 14.3544 252.013 16.6606C252.285 17.0539 252.76 16.8207 252.729 16.4064ZM273.728 34.3958C273.602 34.3958 273.48 34.4801 273.349 34.6065C270.134 38.0912 259.628 38.771 258.802 36.5434V26.1244H265.658C267.967 26.1385 268.25 27.0346 269.142 29.2482C269.229 29.3732 269.481 29.4574 269.568 29.4574C269.735 29.4574 269.735 29.0361 269.735 28.7818V21.6004C269.735 21.179 269.735 20.9248 269.526 20.9248C269.399 20.9248 269.312 21.0105 269.229 21.1369C268.663 22.3027 268.349 24.0949 265.658 24.0879H258.802V12.947H266.482C270.857 13.1198 270.305 16.3095 270.221 16.7786C270.134 17.2449 270.857 17.3755 270.944 16.8643L271.8 11.041H254.159C253.779 11.041 253.272 11.041 253.272 11.2924C253.272 11.4217 253.399 11.4624 253.566 11.5467C255.088 12.3065 255.468 13.742 255.468 15.3446V34.879C255.468 36.8622 255.045 38.3538 253.063 38.9016C252.514 39.028 252.3 39.2387 252.3 39.4086C252.3 39.5364 252.472 39.5364 252.895 39.5364H270.977L273.855 35.1093C273.942 34.8986 273.942 34.7287 273.942 34.6037C273.942 34.4773 273.856 34.3958 273.728 34.3958ZM293.494 35.2006C285.685 39.1544 281.858 37.8355 281.241 37.0532L281.251 15.3474C281.251 13.7027 282.016 12.0565 283.452 11.6338C283.663 11.5916 283.745 11.4652 283.745 11.2967C283.745 11.0846 283.2 11.0846 283.029 11.0846C282.061 11.0846 280.535 11.2545 279.567 11.2545C278.005 11.2545 276.65 11.0846 276.143 11.0846C275.598 11.0846 275.47 11.0846 275.47 11.3374C275.47 11.5059 275.596 11.5495 275.762 11.6324C277.241 12.1815 277.877 13.9962 277.877 15.346L277.911 34.1978C277.911 36.181 277.615 38.3538 275.63 38.9016C275.081 39.028 274.872 39.2387 274.872 39.4086C274.872 39.5364 275.041 39.5364 275.461 39.5364H291.503L294 35.7049C294.317 35.195 293.896 34.8579 293.494 35.2006ZM306.198 23.1159C303.19 22.0147 297.037 20.5653 297.18 17.0764C297.354 12.9934 300.5 11.9722 303.648 12.0565C306.795 12.1422 310.367 16.2252 310.964 17.9275C311.22 18.4795 311.603 18.3517 311.642 17.9275C311.642 15.6297 311.22 13.4597 310.964 12.3964C310.88 11.8009 310.367 11.7588 310.154 11.9287C309.944 12.1001 309.092 12.0144 308.54 11.5874C307.986 11.1618 305.307 10.4385 303.69 10.4385C302.072 10.4385 294.798 12.2265 294.629 17.4163C294.437 23.2831 297.777 24.3926 300.245 25.4123C302.711 26.432 310.708 27.8801 310.708 32.6443C310.708 38.0055 306.543 38.5139 303.989 38.5139C301.437 38.5139 297.521 38.174 295.226 32.0474C294.799 30.6864 293.951 31.2819 294.204 32.303C294.542 33.4927 295.395 37.4914 296.244 38.8538C297.862 39.8749 300.413 40.4705 304.242 40.3019C308.069 40.1292 313.005 36.983 313.005 31.6232C313.005 26.2621 308.752 24.0527 306.198 23.1159Z" fill="black"/>
<path fill-rule="evenodd" clip-rule="evenodd" d="M216.266 10.4512C208.097 10.4512 200.584 16.2126 200.584 25.4264C200.584 34.8144 207.667 40.2893 215.84 40.2893C224.009 40.2893 232.091 34.8144 232.091 25.4264C232.091 16.214 224.439 10.4512 216.266 10.4512ZM220.538 38.3904C213.771 40.8483 207.645 36.8861 205.056 29.7791C202.262 22.1019 205.469 15.0932 211.174 12.6605C217.489 9.9666 224.498 13.5917 227.293 21.269C229.881 28.3774 228.298 35.5701 220.538 38.3904Z" fill="black"/>
</svg>
