<svg width="320" height="364" viewBox="0 0 320 364" fill="none" xmlns="http://www.w3.org/2000/svg">
<path fill-rule="evenodd" clip-rule="evenodd" d="M159.734 363.249C106.187 341.332 65.4647 310.143 38.6883 270.534C17.1881 238.728 4.56168 201.429 1.1595 159.669C-4.32831 92.3047 16.2865 34.7032 18.7634 28.0841C25.0517 25.0759 79.8842 0 159.734 0C239.582 0 294.418 25.0747 300.704 28.0841C303.181 34.7032 323.796 92.3047 318.31 159.668C314.907 201.428 302.281 238.728 280.781 270.534C254.003 310.143 213.282 341.332 159.734 363.249Z" fill="#633492"/>
<path fill-rule="evenodd" clip-rule="evenodd" d="M159.733 354.835C109.083 333.584 70.5349 303.77 45.1252 266.181C24.381 235.497 12.1949 199.448 8.90147 159.036C4.03652 99.3404 20.2025 47.5012 24.9702 33.7811C38.1387 27.9384 88.7498 7.7688 159.733 7.7688C230.715 7.7688 281.329 27.9384 294.498 33.7811C299.264 47.4996 315.427 99.3389 310.565 159.036C307.273 199.448 295.083 235.496 274.342 266.181C248.93 303.77 210.379 333.588 159.733 354.835ZM159.733 346.393C111.984 325.832 75.6028 297.395 51.5613 261.831C31.5759 232.267 19.8296 197.469 16.6468 158.407C12.2405 104.325 25.4962 56.9524 31.2248 39.5472C48.0646 32.4722 95.1618 15.5383 159.735 15.5383C224.307 15.5383 271.402 32.4695 288.246 39.546C293.973 56.9508 307.231 104.325 302.824 158.406C299.639 197.469 287.89 232.267 267.907 261.83C243.865 297.395 207.479 325.836 159.733 346.393Z" fill="white"/>
<path fill-rule="evenodd" clip-rule="evenodd" d="M91.9787 255.061C90.8191 253.928 89.4482 253.027 87.9051 252.383C86.3565 251.735 84.6763 251.409 82.9084 251.409C81.142 251.409 79.4603 251.735 77.9106 252.383C76.3686 253.027 74.9977 253.928 73.8381 255.061C72.6785 256.193 71.7555 257.533 71.0975 259.04C70.4356 260.552 70.1006 262.195 70.1006 263.924C70.1006 265.653 70.4371 267.294 71.0975 268.806C71.7555 270.312 72.6755 271.65 73.8381 272.786C74.9977 273.919 76.3686 274.82 77.9106 275.464C79.4576 276.111 81.1394 276.438 82.9084 276.438C84.6763 276.438 86.3581 276.111 87.9051 275.464C89.4482 274.82 90.8176 273.919 91.9787 272.786C93.1371 271.654 94.0586 270.314 94.7194 268.806C95.3813 267.293 95.7162 265.65 95.7162 263.924C95.7162 262.198 95.3813 260.555 94.7194 259.04C94.0575 257.532 93.136 256.192 91.9787 255.061ZM91.5094 263.924C91.5094 265.125 91.2858 266.264 90.8459 267.3C90.4076 268.337 89.7901 269.246 89.0137 270.002C88.2347 270.762 87.309 271.37 86.2624 271.808C84.184 272.682 81.6317 272.682 79.5545 271.808C78.5078 271.369 77.5822 270.762 76.8031 270.001C76.0271 269.246 75.4108 268.337 74.972 267.3C74.5337 266.264 74.3101 265.128 74.3101 263.924C74.3101 262.72 74.5337 261.582 74.972 260.547C75.4108 259.512 76.0267 258.602 76.8046 257.844C77.5848 257.085 78.509 256.477 79.5556 256.039C80.5957 255.601 81.7259 255.379 82.9099 255.379C84.0936 255.379 85.2226 255.601 86.2624 256.039C87.3079 256.477 88.232 257.084 89.0137 257.844C89.7901 258.6 90.4076 259.51 90.8459 260.546C91.2846 261.584 91.5094 262.72 91.5094 263.924Z" fill="white"/>
<path fill-rule="evenodd" clip-rule="evenodd" d="M115.385 266.813C117.997 265.337 119.275 262.817 119.275 259.964C119.275 255.391 116.295 251.686 110.752 251.686H101.87V276.159H106.077V255.758H110.515C112.837 255.758 114.72 257.64 114.72 259.963C114.72 262.283 112.837 264.167 110.515 264.167H107.291L117.21 276.158H122.871L115.385 266.813Z" fill="white"/>
<path fill-rule="evenodd" clip-rule="evenodd" d="M144.623 272.231H132.17V251.566H127.965V276.029H142.578L144.623 272.231Z" fill="white"/>
<path fill-rule="evenodd" clip-rule="evenodd" d="M160.847 249.887L148.403 276.026H153.038L160.847 259.41L163.373 264.763H160.847L159.086 268.561H165.171L168.653 276.028H173.289L160.847 249.887Z" fill="white"/>
<path fill-rule="evenodd" clip-rule="evenodd" d="M177.933 261.079L194.108 276.738V252.45H189.475V266.43L173.982 250.77V267.595L177.933 275.059V261.079Z" fill="white"/>
<path fill-rule="evenodd" clip-rule="evenodd" d="M216.225 255.196C215.1 254.109 213.756 253.244 212.221 252.622C210.686 252 209.013 251.686 207.248 251.686H198.96V276.161H207.248C209.013 276.161 210.686 275.844 212.221 275.223C213.756 274.601 215.1 273.736 216.225 272.649C217.351 271.561 218.251 270.257 218.898 268.772C219.548 267.283 219.878 265.651 219.878 263.923C219.878 262.194 219.548 260.565 218.898 259.075C218.251 257.588 217.351 256.284 216.225 255.196ZM203.167 255.484H206.831C208.044 255.484 209.197 255.702 210.261 256.131C211.329 256.561 212.278 257.161 213.082 257.915C213.879 258.663 214.518 259.565 214.981 260.596C215.437 261.62 215.67 262.739 215.67 263.922C215.67 265.126 215.437 266.249 214.981 267.264C214.522 268.284 213.883 269.179 213.082 269.93C212.278 270.682 211.329 271.282 210.261 271.714C209.201 272.142 208.044 272.36 206.831 272.36H203.167V255.484Z" fill="white"/>
<path fill-rule="evenodd" clip-rule="evenodd" d="M248.363 259.04C247.7 257.532 246.778 256.192 245.622 255.061C244.462 253.928 243.091 253.027 241.548 252.383C239.998 251.736 238.317 251.409 236.553 251.409C234.784 251.409 233.103 251.736 231.553 252.383C230.01 253.027 228.64 253.928 227.48 255.061C226.32 256.193 225.397 257.533 224.742 259.04C224.08 260.552 223.743 262.195 223.743 263.924C223.743 265.653 224.08 267.294 224.742 268.806C225.401 270.312 226.32 271.65 227.48 272.786C228.64 273.919 230.01 274.82 231.553 275.464C233.099 276.111 234.784 276.438 236.549 276.438C238.317 276.438 240.002 276.111 241.548 275.464C243.091 274.82 244.462 273.919 245.622 272.786C246.782 271.654 247.7 270.314 248.363 268.806C249.021 267.293 249.358 265.65 249.358 263.924C249.362 262.198 249.025 260.555 248.363 259.04ZM245.151 263.924C245.151 265.125 244.929 266.264 244.489 267.3C244.052 268.337 243.432 269.246 242.655 270.002C241.874 270.762 240.951 271.37 239.906 271.808C237.827 272.682 235.274 272.682 233.195 271.808C232.146 271.369 231.224 270.762 230.446 270.001C229.669 269.246 229.053 268.337 228.613 267.3C228.176 266.264 227.95 265.128 227.95 263.924C227.95 262.72 228.172 261.582 228.613 260.547C229.053 259.512 229.669 258.602 230.446 257.844C231.224 257.085 232.15 256.477 233.199 256.039C234.236 255.601 235.366 255.379 236.553 255.379C237.735 255.379 238.865 255.601 239.906 256.039C240.951 256.477 241.878 257.084 242.659 257.844C243.436 258.6 244.052 259.51 244.489 260.546C244.929 261.584 245.151 262.72 245.151 263.924Z" fill="white"/>
<path fill-rule="evenodd" clip-rule="evenodd" d="M142.046 300.711C141.726 301.197 141.36 301.645 140.945 302.051C140.165 302.809 139.241 303.418 138.194 303.854C136.116 304.731 133.563 304.731 131.486 303.854C130.438 303.418 129.513 302.809 128.735 302.051C127.957 301.293 127.341 300.386 126.903 299.348C126.464 298.311 126.241 297.174 126.241 295.972C126.241 294.768 126.464 293.631 126.903 292.595C127.341 291.56 127.959 290.65 128.735 289.892C129.515 289.134 130.441 288.525 131.486 288.087C132.526 287.649 133.655 287.429 134.84 287.429C136.024 287.429 137.154 287.649 138.194 288.087C139.239 288.525 140.162 289.132 140.945 289.892C141.36 290.294 141.726 290.745 142.046 291.233V285.607C141.357 285.153 140.618 284.758 139.837 284.431C138.288 283.784 136.608 283.456 134.84 283.456C133.074 283.456 131.392 283.784 129.843 284.431C128.301 285.076 126.931 285.977 125.77 287.11C124.61 288.242 123.687 289.581 123.029 291.087C122.368 292.6 122.032 294.242 122.032 295.972C122.032 297.698 122.369 299.344 123.029 300.856C123.689 302.361 124.61 303.701 125.77 304.834C126.928 305.967 128.3 306.867 129.842 307.514C131.388 308.161 133.071 308.486 134.84 308.486C136.607 308.486 138.29 308.161 139.837 307.514C140.62 307.188 141.356 306.79 142.044 306.335L142.046 300.711Z" fill="white"/>
<path fill-rule="evenodd" clip-rule="evenodd" d="M148.131 283.456H152.339V307.931H148.131V283.456Z" fill="white"/>
<path fill-rule="evenodd" clip-rule="evenodd" d="M173.893 283.325H157.545V287.121H164.335V307.789H168.537V287.121H176.408L173.893 283.325Z" fill="white"/>
<path fill-rule="evenodd" clip-rule="evenodd" d="M196.093 283.456L189.551 292.779L183.012 283.456H178.043C178.177 283.735 187.449 297.181 187.449 297.181V307.931H191.656V297.181L201.15 283.456H196.093Z" fill="white"/>
<path fill-rule="evenodd" clip-rule="evenodd" d="M239.066 141.222C266.117 139.762 265.225 123.859 265.225 123.859C249.38 130.798 244.039 118.973 237.554 117.654C259.904 109.974 256.588 93.1326 256.588 93.1326C247.891 104.372 234.764 94.4147 228.37 95.3832C246.355 83.431 239.438 66.5564 239.438 66.5564C236.069 79.2176 213.942 75.464 213.942 75.464C226.184 57.3973 215.281 45.1182 215.281 45.1182C216.196 58.4467 192.955 61.8894 192.955 61.8894C198.985 38.2756 185.467 32.3184 185.467 32.3184C188.143 43.5494 172.508 52.4367 172.508 52.4367L159.734 27.5193L146.956 52.4367C146.956 52.4367 131.323 43.5494 133.999 32.3184C133.999 32.3184 120.482 38.2756 126.51 61.8894C126.51 61.8894 103.271 58.4478 104.186 45.1182C104.186 45.1182 93.2813 57.3985 105.523 75.464C105.523 75.464 83.3983 79.2161 80.0256 66.5564C80.0256 66.5564 73.1106 83.4299 91.0954 95.3832C84.7034 94.4147 71.5713 104.372 62.8777 93.1326C62.8777 93.1326 59.5601 109.974 81.9118 117.654C75.4271 118.973 70.0889 130.8 54.2407 123.859C54.2407 123.859 53.3499 139.762 80.3985 141.222C70.7076 146.917 72.7875 158.105 55.0167 156.212C55.0167 156.212 60.8437 170.795 84.8017 164.508C77.4507 172.238 81.2606 182.265 64.6968 185.394C64.6968 185.394 75.4987 198.556 96.2547 185.097C92.3801 192.338 97.822 203.265 83.272 210.491C83.272 210.491 98.3251 219.269 114.155 200.481C113.452 211.809 120.38 220.32 109.336 230.029C109.336 230.029 125.972 234.56 135.725 211.257C137.444 221.075 146.882 225.103 139.373 240.612C139.373 240.612 151.809 241.57 159.734 221.255C167.658 241.57 180.092 240.612 180.092 240.612C172.585 225.104 182.022 221.076 183.74 211.257C193.495 234.562 210.132 230.029 210.132 230.029C199.088 220.32 206.013 211.809 205.313 200.481C221.143 219.268 236.195 210.491 236.195 210.491C221.644 203.263 227.088 192.338 223.214 185.097C243.967 198.556 254.77 185.394 254.77 185.394C238.209 182.266 242.018 172.238 234.664 164.508C258.621 170.793 264.452 156.212 264.452 156.212C246.681 158.104 248.76 146.917 239.066 141.222ZM123.302 75.5299C134.093 75.5299 133.163 67.1831 132.003 65.2391C132.003 65.2391 140.996 65.64 148.538 71.1856C148.538 71.1856 157.532 60.8952 159.735 52.6614C161.94 60.8937 170.931 71.1856 170.931 71.1856C178.473 65.64 187.465 65.2391 187.465 65.2391C186.305 67.1831 185.375 75.5299 196.167 75.5299C206.959 75.5299 209.218 79.0748 209.218 79.0748C206.09 78.4478 201.68 77.8169 190.019 81.7631C178.358 85.7073 180.911 75.5299 180.911 75.5299C164.376 76.7312 159.736 85.9604 159.736 85.9604C159.736 85.9604 155.097 76.73 138.562 75.5299C138.562 75.5299 141.114 85.7073 129.455 81.7631C117.794 77.8169 113.385 78.4478 110.253 79.0748C110.253 79.0737 112.511 75.5299 123.302 75.5299ZM166.636 152.925C162.111 155.671 159.734 159.573 159.734 159.573C159.734 159.573 157.354 155.671 152.831 152.925C152.831 152.925 153.353 149.71 152.22 149.498C151.09 149.284 147.782 149.411 147.782 149.411C147.782 149.411 142.517 147.268 141.604 142.979C141.604 142.979 144.475 143.795 148.304 142.595C152.133 141.393 153.699 142.767 154.916 143.281C156.134 143.796 157.412 143.967 159.733 143.967C162.053 143.967 163.33 143.795 164.549 143.281C165.766 142.767 167.333 141.394 171.161 142.595C174.993 143.795 177.864 142.979 177.864 142.979C176.949 147.268 171.685 149.411 171.685 149.411C171.685 149.411 168.378 149.284 167.248 149.498C166.115 149.71 166.636 152.925 166.636 152.925ZM141.982 119.21C136.354 119.094 122.026 118.066 121.504 107.088V106.803C121.504 106.803 129.442 105.547 132.469 106.803C137.98 109.09 142.736 119.553 151.67 111.718C151.67 111.718 145.695 124.927 141.982 131.501C141.982 131.501 147.61 119.323 141.982 119.21ZM177.485 119.21C171.858 119.324 177.485 131.501 177.485 131.501C173.772 124.926 167.8 111.718 167.8 111.718C176.731 119.553 181.489 109.091 187.002 106.803C190.026 105.547 197.966 106.803 197.966 106.803V107.088C197.442 118.066 183.113 119.094 177.485 119.21ZM220.067 153.913C203.881 150.74 197.442 158.116 197.442 158.116C207.973 159.573 212.483 171.966 212.483 171.966C204.765 167.25 196.224 168.323 196.224 168.323C206.664 194.607 171.9 200.695 159.733 215.145C147.564 200.695 112.801 194.606 123.242 168.323C123.242 168.323 114.7 167.251 106.984 171.966C106.984 171.966 111.495 159.574 122.024 158.116C122.024 158.116 115.584 150.741 99.3989 153.913C99.3989 153.913 107.839 143.965 118.368 145.85C118.368 145.85 112.972 136.504 97.3971 135.56C97.3971 135.56 99.9207 132.215 109.144 131.529C109.144 131.529 102.125 123.552 105.314 108.916C105.314 108.916 99.8617 104.63 101.834 91.8233C101.834 91.8233 103.891 102.21 108.274 100.914C111.32 100.013 109.928 96.2105 107.534 96.4973C107.534 96.4973 108.23 93.6678 112.71 91.8233C117.193 89.9804 118.367 89.8093 118.192 86.2498C118.192 86.2498 121.369 84.9206 122.5 87.9648C123.631 91.0095 120.542 92.468 118.975 92.7666C117.409 93.0679 115.234 93.7111 114.277 95.5123C114.277 95.5123 117.584 96.6278 114.973 99.543C112.363 102.459 102.878 124.327 125.156 139.507C125.156 139.507 124.634 146.538 132.552 153.142C132.552 153.142 129.158 152.827 128.565 152.97C127.97 153.113 127.767 159.517 128.565 159.745C129.363 159.974 141.776 159.745 141.776 159.745C141.776 159.745 129.274 163.519 128.785 163.962C128.297 164.404 128.928 167.75 129.333 167.805C129.739 167.862 139.862 164.805 145.085 164.462C145.085 164.462 133.249 169.864 131.247 171.493C131.247 171.493 133.161 175.696 135.772 177.153C135.772 177.153 152.886 170.978 159.731 165.404C166.578 170.978 183.691 177.153 183.691 177.153C186.302 175.694 188.216 171.493 188.216 171.493C186.213 169.864 174.38 164.462 174.38 164.462C179.602 164.805 189.728 167.863 190.13 167.805C190.536 167.748 191.167 164.404 190.677 163.962C190.187 163.519 177.688 159.745 177.688 159.745C177.688 159.745 190.103 159.974 190.899 159.745C191.696 159.517 191.493 153.113 190.899 152.97C190.306 152.827 186.91 153.142 186.91 153.142C194.831 146.538 194.306 139.507 194.306 139.507C216.587 124.329 207.101 102.459 204.49 99.543C201.879 96.6263 205.186 95.5123 205.186 95.5123C204.229 93.7111 202.055 93.0679 200.489 92.7666C198.923 92.468 195.834 91.0095 196.963 87.9648C198.096 84.9206 201.27 86.2498 201.27 86.2498C201.098 89.8093 202.273 89.9804 206.752 91.8233C211.235 93.6678 211.932 96.4973 211.932 96.4973C209.539 96.2105 208.146 100.013 211.193 100.914C215.572 102.208 217.632 91.8233 217.632 91.8233C219.604 104.631 214.152 108.916 214.152 108.916C217.341 123.552 210.324 131.529 210.324 131.529C219.546 132.215 222.069 135.56 222.069 135.56C206.492 136.504 201.098 145.85 201.098 145.85C211.629 143.964 220.067 153.913 220.067 153.913Z" fill="#FDE192"/>
</svg>
