<svg width="320" height="320" viewBox="0 0 320 320" fill="none" xmlns="http://www.w3.org/2000/svg">
<g clip-path="url(#clip0_194_2)">
<path d="M159.734 319.003C247.824 319.003 319.234 247.592 319.234 159.502C319.234 71.4113 247.824 0 159.734 0C71.645 0 0.234375 71.4113 0.234375 159.502C0.234375 247.592 71.645 319.003 159.734 319.003Z" fill="#003278"/>
<path fill-rule="evenodd" clip-rule="evenodd" d="M159.285 53.0264C102.239 53.028 55.299 100.499 55.299 158.188C55.2974 215.879 102.239 263.352 159.285 263.354C215.316 263.305 261.752 217.468 263.153 160.823H310.729V156.137H263.202C262.104 99.2524 215.547 53.0554 159.285 53.0264ZM55.299 158.188V156.137H7.25732V160.823H55.299V158.188Z" fill="white"/>
<path fill-rule="evenodd" clip-rule="evenodd" d="M159.153 6.67163C76.0904 6.67163 8.40767 73.544 6.97217 156.267V156.273L55.3957 156.315C56.0853 130.561 66.1692 105.009 85.828 85.3454C94.3218 76.85 103.951 70.2364 114.185 65.2887L113.844 65.3112L117.527 63.6373H117.73C119.4 62.9091 121.082 62.2131 122.787 61.5767L122.644 61.5429C123.712 61.1433 124.769 60.7615 125.84 60.4038L126.003 60.4457C127.66 59.8867 129.31 59.2954 130.996 58.8137L130.923 58.8072C132.167 58.4528 133.394 58.1192 134.64 57.8115L134.838 57.876C136.816 57.391 138.798 56.898 140.796 56.5339L140.748 56.5178C141.668 56.3487 142.579 56.165 143.506 56.0232L143.668 56.1166C144.932 55.9314 146.198 55.7187 147.469 55.5705L147.347 55.5238C147.989 55.4529 148.653 55.3675 149.298 55.3095C179.332 52.3386 210.409 62.342 233.411 85.3503C244.353 96.2865 252.22 109.096 257.26 122.71L257.576 123.084C258.196 124.805 258.794 126.537 259.33 128.299L259.119 127.876C259.461 128.979 259.696 130.105 259.999 131.214L260.236 131.484C260.542 132.585 260.824 133.698 261.083 134.807L260.872 134.523C262.577 141.612 263.614 148.828 263.828 156.078H311.311C311.332 157.022 311.371 157.966 311.384 158.915L311.393 158.925C311.393 74.9763 243.101 6.67325 159.154 6.67325L159.153 6.67163ZM103.605 100.184V138.755H115.588L115.725 137.183L115.49 137.958C115.49 121.505 123.961 114.175 142.964 114.175H145.984V145.369C145.984 150.716 142.111 153.758 139.33 155.351C142.136 156.793 145.984 159.616 145.984 164.957V198.365C145.984 202.697 143.006 205.293 137.991 205.293H131.841V220.308H181.507V205.293H175.686C170.154 205.293 167.358 203.066 167.358 198.674V164.957C167.358 159.664 171.853 156.759 174.98 155.3C171.894 153.573 167.358 150.294 167.358 145.369V114.241L168.831 114.25H170.094C188.512 114.25 199.073 122.575 199.073 137.106L199.06 138.757H208.003V100.185L103.605 100.184Z" fill="#C0111F"/>
<path fill-rule="evenodd" clip-rule="evenodd" d="M154.316 17.4016L145.249 17.4274L148.141 20.7334C148.141 20.7366 153.181 28.4055 154.046 29.717L152.808 31.726L154.693 33.5482C154.2 34.2103 147.679 42.8298 147.679 42.8298C147.666 42.8298 145.176 45.182 145.176 45.182L144.232 46.081L152.913 45.9828L152.314 43.355C152.573 43.0231 157.281 36.9299 158.004 35.9938C158.684 36.996 163.061 43.5209 163.078 43.5467L163.074 43.5918C163.074 43.9173 163.271 45.6573 163.271 45.6573L163.326 46.1068L173.029 46.0971L169.491 42.622C169.491 42.6091 164.08 34.5873 163.179 33.2421L164.413 31.2878L162.775 29.4592C163.231 28.8357 169.322 20.6786 169.322 20.6786L172.14 17.4274L163.398 17.4016L163.701 18.1089L164.576 20.147C164.268 20.561 159.983 26.2434 159.264 27.1988L154.555 19.981L154.561 19.9327C154.561 19.6008 154.371 17.8576 154.371 17.8576L154.316 17.4016ZM105.01 27.4469L104.557 27.6934L87.2136 36.8139L90.3375 38.7521C90.3375 38.8922 93.6757 45.3431 94.1897 46.3485L92.8943 49.7254L96.4742 50.7581C96.6692 51.1447 100.383 58.6767 100.399 58.7057C100.349 58.7089 100.33 61.1948 100.33 61.1948L100.326 62.0439L117.899 52.8106L115.24 47.4778C115.24 47.4778 112.319 51.3961 112.319 51.4089C112.29 51.3671 106.69 54.3315 105.513 54.9534C105.105 54.1591 101.639 47.3828 101.248 46.6159L106.055 44.101C106.055 44.13 108.561 43.7981 108.561 43.7981L109.265 43.7062L106.674 38.4862L104.33 40.9738C104.317 40.9545 100.644 42.8701 99.574 43.4195L96.1053 36.743C96.8996 36.3241 103.209 33.0487 103.218 33.0423C103.225 33.0922 107.062 33.0165 107.062 33.0165L107.876 33.0004L105.01 27.4469ZM218.941 30.007L218.687 30.2438C218.687 30.2438 209.827 38.4298 209.798 38.4524C209.785 38.3847 206.437 38.8987 206.437 38.8987L206.004 38.9663C206.004 38.9663 206.02 41.9807 206.027 42.3738C205.701 42.6638 199.038 48.6572 199.038 48.6572C199.105 48.6024 196.643 50.1362 196.643 50.1362L195.857 50.6308L202.848 53.9142C202.848 53.9142 202.928 51.0932 202.946 50.7452L206.183 47.5068C206.763 47.7775 214.072 51.2301 214.669 51.5105C214.599 52.0985 214.203 55.6268 214.166 55.9781L211.749 58.0306L220.968 62.3468L220.245 58.4962C220.267 58.4962 221.488 49.6657 221.508 49.5304C221.587 49.6013 224.084 47.357 224.084 47.357L224.44 47.0445C224.44 47.0445 221.902 43.8142 221.89 43.8061C222.006 43.7965 222.54 32.0837 222.54 32.0837L222.563 31.7454L218.941 30.007ZM216.02 38.1979C215.792 40.1634 215.087 46.2872 214.968 47.3635L209.16 44.6246C209.996 43.8416 214.582 39.5512 216.02 38.1979ZM59.1367 59.2841L58.8306 59.6627L44.0712 77.2705L48.7483 81.1275C48.7483 81.1275 49.8825 76.6293 49.8889 76.6164C49.9147 76.6389 52.0559 74.0934 52.7873 73.225C53.4479 73.7744 58.1072 77.6056 58.3843 77.828L58.7742 81.2435L62.1946 81.0904L68.979 86.7905C68.979 86.8953 70.0971 89.3055 70.0971 89.3055L70.4354 90.0418L76.7349 82.505L73.097 81.9443C73.097 81.8461 66.4254 76.2313 66.3239 76.1363L66.3352 76.0783C66.3352 75.6352 65.8889 73.1493 65.8889 73.1493L65.8067 72.6837C65.8067 72.6837 62.8068 73.0027 62.4459 73.0333C62.1463 72.7852 57.5095 68.8895 56.8618 68.3417C57.3661 67.715 59.6184 65.0035 59.6249 64.9874C59.6474 65.0228 63.2241 63.4278 63.2241 63.4278L63.9926 63.0814L59.1367 59.2841ZM261.879 64.264C261.027 64.2801 260.16 64.4557 259.298 64.8247C258.586 65.1243 257.605 65.6656 257.002 66.5389C256.274 67.6086 255.791 69.0442 255.644 70.5828L255.579 71.659L255.517 72.2084C255.433 72.1601 253.96 73.5698 253.96 73.5698L253.67 73.8437C253.67 73.8437 255.491 77.1464 255.491 77.1658V77.2705C255.491 77.8988 255.65 81.0228 255.65 81.0228C255.612 82.4341 254.969 83.8664 254.149 84.3868C253.095 85.0667 251.74 85.26 250.422 84.9249C249.174 84.6156 247.385 83.6875 245.958 81.0679C244.353 77.604 245.346 75.0407 246.453 73.5086L246.83 72.993L244.145 71.8217L243.899 72.1214C242.364 74.0048 241.888 78.3145 244.062 82.6081C245.974 86.3798 248.499 88.8447 251.362 89.7325C253.577 90.4285 255.897 90.1803 258.08 88.9994C259.124 88.4532 260.039 87.4253 260.439 86.7132C261.236 85.3631 261.449 83.7359 261.452 83.2252L261.494 80.7457L261.383 79.3811L263.126 77.6024L261.409 74.6653L261.426 74.4817L261.42 73.9097C261.42 71.7041 262.011 70.2283 263.107 69.7563C264.431 69.1714 267.45 69.2456 268.752 72.0521C269.854 74.443 270.073 76.0122 269.562 77.857L269.445 78.2968L271.992 79.2925L272.168 78.7785C273.029 76.0654 271.633 72.5355 270.729 70.6682C269.01 67.1656 265.572 64.1979 261.879 64.264ZM35.84 108.144L32.1103 119.64H20.0254L29.8032 126.74L26.0719 138.238L35.84 131.127L45.6308 138.238L41.8882 126.74L51.6595 119.64H39.5762L35.84 108.144ZM281.454 108.144L277.721 119.636H265.626L275.404 126.746L271.671 138.238L281.454 131.13L291.232 138.238L287.489 126.746L297.28 119.636H285.182L281.454 108.144ZM48.5678 182.882L48.0039 183.423L45.9675 185.384C45.9321 185.362 43.5089 186.238 43.5089 186.238L38.5967 188.002C38.5967 187.886 35.6628 186.65 35.6628 186.65L35.2069 186.465L33.5909 190.035C33.2268 190.172 25.4484 193.016 25.4323 193.019C25.4194 192.99 22.7739 192.84 22.7739 192.84L22.0054 192.79L25.2985 201.987L27.8844 199.272C27.9198 199.306 34.4722 196.865 36.2847 196.191L36.8905 197.917L27.5428 208.233L30.1577 215.686C30.1577 215.686 32.4761 212.141 32.5421 212.053C32.6952 211.887 40.1288 204.102 40.675 203.527C42.9805 206.184 46.2059 207.395 48.9352 206.419C50.7509 205.742 52.0011 204.468 52.7261 202.604C53.7153 200.034 53.5252 196.391 52.2283 192.85L48.5678 182.882ZM272.561 187.427L271.892 187.772C269.973 188.777 268.285 191.226 267.138 194.661C265.599 199.286 266.514 205.199 271.251 207.066C271.992 207.35 273.105 207.698 274.178 207.484C275.486 207.224 276.854 206.515 278.048 205.533L278.838 204.813L279.182 204.539C279.208 204.627 281.341 204.663 281.341 204.663L281.733 204.666C281.733 204.666 282.782 200.946 282.782 200.933C282.823 200.946 285.332 198.12 285.332 198.12C286.291 197.211 287.642 196.68 288.507 196.886C289.961 197.301 290.971 198.176 291.569 199.341C292.321 200.807 292.408 202.649 291.823 204.672C290.597 208.081 288.208 209.158 286.416 209.448L285.788 209.552L285.728 210.194L286.738 212.76L287.267 212.712C289.384 212.501 293.083 209.983 294.651 205.015C295.864 201.239 295.886 197.843 294.721 195.225C293.677 192.879 291.689 191.165 289.11 190.403C287.971 190.051 286.598 190.127 285.735 190.345H285.728C284.288 190.741 283.009 191.671 282.479 192.162C282.459 192.172 280.723 193.886 280.723 193.886L279.912 194.856L277.362 194.891L276.501 198.308L276.189 198.605C274.22 200.683 272.912 200.693 272.313 200.511C271.041 200.016 268.874 198.06 269.918 195.178C270.771 192.787 271.676 191.564 273.247 190.683L273.645 190.462L273.667 189.921L272.561 187.427ZM48.0201 192.006C48.2537 192.624 48.7547 194.055 48.7547 194.055C48.9964 194.706 49.1108 195.317 49.1108 195.876C49.1108 196.338 49.0318 196.765 48.8788 197.161C48.4986 198.167 47.6527 198.935 46.4428 199.386C45.1217 199.858 43.7216 199.779 42.6357 199.182C41.7996 198.739 41.1825 198.02 40.8377 197.094L39.9645 194.722L48.0201 192.006ZM254.371 229.239C253.909 229.216 253.427 229.242 252.934 229.317C250.211 229.714 247.129 231.665 244.7 234.541L237.828 242.629C237.828 242.629 241.358 243.677 241.374 243.677V243.681C241.374 243.756 247.131 248.778 247.192 248.833L247.166 249.007C247.166 249.671 247.44 252.055 247.44 252.055L247.498 252.543C247.498 252.543 251.02 252.24 251.394 252.202C251.716 252.471 258.009 257.879 258.009 257.879C258.009 257.97 259.142 260.289 259.142 260.289L259.478 260.973L265.852 253.589L262.259 252.664C262.259 252.622 256.905 248.072 255.423 246.827L256.635 245.443C257.197 245.577 270.175 248.567 270.175 248.567L275.362 242.616L271.067 242.316C270.988 242.3 260.49 239.612 259.648 239.398C260.044 238.285 260.34 237.162 260.34 236.105C260.34 233.961 259.573 232.029 258.106 230.756C257.001 229.81 255.757 229.306 254.371 229.239ZM73.3789 231.977L72.9085 232.137C72.9085 232.137 62.1318 235.899 62.0915 235.909C62.0883 235.841 58.8709 235.053 58.8709 235.053L58.4601 234.952C58.4601 234.952 57.1808 237.673 57.0181 238.003L47.9959 241.037L48.0603 241.066C47.6543 241.085 46.9084 241.193 45.286 241.439L43.9987 241.652L49.5103 247.977C49.5103 247.977 50.796 245.256 50.9394 244.942L54.914 243.358C55.3168 243.818 60.3821 249.564 60.7768 250.019C60.4965 250.5 58.858 253.375 58.7114 253.645L55.4666 254.628L62.6489 262.84L63.5769 258.628C63.5898 258.703 65.4378 255.612 65.4378 255.612L68.378 250.729C68.4119 250.818 71.2474 249.703 71.2474 249.703L71.6325 249.56C71.6325 249.56 71.0525 245.648 71.0461 245.635C71.1347 245.648 76.0518 235.519 76.0518 235.519L76.1984 235.216L73.3789 231.977ZM250.891 235.33C251.692 235.401 252.478 235.759 253.213 236.392C254.283 237.312 254.896 238.575 254.922 239.817V239.893C254.922 240.81 254.597 241.678 253.975 242.405L252.359 244.352C251.692 243.743 246.668 239.186 246.05 238.623L247.464 236.975C248.271 236.031 249.162 235.475 250.086 235.353C250.355 235.312 250.624 235.306 250.891 235.33ZM66.9184 238.974C65.9743 240.61 63.4062 245.076 62.8922 245.973C62.222 245.216 59.8682 242.537 59.1689 241.733C60.2097 241.369 65.1349 239.612 66.9184 238.974ZM121.084 254.67C120.098 254.876 119.202 254.941 118.266 254.886C120.233 255.738 122.229 256.486 124.232 257.211C123.182 256.603 122.217 255.907 121.084 254.67ZM100.853 255.872L100.908 256.742L101.129 260.038C101.084 259.974 99.2051 263.813 99.2051 263.813L97.863 266.56C97.5118 266.689 94.4845 267.846 94.4845 267.846C94.4845 267.846 95.4592 271.537 95.4721 271.569C95.3545 271.55 92.9024 276.51 92.9024 276.51L91.4588 279.418C91.4234 279.376 89.221 280.995 89.221 280.995L88.5508 281.49L96.5757 285.471C96.5757 285.471 96.0972 281.419 96.0876 281.41C96.1552 281.41 101.177 271.303 102.999 267.651L106.982 290.672L110.278 292.336C110.278 292.336 115.63 281.398 115.65 281.343C115.701 281.44 118.414 280.18 118.414 280.18L118.796 280.001L117.958 276.594C118.076 276.594 120.106 272.424 120.106 272.424L121.455 269.663C121.509 269.673 123.607 268.018 123.607 268.018L124.232 267.523L116.47 263.592L116.823 267.575C116.763 267.533 113.138 274.917 113.138 274.917C113.138 274.917 112.092 277.068 111.38 278.519C110.908 275.914 107.891 259.321 107.891 259.321L100.853 255.872ZM217.743 257.816L217.058 258.116L198.947 265.983L202.129 268.314C202.129 268.448 205.071 275.308 205.329 275.917C205.169 276.275 203.765 279.275 203.765 279.275L207.332 280.588L210.572 288.542C210.53 288.548 210.312 291.297 210.312 291.297L210.243 292.141L228.775 284.066L226.388 278.468L222.995 282.383C222.975 282.336 218.688 284.213 218.688 284.213L216.367 285.236C216.164 284.748 213.167 277.599 212.829 276.776C213.583 276.449 217.448 274.786 217.457 274.783C217.464 274.801 220.266 274.64 220.266 274.64L220.981 274.607L218.516 268.667L215.822 271.164C215.816 271.145 211.343 273.08 211.343 273.08L211.263 273.112C210.928 272.339 208.64 267.034 208.311 266.257C209.014 265.957 214.93 263.417 215.152 263.312C215.424 263.335 220.174 263.595 220.174 263.595L217.741 257.812L217.743 257.816ZM163.654 272.275C156.591 272.207 150.16 276.541 148.009 282.81L147.648 284.137C147.629 284.086 145.608 286.183 145.608 286.183L145.317 286.499L147.553 289.441C148.761 296.512 155.57 301.874 163.327 301.942C168.779 301.996 170.369 301.207 172.23 300.28L173.311 299.739L173.356 289.77C173.429 289.77 174.781 287.366 174.781 287.366L175.203 286.62L164.901 286.544L166.667 289.942C166.611 289.942 166.598 292.47 166.598 292.47L166.585 297.408C166.019 297.574 165.36 298.104 163.364 298.084C158.458 298.049 155.571 293.649 154.885 289.317C154.927 289.285 157.091 287.131 157.091 287.131L157.416 286.802L155.146 284.108L155.296 283.249C156.298 279.781 159.03 276.054 163.674 276.164C167.013 276.236 169.504 277.053 170.685 278.461L171.096 278.972L171.963 280.037L172.126 274.725L171.787 274.499C169.393 272.874 167.329 272.31 163.654 272.275Z" fill="white"/>
<path fill-rule="evenodd" clip-rule="evenodd" d="M149.649 55.2627L149.298 55.3046C148.653 55.3642 147.989 55.448 147.347 55.5205L147.469 55.5656C148.273 55.8749 150.643 56.8174 150.981 57.3894L152.19 57.2073C152.19 57.2073 150.706 56.007 149.649 55.2627ZM143.506 56.0215C142.576 56.1649 141.667 56.3438 140.751 56.5129L140.799 56.5307C142.491 56.985 144.065 57.9774 145.769 58.8104L147.414 58.6637C147.414 58.6637 145.88 57.3523 143.668 56.1134L143.506 56.0215ZM134.64 57.8067C133.391 58.116 132.167 58.4527 130.923 58.8039L130.995 58.8104C131.815 58.9457 133.406 59.2792 134.005 59.9623C135.859 59.6304 137.143 60.5633 138.321 61.1674L141.095 60.2781C141.095 60.2781 137.495 58.5043 136.174 58.4737C135.611 58.2046 135.255 57.9887 134.838 57.8711L134.64 57.8067ZM125.838 60.3989C124.768 60.7598 123.71 61.1384 122.643 61.5396L122.787 61.5718C123.301 61.6927 125.029 62.1228 125.914 62.8849C127.852 62.5562 129.763 63.5148 131.152 64.3993L133.952 63.4117C133.644 62.8978 130.029 61.327 128.005 61.2883C127.332 60.7582 126.629 60.5778 126.003 60.4408L125.838 60.3989ZM119.315 63.5873C118.778 63.5599 118.205 63.6534 117.73 63.6341H117.527L113.844 65.308L114.185 65.2822C115.21 65.1742 117.899 64.8198 118.24 65.598C120.325 65.3918 122.571 66.6629 123.927 67.5248L126.905 66.7564C125.297 65.3096 122.365 64.1705 120.679 64.2624C120.351 63.7645 119.851 63.6147 119.315 63.5873ZM110.831 67.8777L107.248 69.8191C107.705 69.8481 110.732 69.9077 111.13 70.7955C113.199 70.6198 115.484 71.3416 116.803 72.1665L119.407 70.1864C117.364 69.0876 114.169 68.4738 112.508 68.5544C111.669 68.266 111.789 67.9986 110.831 67.8777ZM101.828 73.457L99.3419 75.5611C100.526 75.9316 100.926 76.9273 101.652 77.9487C104.079 77.4928 107.646 76.5326 111.127 77.314L113.742 74.994C109.813 74.3012 105.646 74.4961 103.528 75.0536C103.02 74.2657 101.828 73.457 101.828 73.457ZM94.4071 81.1726L92.3433 83.0721C93.5371 83.4362 93.9141 84.7895 94.6584 85.7852C96.6659 84.7895 101.096 84.079 105.567 84.688L107.876 81.7107C101.096 81.229 98.3044 82.0861 96.1954 83.114C95.4704 81.8879 94.4071 81.1726 94.4071 81.1726ZM88.0529 89.0558L86.4208 91.6319C87.9143 92.452 87.7742 93.4219 88.4927 94.4369C90.5195 93.4219 94.6439 91.4901 99.1341 92.1104L101.43 89.1444C94.4071 89.2958 90.5404 89.9081 90.0297 91.5369C89.3241 90.3076 88.0529 89.0558 88.0529 89.0558ZM82.4801 96.7392L81.2556 99.6537C82.3415 100.47 83.0085 102.473 83.7593 103.491C85.7699 102.451 88.3687 100.472 92.8379 101.123L94.9549 97.6671C89.2596 97.6671 85.5895 98.8288 85.0756 100.472C84.3667 98.7708 82.4801 96.7392 82.4801 96.7392ZM210.805 97.5527V141.557H196.434L204.751 149.427H218.335V104.593L210.805 97.5544V97.5527ZM77.9722 104.911L76.7606 108.155C78.2702 108.976 78.5135 110.975 79.2449 111.963C81.2556 110.96 84.2829 109.098 88.7988 109.699L90.6548 106.275C85.1771 106.275 81.3845 107.458 80.8963 109.096C79.9957 106.846 77.9722 104.911 77.9722 104.911ZM73.5223 114.933L72.5234 118.296C74.0153 119.137 74.7161 121.133 75.4411 122.161C77.4614 121.133 79.9361 119.465 84.4247 120.083L85.8634 116.839C79.0387 117.258 77.2649 117.835 76.7606 119.454C75.7392 117.44 73.5223 114.933 73.5223 114.933ZM142.964 116.983C125.44 116.983 118.289 123.057 118.272 138.125L118.253 141.559H100.939L108.835 148.958H125.3L125.316 146.192C125.316 130.764 126.823 121.038 143.188 119.409V116.983H142.964ZM170.158 117.063V145.367C170.158 150.679 178.699 154.087 178.794 154.124L182.308 155.498C180.115 153.793 178.064 151.462 178.064 148.527V119.88L179.419 119.962C184.676 120.413 188.461 121.805 191.154 123.838C186.793 119.478 179.756 117.092 170.158 117.063ZM255.837 121.197L255.422 122.617C256.757 124.072 258.048 125.62 259.117 127.874L259.33 128.298C258.792 126.535 258.194 124.8 257.577 123.079L257.255 122.709C256.891 122.282 256.459 121.811 255.837 121.197ZM69.4156 124.444L68.7453 127.809C70.2614 128.642 70.9348 130.637 71.6792 131.662C73.6802 130.637 77.0409 128.797 81.5198 129.395L82.6428 126.05C76.0598 126.446 73.1775 127.091 72.6571 128.737C71.9289 127.515 69.4156 124.444 69.4156 124.444ZM254.113 125.288L253.603 126.806C255.502 128.439 256.78 129.793 257.98 132.681L258.697 131.196C257.474 128.705 256.833 128.04 254.113 125.288ZM252.072 129.72L251.133 131.233C253.693 133.516 254.822 134.777 256.013 138.114L256.612 136.841L256.54 137.036C257.978 138.227 259.607 140.128 260.585 145.375L261.328 142.398C261.039 138.618 257.524 134.423 257.02 135.723L256.804 136.316C255.597 133.89 254.805 132.219 252.072 129.72ZM259.221 130.337L258.515 131.939C259.291 132.494 260.07 133.318 260.869 134.521L261.081 134.798C260.824 133.693 260.54 132.58 260.234 131.48L259.997 131.209L259.221 130.337ZM249.251 134.365L247.977 136.06C249.904 137.251 251.905 140.128 253.127 143.036L253.752 142.007C254.813 142.925 256.712 144.312 257.954 151.498L258.914 148.997C257.858 142.163 254.671 139.588 254.413 141.117L253.967 141.668L254.31 141.117C253.084 138.659 251.597 135.987 249.251 134.365ZM66.406 134.412L65.7019 138.001C67.1922 139.384 68.3055 141.95 69.0337 142.988C71.0508 141.96 74.2086 139.148 78.6633 139.785L79.3625 136.782C72.8472 137.276 71.8081 138 70.2195 139.941C69.5074 138.705 66.406 134.412 66.406 134.412ZM245.4 139.463L243.797 141.161C245.724 142.34 248.636 145.506 249.854 148.42L251.002 146.693C249.789 144.222 247.753 141.093 245.4 139.463ZM240.388 144.792L238.55 146.281C239.89 147.165 244.539 151.079 245.745 153.996L247.15 152.058C245.932 149.584 242.831 146.444 240.388 144.792ZM63.5028 145.541L62.9824 149.016C65.631 151.293 66.7266 153.476 67.4967 154.427C68.3651 152.693 71.6582 151.069 76.1645 151.443L76.7235 148.169C71.3795 148.482 68.9741 149.36 68.2684 150.895C67.4887 149.672 63.5028 145.541 63.5028 145.541ZM251.826 145.714L251.589 145.831L250.77 147.247C253.064 150.185 253.944 153.491 254.207 157.921L255.832 155.43C255.784 151.096 253.105 145.527 251.826 145.714ZM248.771 150.157L247.142 152.277C248.207 155.828 248.864 161.873 248.283 165.374L250.39 162.601C250.745 158.633 249.502 153.692 248.771 150.157ZM234.534 150.368L232.592 152.091C234.532 153.246 238.532 156.954 239.729 159.862L241.326 158.172C240.105 155.709 236.892 151.987 234.534 150.368ZM182.536 155.687L178.662 156.779C178.576 156.801 170.166 159.237 170.166 164.95V198.671C170.166 200.957 171.101 202.481 175.691 202.481H178.066L178.069 201.811V191.603C180.45 193.694 182.951 195.407 184.847 195.623L185.673 195.135C185.707 199.243 185.359 201.674 186.339 204.543L184.315 202.662V223.11H129.21L137.868 231.298H141.617C142.177 232.201 142.821 232.904 143.61 233.125L145.402 231.298H190.988V208.876L187.692 205.815L190.321 204.713C188.359 202.657 188.441 196.606 188.644 193.33L187.731 193.867C184.078 193.262 180.123 189.613 178.296 187.134L178.067 187.229V168.116C178.067 161.227 187.615 158.583 187.615 158.583C187.615 158.583 185.018 157.554 182.536 155.687ZM229.032 155.801L227.084 157.525C229.03 158.685 233.024 162.397 234.227 165.298L235.516 163.921C235.905 168.553 235.877 173.757 235.347 176.188L237.741 174.275C238.133 170.099 237.875 165.268 237.126 161.736L235.439 162.97C234.044 160.544 231.195 157.298 229.032 155.801ZM243.256 156.489L241.442 158.29C242.045 159.845 242.51 161.738 242.038 171.119L244.327 168.986C244.394 161.951 244.013 160.027 243.256 156.489ZM61.7161 157.338L61.4857 160.679C62.8052 161.275 65.2444 165.361 65.9758 166.363C66.1482 166.178 66.3641 165.564 66.8136 165.015C67.6143 164.053 69.9214 162.68 74.8788 162.888L75.1624 159.824C69.4429 159.892 67.6143 161.287 67.1294 161.849C66.6734 162.25 66.4978 163.009 66.3738 163.436C65.4925 161.103 61.7161 157.338 61.7161 157.338ZM222.59 161.048L220.575 162.556C221.424 162.793 223.699 165.068 226.929 169.872L228.861 168.279C229.127 173.613 229.55 178.669 228.972 181.108L231.297 179.297C231.766 175.402 231.645 170.87 231.086 166.729L228.922 168.129C226.103 163.989 224.221 162.136 222.589 161.024L222.59 161.048ZM214.05 167.581L211.301 169.257C212.543 170.19 218.155 176.671 220.776 175.692C220.776 175.692 219.59 183.707 219.803 187.854L222.813 185.927C222.714 183.747 222.858 174.549 223.402 172.407C223.512 172.289 221.711 174.148 220.968 173.628C219.787 172.805 217.768 171.661 214.05 167.581ZM60.9314 167.836L61.0039 171.524C62.4829 172.411 64.7933 174.743 65.4716 175.787C66.3996 174.225 67.4516 173.417 74.1361 174.83L74.1715 171.636C66.2868 171.253 66.4012 171.967 66.1498 172.975C65.4732 171.723 60.9314 167.836 60.9314 167.836ZM203.816 172.995L200.073 175.038C202.24 177.275 209.339 182.913 210.794 182.959L210.992 182.806C211.018 187.556 210.422 190.022 212.239 193.662L215.634 192.246C213.678 190.213 213.768 184.14 213.96 180.868L213.842 180.662C212.632 181.086 211.095 180.72 209.722 179.549C208.356 178.381 203.816 172.995 203.816 172.995ZM60.9282 178.761L61.128 182.064C62.8777 182.476 65.0204 183.557 65.7664 184.569C67.7722 183.541 70.6271 183.633 74.1828 185.532L74.0878 182.255C69.7813 180.324 67.5612 180.667 65.9807 181.604C65.2557 180.345 60.9282 178.761 60.9282 178.761ZM190.816 180.986L187.407 182.396C190.497 185.619 194.592 189.154 197.367 189.47L198.2 188.991C198.243 193.834 197.617 196.288 199.442 199.974L202.851 198.555C200.887 196.515 200.972 190.44 201.167 187.177L200.268 187.707C196.6 187.119 192.654 183.473 190.816 180.986ZM61.687 187.567L62.5377 191.239C64.4952 191.743 65.7728 192.67 66.5075 193.694C66.8958 192.666 68.146 193.233 69.7813 193.958C71.2232 194.625 72.2978 195.389 73.9637 196.301L73.8783 192.998C70.242 190.662 66.6895 188.883 66.1756 190.506C65.4667 189.28 61.687 187.567 61.687 187.567ZM63.3739 196.021L63.8314 199.346C65.4152 199.997 66.6332 200.898 67.3775 202.006C69.0917 201.792 70.611 202.457 74.2924 205.094L74.0185 201.97C70.2582 198.822 68.4247 199.003 67.0843 199.003C66.3528 197.664 63.3739 196.021 63.3739 196.021ZM129.035 221.062L127.963 222.214L129.035 222.704V221.062ZM124.111 227.474L122.619 229.715C126.265 231.631 129.827 231.774 133.032 231.774L133.22 231.504C134.554 234.45 135.843 237.508 139.077 238.728L140.912 236.601C138.537 235.644 135.42 231.579 134.84 229.135L134.638 229.432C131.003 230.121 126.703 228.24 124.111 227.474ZM119.766 233.977L118.427 236.344C122.07 237.47 125.239 237.653 129.296 237.197L129.505 236.827C130.971 239.525 131.35 241.132 135.149 243.363L136.989 241.24C134.598 240.276 131.696 236.423 131.119 233.977L130.723 234.608C126.953 235.578 122.371 234.737 119.766 233.977ZM116.47 240.755L115.379 243.239C119.328 244.592 122.993 244.874 125.664 244.317C127.024 246.563 128.503 248.683 131.762 249.901L132.955 247.778C130.261 246.668 127.744 245.242 126.863 241.944C123.07 242.902 119.085 241.515 116.47 240.755ZM114.356 246.481L113.636 248.689C117.288 250.579 120.805 250.291 123.468 249.717C124.936 251.804 126.17 252.973 129.413 254.183L130.577 252.503C127.119 252.082 125.763 250.313 124.201 247.979C120.435 248.938 116.948 247.248 114.356 246.481Z" fill="#003278"/>
</g>
<defs>
<clipPath id="clip0_194_2">
<rect width="319" height="319.003" fill="white" transform="translate(0.234375)"/>
</clipPath>
</defs>
</svg>
