<svg width="320" height="51" viewBox="0 0 320 51" fill="none" xmlns="http://www.w3.org/2000/svg">
<g clip-path="url(#clip0_194_9)">
<mask id="mask0_194_9" style="mask-type:luminance" maskUnits="userSpaceOnUse" x="0" y="0" width="319" height="51">
<path d="M318.429 0H0.234375V50.053H318.429V0Z" fill="white"/>
</mask>
<g mask="url(#mask0_194_9)">
<path d="M18.8241 25.3257C20.9121 17.5259 18.5307 9.35263 12.8348 5.02131C5.07568 9.90524 0.601561 19.0881 2.21764 28.6552C2.75014 31.8181 3.90359 34.7247 5.52745 37.2716C11.5944 35.5922 16.9286 32.4124 18.8241 25.3257ZM29.2967 47.8344C42.1029 45.6965 50.7375 33.6411 48.5859 20.9126C46.7959 10.3174 38.1084 2.59632 27.8639 1.5297C25.796 1.3136 23.6599 1.37225 21.5051 1.73036C18.9514 2.1564 16.5699 2.98223 14.4012 4.12602C25.6874 7.93252 31.7558 13.7179 32.1766 19.6469C32.383 23.3067 30.6722 25.9539 28.4244 28.1119L44.3834 27.0036C44.8351 26.9728 44.9764 27.4961 44.43 27.6519L6.36421 38.5034C10.2391 43.8102 16.2563 47.3405 22.9396 48.0351C25.0074 48.2512 27.1436 48.1957 29.2967 47.8344ZM28.0114 0.135836C40.5472 1.434 50.3245 11.9675 50.3292 24.7746C50.3338 38.4602 39.178 49.5602 25.4127 49.5647C11.6472 49.5694 0.485128 38.4787 0.48047 24.7917C0.475813 11.1046 11.6301 0.00463087 25.3955 0C26.2773 0 27.1513 0.0478515 28.0114 0.135836Z" fill="white"/>
<path d="M2.21816 28.6557C2.75064 31.817 3.90409 34.7235 5.52795 37.2706C11.5949 35.5911 16.9291 32.4113 18.8262 25.3247C20.9126 17.5249 18.5312 9.35153 12.8337 5.02021C5.07619 9.90414 0.602067 19.0885 2.21816 28.6557ZM48.5864 20.91C50.738 33.64 42.1034 45.6954 29.2972 47.8333C27.1441 48.1945 25.0079 48.2502 22.9385 48.034C16.2584 47.3393 10.238 43.8092 6.36471 38.5023L44.4305 27.6508C44.9769 27.4935 44.8356 26.9717 44.3839 27.0026L28.4249 28.1108C30.6727 25.9529 32.3835 23.3057 32.1771 19.6458C31.7563 13.7168 25.6879 7.93143 14.4017 4.12492C16.5704 2.98113 18.9519 2.1553 21.5056 1.72926C23.6604 1.37116 25.7965 1.3125 27.8644 1.5286C38.1089 2.59523 46.7964 10.3163 48.5864 20.91Z" fill="#C70A0C"/>
<path d="M179.424 34.5017V26.3531H171.207V34.5017H166.697V15.0925H171.207V22.8244H179.424V15.0925H183.968V34.5017H179.424Z" fill="white"/>
<path d="M82.2192 15.0925V27.2438C82.2192 28.5867 82.4179 29.749 82.8106 30.6937C83.2003 31.6306 83.7654 32.4102 84.4904 33.0091C85.2216 33.6142 86.1049 34.0602 87.1125 34.3351C88.1371 34.6159 89.2936 34.7595 90.5497 34.7595C91.804 34.7595 92.9496 34.6159 93.9525 34.3351C94.9399 34.0602 95.7813 33.6156 96.4565 33.0152C97.1304 32.4163 97.6597 31.6368 98.0293 30.6983C98.4019 29.7568 98.5882 28.5944 98.5882 27.2438V15.0925H94.3686V27.114C94.3686 28.3382 94.0627 29.3276 93.4604 30.053C92.8441 30.7924 91.8645 31.1675 90.5497 31.1675C89.2565 31.1675 88.2846 30.794 87.6574 30.0561C87.0427 29.3322 86.7305 28.3428 86.7305 27.114V15.0925H82.2192Z" fill="white"/>
<path d="M69.2099 34.5048V18.7169H63.9067V15.0925H79.0555V16.8307C79.0555 17.871 78.2062 18.7169 77.16 18.7169H73.7213V34.5048H69.2099Z" fill="white"/>
<path d="M141.705 15.0925H146.216V34.5017H141.705V15.0925Z" fill="white"/>
<path d="M126.681 25.4522L126.833 25.6451L132.596 33.0281C133.328 33.9682 134.435 34.5085 135.632 34.5085H139.225L130.969 24.0676L130.848 23.9132L130.969 23.7604L137.756 15.0869H133.061L126.838 23.4532L126.681 23.6555L126.679 23.305V15.0869H122.168V34.4977H126.679V25.7979L126.681 25.4522Z" fill="white"/>
<path d="M107.267 23.976H109.896C110.843 23.976 111.565 23.7166 112.04 23.2088C112.511 22.7056 112.75 22.0511 112.75 21.2654C112.75 20.4596 112.517 19.7974 112.059 19.2943C111.593 18.7817 110.867 18.524 109.896 18.524H107.267V23.976ZM116.288 34.4987C114.951 34.4987 113.692 33.7932 113.001 32.6572L109.491 26.8949H107.267V34.4987H102.758V15.0925H110.797C112.862 15.0925 114.479 15.6281 115.603 16.6855C116.724 17.7398 117.292 19.1846 117.292 20.9783C117.292 21.889 117.048 22.812 116.567 23.7213C116.092 24.615 115.251 25.3467 114.063 25.8947L113.802 26.015L119.279 34.4987H116.288Z" fill="white"/>
<path d="M149.918 33.6768V29.9553C151.354 30.6128 153.204 31.2689 155.117 31.2689C157.318 31.2689 158.435 30.5187 158.435 29.08C158.435 27.3914 156.936 27.2046 153.937 25.9219C151.896 25.0158 149.95 23.6081 149.95 20.3572C149.95 16.5739 152.853 14.791 156.872 14.791C159.009 14.791 160.828 15.2911 161.848 15.6663V19.2937C160.828 18.8244 159.009 18.261 157.191 18.261C155.213 18.261 154.288 18.9803 154.288 20.2306C154.288 21.5442 155.405 21.9518 157.414 22.7019C159.998 23.9832 162.997 24.5466 162.997 28.9242C162.997 32.7075 159.967 34.7713 155.915 34.7713C153.426 34.7713 151.45 34.3329 149.918 33.6768Z" fill="white"/>
<path d="M289.259 34.5002V15.0896H301.483V16.8508C301.483 17.8789 300.641 18.714 299.608 18.714H293.77V22.8894H300.326V26.1293H293.77V30.8775H301.483V34.5002H289.259Z" fill="white"/>
<path d="M244.66 34.4986V15.0896H246.852C248.129 15.0896 249.169 16.1238 249.169 17.3941V31.0025H256.369V34.4986H244.66Z" fill="white"/>
<path d="M216.736 34.4949V15.0981H221.247L221.246 34.4949H216.736Z" fill="white"/>
<path d="M229.892 23.9744H232.523C233.47 23.9744 234.19 23.7166 234.667 23.2088C235.138 22.7041 235.377 22.0511 235.377 21.2638C235.377 20.4596 235.144 19.796 234.683 19.2927C234.22 18.7817 233.492 18.5224 232.523 18.5224H229.892V23.9744ZM238.915 34.497C237.578 34.497 236.318 33.7916 235.626 32.6572L232.118 26.8949H229.892V34.497H225.384V15.0925H233.422C235.487 15.0925 237.104 15.6281 238.23 16.6855C239.35 17.7398 239.918 19.1846 239.918 20.9783C239.918 21.889 239.675 22.812 239.192 23.7213C238.718 24.6134 237.876 25.3451 236.689 25.8947L236.428 26.015L241.905 34.497H238.915Z" fill="white"/>
<path d="M201.232 27.4291L203.003 22.5235C203.397 21.4198 203.791 20.2545 204.054 19.3962H204.119C204.348 20.2854 204.743 21.3889 205.136 22.5235L206.842 27.4291H201.232ZM206.807 15.0896H201.625L194.264 34.5002H197.513C198.339 34.5002 199.068 33.977 199.325 33.199L200.081 30.9206H207.998L209.156 34.5002H214.043L206.807 15.0896Z" fill="white"/>
<path d="M305.105 33.6768V29.9568C306.54 30.6128 308.39 31.2689 310.305 31.2689C312.506 31.2689 313.622 30.5187 313.622 29.08C313.622 27.3914 312.123 27.2046 309.125 25.9234C307.083 25.0158 305.137 23.6095 305.137 20.3572C305.137 16.5739 308.04 14.791 312.059 14.791C314.196 14.791 316.015 15.2911 317.036 15.6663V19.2937C316.015 18.826 314.196 18.2626 312.378 18.2626C310.401 18.2626 309.475 18.9819 309.475 20.2322C309.475 21.5442 310.592 21.9518 312.601 22.7019C315.185 23.9832 318.183 24.5466 318.183 28.9242C318.183 32.7075 315.153 34.7713 311.102 34.7713C308.614 34.7713 306.636 34.3329 305.105 33.6768Z" fill="white"/>
<path d="M267.915 15.0925H270.71C272.037 15.0925 273.272 15.7734 273.973 16.8939L279.417 25.5905C280.032 26.5569 280.744 27.8334 281.167 28.7364H281.263C281.197 27.8643 281.167 26.6495 281.167 25.7773V15.0925H285.12V34.5001H280.173L273.552 24.0006C272.936 23.0359 272.289 21.8829 271.834 21.0108H271.77C271.802 21.852 271.866 22.8492 271.866 23.783V34.5001H267.915V15.0925Z" fill="white"/>
<path d="M259.272 34.4949V15.0981H263.784V34.4949H259.272Z" fill="white"/>
</g>
</g>
<defs>
<clipPath id="clip0_194_9">
<rect width="319" height="50.9817" fill="white" transform="translate(0.234375)"/>
</clipPath>
</defs>
</svg>
