<svg width="42" height="32" viewBox="0 0 42 32" fill="none" xmlns="http://www.w3.org/2000/svg">
<path d="M39.0133 21.4813C39.3414 21.4813 39.6121 21.2047 39.6121 20.8695V5.49808C39.6121 3.81343 38.275 2.44727 36.6262 2.44727H5.38047C3.73164 2.44727 2.39453 3.81343 2.39453 5.49808V26.5017C2.39453 28.1864 3.73164 29.5526 5.38047 29.5526H36.6262C38.275 29.5526 39.6121 28.1864 39.6121 26.5017V23.8029C39.6121 23.4677 39.3414 23.1911 39.0133 23.1911C38.6852 23.1911 38.4145 23.4677 38.4145 23.8029V26.5017C38.4145 27.5159 37.6105 28.3373 36.618 28.3373H5.38047C4.38789 28.3373 3.58398 27.5159 3.58398 26.5017V5.49808C3.58398 4.48393 4.38789 3.66256 5.38047 3.66256H36.6262C37.6188 3.66256 38.4227 4.48393 38.4227 5.49808V20.8779C38.4145 21.2131 38.677 21.4813 39.0133 21.4813Z" fill="black"/>
<path d="M36.6195 0H12.8059C12.4777 0 12.207 0.276585 12.207 0.611839C12.207 0.947093 12.4777 1.22368 12.8059 1.22368H36.6195C38.9246 1.22368 40.8031 3.14301 40.8031 5.49817V26.5018C40.8031 28.857 38.9246 30.7763 36.6195 30.7763H27.1039C26.7758 30.7763 26.5051 31.0529 26.5051 31.3882C26.5051 31.7234 26.7758 32 27.1039 32H36.6195C39.5891 32 42.0008 29.5359 42.0008 26.5018V5.49817C42.0008 2.46412 39.5891 0 36.6195 0Z" fill="black"/>
<path d="M24.232 30.7763H5.38125C3.07617 30.7763 1.19766 28.857 1.19766 26.5018V5.49817C1.19766 3.14301 3.07617 1.22368 5.38125 1.22368H9.9668C10.2949 1.22368 10.5656 0.947093 10.5656 0.611839C10.5656 0.276585 10.2949 0 9.9668 0H5.38125C2.41172 0 0 2.46412 0 5.49817V26.5018C0 29.5359 2.41172 32 5.38125 32H24.232C24.5602 32 24.8309 31.7234 24.8309 31.3882C24.8309 31.0445 24.5602 30.7763 24.232 30.7763Z" fill="black"/>
<path d="M20.7941 5.66602C20.466 5.66602 20.1953 5.9426 20.1953 6.27785V10.9798C20.1953 11.2731 20.4086 11.533 20.6957 11.5833C20.7367 11.5916 21.8852 11.5916 22.4102 11.5916C22.7383 11.5916 23.009 11.315 23.0008 10.9798C23.0008 10.6445 22.7301 10.3763 22.402 10.3763C22.0902 10.3763 21.7047 10.3763 21.393 10.3763V6.27785C21.393 5.93422 21.1305 5.66602 20.7941 5.66602Z" fill="black"/>
<path d="M17.7746 11.5916C18.1027 11.5916 18.3734 11.315 18.3734 10.9798V6.27785C18.3734 5.9426 18.1027 5.66602 17.7746 5.66602C17.4465 5.66602 17.1758 5.9426 17.1758 6.27785V10.9798C17.1758 11.315 17.4465 11.5916 17.7746 11.5916Z" fill="black"/>
<path d="M26.5965 6.93169C26.9246 6.93169 27.1953 6.6551 27.1953 6.31985C27.1953 5.98459 26.9246 5.70801 26.5965 5.70801H24.677C24.3488 5.70801 24.0781 5.98459 24.0781 6.31985V10.9799C24.0781 11.3151 24.3488 11.5917 24.677 11.5917H26.5965C26.9246 11.5917 27.1953 11.3151 27.1953 10.9799C27.1953 10.6446 26.9246 10.368 26.5965 10.368H25.2676V9.2617H26.4488C26.777 9.2617 27.0477 8.98512 27.0477 8.64986C27.0477 8.31461 26.777 8.03802 26.4488 8.03802H25.2676V6.93169H26.5965Z" fill="black"/>
<path d="M36.9047 10.0662C37.0196 9.40411 36.7242 8.53245 35.5512 8.08824C34.9852 7.87871 34.4684 7.64403 34.3043 7.5686C34.1895 7.4764 34.1977 7.3423 34.1977 7.28363C34.2059 7.2082 34.2633 7.01543 34.5504 6.92323C35.1903 6.73046 35.7809 7.2082 35.7973 7.21658C36.0516 7.43449 36.4207 7.39259 36.634 7.14115C36.8473 6.88132 36.8145 6.49578 36.5602 6.27787C36.5192 6.24434 35.4692 5.3643 34.2059 5.74984C33.5578 5.95099 33.1067 6.47064 33.0164 7.10762C32.9262 7.73622 33.2133 8.35644 33.7629 8.65817C33.7875 8.66655 34.4274 8.9599 35.141 9.2281C35.2969 9.28677 35.7891 9.50469 35.7317 9.83994C35.6907 10.0914 35.3789 10.3596 34.9524 10.3596C34.5012 10.3596 34.0664 10.1752 33.7875 9.86509C33.566 9.61364 33.1887 9.59688 32.9426 9.82318C32.6965 10.0495 32.6801 10.435 32.9016 10.6865C33.402 11.248 34.1649 11.5833 34.9524 11.5833C35.9285 11.5916 36.7489 10.9463 36.9047 10.0662Z" fill="black"/>
<path d="M9.08711 5.66602H6.54414C6.21602 5.66602 5.94531 5.9426 5.94531 6.27785C5.94531 6.61311 6.21602 6.88969 6.54414 6.88969H7.2168V10.9798C7.2168 11.315 7.4875 11.5916 7.81563 11.5916C8.14375 11.5916 8.41445 11.315 8.41445 10.9798V6.88131H9.09531C9.42344 6.88131 9.69414 6.60473 9.69414 6.26947C9.69414 5.93422 9.41523 5.66602 9.08711 5.66602Z" fill="black"/>
<path d="M31.4191 5.66602H28.8762C28.548 5.66602 28.2773 5.9426 28.2773 6.27785C28.2773 6.61311 28.548 6.88969 28.8762 6.88969H29.5488V10.9798C29.5488 11.315 29.8195 11.5916 30.1477 11.5916C30.4758 11.5916 30.7465 11.315 30.7465 10.9798V6.88131H31.4273C31.7555 6.88131 32.0262 6.60473 32.0262 6.26947C32.0262 5.93422 31.7473 5.66602 31.4191 5.66602Z" fill="black"/>
<path d="M13.1266 5.66602C11.527 5.66602 10.2227 6.99865 10.2227 8.63301C10.2227 10.2674 11.527 11.6 13.1266 11.6C14.7262 11.6 16.0305 10.2674 16.0305 8.63301C16.0223 6.99027 14.7262 5.66602 13.1266 5.66602ZM13.1266 10.368C12.1832 10.368 11.4203 9.58849 11.4203 8.62463C11.4203 7.66078 12.1832 6.88131 13.1266 6.88131C14.0699 6.88131 14.8328 7.66078 14.8328 8.62463C14.8328 9.58849 14.0617 10.368 13.1266 10.368Z" fill="black"/>
<path d="M35.035 19.7382C35.2237 20.0148 35.601 20.0735 35.8717 19.8807C36.1424 19.6879 36.1999 19.3024 36.0112 19.0258L34.4198 16.7461C34.2721 16.5533 34.0588 16.4611 33.821 16.4443H30.6299C30.392 16.4611 30.1624 16.5449 30.0065 16.7461L28.4151 19.0258C28.2264 19.3024 28.2838 19.6795 28.5546 19.8807C28.8171 20.0735 29.1944 20.0148 29.3913 19.7382L30.4413 18.2379L31.2534 20.0316L29.7112 26.6528C29.6374 26.9797 29.8342 27.3066 30.1542 27.3904C30.4659 27.4658 30.8022 27.2647 30.876 26.9378L32.2049 21.2217C32.2213 21.2217 32.2296 21.2217 32.246 21.2217L33.5749 26.9378C33.6487 27.2647 33.985 27.4658 34.2967 27.3904C34.6167 27.3149 34.8135 26.9797 34.7397 26.6528L33.1975 20.0316L34.0014 18.2547L35.035 19.7382Z" fill="black"/>
<path d="M32.2199 15.7649C32.7772 15.7649 33.2289 15.3034 33.2289 14.734C33.2289 14.1647 32.7772 13.7031 32.2199 13.7031C31.6627 13.7031 31.2109 14.1647 31.2109 14.734C31.2109 15.3034 31.6627 15.7649 32.2199 15.7649Z" fill="black"/>
<path d="M23.9686 19.7382C24.1573 20.0148 24.5346 20.0735 24.8053 19.8807C25.076 19.6879 25.1335 19.3024 24.9448 19.0258L23.3534 16.7461C23.2057 16.5533 22.9924 16.4611 22.7545 16.4443H19.5635C19.3256 16.4611 19.096 16.5449 18.9401 16.7461L17.3487 19.0258C17.16 19.3024 17.2174 19.6795 17.4881 19.8807C17.7506 20.0735 18.128 20.0148 18.3249 19.7382L19.3749 18.2379L19.7358 19.0342L17.6522 22.722C17.4307 23.1159 17.4307 23.5852 17.6522 23.9876C17.8737 24.3815 18.2756 24.6162 18.7186 24.6162H20.2362L20.5561 26.745C20.5315 27.0635 20.753 27.3485 21.0647 27.3904C21.442 27.4574 21.803 27.1306 21.7702 26.745L22.0901 24.6162H23.6077C24.0506 24.6162 24.4526 24.3815 24.6741 23.9876C24.8956 23.5936 24.8956 23.1243 24.6741 22.722L22.5905 19.0342L22.9432 18.2547L23.9686 19.7382ZM23.6241 23.3757C23.6159 23.3925 23.5995 23.3925 23.5913 23.3925H18.7104C18.7022 23.3925 18.6858 23.3925 18.6776 23.3757C18.6694 23.359 18.6694 23.3422 18.6776 23.3338L20.9745 19.2605C21.0811 19.118 21.2124 19.118 21.319 19.2605L23.6159 23.3338C23.6323 23.3422 23.6405 23.359 23.6241 23.3757Z" fill="black"/>
<path d="M22.1536 14.8977C22.2428 14.3356 21.8693 13.8061 21.3192 13.7149C20.7692 13.6237 20.2509 14.0053 20.1616 14.5674C20.0724 15.1294 20.4459 15.6589 20.996 15.7501C21.546 15.8413 22.0643 15.4597 22.1536 14.8977Z" fill="black"/>
<path d="M9.57148 17.5423C10.1287 17.5423 10.5805 17.0807 10.5805 16.5114C10.5805 15.942 10.1287 15.4805 9.57148 15.4805C9.01424 15.4805 8.5625 15.942 8.5625 16.5114C8.5625 17.0807 9.01424 17.5423 9.57148 17.5423Z" fill="black"/>
<path d="M14.0914 25.2783C14.1652 25.2783 14.2473 25.2615 14.3211 25.228L15.1168 24.8928C15.4203 24.767 15.568 24.4066 15.4449 24.0965C15.3219 23.7864 14.9691 23.6356 14.6656 23.7613L14.3949 23.8786L13.5172 21.9928C13.4188 21.7833 13.2055 21.6408 12.9758 21.6408H10.1703V20.6518H11.9668C12.2949 20.6518 12.5656 20.3752 12.5656 20.04C12.5656 19.7047 12.2949 19.4281 11.9668 19.4281H10.1703V18.9839C10.1703 18.6487 9.89961 18.3721 9.57148 18.3721C9.24336 18.3721 8.97266 18.6487 8.97266 18.9839V21.9174C8.97266 22.437 9.38281 22.8561 9.89141 22.8561H12.5984L13.5582 24.9179C13.6566 25.1442 13.8699 25.2783 14.0914 25.2783Z" fill="black"/>
<path d="M9.59648 27.4071C10.8926 27.4071 12.0984 26.6947 12.7465 25.5548C12.9105 25.2615 12.8203 24.8927 12.5332 24.7167C12.2461 24.5491 11.8852 24.6413 11.7129 24.9346C11.2699 25.7057 10.4578 26.1751 9.58828 26.1751C8.23477 26.1751 7.13555 25.0519 7.13555 23.669C7.13555 22.9147 7.46367 22.2107 8.02969 21.7329C8.28398 21.515 8.325 21.1379 8.11172 20.8697C7.89844 20.6098 7.5293 20.5679 7.2668 20.7858C6.42187 21.4983 5.92969 22.5459 5.92969 23.669C5.94609 25.7308 7.57852 27.4071 9.59648 27.4071Z" fill="black"/>
</svg>
