<svg width="134" height="15" viewBox="0 0 134 15" fill="none" xmlns="http://www.w3.org/2000/svg">
<path d="M125.743 1.24435L119.788 10.6652C119.004 11.9038 117.732 13.0983 116.196 13.2252V13.5147H122.819C124.578 13.5147 125.861 12.2632 126.728 10.8848L132.844 1.24435H125.743H125.743Z" fill="#FF0000"/>
<path d="M16.0726 13.5147V2.2793H19.0706V13.5147H16.0726ZM85.2185 13.5147L78.0144 6.84308V13.5147H75.4828V2.2793H77.6334L84.7415 8.84609V2.2793H87.2732V13.5147H85.2185ZM100.885 5.90388C99.5308 5.1744 98.0046 4.58399 95.9816 4.58399C93.5657 4.58399 91.7643 5.95023 91.7643 7.8499C91.7643 9.79593 93.5981 11.1751 95.9598 11.1751C97.91 11.1751 99.4553 10.6303 100.981 9.66827V12.4486C99.6352 13.1781 97.8458 13.7222 95.8328 13.7222C91.7227 13.7222 88.4904 11.4296 88.4904 7.8499C88.4904 4.32867 91.7855 2.06958 95.8215 2.06958C97.7287 2.06958 99.4553 2.46319 100.885 3.10148V5.90388ZM35.7558 13.5147V2.2793H45.7773V4.68809H38.7539V7.47985H45.6193V9.88939H38.7539V13.5155H35.7558V13.5147ZM102.698 13.5147V2.2793H113.101V4.68809H105.696V6.63487H112.984V9.04366H105.696V11.1059H113.069V13.5147H102.698ZM56.1912 9.29821L60.333 13.5155H57.1338C56.424 13.5155 55.9583 13.2723 55.5872 12.8772L52.769 9.88863C52.7362 9.85684 52.6978 9.83235 52.6562 9.81657C52.6145 9.8008 52.5704 9.79404 52.5263 9.79669H50.6085V13.5147H47.6104V2.2793H54.1047C57.4732 2.2793 58.8929 3.93582 58.8929 5.76558C58.8929 7.89701 57.155 8.91448 56.1912 9.29821ZM53.7978 7.44489C54.9832 7.44489 55.5554 6.78533 55.5554 6.04369C55.5554 5.30206 55.0474 4.68809 53.7978 4.68809H50.6085V7.44489H53.7978ZM30.4582 9.29897L34.6 13.5147H31.4016C30.6918 13.5147 30.2254 13.2716 29.8549 12.8772L27.0368 9.88863C27.0038 9.85678 26.9654 9.83226 26.9236 9.81648C26.8818 9.8007 26.8376 9.79398 26.7934 9.79669H24.8763V13.5147H21.8775V2.2793H28.3718C31.7403 2.2793 33.1606 3.93582 33.1606 5.76558C33.1606 7.89701 31.4227 8.91524 30.4582 9.29897ZM28.0648 7.44489C29.2516 7.44489 29.8239 6.78533 29.8239 6.04369C29.8239 5.30206 29.3151 4.68809 28.0648 4.68809H24.8763V7.44489H28.0648ZM11.379 13.5147L10.0659 11.0474H4.32446L3.12707 13.5147H0.266602L5.98755 2.2907H8.594L15.0777 13.5147H11.379ZM5.46823 8.70703H8.81627L7.07839 5.27851L5.46823 8.70703ZM71.245 13.5147L69.9629 11.0474H64.3711L63.216 13.5147H60.4289L66.001 2.2907H68.5327L74.8364 13.5147H71.245ZM65.493 8.70703H68.7556L67.0608 5.27851L65.493 8.70703Z" fill="#051039"/>
</svg>
