<svg width="109" height="36" viewBox="0 0 109 36" fill="none" xmlns="http://www.w3.org/2000/svg">
<path d="M27.3771 12.446H14.8571V16.161H23.7371C23.2971 21.361 18.9641 23.593 14.8721 23.593C13.5758 23.5987 12.2913 23.3461 11.0937 22.8499C9.89607 22.3538 8.80928 21.624 7.89678 20.7032C6.98428 19.7824 6.26435 18.6891 5.77904 17.487C5.29372 16.2849 5.05273 14.9982 5.07014 13.702C5.07014 8.078 9.42414 3.748 14.8841 3.748C19.0961 3.748 21.5781 6.433 21.5781 6.433L24.1781 3.739C24.1781 3.739 20.8381 0.0220032 14.7481 0.0220032C6.99314 0.0220032 0.994141 6.567 0.994141 13.636C0.994141 20.563 6.63714 27.318 14.9441 27.318C22.2511 27.318 27.6001 22.312 27.6001 14.91C27.6001 13.348 27.3731 12.446 27.3731 12.446H27.3771Z" fill="#4885ED"/>
<path d="M37.634 9.755C32.496 9.755 28.814 13.772 28.814 18.455C28.814 23.209 32.384 27.3 37.694 27.3C42.5 27.3 46.437 23.627 46.437 18.557C46.437 12.757 41.857 9.754 37.634 9.754V9.755ZM37.684 13.201C40.21 13.201 42.604 15.244 42.604 18.535C42.604 21.755 40.22 23.857 37.672 23.857C34.872 23.857 32.672 21.615 32.672 18.509C32.672 15.469 34.852 13.201 37.692 13.201H37.684Z" fill="#DB3236"/>
<path d="M56.82 10.001C51.682 10.001 48 14.018 48 18.701C48 23.455 51.57 27.546 56.88 27.546C61.686 27.546 65.623 23.873 65.623 18.803C65.623 13.003 61.043 10 56.82 10V10.001ZM56.87 13.447C59.396 13.447 61.79 15.49 61.79 18.781C61.79 22.001 59.406 24.103 56.858 24.103C54.058 24.103 51.858 21.861 51.858 18.755C51.858 15.715 54.038 13.447 56.878 13.447H56.87Z" fill="#F4C20D"/>
<path d="M75.6281 9.76501C70.9121 9.76501 67.2061 13.895 67.2061 18.531C67.2061 23.811 71.5031 27.313 75.5461 27.313C78.0461 27.313 79.3761 26.32 80.3461 25.181V26.911C80.3461 29.938 78.5081 31.751 75.7341 31.751C73.0541 31.751 71.7101 29.758 71.2341 28.628L67.8621 30.028C69.0581 32.558 71.4661 35.195 75.7621 35.195C80.4621 35.195 84.0241 32.242 84.0241 26.048V10.292H80.3601V11.778C79.2301 10.558 77.6821 9.76501 75.6301 9.76501H75.6281ZM75.9681 13.205C78.2801 13.205 80.6541 15.179 80.6541 18.55C80.6541 21.977 78.2841 23.865 75.9171 23.865C73.4031 23.865 71.0641 21.825 71.0641 18.582C71.0641 15.214 73.4941 13.205 75.9681 13.205Z" fill="#4885ED"/>
<path d="M100.4 9.74399C95.952 9.74399 92.217 13.284 92.217 18.504C92.217 24.03 96.38 27.307 100.817 27.307C104.529 27.307 106.817 25.277 108.167 23.457L105.134 21.439C104.347 22.659 103.031 23.854 100.836 23.854C98.37 23.854 97.236 22.504 96.533 21.194L108.296 16.314L107.696 14.884C106.56 12.084 103.908 9.74399 100.4 9.74399ZM100.553 13.118C102.156 13.118 103.309 13.97 103.799 14.992L95.943 18.275C95.603 15.733 98.013 13.118 100.543 13.118H100.553Z" fill="#DB3236"/>
<path d="M86.6001 26.787H90.4641V0.929993H86.6001V26.787Z" fill="#3CBA54"/>
</svg>
