<svg width="56" height="39" viewBox="0 0 56 39" fill="none" xmlns="http://www.w3.org/2000/svg">
<path d="M53.5973 5.2825H43.5282V0.152252H13.2748L13.2825 5.2825H0.901211L0.885742 6.72657L1.7519 7.48661C1.97616 7.68422 2.20817 7.88184 2.43245 8.07945L2.54071 8.17065L2.52524 18.3476L4.09513 17.9979C5.32477 17.7243 6.56985 17.4659 7.79948 17.2303L8.13203 17.1695L8.20935 17.1467L9.50857 16.9263C10.0886 16.8275 10.6841 16.7287 11.295 16.6375L12.2076 16.5007C12.7798 16.4171 13.3676 16.3334 13.994 16.2499L14.953 16.1283C15.8268 16.0218 16.7858 15.923 17.8685 15.8166L18.1778 15.7938L18.4485 17.6483C18.5877 18.6136 18.9821 19.5256 19.5853 20.278L19.7632 20.4984L13.0351 27.1107L16.1749 26.3279L15.8114 32.8946L17.7602 31.2074L18.0541 36.0564L20.0416 33.6014L23.1505 37.645L23.6455 36.0336L27.3421 38.0858L27.3652 36.6721H27.659L28.1927 36.6265C28.5794 36.5961 29.0588 36.5505 29.0975 36.5505L29.9792 36.4212C31.7037 36.1628 33.3355 35.5396 34.6888 34.6047C36.4597 33.3887 37.6661 31.8079 38.2618 29.9001L38.3004 29.7784L38.7643 29.52L39.1046 28.4941L40.6126 27.6125L40.5664 26.9967L42.1826 26.2064L37.6661 21.6309L37.2641 21.5549C36.8696 21.4789 36.4135 21.3725 36.0112 21.2509L35.9416 21.2282L34.0005 19.4344L26.9554 16.8123L26.9011 16.7895L26.592 16.8199C26.4139 16.8351 25.4705 16.9263 24.2949 16.9263C23.2432 16.9263 21.3176 16.8503 20.3045 16.3334L19.0672 15.7102L20.4205 15.5962C21.9208 15.4898 23.4444 15.4138 24.9446 15.3682L25.9114 15.3454C26.5146 15.3302 27.1178 15.3226 27.7132 15.3226H28.6412C29.2368 15.3226 29.84 15.3302 30.4432 15.3454L31.9588 15.3758H31.9821C32.0439 15.3834 32.1059 15.391 32.1908 15.391C33.4515 15.4366 34.7043 15.505 35.9339 15.5886L36.8929 15.657C37.4961 15.7026 38.1071 15.7558 38.687 15.8166L39.6073 15.9078C40.2028 15.9686 40.806 16.037 41.4014 16.113L42.5925 16.2575L43.7293 16.4171C44.3325 16.5007 44.9357 16.5919 45.5156 16.6831L46.6835 16.8731L47.8048 17.0783C49.0421 17.2987 50.2872 17.5495 51.5169 17.8155L52.0737 17.9371L52.5378 17.6103C53.4504 16.9719 53.8293 16.7059 53.8293 16.0218L53.8215 12.3357L53.4966 11.9784C53.2646 11.7276 53.0325 11.4692 52.7929 11.2184L52.4913 10.8992L53.8138 10.3064L53.806 7.82103L54.1076 7.69182L55.3913 7.2358V5.29771L53.5973 5.2825Z" fill="#231F20"/>
<path d="M40.0482 25.8491L37.0399 22.7939C37.0399 22.7939 35.2457 22.4669 34.5575 22.0184L34.6736 21.783L33.3125 20.5137L26.739 18.0739C26.739 18.0739 21.9365 18.5755 19.7246 17.4507C19.9102 18.7123 20.6063 19.7764 21.6502 20.4149L17.2422 24.7471L21.5962 23.6678L20.2196 24.2759L17.5283 25.2106L17.2654 29.9608L20.3975 27.2551L22.3154 26.0238L20.5289 27.4148L18.9126 28.8588L19.1446 32.6895L22.3772 28.6917L20.5057 32.0813L22.6635 34.8936L23.6301 31.7469L23.9703 30.835L23.3749 34.4072L26.1202 35.9349L26.1434 34.6807C27.0559 35.2888 27.9454 35.4181 27.9454 35.4181C27.9454 35.4181 25.7722 34.0804 26.7234 30.8577C26.7234 30.8577 27.2493 30.7817 27.5122 30.5536C27.2958 30.4398 27.0482 30.2421 27.0173 29.9608C27.0173 29.9608 27.5742 29.9001 27.9607 29.5429C27.6978 29.3756 27.5509 29.1552 27.52 28.8588C27.52 28.8588 28.8115 26.5788 31.3944 25.758L32.2452 26.2064C32.2452 26.2064 32.1834 26.6319 31.99 27.0043C31.99 27.0043 32.4539 26.9283 32.9953 26.6016C32.9953 26.6016 33.1344 26.8372 32.9722 27.354C32.9722 27.354 33.3587 27.3084 33.5676 27.0651L34.5729 27.8328C34.5729 27.8328 35.4081 31.4505 30.7758 35.0227C30.7758 35.0227 36.0809 33.8447 37.2255 28.9425L37.7283 28.6614L38.0608 27.6505L39.3058 26.9207L39.2594 26.2368L40.0482 25.8491ZM31.3791 22.2161C31.3095 22.0414 31.1779 21.6233 31.0079 21.2889C30.2576 20.4529 28.9353 19.9056 28.9353 19.9056L31.3171 20.9012L33.0571 22.3301L31.3791 22.2161ZM31.8507 28.3344C31.4795 28.6461 31.1392 28.9881 30.8454 29.3529C30.7063 29.5277 30.5669 29.7101 30.4433 29.9001L30.745 30.1054L30.5129 30.3865L30.2653 30.1965L30.0333 30.5766C29.9871 30.6602 29.9406 30.7362 29.9019 30.8197L30.1571 30.949L29.956 31.253L29.7472 31.1237C29.7395 31.139 29.7395 31.1465 29.7317 31.1617C29.6235 31.3745 29.5385 31.5949 29.4456 31.8079C29.2678 32.2487 29.1054 32.6971 28.9429 33.153C28.9738 32.6742 29.0745 32.1954 29.2136 31.7242C29.2832 31.4885 29.3683 31.2605 29.4612 31.0326C29.4688 31.0097 29.4843 30.987 29.4921 30.9566L29.2523 30.8122H29.2136L29.4301 30.4929L29.6468 30.6373L29.693 30.5536C29.7241 30.4929 29.755 30.4322 29.7859 30.3712C29.8324 30.2878 29.8786 30.2118 29.9328 30.1281L30.0102 29.9837L29.7781 29.8241L29.9793 29.5657L30.2035 29.7177C30.3427 29.5277 30.4974 29.3453 30.6676 29.1782C31.0001 28.8435 31.4022 28.5397 31.8507 28.3344Z" fill="url(#paint0_linear_7_817)"/>
<path d="M16.8789 1.41443V5.15382H16.0437V3.55774H15.3941V5.16142H14.5588V1.80966L14.2263 1.57404V1.41443H15.3941V2.7597H16.0437V1.41443H16.8789Z" fill="url(#paint1_linear_7_817)"/>
<path d="M20.4439 1.41443L20.8615 1.83244V4.73579L20.4362 5.15382H19.0673L18.6343 4.73579V1.83244L19.0673 1.41443H20.4439ZM19.4386 4.46978H20.0495V2.09087H18.8276L19.4386 2.37208V4.46978Z" fill="url(#paint2_linear_7_817)"/>
<path d="M25.1691 1.41477V4.72852L24.7515 5.16176H23.3595L22.9341 4.72852V1.80239L22.6094 1.56677V1.40717H23.7307V4.46252H24.3648V1.41477H25.1691Z" fill="url(#paint3_linear_7_817)"/>
<path d="M28.7264 1.41443L29.26 1.84004V2.43289H28.4325V2.11367H27.1101L27.752 2.31887V2.8813L28.7495 2.88891L29.26 3.28411V4.73579L28.7341 5.14622H27.4657L26.9167 4.713V4.05177H27.7442V4.40897H28.4325V3.60333H27.4117L26.9321 3.20812V1.83244L27.3884 1.41443H28.7264Z" fill="url(#paint4_linear_7_817)"/>
<path d="M33.39 1.41443V2.53928H33.2584L33.0186 2.16686H32.6243V4.8422L32.833 4.99421V5.15382H31.5802V4.99421L31.7891 4.8422V2.17446H31.387L31.1472 2.54689H31.0156V1.41443H33.39Z" fill="url(#paint5_linear_7_817)"/>
<path d="M36.9549 1.41443L37.3725 1.83244V4.73579L36.9471 5.15382H35.5784L35.1453 4.73579V1.83244L35.5784 1.41443H36.9549ZM35.9574 4.46978H36.5682V2.09087H35.3464L35.9574 2.37208V4.46978Z" fill="url(#paint6_linear_7_817)"/>
<path d="M42.2447 1.40717V5.16176H41.1852L40.4506 3.15525L40.1952 2.22041L40.3268 3.16285V5.16176H39.476V1.81L39.1357 1.56677V1.41477H40.5511L41.2856 3.39087L41.5023 4.20411L41.3941 3.36807V1.78719L41.0769 1.55917V1.40717H42.2447Z" fill="url(#paint7_linear_7_817)"/>
<path d="M43.2424 6.54489H41.7266C41.9199 6.6969 42.1133 6.85651 42.3066 7.01611L43.2424 6.54489Z" fill="url(#paint8_linear_7_817)"/>
<path d="M52.5379 8.34631L50.7358 8.93154V9.04556C51.0065 9.31916 51.3004 9.60797 51.6098 9.92719L52.5455 9.50918C52.5379 9.12155 52.5379 8.73394 52.5379 8.34631Z" fill="url(#paint9_linear_7_817)"/>
<path d="M45.7014 12.5723C45.6937 11.9034 45.6937 11.2346 45.6859 10.5734L43.884 11.1586C43.8918 11.9034 43.8994 12.6407 43.8994 13.3855L45.7014 12.5723Z" fill="url(#paint10_linear_7_817)"/>
<path d="M47.9983 8.97653L49.3594 8.3837C49.2356 8.30769 49.1195 8.2241 48.9958 8.14808C49.2587 8.15569 49.5218 8.16329 49.777 8.17089H49.831L53.5896 6.5368H51.5324L47.9905 7.80606C47.9905 8.20129 47.9983 8.5889 47.9983 8.97653Z" fill="url(#paint11_linear_7_817)"/>
<path d="M49.8082 9.9803V9.22784L48.0063 9.81309V10.1247C48.3388 10.4363 48.6713 10.7555 49.0038 11.0823L50.3263 10.4895C50.1562 10.3223 49.986 10.1551 49.8082 9.9803Z" fill="url(#paint12_linear_7_817)"/>
<path d="M47.0159 7.19852C46.7608 6.97811 46.5054 6.75771 46.2502 6.54489H45.7708L42.4763 7.62414V7.97376C42.9404 7.98136 43.3967 7.99656 43.8605 8.00416C43.8605 8.22458 43.8605 8.43738 43.8683 8.6578L47.0237 7.22893C47.0159 7.22133 47.0159 7.20613 47.0159 7.19852Z" fill="url(#paint13_linear_7_817)"/>
<path d="M45.6856 9.98792C45.6856 9.5395 45.6778 9.08346 45.6778 8.63504L43.876 9.28107C43.8838 9.7827 43.8838 10.2767 43.8915 10.7784L45.6856 9.98792Z" fill="url(#paint14_linear_7_817)"/>
<path d="M47.6807 6.93252L48.5393 6.54489H47.24C47.3869 6.67409 47.5338 6.80332 47.6807 6.93252Z" fill="url(#paint15_linear_7_817)"/>
<path d="M2.60278 6.54489C3.01265 6.90211 3.42253 7.25173 3.82466 7.59375C3.82466 8.559 3.82466 9.52425 3.81693 10.4819C4.72176 11.2799 5.62657 12.04 6.53139 12.7544C6.53139 13.3548 6.52366 13.9553 6.52366 14.5557C6.2143 14.6089 5.9127 14.6545 5.60336 14.7077V13.8717C5.07748 13.446 4.48201 12.9672 3.80919 12.4276C3.80919 13.8717 3.80146 15.3157 3.80146 16.7598C5.04656 16.4786 6.29938 16.2202 7.5522 15.9846C8.06261 15.4601 8.31783 15.1941 8.31783 15.1789C8.32556 14.2061 8.32556 13.2332 8.3333 12.2604C7.42847 11.5611 6.52366 10.8239 5.61883 10.0487C5.61883 9.60024 5.61883 9.15182 5.62657 8.70341C5.36364 8.5514 5.10842 8.39179 4.84549 8.23979C5.10842 8.23218 5.36364 8.22458 5.62657 8.20938C5.78897 8.20178 5.95911 8.20178 6.12151 8.19418C6.26844 8.18658 6.40764 8.18658 6.55458 8.17898C6.55458 8.45258 6.55458 8.72621 6.54684 8.99982C7.07272 9.47104 7.66822 9.96507 8.34875 10.4895C8.35648 9.39503 8.36421 8.30058 8.37195 7.21373C8.11675 6.99331 7.86927 6.77291 7.61407 6.54489H2.60278Z" fill="url(#paint16_linear_7_817)"/>
<path d="M29.0355 10.1546C29.5071 9.82017 29.9867 9.48576 30.4584 9.14374C30.4584 8.4521 30.4584 7.76808 30.4506 7.07644C29.9556 6.71922 29.7005 6.5368 29.6851 6.5368H25.1609C25.4085 6.71922 25.6559 6.89403 25.9034 7.07644C25.8957 9.40974 25.8957 11.7507 25.8879 14.084C26.4989 14.0688 27.1021 14.0612 27.7131 14.0612V10.7246C28.3316 11.1426 28.641 11.363 28.641 11.3782V14.0612C29.252 14.0612 29.8552 14.0688 30.4662 14.084C30.4662 13.1111 30.4584 12.1459 30.4584 11.173C29.9867 10.8386 29.5149 10.4966 29.0355 10.1546ZM27.9682 9.40214C27.8057 9.29574 27.7208 9.24253 27.7208 9.22733V8.19369C27.4579 8.07209 27.2025 7.94287 26.9396 7.82127H28.6488V8.92332C28.208 9.24253 27.9838 9.40214 27.9682 9.40214Z" fill="url(#paint17_linear_7_817)"/>
<path d="M40.4352 12.2751L41.5412 11.7963C41.5334 11.2339 41.5334 10.6714 41.5256 10.1166L38.8499 11.0667C39.4299 11.5227 39.7238 11.7583 39.7238 11.7735C39.7315 12.7387 39.7393 13.704 39.7469 14.6692C40.3501 14.73 40.9533 14.7984 41.5643 14.8744C41.5565 13.8864 41.5489 12.906 41.5412 11.9179L40.4352 12.2751Z" fill="url(#paint18_linear_7_817)"/>
<path d="M43.8994 13.4756C43.9072 14.0456 43.9072 14.6081 43.915 15.1781C44.5182 15.2617 45.1214 15.3529 45.7246 15.4517C45.7168 14.6233 45.709 13.8024 45.709 12.974L43.8994 13.4756Z" fill="url(#paint19_linear_7_817)"/>
<path d="M51.254 11.4391L49.7691 11.8495C50.0938 12.1839 50.4263 12.5184 50.7512 12.868C50.7512 13.4836 50.759 14.0916 50.759 14.7073C50.4496 14.6541 50.148 14.6009 49.8386 14.5553C49.8386 14.2817 49.8386 14.008 49.8309 13.7344C49.3979 13.2632 48.9029 12.7616 48.3693 12.2372L48.0212 12.336C48.029 13.5064 48.0368 14.6769 48.0446 15.8473C49.2972 16.0753 50.5501 16.3261 51.8029 16.5922C52.3057 16.2426 52.5608 16.0449 52.5608 16.0297C52.5608 14.9581 52.5608 13.894 52.5531 12.8224C52.1123 12.3512 51.6869 11.8875 51.254 11.4391Z" fill="url(#paint20_linear_7_817)"/>
<path d="M37.5268 11.5381L41.525 9.72917C41.5172 9.13634 41.5172 8.54352 41.5096 7.95068L39.6998 8.54352C39.7076 9.07553 39.7076 9.61517 39.7154 10.1472C39.089 9.66837 38.7797 9.42515 38.7797 9.40995C38.7797 9.21994 38.7797 9.02994 38.7719 8.84753L38.5632 8.91592L38.7719 8.80953V8.3079C38.509 8.17109 38.2538 8.03429 37.9909 7.89749C38.246 7.89749 38.509 7.90509 38.7719 7.91269H38.7797C38.9419 7.91269 39.1122 7.92029 39.2746 7.92029C39.4138 7.92029 39.5607 7.92789 39.6998 7.92789V8.3459L41.5019 7.43387V7.15264C41.0069 6.74983 40.7517 6.55981 40.7362 6.55981H36.2122C36.4595 6.74223 36.7071 6.93224 36.9545 7.12225C36.9701 9.56196 36.9854 11.9941 37.0087 14.4338C37.6119 14.4794 38.2229 14.5326 38.8261 14.5934C38.8183 13.4305 38.8106 12.2677 38.8028 11.1048L37.5268 11.5381Z" fill="url(#paint21_linear_7_817)"/>
<path d="M34.1863 10.7175C34.1939 11.4547 34.1939 12.192 34.1939 12.9216C33.8845 12.9064 33.5753 12.8912 33.2581 12.8836C33.2504 11.3255 33.2426 9.76745 33.235 8.20938C32.9797 8.08018 32.7245 7.95096 32.4694 7.82935C32.7245 7.82935 32.9797 7.83696 33.235 7.83696H33.2504C33.4128 7.83696 33.5829 7.83696 33.7453 7.84456H34.1552C34.1552 8.14857 34.1552 8.44498 34.163 8.74899C34.6966 9.15182 35.2998 9.60024 35.9881 10.1019C35.9803 9.09861 35.9726 8.09536 35.9726 7.09973C35.7174 6.90971 35.4623 6.7273 35.2069 6.54489H30.6829C30.9304 6.7273 31.1778 6.90211 31.4254 7.08452C31.433 9.25062 31.4408 11.4091 31.4408 13.5752C31.9357 13.9477 32.1909 14.1377 32.2142 14.1453C33.4824 14.1909 34.7508 14.2593 36.019 14.3505C36.0112 13.6056 36.0112 12.8608 36.0035 12.1084C35.4776 11.6751 34.8666 11.2115 34.1863 10.7175Z" fill="url(#paint22_linear_7_817)"/>
<path d="M8.61133 6.54489C8.85879 6.76531 9.09854 6.98571 9.346 7.19852C9.33053 10.0259 9.30735 12.8532 9.29188 15.6805C9.89508 15.5741 10.4983 15.4829 11.0938 15.3841C11.1015 14.0769 11.117 12.7696 11.1247 11.4699C11.7357 11.9108 12.045 12.1312 12.045 12.1464C12.0373 13.18 12.0295 14.2137 12.0218 15.2473C12.625 15.1561 13.2282 15.0725 13.8314 14.9965C13.8546 12.382 13.8778 9.76745 13.8933 7.15292C13.4061 6.75011 13.1509 6.54489 13.1354 6.54489H8.61133ZM12.0605 10.3983C11.4418 9.94986 11.1402 9.70664 11.1402 9.69906C11.1402 9.29623 11.1479 8.89342 11.1479 8.49059C10.885 8.35379 10.6298 8.20938 10.3668 8.06498C10.6298 8.05737 10.8927 8.04977 11.1479 8.04217C11.3103 8.03457 11.4804 8.03457 11.6428 8.02697C11.7898 8.02697 11.929 8.01937 12.0759 8.01937C12.0682 8.8098 12.0682 9.60784 12.0605 10.3983Z" fill="url(#paint23_linear_7_817)"/>
<path d="M14.1333 6.54489C14.3808 6.74251 14.6205 6.94772 14.868 7.13771C14.8448 9.71424 14.8293 12.2908 14.8061 14.8673C16.0667 14.7153 17.335 14.5861 18.6033 14.4721C19.1137 14.0617 19.3766 13.8565 19.3766 13.8489C19.3843 13.028 19.3843 12.1996 19.3921 11.3787C18.9203 11.0443 18.4486 10.7175 17.9769 10.3755C18.4563 9.99547 18.9281 9.62305 19.4075 9.25822C19.4153 8.5438 19.4153 7.82175 19.423 7.10733C18.9358 6.7349 18.6806 6.54489 18.6651 6.54489H14.1333ZM17.5592 13.2104C17.2499 13.2332 16.9406 13.2636 16.6312 13.2864C16.639 12.5416 16.639 11.8043 16.6467 11.0671C17.2654 11.4851 17.5747 11.6979 17.5747 11.7131C17.567 12.2148 17.5592 12.7164 17.5592 13.2104ZM17.5902 9.08341C17.1494 9.44063 16.9251 9.62305 16.9019 9.62305C16.7395 9.51665 16.6544 9.45584 16.6544 9.44824C16.6544 9.07581 16.6622 8.70341 16.6622 8.33098C16.4069 8.20178 16.144 8.07258 15.8888 7.93575C16.1517 7.92817 16.4069 7.92817 16.6699 7.92057C16.8323 7.92057 17.0024 7.91297 17.1648 7.91297C17.304 7.91297 17.451 7.90537 17.5902 7.90537C17.5979 8.30058 17.5902 8.6882 17.5902 9.08341Z" fill="url(#paint24_linear_7_817)"/>
<path d="M19.6475 6.54441C19.8949 6.73442 20.1424 6.91683 20.3822 7.09924C20.3667 9.51616 20.3512 11.9255 20.3357 14.3424C21.8593 14.236 23.3827 14.16 24.914 14.1144C24.914 13.0427 24.9218 11.9787 24.9218 10.907C24.3726 11.2947 23.7616 11.7355 23.0966 12.2447V12.8907C22.7872 12.9059 22.4778 12.9135 22.1609 12.9287C22.1609 12.2979 22.1687 11.6671 22.1687 11.0362C22.5785 11.021 22.9806 11.0134 23.3904 10.9982C23.692 10.7778 24.0014 10.565 24.303 10.3446C23.7154 9.92657 23.4138 9.71376 23.3982 9.71376C22.9884 9.72136 22.5863 9.72896 22.1762 9.73656C22.1762 9.23493 22.184 8.73333 22.184 8.2241C21.9211 8.10248 21.6659 7.97327 21.403 7.84407C21.6659 7.84407 21.9211 7.83647 22.184 7.83647C22.3465 7.83647 22.5165 7.83647 22.679 7.82887H23.1044V8.4749C23.6302 8.86253 24.2334 9.28054 24.914 9.74416C24.914 8.85493 24.9218 7.96567 24.9218 7.07644C24.6664 6.89403 24.4113 6.71922 24.1561 6.5368C22.6636 6.54441 21.1555 6.54441 19.6475 6.54441Z" fill="url(#paint25_linear_7_817)"/>
<defs>
<linearGradient id="paint0_linear_7_817" x1="17.2378" y1="26.7031" x2="40.0489" y2="26.7031" gradientUnits="userSpaceOnUse">
<stop stop-color="#FAE300"/>
<stop offset="1" stop-color="#D7B828"/>
</linearGradient>
<linearGradient id="paint1_linear_7_817" x1="15.5547" y1="2.63448" x2="15.5547" y2="6.28895" gradientUnits="userSpaceOnUse">
<stop stop-color="white"/>
<stop offset="1" stop-color="#C4C4C4"/>
</linearGradient>
<linearGradient id="paint2_linear_7_817" x1="19.7481" y1="2.63448" x2="19.7481" y2="6.28895" gradientUnits="userSpaceOnUse">
<stop stop-color="white"/>
<stop offset="1" stop-color="#C4C4C4"/>
</linearGradient>
<linearGradient id="paint3_linear_7_817" x1="23.8935" y1="2.63482" x2="23.8935" y2="6.28929" gradientUnits="userSpaceOnUse">
<stop stop-color="white"/>
<stop offset="1" stop-color="#C4C4C4"/>
</linearGradient>
<linearGradient id="paint4_linear_7_817" x1="28.0957" y1="2.63448" x2="28.0957" y2="6.28895" gradientUnits="userSpaceOnUse">
<stop stop-color="white"/>
<stop offset="1" stop-color="#C4C4C4"/>
</linearGradient>
<linearGradient id="paint5_linear_7_817" x1="32.2071" y1="2.63448" x2="32.2071" y2="6.28895" gradientUnits="userSpaceOnUse">
<stop stop-color="white"/>
<stop offset="1" stop-color="#C4C4C4"/>
</linearGradient>
<linearGradient id="paint6_linear_7_817" x1="36.2598" y1="2.63448" x2="36.2598" y2="6.28895" gradientUnits="userSpaceOnUse">
<stop stop-color="white"/>
<stop offset="1" stop-color="#C4C4C4"/>
</linearGradient>
<linearGradient id="paint7_linear_7_817" x1="40.6855" y1="2.63482" x2="40.6855" y2="6.28929" gradientUnits="userSpaceOnUse">
<stop stop-color="white"/>
<stop offset="1" stop-color="#C4C4C4"/>
</linearGradient>
<linearGradient id="paint8_linear_7_817" x1="42.4824" y1="6.47962" x2="42.4824" y2="14.1698" gradientUnits="userSpaceOnUse">
<stop stop-color="#FAE300"/>
<stop offset="1" stop-color="#D7B828"/>
</linearGradient>
<linearGradient id="paint9_linear_7_817" x1="51.6355" y1="6.47975" x2="51.6355" y2="14.17" gradientUnits="userSpaceOnUse">
<stop stop-color="#FAE300"/>
<stop offset="1" stop-color="#D7B828"/>
</linearGradient>
<linearGradient id="paint10_linear_7_817" x1="44.7923" y1="6.47989" x2="44.7923" y2="14.1701" gradientUnits="userSpaceOnUse">
<stop stop-color="#FAE300"/>
<stop offset="1" stop-color="#D7B828"/>
</linearGradient>
<linearGradient id="paint11_linear_7_817" x1="50.7927" y1="6.47913" x2="50.7927" y2="14.1693" gradientUnits="userSpaceOnUse">
<stop stop-color="#FAE300"/>
<stop offset="1" stop-color="#D7B828"/>
</linearGradient>
<linearGradient id="paint12_linear_7_817" x1="49.1661" y1="6.47964" x2="49.1661" y2="14.1699" gradientUnits="userSpaceOnUse">
<stop stop-color="#FAE300"/>
<stop offset="1" stop-color="#D7B828"/>
</linearGradient>
<linearGradient id="paint13_linear_7_817" x1="44.7469" y1="6.47962" x2="44.7469" y2="14.1698" gradientUnits="userSpaceOnUse">
<stop stop-color="#FAE300"/>
<stop offset="1" stop-color="#D7B828"/>
</linearGradient>
<linearGradient id="paint14_linear_7_817" x1="44.7751" y1="6.47966" x2="44.7751" y2="14.1699" gradientUnits="userSpaceOnUse">
<stop stop-color="#FAE300"/>
<stop offset="1" stop-color="#D7B828"/>
</linearGradient>
<linearGradient id="paint15_linear_7_817" x1="47.8913" y1="6.47962" x2="47.8913" y2="14.1698" gradientUnits="userSpaceOnUse">
<stop stop-color="#FAE300"/>
<stop offset="1" stop-color="#D7B828"/>
</linearGradient>
<linearGradient id="paint16_linear_7_817" x1="5.49201" y1="6.47962" x2="5.49201" y2="14.1698" gradientUnits="userSpaceOnUse">
<stop stop-color="#FAE300"/>
<stop offset="1" stop-color="#D7B828"/>
</linearGradient>
<linearGradient id="paint17_linear_7_817" x1="27.8201" y1="6.47913" x2="27.8201" y2="14.1693" gradientUnits="userSpaceOnUse">
<stop stop-color="#FAE300"/>
<stop offset="1" stop-color="#D7B828"/>
</linearGradient>
<linearGradient id="paint18_linear_7_817" x1="40.2081" y1="6.47915" x2="40.2081" y2="14.1694" gradientUnits="userSpaceOnUse">
<stop stop-color="#FAE300"/>
<stop offset="1" stop-color="#D7B828"/>
</linearGradient>
<linearGradient id="paint19_linear_7_817" x1="44.812" y1="6.47881" x2="44.812" y2="14.169" gradientUnits="userSpaceOnUse">
<stop stop-color="#FAE300"/>
<stop offset="1" stop-color="#D7B828"/>
</linearGradient>
<linearGradient id="paint20_linear_7_817" x1="50.2841" y1="6.47919" x2="50.2841" y2="14.1694" gradientUnits="userSpaceOnUse">
<stop stop-color="#FAE300"/>
<stop offset="1" stop-color="#D7B828"/>
</linearGradient>
<linearGradient id="paint21_linear_7_817" x1="38.8636" y1="6.47934" x2="38.8636" y2="14.1695" gradientUnits="userSpaceOnUse">
<stop stop-color="#FAE300"/>
<stop offset="1" stop-color="#D7B828"/>
</linearGradient>
<linearGradient id="paint22_linear_7_817" x1="33.3566" y1="6.47962" x2="33.3566" y2="14.1698" gradientUnits="userSpaceOnUse">
<stop stop-color="#FAE300"/>
<stop offset="1" stop-color="#D7B828"/>
</linearGradient>
<linearGradient id="paint23_linear_7_817" x1="11.2525" y1="6.47962" x2="11.2525" y2="14.1698" gradientUnits="userSpaceOnUse">
<stop stop-color="#FAE300"/>
<stop offset="1" stop-color="#D7B828"/>
</linearGradient>
<linearGradient id="paint24_linear_7_817" x1="16.7726" y1="6.47962" x2="16.7726" y2="14.1698" gradientUnits="userSpaceOnUse">
<stop stop-color="#FAE300"/>
<stop offset="1" stop-color="#D7B828"/>
</linearGradient>
<linearGradient id="paint25_linear_7_817" x1="22.2931" y1="6.47913" x2="22.2931" y2="14.1693" gradientUnits="userSpaceOnUse">
<stop stop-color="#FAE300"/>
<stop offset="1" stop-color="#D7B828"/>
</linearGradient>
</defs>
</svg>
