<svg width="59" height="43" viewBox="0 0 59 43" fill="none" xmlns="http://www.w3.org/2000/svg">
<path d="M24.1815 31.7387C24.1815 31.4534 24.1699 31.1681 24.1815 30.8828C24.2047 30.6432 24.1002 30.5063 23.8912 30.4036C22.0681 29.502 20.2335 29.445 18.4569 30.4606C16.7964 31.4078 16.3204 32.9826 16.4481 34.7629C16.541 36.0981 17.0403 37.2506 18.2015 38.0381C19.711 39.0651 22.2423 39.0765 23.7751 38.0837C24.4834 37.6158 24.495 37.593 24.2744 36.7942C24.2511 36.7029 24.2279 36.6116 24.2047 36.5203C24.0189 35.847 23.9841 35.8356 23.4848 36.2921C23.148 36.5888 22.7997 36.8512 22.3817 37.0338C20.7676 37.7299 19.1188 36.9654 18.6775 35.2878C18.4801 34.5575 18.5034 33.8157 18.724 33.0967C19.142 31.7045 20.3032 30.997 21.7546 31.2366C22.1378 31.2937 22.4049 31.4192 22.4746 31.8529C22.5326 32.1724 22.6836 32.4805 22.7648 32.8C22.8229 33.0511 22.9506 33.1082 23.2061 33.1082C24.1815 33.1082 24.1815 33.1196 24.1815 32.161C24.1815 32.024 24.1815 31.8871 24.1815 31.7387Z" fill="#FDFDFD"/>
<path d="M7.93673 29.9131C6.7175 29.9131 5.53311 29.9131 4.34871 29.9131C3.50106 29.9131 3.52428 29.9131 3.74491 30.7006C3.86102 31.1114 4.02359 31.3624 4.49967 31.2826C4.68545 31.2483 4.75512 31.351 4.75512 31.5336C4.72029 33.0742 4.82479 34.6262 4.70868 36.1668C4.65062 36.92 4.30227 37.2852 3.65201 37.3651C2.9437 37.4564 2.52568 37.1939 2.247 36.4635C1.96832 35.7218 1.96832 35.7446 1.16711 35.756C0.818761 35.7674 0.714256 35.9158 0.714256 36.2239C0.714256 36.6689 0.725867 37.1026 0.714256 37.5477C0.702644 37.7873 0.807149 37.9242 0.981325 38.0498C2.14249 38.8714 3.41978 38.9513 4.75512 38.6774C5.78856 38.472 6.40398 37.8215 6.61299 36.8059C6.68266 36.4749 6.70589 36.1554 6.70589 35.8131C6.70589 34.4208 6.70589 33.04 6.70589 31.6477C6.70589 31.4195 6.69428 31.2255 7.0194 31.2712C7.4142 31.3396 7.59999 31.1456 7.68127 30.769C7.73933 30.4951 7.84383 30.2327 7.93673 29.9131Z" fill="#FDFDFD"/>
<path d="M58.6098 36.9201C58.575 36.9429 58.5053 36.9543 58.4937 36.9886C58.0641 38.1412 57.1003 38.5976 55.9624 38.7574C54.6038 38.9514 53.3033 38.7688 52.0841 38.1412C51.8286 38.0042 51.7241 37.8331 51.7357 37.5478C51.7589 37.1255 51.7473 36.6919 51.7357 36.2696C51.7241 35.9159 51.8518 35.7219 52.235 35.7675C52.2699 35.7675 52.3047 35.7675 52.3279 35.7675C53.0827 35.7675 53.1175 35.7561 53.3033 36.4979C53.4659 37.1826 53.9884 37.388 54.569 37.4679C55.2308 37.5706 55.9043 37.5363 56.3804 36.9658C56.6939 36.5892 56.6126 36.0756 56.2178 35.7447C55.9043 35.4822 55.5327 35.3453 55.1496 35.2197C54.4993 35.0029 53.8258 34.8432 53.1988 34.5464C52.1189 34.0443 51.608 33.2455 51.6777 32.1956C51.7589 31.1001 52.3976 30.2898 53.5355 29.9817C54.9986 29.5823 56.4268 29.7192 57.7738 30.4724C58.0757 30.6436 58.2615 30.8376 58.215 31.2142C58.1802 31.5223 58.1918 31.8418 58.215 32.1614C58.2383 32.5722 58.0989 32.7662 57.6345 32.7548C56.8681 32.732 56.8332 32.7662 56.6358 32.0358C56.4849 31.4767 56.1017 31.237 55.5792 31.1457C54.9638 31.0316 54.3483 31.0316 53.8607 31.5109C53.5007 31.8647 53.5471 32.4239 53.9419 32.7776C54.2438 33.0515 54.6154 33.1999 54.9986 33.3254C55.2308 33.4053 55.4631 33.4623 55.6953 33.5194C56.9145 33.8275 58.0293 34.284 58.5982 35.5165C58.6098 35.9729 58.6098 36.4408 58.6098 36.9201Z" fill="#262223"/>
<path d="M44.1069 38.3467C44.2695 38.244 44.2463 38.1071 44.2695 37.9929C44.3508 37.4908 44.5714 37.1713 45.1636 37.2854C45.3494 37.3196 45.4191 37.2284 45.4191 37.0458C45.4191 35.197 45.4191 33.3483 45.4191 31.4996C45.4191 31.3056 45.3262 31.2371 45.152 31.2714C44.5714 31.3855 44.3856 31.0546 44.2927 30.5753C44.2579 30.3584 44.1302 30.1644 44.1418 29.902C45.5584 29.902 46.975 29.902 48.38 29.902C48.5658 29.902 48.6123 29.959 48.5542 30.1302C48.4729 30.3813 48.38 30.6437 48.3104 30.8948C48.2407 31.1687 48.0781 31.3056 47.7878 31.26C47.4859 31.2257 47.3698 31.317 47.3814 31.6366C47.4047 33.394 47.3931 35.14 47.3814 36.8974C47.3814 37.1599 47.4163 37.2968 47.7414 37.2854C48.2407 37.2512 48.74 37.2626 49.2393 37.2854C49.4715 37.2968 49.5877 37.2284 49.6457 37.0001C49.727 36.7148 49.8663 36.4409 49.9476 36.1556C50.0405 35.8361 50.2263 35.7448 50.5514 35.7448C51.3759 35.7562 51.3759 35.7334 51.3759 36.5665C51.3759 37.1371 51.3643 37.7077 51.3875 38.2668C51.3991 38.5407 51.341 38.6434 51.0275 38.6434C47.3931 38.632 43.7586 38.632 40.1241 38.6434C39.8222 38.6434 39.7526 38.5635 39.8687 38.3011C39.9035 38.2212 39.9383 38.1185 39.95 38.0272C40.0429 37.5022 40.2403 37.1142 40.9602 37.3196C40.8092 36.8632 40.6699 36.4752 40.5538 36.0872C40.4957 35.8818 40.368 35.8703 40.1938 35.8703C39.2881 35.8703 38.394 35.8703 37.4883 35.8703C37.3373 35.8703 37.2096 35.8589 37.1399 36.0415C37.0122 36.4409 36.8612 36.8403 36.7219 37.2512C37.5928 37.3311 37.5928 37.3311 37.8715 38.5749C37.7786 38.6891 37.6392 38.632 37.5231 38.632C35.6885 38.632 33.8538 38.6206 32.0192 38.6434C31.6012 38.6434 31.3805 38.4951 31.218 38.1299C30.9045 37.4338 30.5561 36.7605 30.2194 36.0872C29.7665 35.197 28.9421 34.8433 27.9783 35.0943C27.7809 35.14 27.8274 35.2655 27.8274 35.3796C27.8274 35.916 27.8274 36.4523 27.8274 36.9887C27.8274 37.1713 27.839 37.3196 28.0828 37.274C28.5937 37.1713 28.7447 37.4908 28.8608 37.8902C29.0814 38.632 29.093 38.632 28.3034 38.632C27.0958 38.632 25.8998 38.632 24.6458 38.632C24.727 38.3353 24.8199 38.0842 24.8664 37.8332C24.9477 37.4452 25.1218 37.1827 25.5863 37.274C25.7953 37.3082 25.865 37.2055 25.865 37.0115C25.865 35.1742 25.865 33.3483 25.865 31.511C25.865 31.3399 25.8185 31.2257 25.6211 31.26C25.0986 31.3627 24.9709 31.0317 24.8548 30.6323C24.6458 29.8905 24.6341 29.8905 25.4237 29.8905C26.6314 29.8905 27.839 29.8905 29.093 29.8905C29.0001 30.1873 28.8956 30.4497 28.826 30.7236C28.7447 31.1002 28.5705 31.3284 28.1293 31.2486C27.8854 31.2029 27.8274 31.3284 27.839 31.5453C27.8506 32.1957 27.8506 32.8348 27.839 33.4853C27.839 33.6793 27.8854 33.7477 28.106 33.7706C28.6518 33.8162 29.0698 33.7135 29.4065 33.2114C29.8478 32.5609 30.3935 31.9675 30.9277 31.3056C29.9871 31.2029 30.289 30.3927 29.9291 29.902C31.3921 29.902 32.7739 29.902 34.2022 29.902C34.0744 30.2786 33.9583 30.6437 33.8422 30.9975C33.7725 31.2257 33.5868 31.2714 33.3777 31.2486C33.0642 31.2029 32.8784 31.3513 32.6927 31.5795C32.1353 32.2756 31.5779 32.9603 30.9973 33.645C30.8464 33.8162 30.8348 33.8961 31.0554 34.0216C31.3689 34.2042 31.5431 34.5238 31.7057 34.8319C32.0888 35.528 32.4604 36.2241 32.8204 36.9316C32.9365 37.1599 33.0642 37.2968 33.3661 37.274C33.8654 37.2398 34.4809 37.4224 34.8176 37.1941C35.1543 36.9659 35.2124 36.3382 35.375 35.8703C35.8859 34.4781 36.3852 33.0744 36.8961 31.6822C36.989 31.4197 37.0819 31.1915 36.6406 31.2486C36.2458 31.3056 36.1645 31.0203 36.0717 30.7464C35.8046 29.8905 35.8046 29.8905 36.7219 29.8905C37.5696 29.8905 38.4288 29.8905 39.2765 29.8905C40.159 29.8905 40.5305 30.153 40.8092 30.9633C41.4827 32.9375 42.1678 34.9003 42.8297 36.886C42.9226 37.1599 43.0387 37.3196 43.3638 37.2626C43.6773 37.2055 43.8399 37.3653 43.9095 37.662C43.9328 37.9016 44.0257 38.1185 44.1069 38.3467ZM37.6508 34.5808C38.394 34.5808 39.0907 34.5808 39.7758 34.5808C39.9848 34.5808 40.0196 34.5123 39.9616 34.3298C39.6597 33.4168 39.3694 32.5039 39.0675 31.5909C39.0326 31.4882 38.9862 31.3513 38.8585 31.3627C38.7191 31.3627 38.7191 31.511 38.6843 31.6137C38.3475 32.5723 38.0108 33.5423 37.6508 34.5808Z" fill="#262223"/>
<path d="M8.9117 29.9129C10.189 29.9129 11.4082 29.8901 12.6274 29.9243C13.2429 29.9357 13.6609 30.2553 13.8699 30.8601C14.555 32.88 15.2517 34.8885 15.9368 36.9084C16.0181 37.1594 16.0993 37.342 16.4245 37.285C16.7844 37.2165 16.947 37.3991 17.0283 37.73C17.0979 38.0153 17.2141 38.3006 17.3186 38.6316C15.9019 38.6316 14.5318 38.6316 13.15 38.6316C12.9874 38.6316 12.9061 38.5973 12.9642 38.4147C13.0571 38.118 13.15 37.8099 13.2429 37.5132C13.3125 37.285 13.5099 37.2621 13.7073 37.2736C13.9628 37.2964 14.0789 37.2621 13.986 36.954C13.6377 35.8699 13.6609 35.8699 12.4765 35.8699C11.8611 35.8699 11.2573 35.8813 10.6418 35.8699C10.4444 35.8699 10.3167 35.8927 10.247 36.1095C10.1309 36.4861 9.99158 36.8513 9.86386 37.2279C10.5954 37.342 10.9089 37.6958 11.0134 38.4376C11.0366 38.5973 10.9902 38.6316 10.8508 38.6316C9.50389 38.6316 8.15694 38.6316 6.77515 38.6316C6.86804 38.312 6.96093 38.0496 7.01899 37.7757C7.08866 37.3991 7.28606 37.2165 7.68086 37.285C7.9247 37.3306 8.00599 37.1937 8.08727 36.9883C8.72591 35.1852 9.37616 33.3935 10.038 31.5905C10.1193 31.3622 10.1193 31.2139 9.81741 31.2595C9.43422 31.3166 9.27166 31.1226 9.19038 30.7802C9.12071 30.5178 9.0162 30.2553 8.9117 29.9129ZM11.8959 34.5804C12.2907 34.5804 12.6158 34.5804 12.9293 34.5804C13.0803 34.5804 13.1848 34.5689 13.1151 34.3749C12.8016 33.4506 12.5113 32.5262 12.1978 31.5905C12.163 31.4878 12.1281 31.3622 11.9888 31.3622C11.8495 31.3622 11.8495 31.5106 11.8146 31.6133C11.594 32.2409 11.3734 32.8572 11.1644 33.4848C11.0482 33.8272 10.758 34.3065 10.8857 34.4891C11.0831 34.7515 11.594 34.5233 11.8959 34.5804Z" fill="#262223"/>
<path d="M24.1816 31.7383C24.1816 31.8752 24.1816 32.0236 24.1816 32.1605C24.1816 33.1191 24.1816 33.1077 23.2062 33.1077C22.9508 33.1077 22.8347 33.0393 22.765 32.7996C22.6837 32.4801 22.5328 32.172 22.4747 31.8524C22.405 31.4188 22.1264 31.3047 21.7548 31.2362C20.3033 30.9965 19.1422 31.7041 18.7241 33.0963C18.5035 33.8267 18.4919 34.557 18.6777 35.2874C19.1189 36.9649 20.7678 37.7295 22.3818 37.0334C22.7998 36.8508 23.1598 36.5883 23.4849 36.2916C23.9958 35.8352 24.0191 35.8466 24.2049 36.5199C24.2281 36.6112 24.2513 36.7024 24.2745 36.7937C24.4951 37.5926 24.4835 37.6268 23.7752 38.0833C22.2425 39.0761 19.6995 39.0647 18.2016 38.0376C17.0404 37.2502 16.5411 36.0976 16.4482 34.7624C16.3321 32.9822 16.7966 31.4074 18.4571 30.4602C20.2337 29.4445 22.0683 29.513 23.8913 30.4031C24.1003 30.5058 24.1932 30.6428 24.1816 30.8824C24.1584 31.1677 24.1816 31.453 24.1816 31.7383Z" fill="#262223"/>
<path d="M7.93682 29.9131C7.84393 30.2327 7.73942 30.4952 7.68136 30.769C7.61169 31.1456 7.42591 31.3396 7.0195 31.2712C6.69437 31.2141 6.70598 31.4195 6.70598 31.6477C6.70598 33.04 6.70598 34.4208 6.70598 35.8131C6.70598 36.144 6.68276 36.4749 6.61309 36.8059C6.40408 37.8215 5.78866 38.472 4.75522 38.6774C3.41987 38.9513 2.13097 38.86 0.981417 38.0498C0.79563 37.9242 0.702737 37.7873 0.714349 37.5477C0.737572 37.1026 0.72596 36.6689 0.714349 36.2239C0.714349 35.9272 0.818854 35.7674 1.1672 35.756C1.96841 35.7446 1.96841 35.7218 2.24709 36.4635C2.52577 37.1939 2.94379 37.4564 3.65211 37.3651C4.30236 37.2738 4.65071 36.92 4.70877 36.1668C4.82489 34.6262 4.72038 33.0742 4.75522 31.5336C4.75522 31.3625 4.69716 31.2483 4.49976 31.2826C4.02368 31.3624 3.86112 31.1114 3.745 30.7006C3.52438 29.9131 3.51277 29.9131 4.34881 29.9131C5.5332 29.9131 6.70598 29.9131 7.93682 29.9131Z" fill="#262223"/>
<path d="M32.0663 0.576811C32.3217 0.987636 32.5423 1.40987 31.9966 1.84352C32.043 1.85493 32.0895 1.87776 32.1243 1.88917C32.3565 1.77505 32.5888 1.64952 32.821 1.5354C33.0997 1.39846 33.39 1.3414 33.6338 1.55823C33.8893 1.78646 33.808 2.06035 33.6803 2.33423C33.2274 3.3613 33.2158 4.44542 33.2623 5.52954C33.3087 6.68214 33.3668 7.82332 33.239 8.97591C33.2042 9.28403 33.2274 9.43239 33.6106 9.51227C35.1085 9.8318 36.5716 10.2883 37.756 11.3039C38.3133 11.7832 38.952 12.0115 39.6139 12.2169C41.5414 12.8217 43.4689 13.4151 45.3849 14.0199C46.1977 14.2824 46.4996 14.6932 46.4415 15.3894C46.4183 15.6861 46.2325 15.8801 46.0816 16.0969C45.7681 16.5534 45.4197 16.987 45.1178 17.4549C44.7811 17.9684 44.3514 18.2994 43.6547 18.2994C44.0031 18.676 43.9799 19.0297 43.7476 19.3949C43.318 20.0568 42.9232 20.7415 42.4819 21.4034C42.0639 22.0425 41.4601 22.3734 40.6589 22.362C38.9404 22.3506 37.2218 22.4076 35.5033 22.3392C34.5628 22.3049 33.8545 22.6815 33.2274 23.2635C31.8224 24.5416 31.1489 26.1849 30.8122 27.988C30.7657 28.2505 30.7541 28.5472 30.4522 28.6727C30.1387 28.8097 29.9181 28.6385 29.6859 28.4331C28.2576 27.0865 26.69 25.9225 24.9831 24.9296C22.0918 23.2521 19.0263 21.974 15.8215 21.0382C15.0667 20.8214 14.312 20.6274 13.5572 20.422C13.2669 20.3421 13.0115 20.228 12.965 19.8856C12.9186 19.5318 13.1508 19.3721 13.4295 19.2466C13.7895 19.0754 14.1494 18.9042 14.5326 18.7216C14.2655 18.5276 13.9404 18.5504 13.6501 18.4934C12.8141 18.3222 12.6515 18.0027 13.1856 17.3408C13.894 16.4735 14.7068 15.7089 15.5544 14.9899C17.1336 13.6548 18.7941 12.4109 20.6171 11.3952C21.1861 11.0757 21.7667 10.7676 22.3821 10.5279C22.7653 10.3796 22.9859 10.2084 23.0556 9.75192C23.2181 8.63356 23.7407 7.61791 24.3329 6.65931C25.6334 4.53671 27.3055 2.74506 29.5349 1.52399C30.0458 1.25011 30.58 1.03328 31.1141 0.839283C31.2534 0.782224 31.4973 0.827871 31.5089 0.565399C31.6018 0.565399 31.7063 0.565399 31.7992 0.565399C31.834 0.645282 31.8689 0.645282 31.8921 0.565399C31.9385 0.576811 31.9966 0.576811 32.0663 0.576811ZM31.8805 1.13599C31.5205 1.25011 31.2999 1.29576 31.0909 1.37564C27.4564 2.83635 25.1573 5.52954 23.7523 9.04438C23.5781 9.46662 23.4736 9.92309 23.4504 10.3796C23.4388 10.585 23.3575 10.6763 23.1601 10.7562C19.5721 12.2055 16.5995 14.5106 13.9288 17.2267C13.7314 17.4321 13.5224 17.6261 13.3947 17.9228C14.37 18.151 15.357 18.2651 16.3556 18.6189C15.299 18.9613 14.3468 19.3036 13.3947 19.8286C19.6534 21.4833 25.4708 23.7885 30.1968 28.2162C30.3361 27.6457 30.4406 27.0979 30.6148 26.5844C31.2186 24.7128 32.2056 23.1037 34.0286 22.1109C34.3189 21.9512 34.6092 21.8827 34.946 21.8827C36.8387 21.8941 38.743 21.8827 40.6357 21.8941C41.2047 21.8941 41.6923 21.7001 42.0059 21.2322C42.4587 20.5475 42.8767 19.8286 43.318 19.1324C43.4922 18.8471 43.4109 18.7216 43.0858 18.733C42.6213 18.733 42.1568 18.7216 41.6924 18.7444C41.3672 18.7558 41.2047 18.6874 41.3208 18.3336C41.3556 18.2423 41.3672 18.1396 41.2859 18.0711C41.1698 17.9798 41.0769 18.0825 40.9956 18.151C40.7402 18.3336 40.4615 18.5048 40.2293 18.7216C40.0319 18.9042 39.7996 18.87 39.6022 18.8243C39.37 18.7673 39.5093 18.539 39.5093 18.3793C39.5093 18.288 39.5558 18.1853 39.4397 18.1282C39.3352 18.0825 39.2539 18.151 39.1842 18.2081C38.9404 18.3907 38.6849 18.5504 38.4527 18.7444C38.2437 18.9156 38.0231 18.8357 37.814 18.8243C37.6631 18.8129 37.6631 18.6531 37.6747 18.5162C37.6863 18.4021 37.7676 18.2537 37.605 18.1853C37.4657 18.1282 37.3612 18.2537 37.2799 18.3336C36.6877 18.9498 35.933 18.7216 35.2362 18.7216C34.9808 18.7216 34.8298 18.5162 34.8298 18.2651C34.8298 18.0141 34.9808 17.8543 35.2362 17.7973C35.364 17.7744 35.4917 17.7744 35.6194 17.7744C37.5702 17.7744 39.5094 17.7858 41.4601 17.763C41.7736 17.763 41.9362 17.7973 41.8549 18.151C41.8201 18.2994 41.8085 18.482 42.0059 18.5504C42.1917 18.6189 42.2729 18.4477 42.331 18.345C42.6097 17.9 43.0045 17.7744 43.5154 17.8201C44.0147 17.8657 44.3979 17.6831 44.6882 17.2495C45.0017 16.7702 45.35 16.3137 45.6752 15.8458C46.1861 15.1269 46.0583 14.7617 45.2107 14.4992C42.9464 13.7803 40.6821 13.0728 38.4179 12.3538C38.2205 12.2853 38.0347 12.2169 37.8837 12.0685C37.4076 11.5664 36.8154 11.2012 36.1884 10.9045C35.0272 10.3567 33.8196 9.94592 32.4611 9.91168C32.7165 9.4438 32.7862 8.98732 32.8094 8.50803C32.9139 6.31696 32.4378 4.10306 33.2971 1.91199C32.3217 2.28858 31.6831 2.96188 31.0212 3.80636C31.0793 2.7907 31.2999 1.98047 31.8805 1.13599Z" fill="#CECECC"/>
<path d="M31.8685 0.576233C31.8337 0.655498 31.7989 0.655498 31.7756 0.576233C31.8105 0.576233 31.8453 0.576233 31.8685 0.576233Z" fill="#FDFDFD"/>
<path d="M31.8809 1.13617C31.3003 1.98064 31.0681 2.79088 30.9752 3.79512C31.637 2.96206 32.2873 2.28876 33.2511 1.90076C32.4034 4.09183 32.8679 6.31714 32.7634 8.4968C32.7402 8.97609 32.6705 9.43256 32.415 9.90045C33.7852 9.93469 34.9812 10.3455 36.1424 10.8933C36.7694 11.19 37.35 11.5552 37.8377 12.0573C37.9886 12.2171 38.1744 12.2855 38.3718 12.3426C40.6361 13.0615 42.9004 13.7691 45.1647 14.488C46.0123 14.7505 46.14 15.1157 45.6291 15.8346C45.2924 16.3025 44.944 16.759 44.6421 17.2383C44.3635 17.6719 43.9687 17.8545 43.4694 17.8088C42.9584 17.7632 42.5636 17.8887 42.285 18.3338C42.2153 18.4365 42.1456 18.6077 41.9598 18.5392C41.7624 18.4707 41.774 18.2881 41.8089 18.1398C41.8902 17.786 41.7276 17.7404 41.4141 17.7518C39.4633 17.7632 37.5242 17.7632 35.5734 17.7632C35.4457 17.7632 35.3179 17.7518 35.1902 17.786C34.9464 17.8431 34.7838 18.0028 34.7838 18.2539C34.7838 18.4936 34.9348 18.7104 35.1902 18.7104C35.8869 18.7104 36.6417 18.9386 37.2339 18.3224C37.3152 18.2425 37.4197 18.117 37.559 18.174C37.7216 18.2425 37.6403 18.3908 37.6287 18.505C37.6171 18.6419 37.6171 18.8017 37.768 18.8131C37.977 18.8245 38.1976 18.9158 38.4067 18.7332C38.6389 18.5392 38.8943 18.368 39.1382 18.1968C39.2195 18.1398 39.2891 18.0713 39.3937 18.117C39.5098 18.174 39.4633 18.2767 39.4633 18.368C39.4633 18.5278 39.324 18.756 39.5562 18.8131C39.7536 18.8701 39.9858 18.893 40.1832 18.7104C40.4155 18.4936 40.6942 18.3224 40.9496 18.1398C41.0309 18.0827 41.1238 17.9686 41.2399 18.0599C41.3328 18.1284 41.3096 18.2425 41.2747 18.3224C41.1586 18.6761 41.3212 18.756 41.6463 18.7332C42.1108 18.7104 42.5753 18.7332 43.0397 18.7218C43.3648 18.7218 43.4461 18.8473 43.272 19.1212C42.8307 19.8173 42.4243 20.5363 41.9598 21.221C41.6463 21.6889 41.1586 21.8829 40.5897 21.8829C38.697 21.8829 36.7926 21.8829 34.8999 21.8715C34.5632 21.8715 34.2729 21.9399 33.9826 22.0997C32.1596 23.0925 31.1842 24.7016 30.5688 26.5731C30.3946 27.0981 30.2901 27.6458 30.1507 28.205C25.4248 23.7772 19.6073 21.4835 13.3486 19.8173C14.3008 19.2924 15.2646 18.95 16.3096 18.6077C15.2994 18.2539 14.3124 18.1398 13.3486 17.9116C13.4764 17.6148 13.6854 17.4094 13.8828 17.2154C16.5535 14.4994 19.5261 12.1942 23.1141 10.7449C23.3115 10.665 23.3927 10.5852 23.4044 10.3683C23.416 9.91186 23.5321 9.45539 23.7063 9.03315C25.1113 5.51831 27.4104 2.82512 31.0448 1.36441C31.3003 1.29593 31.5209 1.25029 31.8809 1.13617ZM32.6008 17.2953C32.9259 17.3067 33.1466 17.147 33.3207 16.8959C33.6226 16.759 33.9478 16.7704 34.2613 16.7704C36.9552 16.7704 39.6491 16.7361 42.343 16.7932C43.0629 16.8046 43.4229 16.5307 43.69 15.9487C42.7843 15.9031 42.7843 15.9031 43.0513 15.264C43.2487 14.9673 42.9236 15.0358 42.8423 15.0129C41.3444 14.5451 39.8465 14.0772 38.3486 13.6207C37.7448 13.4381 37.1642 13.2441 36.7578 12.7192C36.6417 12.5708 36.4675 12.4795 36.3049 12.3768C34.8419 11.5095 33.2395 11.0987 31.5558 11.0302C30.7546 10.996 29.9533 11.0302 29.1754 11.0302C29.1521 10.9732 29.1405 10.9617 29.1405 10.9503C29.1754 10.8248 29.1986 10.7107 29.2334 10.5852C29.3844 10.2999 29.454 9.99174 29.4773 9.67221C29.6631 7.69797 29.4773 5.71231 29.6166 3.62395C29.3495 3.82936 29.1521 3.98913 28.9547 4.13748C27.1201 5.51831 25.9009 7.32138 25.2854 9.50104C25.0648 10.2656 25.2971 10.9732 25.7499 11.6008C25.8428 11.7378 25.9473 11.8747 26.075 12.023C24.3101 12.7078 22.7193 13.6207 21.233 14.7162C20.3853 15.3439 19.5957 16.04 18.9455 16.8731C18.7829 17.0785 18.7365 17.1926 19.0732 17.2725C19.5725 17.398 20.0602 17.5692 20.5363 17.7404C21.6278 18.1398 22.7309 18.5392 23.8688 19.1783C22.7193 19.338 21.6974 19.532 20.6524 19.9771C20.8266 20.057 20.9195 20.0912 21.0007 20.1254C22.7657 20.8216 24.4842 21.5976 26.1331 22.5333C26.8995 22.967 27.6542 23.4235 28.409 23.8571C28.5135 23.9256 28.5832 24.1082 28.7341 23.8685C29.2102 23.0811 29.8605 22.442 30.6849 21.8943C29.6514 21.609 29.1289 20.9129 28.9083 19.9771C28.8851 19.863 28.8386 19.726 28.9896 19.6347C29.1289 19.5549 29.187 19.6918 29.2566 19.7603C29.965 20.3993 30.8126 20.6732 31.7648 20.6618C34.4122 20.6504 37.0713 20.639 39.7188 20.6732C40.3458 20.6846 40.6361 20.4107 40.9032 19.8744C40.6942 19.8744 40.5432 19.8744 40.3923 19.8744C38.5112 19.8744 36.6301 19.8744 34.749 19.8744C34.5051 19.8744 34.2729 19.8516 34.0291 19.8059C33.4136 19.6918 32.7169 18.893 32.9375 18.0485C32.8679 17.5578 32.5544 18.1284 32.415 17.9344C32.3454 17.6833 32.7285 17.5692 32.6008 17.2953Z" fill="#242021"/>
<path d="M28.3975 23.8573C27.6427 23.4123 26.888 22.9558 26.1216 22.5336C24.4727 21.5978 22.7542 20.8218 20.9892 20.1257C20.9079 20.0914 20.8151 20.0572 20.6409 19.9773C21.6859 19.5322 22.6961 19.3382 23.8573 19.1785C22.7194 18.5394 21.6279 18.14 20.5248 17.7406C20.0371 17.5694 19.561 17.3982 19.0617 17.2727C18.7249 17.1928 18.7714 17.0787 18.934 16.8733C19.5842 16.0402 20.3738 15.3441 21.2215 14.7165C22.7078 13.6209 24.2986 12.7194 26.0635 12.0233C25.9474 11.8635 25.8429 11.738 25.7384 11.601C25.2856 10.962 25.0533 10.2544 25.2739 9.50125C25.8894 7.32159 27.097 5.51853 28.9432 4.1377C28.8736 4.7197 28.8852 5.3017 28.8852 5.8837C28.8852 7.34442 28.8968 8.81654 28.8503 10.2773C28.8387 10.6424 28.9316 10.6767 29.2219 10.574C29.1871 10.6995 29.1522 10.8136 29.129 10.9391C29.129 10.9506 29.1406 10.962 29.1639 11.019C29.9418 11.019 30.743 10.9962 31.5443 11.019C33.2396 11.0875 34.842 11.4983 36.2934 12.3656C36.456 12.4683 36.6418 12.5596 36.7463 12.708C37.1527 13.2215 37.7333 13.4269 38.3371 13.6095C39.835 14.066 41.3445 14.5225 42.8308 15.0017C42.9237 15.0246 43.2372 14.9675 43.0398 15.2528C42.9005 15.2985 42.7495 15.3099 42.6334 15.3898C42.1225 15.6979 41.5651 15.7663 40.9729 15.7549C37.1759 15.7435 33.3789 15.7435 29.5935 15.7549C29.4658 15.7549 29.3148 15.6865 29.1406 15.8576C29.4774 16.1886 29.8025 16.5195 30.1625 16.8847C29.4425 16.8847 28.7574 16.8505 28.0724 16.8961C27.0621 16.9646 26.1797 17.3298 25.7152 18.2884C25.2623 19.2355 25.3901 20.1599 25.959 21.0386C26.0055 21.1185 26.0403 21.2554 26.2145 21.2098C26.2493 20.799 26.2377 20.3767 26.4932 20.0115C26.528 20.0344 26.5396 20.0458 26.5512 20.0572C26.5977 20.2398 26.6441 20.4224 26.679 20.605C26.9925 21.826 27.6427 22.8645 28.3975 23.8573ZM28.0956 6.169C27.9679 6.14618 27.933 6.20324 27.8982 6.24888C27.1202 7.2303 26.5512 8.31442 26.1913 9.50125C25.959 10.2773 26.1913 10.9277 26.679 11.5211C26.7718 11.6353 26.8531 11.738 27.0389 11.6353C27.5266 11.3386 27.9679 10.9962 28.0143 10.38C28.1536 8.97631 28.0375 7.57265 28.0956 6.169ZM36.6998 14.0888C36.2702 13.6666 36.1193 12.9476 35.2716 13.0732C35.051 13.1074 34.8071 12.9704 34.5749 12.9248C33.9827 12.7993 33.3789 12.6623 32.6822 12.514C32.9609 12.9704 33.1234 13.3813 33.6344 13.4269C33.7389 13.4383 33.8085 13.4726 33.855 13.5753C34.1453 14.2486 34.7375 14.3627 35.3645 14.2828C35.8057 14.2372 36.2354 14.123 36.6998 14.0888Z" fill="#02AB92"/>
<path d="M28.3973 23.8569C27.6425 22.864 26.9922 21.8256 26.702 20.5931C26.6555 20.4105 26.6091 20.2279 26.5742 20.0453C26.5742 20.0339 26.551 20.0225 26.5162 19.9997C26.2607 20.3648 26.2607 20.7871 26.2375 21.1979C26.0633 21.255 26.0401 21.1066 25.982 21.0267C25.4131 20.1594 25.2853 19.2237 25.7382 18.2765C26.2027 17.3179 27.0851 16.9527 28.0954 16.8842C28.7804 16.8386 29.4655 16.8728 30.1855 16.8728C29.8139 16.5076 29.4888 16.1767 29.1636 15.8458C29.3262 15.6746 29.4771 15.7431 29.6165 15.7431C33.4135 15.7431 37.2105 15.7316 40.9959 15.7431C41.5881 15.7431 42.1455 15.686 42.6564 15.3779C42.7725 15.3094 42.9235 15.2866 43.0628 15.2409C42.7958 15.88 42.7958 15.88 43.7015 15.9256C43.4344 16.5076 43.0628 16.7815 42.3545 16.7701C39.6606 16.7245 36.9667 16.7473 34.2728 16.7473C33.9476 16.7473 33.6341 16.7359 33.3322 16.8728C33.0419 16.9299 32.8097 17.0668 32.6123 17.2722L32.6007 17.2837C32.2523 17.6146 32.1014 18.014 32.1478 18.5161C32.4614 18.3792 32.5194 17.9341 32.9258 18.0368C32.6936 18.8813 33.3903 19.6801 34.0173 19.7943C34.2496 19.8399 34.4934 19.8627 34.7372 19.8627C36.6183 19.8627 38.4994 19.8627 40.3805 19.8627C40.5315 19.8627 40.694 19.8627 40.8914 19.8627C40.636 20.3991 40.3457 20.673 39.707 20.6616C37.0596 20.6273 34.4005 20.6387 31.753 20.6501C30.8009 20.6501 29.9532 20.3877 29.2449 19.7486C29.1636 19.6801 29.1172 19.5432 28.9778 19.6231C28.8269 19.703 28.8733 19.8399 28.8966 19.9654C29.1288 20.9012 29.6397 21.5859 30.6731 21.8826C29.8487 22.419 29.2101 23.0694 28.7224 23.8569C28.5714 24.1079 28.5018 23.9253 28.3973 23.8569Z" fill="#FAFBFB"/>
<path d="M29.2329 10.5634C28.9426 10.6661 28.8497 10.6318 28.8613 10.2666C28.9078 8.80594 28.8845 7.33381 28.8961 5.8731C28.8961 5.29109 28.8845 4.70909 28.9542 4.12709C29.1516 3.97873 29.349 3.81897 29.6161 3.61356C29.4767 5.69051 29.6625 7.67617 29.4767 9.66182C29.4535 9.96994 29.3838 10.2781 29.2329 10.5634Z" fill="#FAFBFB"/>
<path d="M32.9253 18.0604C32.5189 17.9577 32.4609 18.4027 32.1473 18.5397C32.0893 18.049 32.2402 17.6495 32.6002 17.3072C32.7279 17.5697 32.3447 17.6952 32.4144 17.9463C32.5421 18.1403 32.8557 17.5697 32.9253 18.0604Z" fill="#262223"/>
<path d="M32.6006 17.2955C32.798 17.0901 33.0302 16.9417 33.3205 16.8961C33.1579 17.1471 32.9257 17.3069 32.6006 17.2955Z" fill="#262223"/>
<path d="M28.0951 6.16865C28.037 7.56089 28.1415 8.97596 28.0138 10.3796C27.9557 10.9958 27.5261 11.3382 27.0384 11.6349C26.8526 11.749 26.7713 11.6349 26.6785 11.5208C26.1908 10.9274 25.9585 10.2769 26.1908 9.5009C26.5507 8.31407 27.1197 7.22995 27.8977 6.24853C27.9325 6.20288 27.9674 6.14582 28.0951 6.16865Z" fill="#242021"/>
<path d="M36.6991 14.0886C36.2347 14.1228 35.805 14.2369 35.3754 14.294C34.7484 14.3739 34.1446 14.2597 33.8659 13.5864C33.8194 13.4837 33.7498 13.4495 33.6453 13.4381C33.1344 13.381 32.9718 12.9816 32.6931 12.5251C33.3898 12.6735 33.9936 12.799 34.5858 12.936C34.8181 12.9816 35.0619 13.1186 35.2825 13.0843C36.107 12.9474 36.2695 13.6777 36.6991 14.0886Z" fill="#242021"/>
<path d="M43.3986 41.3279C43.2824 41.3279 43.1547 41.3279 43.0154 41.3279C43.0154 41.1567 43.0154 41.0083 43.0154 40.8486C43.3173 40.8486 43.6192 40.8486 43.9327 40.8486C43.9327 41.2366 43.9327 41.6246 43.9327 42.0012C43.9327 42.0354 43.8862 42.1039 43.8514 42.1153C43.3521 42.3207 42.8412 42.4006 42.3303 42.1837C41.8194 41.9669 41.5523 41.4306 41.6452 40.8486C41.7497 40.2551 42.1561 39.8786 42.7715 39.8329C43.1663 39.7987 43.5495 39.8557 43.8746 40.1296C43.7469 40.2666 43.6308 40.3921 43.5031 40.529C43.3173 40.3464 43.0967 40.3008 42.8528 40.3122C42.4696 40.335 42.2026 40.6203 42.1793 41.0311C42.1677 41.442 42.4232 41.7615 42.8064 41.8072C42.8876 41.8186 42.9689 41.8186 43.0386 41.8072C43.4102 41.7729 43.4566 41.7044 43.3986 41.3279Z" fill="#00A997"/>
<path d="M46.0815 42.2291C46.0815 41.4302 46.0815 40.677 46.0815 39.9125C46.5228 39.9125 46.9524 39.8896 47.3821 39.9239C47.6259 39.9353 47.8001 40.1065 47.8465 40.3575C47.893 40.62 47.8001 40.814 47.5678 40.9509C47.5562 40.9623 47.5446 40.9738 47.5098 40.9966C47.7188 41.0765 47.893 41.1906 47.9394 41.4074C48.0323 41.7612 47.8581 42.0693 47.4749 42.172C47.2659 42.2291 47.0337 42.2176 46.8131 42.2291C46.5692 42.2405 46.337 42.2291 46.0815 42.2291ZM46.6157 41.2476C46.6157 41.453 46.6157 41.6128 46.6157 41.7726C46.8131 41.7726 46.9989 41.784 47.173 41.7726C47.3124 41.7612 47.4053 41.6813 47.4169 41.5329C47.4169 41.3846 47.324 41.3047 47.1847 41.2933C46.9989 41.259 46.8247 41.259 46.6157 41.2476ZM46.6157 40.8254C46.7899 40.814 46.9524 40.8254 47.1034 40.7798C47.1847 40.7569 47.2892 40.6314 47.2892 40.5629C47.2892 40.483 47.173 40.3689 47.0918 40.3461C46.9408 40.3119 46.7782 40.3347 46.6157 40.3347C46.6157 40.4945 46.6157 40.6428 46.6157 40.8254Z" fill="#00A997"/>
<path d="M7.43701 42.2177C7.43701 41.4303 7.43701 40.6657 7.43701 39.8669C7.9247 39.9011 8.41239 39.7984 8.88847 39.9582C9.34133 40.1065 9.59679 40.426 9.64323 40.8939C9.68968 41.3846 9.52712 41.7955 9.06265 42.0351C8.87686 42.1264 8.66785 42.1949 8.45884 42.2063C8.1221 42.2405 7.78536 42.2177 7.43701 42.2177ZM7.98276 40.369C7.98276 40.8369 7.98276 41.2819 7.98276 41.7498C8.35434 41.7498 8.73752 41.7955 8.98137 41.4417C9.14393 41.202 9.15554 40.9396 8.99298 40.6885C8.74913 40.3233 8.36595 40.3462 7.98276 40.369Z" fill="#00A997"/>
<path d="M34.3064 42.219C34.109 42.219 33.9464 42.219 33.7722 42.219C33.7722 41.443 33.7722 40.667 33.7722 39.9024C34.1902 39.9024 34.6083 39.8682 35.0147 39.9138C35.363 39.948 35.5604 40.1763 35.6069 40.473C35.6533 40.8268 35.514 41.0664 35.1772 41.2148C35.1656 41.2262 35.1424 41.2376 35.1192 41.2604C35.305 41.5685 35.4907 41.8766 35.6998 42.2304C35.4907 42.2304 35.305 42.2418 35.1192 42.2304C35.0727 42.2304 35.0263 42.1619 35.0031 42.1163C34.8869 41.9109 34.7708 41.6941 34.6663 41.4772C34.5966 41.3289 34.5154 41.2376 34.318 41.3061C34.3064 41.6028 34.3064 41.8995 34.3064 42.219ZM34.3064 40.3132C34.3064 40.5072 34.3064 40.667 34.3064 40.8382C34.4689 40.8382 34.6199 40.8496 34.7708 40.8382C34.9102 40.8268 35.0379 40.7697 35.0495 40.6099C35.0611 40.4388 34.945 40.3589 34.794 40.3361C34.6431 40.3246 34.4805 40.3246 34.3064 40.3132Z" fill="#00A997"/>
<path d="M37.6272 39.89C37.6853 39.89 37.7317 39.8786 37.7781 39.8786C37.8943 39.8786 37.9988 39.8786 38.1381 39.8786C38.1381 39.9927 38.1381 40.1068 38.1381 40.2095C38.1381 40.5747 38.1381 40.9399 38.1381 41.305C38.1381 41.6017 38.3239 41.8072 38.6026 41.8072C38.8813 41.8072 39.0903 41.6132 39.0903 41.305C39.0903 40.8371 39.0903 40.3693 39.0903 39.89C39.2644 39.89 39.427 39.89 39.6012 39.89C39.6128 39.9128 39.6244 39.9356 39.6244 39.9584C39.6244 40.4491 39.636 40.9284 39.6244 41.4192C39.6012 41.9327 39.2761 42.2294 38.7419 42.2864C38.2194 42.3435 37.7898 42.0924 37.6504 41.6474C37.6388 41.6132 37.6272 41.5789 37.6272 41.5561C37.6272 41.0083 37.6272 40.4491 37.6272 39.89Z" fill="#00A997"/>
<path d="M11.2808 42.2296C11.6291 41.4535 11.9542 40.7118 12.2794 39.97C12.3374 39.8559 12.7438 39.8331 12.7903 39.9472C13.127 40.7004 13.4638 41.4535 13.8005 42.2296C13.6147 42.2296 13.4405 42.241 13.278 42.2181C13.2199 42.2067 13.1386 42.1383 13.127 42.0812C13.069 41.7845 12.8832 41.6818 12.5929 41.7388C12.558 41.7503 12.5116 41.7388 12.4768 41.7388C12.0704 41.7388 12.0704 41.7388 11.9194 42.104C11.873 42.2067 11.8265 42.241 11.7104 42.241C11.5943 42.2181 11.4549 42.2296 11.2808 42.2296ZM12.5348 40.5748C12.4303 40.8373 12.349 41.0541 12.2561 41.271C12.4535 41.271 12.6277 41.271 12.8135 41.271C12.7206 41.0541 12.6393 40.8487 12.5348 40.5748Z" fill="#00A997"/>
<path d="M24.9825 42.2297C24.9128 42.2297 24.8547 42.2183 24.8083 42.2297C24.5064 42.2753 24.2974 42.1954 24.2509 41.8759C24.2277 41.7732 24.158 41.7276 24.0535 41.739C23.9606 41.7504 23.8561 41.7504 23.7516 41.739C23.4265 41.6933 23.171 41.7504 23.113 42.1384C23.1014 42.1726 23.0201 42.2297 22.9736 42.2297C22.8227 42.2411 22.6717 42.2297 22.4976 42.2297C22.5208 42.1612 22.5324 42.1156 22.5556 42.0585C22.8575 41.3738 23.1594 40.6891 23.4497 40.0044C23.4962 39.8902 23.5658 39.856 23.682 39.8788C23.7981 39.9017 23.949 39.8104 24.0187 39.993C24.3322 40.7119 24.6573 41.4308 24.9708 42.1498C24.9708 42.1612 24.9708 42.184 24.9825 42.2297ZM23.7168 40.575C23.6123 40.8374 23.531 41.0543 23.4381 41.2711C23.6355 41.2711 23.7981 41.2711 23.9955 41.2711C23.9026 41.0543 23.8213 40.8488 23.7168 40.575Z" fill="#00A997"/>
<path d="M28.199 40.3922C27.9668 40.3579 27.7926 40.3237 27.6184 40.3351C27.5487 40.3351 27.4326 40.4492 27.421 40.5291C27.4094 40.5862 27.5023 40.7003 27.572 40.7459C27.7113 40.8144 27.8623 40.86 28.0132 40.9057C28.2919 40.997 28.4893 41.1682 28.5009 41.4763C28.5125 41.7958 28.3848 42.0469 28.0945 42.1952C27.6765 42.4121 27.1423 42.3322 26.7708 42.0012C26.8985 41.8757 27.0146 41.7388 27.1423 41.6018C27.3049 41.7616 27.4907 41.8643 27.6997 41.8072C27.7926 41.7844 27.9203 41.6817 27.9435 41.6018C27.9551 41.5448 27.8506 41.4078 27.7694 41.3622C27.6184 41.2823 27.4442 41.248 27.2933 41.191C27.061 41.0997 26.8753 40.9628 26.852 40.6889C26.8288 40.3922 26.9333 40.1525 27.1888 39.9927C27.572 39.7531 28.1293 39.7873 28.5009 40.0955C28.3732 40.1867 28.257 40.3237 28.199 40.3922Z" fill="#00A997"/>
<path d="M50.7256 40.7455C50.8766 40.4945 51.0275 40.2776 51.1553 40.0494C51.2249 39.9239 51.3062 39.8782 51.4572 39.8896C51.5849 39.901 51.7242 39.8896 51.8752 39.8896C51.8403 39.9467 51.8287 39.9923 51.7939 40.038C51.6778 40.2092 51.5849 40.3918 51.4572 40.5401C51.0856 40.9852 50.8998 41.4759 50.9927 42.0579C51.0043 42.1035 50.9927 42.1606 50.9811 42.2291C50.8185 42.2291 50.656 42.2291 50.4586 42.2291C50.4586 41.9666 50.4702 41.7041 50.4586 41.4416C50.4469 41.3161 50.4121 41.1906 50.354 41.0879C50.1102 40.6999 49.8431 40.3119 49.5645 39.901C49.7967 39.901 49.9825 39.8896 50.1799 39.901C50.2263 39.901 50.2728 39.9695 50.296 40.0152C50.4469 40.232 50.5747 40.483 50.7256 40.7455Z" fill="#00A997"/>
<path d="M15.728 42.2185C15.728 41.4425 15.728 40.6665 15.728 39.8905C15.9022 39.8905 16.0648 39.8905 16.2506 39.8905C16.2506 40.5067 16.2506 41.1116 16.2506 41.7506C16.5873 41.7506 16.8892 41.7506 17.2143 41.7506C17.2143 41.9218 17.2143 42.0702 17.2143 42.2185C16.715 42.2185 16.2273 42.2185 15.728 42.2185Z" fill="#00A997"/>
<path d="M19.177 42.2185C19.177 41.4425 19.177 40.6665 19.177 39.8905C19.3512 39.8905 19.5137 39.8905 19.6995 39.8905C19.6995 40.5067 19.6995 41.1116 19.6995 41.7506C20.0363 41.7506 20.3382 41.7506 20.6633 41.7506C20.6633 41.9218 20.6633 42.0588 20.6633 42.2185C20.164 42.2185 19.6763 42.2185 19.177 42.2185Z" fill="#00A997"/>
<path d="M30.6492 41.0545C30.6492 40.8263 30.8233 40.6437 31.0556 40.6437C31.2878 40.6323 31.4852 40.8263 31.4852 41.0545C31.4852 41.2828 31.2878 41.4768 31.0556 41.4654C30.8233 41.4539 30.6492 41.2828 30.6492 41.0545Z" fill="#262223"/>
</svg>
