<svg width="115" height="14" viewBox="0 0 115 14" fill="none" xmlns="http://www.w3.org/2000/svg">
<g clip-path="url(#clip0_7_515)">
<path d="M54.2686 7.29218C54.2686 7.29218 55.0146 5.51378 55.3328 5.00123C55.3328 5.00123 56.2438 6.27108 56.566 7.31425C56.566 7.31425 55.5383 7.47776 54.2686 7.29218ZM32.9432 5.94107V3.93699C32.9432 3.93699 32.964 2.44144 34.129 2.44144C35.2999 2.44144 35.1527 3.89486 35.1645 4.07841C35.1744 4.26598 35.0993 5.94107 32.9432 5.94107ZM36.5923 0.92785C36.5923 0.92785 30.9107 1.35916 27.8456 1.06928C27.8456 1.06928 27.481 0.969977 27.3802 1.39827C27.3802 1.39827 27.1816 1.72426 27.5017 1.94995C27.8219 2.17664 28.7517 2.72832 28.7517 4.77453C28.7517 6.82175 28.7517 8.72251 28.7517 8.72251C28.7517 8.72251 28.9335 10.8931 27.4602 11.7096C27.4602 11.7096 27.1599 11.8129 27.3199 12.2442C27.3199 12.2442 27.3407 12.6324 27.7656 12.5722C28.1865 12.509 30.5668 12.3255 33.8316 12.5511C33.8316 12.5511 34.1122 12.5722 34.1902 12.3846C34.2732 12.205 34.295 12.183 34.295 12.183C34.295 12.183 34.5786 11.8971 34.1507 11.6102C33.7298 11.3244 33.0233 10.8931 32.964 9.07254C32.9037 7.25001 32.964 7.21089 32.964 7.21089H33.2249C33.2249 7.21089 34.129 7.12663 34.7357 8.52387C34.7357 8.52387 35.9066 11.3846 36.0864 11.7316C36.2692 12.0817 36.6111 12.8169 37.8818 12.6935C39.1505 12.5722 45.0733 12.1409 51.3645 12.7146C51.3645 12.7146 52.0503 12.8169 52.3121 12.1409C52.3121 12.1409 53.4 9.17488 53.6609 8.70145C53.6609 8.70145 55.9602 8.64127 57.2102 8.66133C57.2102 8.66133 57.6716 9.46075 57.6716 10.4227C57.6716 11.3846 56.8476 11.6103 56.8476 11.6103C56.8476 11.6103 56.5037 11.7517 56.6657 12.183C56.6657 12.183 56.7261 12.5933 57.1292 12.5511C57.5303 12.509 61.1389 12.163 66.5804 12.509C66.5804 12.509 66.944 12.6544 67.0636 12.163C67.0636 12.163 67.2859 11.7738 66.9025 11.5892C66.9025 11.5892 65.4747 11.2632 65.4747 8.9482C65.4747 6.63518 65.4945 5.00122 65.4945 5.00122C65.4945 5.00122 66.5804 6.57499 67.8709 8.93014C69.1614 11.2823 69.8471 12.2863 69.8471 12.2863C69.8471 12.2863 70.4923 13.5552 71.7601 12.8791C73.0298 12.2051 74.4003 11.4267 75.1868 10.872C75.1868 10.872 75.4912 10.7306 75.3272 10.3384L75.2086 10.0947C75.2086 10.0947 75.1868 9.95225 74.7649 9.91012C74.7649 9.91012 73.8173 10.1368 73.7956 8.76464C73.7778 7.39549 73.7146 5.45058 73.7956 3.46655C73.7956 3.46655 73.8371 2.23682 74.9457 1.88977C74.9457 1.88977 75.3469 1.85069 75.1661 1.35916L75.0455 1.11141C75.0455 1.11141 75.0455 0.906788 74.7649 0.948919C74.4833 0.991046 72.9102 1.13247 71.2393 0.991045C71.2393 0.991045 70.8757 0.991041 70.8332 1.39827C70.8332 1.39827 70.7344 1.7684 71.017 1.88977C71.2986 2.01214 72.2848 2.38126 72.348 3.95504C72.4063 5.53483 72.427 7.72147 72.427 7.72147C72.427 7.72147 70.1287 4.28403 68.6574 1.64502C68.6574 1.64502 68.4173 0.927851 67.5468 0.991045C66.6851 1.05123 64.6052 1.15353 63.0944 1.00815C63.0944 1.00815 62.6705 0.948924 62.6102 1.44046C62.6102 1.44046 62.4896 1.86876 62.8523 2.05232C62.8523 2.05232 64.0627 2.83068 64.0627 3.09648C64.0627 3.36429 64.04 8.80683 64.04 8.80683C64.04 8.80683 64.1437 11.0376 63.5578 10.7507C63.5578 10.7507 63.2159 10.9754 62.3898 9.43975C61.5638 7.90509 60.4946 5.71644 58.7625 1.45851C58.7625 1.45851 58.3979 0.272919 57.6538 0.272919C57.6538 0.272919 57.2102 0.29499 56.7477 0.556773C56.2833 0.825685 54.811 1.66414 53.2804 2.11551C53.2804 2.11551 52.8773 2.23688 52.9969 2.64612C52.9969 2.64612 52.9385 2.95105 53.3802 3.12057C53.8229 3.28205 54.2063 3.46661 54.3269 3.68928C54.3269 3.68928 53.8644 5.20388 53.0166 6.76261C52.1698 8.31532 51.0839 10.8932 47.9585 10.8932H46.7283C46.7283 10.8932 46.4072 10.9322 46.4072 10.4839C46.4072 10.0346 46.4072 7.19092 46.4072 7.19092H47.2135C47.2135 7.19092 48.5217 6.90304 49.1492 8.62226C49.1492 8.62226 49.2677 9.15388 49.7114 8.94825C49.7114 8.94825 50.2143 8.88807 50.1748 8.37551C50.1353 7.86596 50.0968 6.47274 50.1946 5.24602C50.1946 5.24602 50.2361 4.87789 49.8319 4.79665C49.8319 4.79665 49.5108 4.63315 49.2677 4.89896C49.0266 5.16376 48.5217 5.79668 47.3725 5.79668C46.2263 5.79668 46.4289 5.79668 46.4289 5.79668V2.72836C46.4289 2.72836 46.4071 2.52575 46.5465 2.50469C46.6868 2.48359 48.4427 2.05231 49.4693 2.88985C50.4969 3.73141 50.5602 4.07846 50.7795 4.3864C50.7795 4.3864 50.9801 4.89896 51.5038 4.55291C51.5038 4.55291 51.9089 4.48871 51.7064 3.85478C51.5038 3.21685 51.4455 2.99618 51.1036 1.39833C51.1036 1.39833 51.0404 0.722281 50.3566 0.786477C49.6719 0.846661 45.3805 1.35921 41.348 1.03021C41.348 1.03021 40.9261 0.927901 40.8441 1.38028C40.8441 1.38028 40.6613 1.68419 41.0042 1.97006C41.0042 1.97006 42.1919 2.52576 42.1919 4.65121C42.1919 6.77967 42.1919 8.21302 42.1919 8.21302C42.1919 8.21302 42.3954 11.0376 41.4083 11.0376C41.4083 11.0376 40.9834 11.2211 40.2601 9.76773C39.5349 8.31532 39.4943 8.27321 39.4943 8.27321C39.4943 8.27321 38.9094 6.36742 36.3887 6.28817C36.3887 6.28817 39.8758 5.69538 39.5536 3.0353C39.5536 3.0353 39.4944 1.00815 36.8759 0.927906" fill="#1C4E9D"/>
<path d="M84.1133 4.85679C85.2032 6.43056 85.3455 7.16881 85.3455 7.16881C84.4809 7.31425 83.0501 7.14876 83.0501 7.14876C83.4691 6.00228 84.1133 4.85679 84.1133 4.85679ZM93.2464 8.17287C93.2464 8.17287 93.3255 10.851 92.3383 10.6664C92.3383 10.6664 91.9935 10.8931 91.1684 9.35846C90.3443 7.82581 89.2742 5.63517 87.5411 1.38025C87.5411 1.38025 87.1784 0.191635 86.4324 0.191635C86.4324 0.191635 85.9907 0.213718 85.5273 0.475501C85.0619 0.744315 83.5916 1.58487 82.061 2.03423C82.061 2.03423 81.6549 2.1556 81.7765 2.56485C81.7765 2.56485 81.7152 2.87278 82.1608 3.03527C82.6035 3.20177 82.9879 3.38233 83.1065 3.60902C83.1065 3.60902 82.645 5.12161 81.7972 6.67734C80.9514 8.23406 80.2034 10.504 78.2104 11.5261C78.2104 11.5261 77.824 11.6103 77.9485 12.0817C78.0898 12.6123 78.3517 12.4699 78.3517 12.4699C80.6688 12.2232 81.3753 12.4278 81.9 12.4699C82.4227 12.509 82.3417 12.0817 82.3417 12.0817C82.482 11.8129 82.3021 11.6504 82.3021 11.6504L82.0808 11.3636C82.0808 11.3636 81.2133 11.1369 82.4425 8.62224C82.4425 8.62224 84.7428 8.56205 85.9908 8.5801C85.9908 8.5801 86.4561 9.37653 86.4561 10.3384C86.4561 11.3034 85.6281 11.5261 85.6281 11.5261C85.6281 11.5261 85.2842 11.6705 85.4443 12.0988C85.4443 12.0988 85.5065 12.509 85.9107 12.4699C86.3129 12.4278 93.0053 12.1409 98.4468 12.488C98.4468 12.488 98.8282 12.5091 98.928 12.163C98.928 12.163 99.1514 11.7317 98.769 11.4869C98.769 11.4869 97.6988 10.9954 97.6198 9.25916C97.5378 7.51587 97.5605 4.22086 97.5605 4.22086C97.5605 4.22086 97.4785 2.38128 98.6257 1.81054C98.6257 1.81054 98.9281 1.66411 98.769 1.25386C98.769 1.25386 98.6879 0.867686 98.3223 0.906802C97.9607 0.948933 94.1535 1.15355 92.3601 0.927827C92.3601 0.927827 91.953 0.906801 91.8749 1.25382C91.8749 1.25382 91.6744 1.58482 92.0182 1.85063C92.3601 2.11544 93.2464 2.7283 93.2464 4.63308C93.2464 6.53586 93.2464 8.17287 93.2464 8.17287Z" fill="#1C4E9D"/>
<path d="M105.821 5.86085V3.85476C105.821 3.85476 105.863 2.36322 106.971 2.36322C108.08 2.36322 108.097 3.62606 108.039 4.04032C107.983 4.44956 107.879 5.86085 105.821 5.86085ZM109.288 0.764374C109.288 0.764374 104.854 1.29599 100.743 0.888757C100.743 0.888757 100.219 0.744311 100.157 1.29599C100.157 1.29599 100.119 1.66411 100.342 1.81055C100.563 1.94998 101.469 2.50466 101.53 4.42649C101.592 6.34933 101.631 5.79665 101.592 8.4176C101.592 8.4176 101.748 10.9322 100.342 11.5471C100.342 11.5471 99.9773 11.6284 100.179 12.163C100.179 12.163 100.3 12.5722 100.639 12.4278C100.639 12.4278 103.947 12.2051 106.81 12.4489C106.81 12.4489 107.134 12.5723 107.233 12.141C107.233 12.141 107.495 11.8551 107.094 11.5471C106.688 11.2432 105.963 10.7086 105.88 9.41869C105.799 8.12777 105.821 7.10867 105.821 7.10867H106.105C106.105 7.10867 107.052 6.9833 107.696 8.4989C108.343 10.0125 108.785 11.1188 108.785 11.1188C108.785 11.1188 109.206 12.3255 109.893 12.7147C109.893 12.7147 110.175 12.9825 111.223 12.8561C111.223 12.8561 112.936 12.7568 114.629 11.9604C114.629 11.9604 115.011 11.8761 114.889 11.4268C114.889 11.4268 114.972 11.0747 114.49 10.9754C114.006 10.8721 113.644 10.4017 113.3 9.70455C112.955 9.01144 112.43 7.98633 112.43 7.98633C112.43 7.98633 111.727 6.21094 109.428 6.18687C109.428 6.18687 112.592 5.63519 112.592 3.21685C112.592 0.806534 109.773 0.764407 109.773 0.764407" fill="#1C4E9D"/>
<path d="M27.234 6.89798C27.234 10.6434 24.2459 13.6796 20.5573 13.6796C16.8677 13.6796 13.8757 10.6434 13.8757 6.89798C13.8757 3.1496 16.8677 0.113388 20.5573 0.113388C24.2459 0.113388 27.234 3.1496 27.234 6.89798Z" fill="white"/>
<path d="M23.4256 2.80857C25.4601 3.4425 26.9403 5.36534 26.9403 7.64326C26.9403 7.97828 26.9067 8.29925 26.8474 8.61119L26.8395 8.65533C26.6854 9.54803 26.3277 10.3735 25.8208 11.0717L25.8109 11.0827C26.7022 9.93125 27.2358 8.47482 27.2358 6.89202C27.2358 3.14665 24.2428 0.107422 20.5502 0.107422C18.8705 0.107422 17.3369 0.738328 16.1611 1.77849L16.1443 1.79356C15.2184 2.65618 14.6404 3.89494 14.6404 5.27012C14.6404 5.83684 14.7372 6.38651 14.921 6.89204L14.9299 6.91612C15.3953 7.94725 16.422 8.66744 17.6136 8.66744C19.2411 8.66744 20.5632 7.32938 20.5632 5.67435L20.5542 4.38645C20.5542 3.79866 20.8803 3.27908 21.3595 3.01427L21.3643 3.01282C21.7388 2.80519 22.1666 2.68282 22.6271 2.68282C22.9047 2.68282 23.1705 2.72495 23.4215 2.80619L23.4255 2.80946" fill="#ED192D"/>
<path d="M15.4378 11.2612C16.6641 12.7417 18.5019 13.6846 20.5572 13.6846C22.238 13.6846 23.7765 13.0547 24.9503 12.0145L24.9662 12.0025C25.892 11.1369 26.471 9.89812 26.471 8.52394C26.471 7.95622 26.3722 7.40756 26.1894 6.90102L26.1805 6.87992C25.7141 5.84277 24.6904 5.12459 23.4958 5.12459C21.8684 5.12459 20.5483 6.46366 20.5483 8.11567L20.5572 9.40759C20.5572 9.99638 20.2311 10.514 19.7509 10.7788L19.7462 10.782C19.3717 10.9897 18.9408 11.111 18.4853 11.111C18.2057 11.111 17.9389 11.0649 17.6889 10.9876L17.6857 10.9837C15.6502 10.3477 14.17 8.42388 14.17 6.14998C14.17 5.81797 14.2026 5.49298 14.2629 5.17903L14.2684 5.13689C14.4236 4.24218 14.7813 3.42269 15.2911 2.72157L15.2975 2.71056C14.4082 3.86206 13.8736 5.31849 13.8736 6.89828C13.8736 7.98659 14.1275 9.01872 14.5761 9.93149L14.5208 9.97362C14.5208 9.97362 14.2619 10.1752 13.7353 9.56437C13.2106 8.9485 10.1277 5.16401 10.1277 5.16401C10.1277 5.16401 12.0841 3.03555 13.9991 2.17694C13.9991 2.17694 14.5001 2.01244 14.3815 1.56408L14.2995 1.29627C14.2995 1.29627 14.2827 1.0084 13.836 1.06958C13.3934 1.13282 11.2956 1.29628 9.20182 1.09069C9.20182 1.09069 8.87871 1.09068 8.75816 1.3595C8.75816 1.3595 8.55461 1.70655 8.75816 1.90816C8.96072 2.11579 9.68697 2.62635 9.68697 3.32146C9.68697 3.32146 9.84409 3.83511 8.7384 4.65149C7.62784 5.47195 6.94407 6.00256 6.48164 6.25031L6.49941 4.32647C6.49941 4.32647 6.44012 2.71056 7.5893 1.95025C7.5893 1.95025 7.86992 1.82989 7.77013 1.56408L7.6921 1.35946C7.6921 1.35946 7.62783 1.03046 7.28599 1.06957C7.28599 1.06957 5.29298 1.29627 1.31979 1.11171C1.31979 1.11171 1.05695 1.0906 0.958139 1.29626L0.878112 1.45876C0.878112 1.45876 0.736803 1.82988 0.958139 1.99238C1.18145 2.15588 2.10732 2.71056 2.14882 4.4047C2.14882 4.4047 2.24862 7.61846 2.10732 8.86625C1.96503 10.116 1.86622 10.8322 0.878112 11.7099C0.878112 11.7099 0.616253 11.9185 0.736802 12.2234L0.878112 12.4882C0.878112 12.4882 0.977907 12.6939 1.31979 12.6548C1.66366 12.6126 4.14281 12.3649 7.28599 12.6126C7.28599 12.6126 7.5093 12.6939 7.6091 12.4702L7.7504 12.1833C7.7504 12.1833 7.91146 11.8974 7.6091 11.6708C7.30575 11.4451 6.49945 10.7931 6.48167 9.52425C6.46192 8.2554 6.46192 7.45195 6.46192 7.45195C6.46192 7.45195 7.00637 7.67965 9.90647 12.0399C9.90647 12.0399 10.9351 13.9216 13.1109 12.7571C13.1109 12.7571 14.7027 11.8764 15.3677 11.3037L15.4378 11.2612Z" fill="#1C4E9D"/>
</g>
<defs>
<clipPath id="clip0_7_515">
<rect width="114.208" height="13.5772" fill="white" transform="translate(0.705078 0.107422)"/>
</clipPath>
</defs>
</svg>
