<svg width="73" height="28" viewBox="0 0 73 28" fill="none" xmlns="http://www.w3.org/2000/svg">
<path fill-rule="evenodd" clip-rule="evenodd" d="M67.1836 24.8522C66.2736 24.3766 66.1326 23.0322 66.1532 19.7645L66.1738 14.7557L64.4481 14.7533L64.8356 13.8251H66.1738V11.4531L69.3797 10.2671L69.379 13.7459L70.8484 13.7486L70.4601 14.7763L69.3797 14.7747L69.3743 23.4429C69.4449 24.1413 69.6798 24.5521 70.0141 24.8518L67.1836 24.8522ZM35.682 3.4324C35.927 4.10325 36.481 4.79584 36.087 5.57306C35.8952 6.36115 35.1494 7.00055 34.3613 7.12789C33.541 7.20243 32.7529 7.06422 32.1453 6.56341C31.7086 4.28416 32.6357 2.17495 34.4355 0.918274L35.682 3.4324Z" fill="#B01842"/>
<path fill-rule="evenodd" clip-rule="evenodd" d="M38.8614 10.3768C38.4511 11.7562 34.3771 10.8508 33.099 8.5875C34.7766 8.77384 36.6672 7.28812 36.699 5.59469L38.8614 10.3768ZM40.5281 10.1982C40.7144 10.1155 41.0906 9.92919 41.1834 9.52971L36.8004 0.0233168C36.5076 -0.0139526 36.2941 -0.0407399 35.9214 0.22558L40.5281 10.1982ZM42.4987 8.13444C44.3633 5.31168 42.7922 0.678247 38.7764 0.0287519L42.4987 8.13444ZM42.0876 14.2124C42.6745 13.7194 43.7088 13.7078 44.3773 14.0245C44.6595 14.1655 44.9293 14.3538 45.1052 14.5999L43.814 16.6086C43.6494 16.4789 43.5317 16.4207 43.3205 16.3151C42.6808 16.039 42.0056 16.2005 41.6174 16.5495V22.4101C41.6093 23.423 41.7851 24.3474 42.3104 24.8288H39.3747C38.7644 24.3594 38.6118 23.6078 38.5528 22.9498L38.5291 15.1582C38.5555 14.5273 38.394 14.2482 38.1417 13.8957L41.183 13.9077C41.4303 14.0836 41.4416 14.3891 41.5712 14.6243L42.0876 14.2124ZM45.7986 16.1384C45.7749 15.3985 45.9395 14.5122 45.455 13.872H48.2766C48.4645 14.0129 48.5701 14.2482 48.6291 14.471C48.7817 14.6705 48.77 14.9524 48.8399 15.1877L48.8636 23.4906C48.9812 23.9836 49.1691 24.4825 49.5333 24.8699L46.5156 24.8761C45.5291 23.9223 45.8521 22.3511 45.7757 20.7307L45.7986 16.1384ZM50.2616 16.2207C50.5663 15.3744 51.5179 14.952 52.2108 14.4943C53.2672 14.1068 54.4303 13.1437 55.6159 13.931C56.6024 14.5762 57.4712 15.3049 58.0939 16.3026C58.2465 16.6901 58.3168 17.1245 58.4232 17.5356C58.4232 18.0877 58.54 18.4984 58.5284 19.0505C58.5633 19.6495 58.5633 20.1903 58.5284 20.7769C58.4927 21.7746 58.0233 22.6671 57.2364 23.3601C56.062 24.4056 54.5825 25.5916 52.9857 24.781C51.5528 24.1113 49.8617 22.7844 49.9673 20.9648C49.9091 19.6728 49.8504 18.5574 50.0263 17.3004C50.097 16.9366 50.0612 16.5379 50.2616 16.2207ZM53.1965 22.0926C53.3374 22.6089 53.6077 23.2429 54.23 23.3135C54.5941 23.3256 54.8647 23.02 55.0755 22.7615C55.7336 21.4703 55.6396 20.0606 55.6396 18.5928C55.428 17.5011 55.6866 16.0095 54.5122 15.3398C54.1011 15.1873 53.7843 15.4695 53.5257 15.7273C53.0676 16.4203 53.0148 17.2126 52.9857 18.0939C52.8328 19.5035 52.9974 20.6717 53.1965 22.0926ZM60.6189 24.8521C59.7082 24.3765 59.568 23.0321 59.5886 19.7644L59.6092 14.7556L57.8828 14.7532L58.2702 13.825H59.6092V11.453L62.8151 10.2669L62.8136 13.7458L64.283 13.7485L63.8955 14.7761L62.8151 14.7746L62.8089 23.4428C62.8796 24.1412 63.1144 24.552 63.4487 24.8517L60.6189 24.8521ZM31.307 15.1578C31.288 14.5254 31.1719 14.2478 30.9196 13.8953L33.9609 13.9073C34.2078 14.0832 34.2195 14.3887 34.3487 14.624L34.8655 14.2121C35.4524 13.719 36.4859 13.7074 37.1552 14.0242C37.4374 14.1651 37.7072 14.3534 37.8831 14.5995L36.5919 16.6082C36.4273 16.4785 36.3096 16.4203 36.0984 16.3147C35.4587 16.0386 34.7832 16.2001 34.3953 16.5492V22.4098C34.3868 23.4226 34.563 24.347 35.0887 24.8284H32.1529C31.5423 24.359 31.3684 23.6591 31.3307 22.9494L31.307 15.1578ZM8.30135 18.241L7.18987 20.5141C6.43517 21.8554 5.37649 23.5014 3.75217 23.9102C3.12325 24.13 2.56809 23.9308 1.95975 23.8889L0 27.0964C0.146748 27.2532 0.35367 27.386 0.555546 27.4632C4.00412 28.7782 5.39241 27.3631 8.78857 19.691L11.9957 26.5253H16.2669L14.2493 21.9128L15.3915 19.5288L18.5461 26.4197L22.6337 26.4461L15.4807 10.7247L12.1855 12.3622L14.7676 18.2294L13.6355 20.535L8.90349 10.3186L5.43162 12.0873L8.30135 18.241ZM21.4306 21.0122C21.5129 19.8723 22.1353 18.8039 23.1924 18.2286C24.2375 17.5826 25.4588 17.324 26.5393 16.7607C26.7272 16.6082 26.962 16.4203 26.9737 16.1737C26.9853 15.8682 26.8328 15.633 26.5625 15.5277C24.9184 15.1752 23.5562 16.2087 22.3585 17.2309C22.5111 16.4785 22.6283 15.6566 22.9808 14.9524C23.1571 14.7645 23.2627 14.5059 23.4975 14.3654C24.6603 13.7897 26.1165 13.6255 27.4201 13.719C28.4889 13.7893 29.4754 14.5525 29.8391 15.5277C30.027 15.9858 30.0154 16.5022 30.0503 16.9723L30.0624 23.3372C30.074 23.8893 30.3322 24.4064 30.661 24.8521H27.6193C27.2551 24.5229 27.0762 24.1121 26.9737 23.5958C26.1223 24.3474 24.3458 25.4635 23.2863 24.7232C22.1881 24.2294 21.1841 22.5736 21.4306 21.0122ZM26.8207 18.7981C26.7974 18.3575 26.4802 18.3113 26.257 18.3113C25.5291 18.4165 24.9021 19.0264 24.5543 19.6495C24.2429 20.2078 24.1695 20.6767 24.1431 21.1643C24.1404 21.69 24.1078 22.0802 24.3194 22.48C24.4366 22.7378 24.6952 22.8554 24.9421 22.9257C25.4115 23.0197 25.8467 22.8908 26.2104 22.6442C27.0676 22.1621 26.9147 21.1989 26.9267 20.3421L26.8207 18.7981ZM72.2338 23.3725C72.3863 23.5286 72.4628 23.7122 72.4628 23.9246C72.4628 24.1428 72.3863 24.3303 72.2322 24.4864C72.0789 24.6416 71.8941 24.7193 71.6771 24.7193C71.4601 24.7193 71.2745 24.642 71.1211 24.4879C71.046 24.4149 70.9866 24.3272 70.9467 24.2303C70.9068 24.1334 70.8871 24.0294 70.889 23.9246C70.889 23.7115 70.9647 23.5282 71.1172 23.3725C71.271 23.2134 71.4577 23.1346 71.6767 23.1346C71.8941 23.1346 72.0793 23.2134 72.2338 23.3725ZM72.3514 23.2506C72.2641 23.1606 72.1592 23.0894 72.0433 23.0414C71.9274 22.9934 71.8029 22.9696 71.6775 22.9715C71.4267 22.9715 71.2081 23.0581 71.0217 23.2301C70.8238 23.4153 70.7244 23.6462 70.7244 23.9246C70.7244 24.1929 70.816 24.4188 70.9996 24.6024C71.184 24.7868 71.41 24.8785 71.6775 24.8785C71.9376 24.8785 72.1596 24.7884 72.3456 24.6094C72.4381 24.5214 72.5114 24.415 72.5605 24.2971C72.6097 24.1792 72.6338 24.0523 72.6313 23.9246C72.6313 23.6614 72.5381 23.437 72.3514 23.2506ZM71.7959 23.8528C71.7504 23.8809 71.6974 23.8945 71.6441 23.8916H71.5365V23.5853H71.6041C71.6732 23.5853 71.726 23.5923 71.7648 23.6074C71.8215 23.6296 71.8498 23.6695 71.8498 23.7274C71.8494 23.7852 71.8312 23.8268 71.7959 23.8528ZM71.5365 24.0818H71.5948L71.6553 24.0857C71.6876 24.0862 71.7196 24.0919 71.75 24.1024C71.7679 24.1087 71.784 24.1189 71.7974 24.1323C71.8108 24.1457 71.821 24.1618 71.8273 24.1797C71.8362 24.2026 71.8417 24.2457 71.844 24.3093C71.8471 24.373 71.8521 24.4215 71.8615 24.4557H72.1255L72.1165 24.4262C72.1095 24.4063 72.1063 24.3852 72.1072 24.3641V24.2693C72.1072 24.1618 72.0762 24.083 72.014 24.0329C71.9692 24.0015 71.9179 23.9808 71.8638 23.9724C71.9304 23.9669 71.994 23.9421 72.0467 23.9009C72.0967 23.8613 72.1208 23.7969 72.1208 23.7084C72.1208 23.5915 72.0746 23.5073 71.9807 23.456C71.9158 23.4232 71.8448 23.4045 71.7722 23.4013C71.6995 23.3998 71.6267 23.3993 71.554 23.3997C71.4236 23.3989 71.3257 23.3989 71.2597 23.3989V24.4561H71.5365V24.0818Z" fill="#B01842"/>
</svg>
