<svg width="46" height="19" viewBox="0 0 46 19" fill="none" xmlns="http://www.w3.org/2000/svg">
<path d="M29.4901 18.7403C25.5106 18.7403 21.519 18.7403 17.5395 18.7403C16.8501 18.5026 16.6082 18.0152 16.6082 17.302C16.6323 12.2379 16.6323 7.1857 16.6082 2.12163C16.6082 1.43216 16.838 0.956658 17.4428 0.647583C21.6641 0.647583 25.8976 0.647583 30.119 0.647583C30.4335 0.861558 30.4698 1.20629 30.3247 1.46782C30.24 1.62236 29.9134 1.71746 29.6836 1.72934C27.6757 1.75312 25.6678 1.75312 23.6599 1.74123C22.1843 1.72934 22.3173 1.71746 22.3173 3.07263C22.3173 6.94795 22.3173 10.8233 22.3173 14.7105C22.3173 15.293 22.4141 15.3762 22.9947 15.3762C23.7083 15.3762 24.4099 15.3643 25.1235 15.3762C25.5227 15.3881 25.7162 15.2335 25.7162 14.8294C25.7162 13.7119 25.7162 12.6064 25.7162 11.489C25.7162 11.0967 25.5348 10.9184 25.1477 10.9184C24.9784 10.9184 24.809 10.9184 24.6518 10.8827C24.1196 10.7876 23.8535 10.4785 23.8414 9.93171C23.8414 9.5632 23.8414 9.19469 23.8414 8.81429C23.8414 7.8514 24.0591 7.63743 25.0267 7.62554C26.3452 7.61365 27.6515 7.61365 28.9699 7.61365C29.9013 7.61365 30.373 8.08915 30.373 9.01637C30.373 11.7624 30.3609 14.5084 30.3851 17.2663C30.3972 17.9795 30.1674 18.4788 29.4901 18.7403Z" fill="#DC1A21"/>
<path d="M45.5165 18.7403C41.537 18.7403 37.5455 18.7403 33.566 18.7403C32.8644 18.455 32.6709 17.9201 32.6709 17.2187C32.683 12.1903 32.683 7.16193 32.6709 2.13352C32.6709 1.43216 32.9007 0.932883 33.5539 0.647583C34.8844 0.647583 36.2149 0.647583 37.5334 0.647583C38.2107 0.99232 38.4284 1.53914 38.4284 2.28806C38.4043 5.93752 38.4163 9.58697 38.4163 13.2364C38.4163 14.1518 38.6341 14.3657 39.5533 14.3776C41.3193 14.3776 43.0853 14.3776 44.8392 14.3895C45.5044 14.4014 45.7584 14.6748 45.7584 15.3286C45.7584 16.2677 45.7705 17.195 45.7463 18.1341C45.7463 18.3243 45.6012 18.5264 45.5165 18.7403Z" fill="#DC1A21"/>
<path d="M14.286 2.14503C14.286 1.41989 14.0441 0.920615 13.3667 0.635315C9.38727 0.635315 5.39569 0.635315 1.41621 0.635315C0.968669 0.789852 0.71466 1.13459 0.509033 1.52688C0.509033 6.97135 0.509033 12.4039 0.509033 17.8484C0.690468 18.2645 0.968669 18.5854 1.41621 18.74C2.74673 18.74 4.07726 18.74 5.39569 18.74C6.07305 18.4547 6.27867 17.9435 6.24239 17.2421C6.2061 16.4457 6.23029 15.6373 6.24239 14.8409C6.25448 14.3059 6.37544 14.1871 6.91975 14.1871C8.95182 14.1871 10.9839 14.1871 13.0281 14.1871C13.8627 14.1871 14.2739 13.7829 14.2739 12.9626C14.2739 9.34884 14.2618 5.74693 14.286 2.14503ZM8.57685 12.4158C8.57685 12.9626 8.43171 13.1053 7.8874 13.1053C7.51243 13.1053 7.13747 13.1053 6.7625 13.1053C6.43592 13.1053 6.26658 12.927 6.24239 12.606C6.24239 12.5228 6.24239 12.4277 6.24239 12.3445C6.24239 9.06354 6.24239 5.7826 6.24239 2.51354C6.24239 1.83595 6.35125 1.74085 7.01651 1.72896C7.28262 1.72896 7.56082 1.72896 7.82692 1.72896C8.4438 1.72896 8.56476 1.84784 8.57685 2.4541C8.57685 4.11835 8.57685 5.7826 8.57685 7.43496C8.57685 9.09921 8.57685 10.7516 8.57685 12.4158Z" fill="#DC1A21"/>
</svg>
