<svg width="28" height="41" viewBox="0 0 28 41" fill="none" xmlns="http://www.w3.org/2000/svg">
<g clip-path="url(#clip0_7_636)">
<path d="M6.47894 28.6007C4.97127 27.1749 3.36695 25.9322 1.59833 24.8436C1.59833 24.8436 2.05257 23.7165 2.2072 23.1577C3.4346 18.6203 2.34251 14.9691 0.332275 10.817C0.332275 10.817 3.53125 11.1735 5.59947 10.9712C8.56649 10.6821 11.2146 9.86329 13.9013 8.53384C18.5597 10.8459 22.3868 11.3758 27.4704 10.817C25.0833 15.7302 24.1555 19.8052 26.2043 24.8436C26.2043 24.8436 25.0059 25.5757 24.2618 26.1249C18.9462 30.0554 16.2788 34.1882 13.9013 40.3634C12.0747 35.6333 10.2288 32.1555 6.47894 28.6007Z" fill="#132530"/>
<path d="M7.20384 27.8011C9.53301 30.0072 12.2391 33.2056 13.9014 37.2613C15.8536 32.4927 19.5745 28.2442 23.7013 25.2C24.2715 24.7761 24.6871 24.5064 24.8804 24.3812C24.4454 23.2058 24.2232 21.9246 24.1072 20.6915C23.9139 18.4276 24.1072 15.3544 25.6245 12.0694C21.7394 12.3391 17.342 11.3661 13.8917 9.67059C10.4415 11.3661 6.03443 12.3391 2.15894 12.0694C3.80191 15.6049 4.20783 19.7185 3.19305 23.4756C3.07707 23.9091 2.97076 24.2174 2.91277 24.3812C4.44944 25.3638 5.8798 26.5584 7.20384 27.8011Z" fill="#005595"/>
<path d="M7.30035 27.7433C9.59086 29.9109 12.2679 33.0707 13.9013 37.059C15.8148 32.3675 19.4874 28.1768 23.5562 25.1711C24.1167 24.7569 24.5323 24.4871 24.7256 24.3619C24.3003 23.2059 24.0781 21.9439 23.9717 20.73C23.7785 18.495 23.9717 15.4701 25.4698 12.2332C21.6426 12.4933 17.3032 11.5395 13.9109 9.87292C10.509 11.5395 6.1696 12.4933 2.35209 12.2332C3.95641 15.7205 4.36232 19.7667 3.35721 23.466C3.24123 23.8899 3.13492 24.1981 3.07693 24.3619C4.58461 25.3349 6.0053 26.5102 7.30035 27.7433ZM7.0684 27.9842C5.72503 26.7125 4.24635 25.4698 2.66136 24.5064C2.66136 24.5064 2.86431 24.0151 3.02861 23.3889C4.08205 19.4873 3.54083 15.499 1.77222 11.8382C1.77222 11.8382 3.50218 12.0309 5.68637 11.8189C8.54708 11.5395 11.3208 10.7689 13.9013 9.48758C17.4095 11.2313 22.0678 12.2813 26.0303 11.8382C24.2617 15.4893 23.7205 19.4777 24.7739 23.3793C24.9479 24.0151 25.1508 24.4968 25.1508 24.4968C25.1508 24.4968 24.542 24.8629 23.7688 25.4409C19.4004 28.6681 15.8825 32.878 13.9109 37.9839C12.3743 34.0341 10.1127 30.8742 7.0684 27.9842Z" fill="white"/>
<path d="M4.73942 15.3256C3.67632 9.51647 3.80196 3.65922 3.80196 3.65922L13.9014 0.114044L23.9913 3.65922C23.9913 3.65922 24.1266 9.51647 23.0538 15.3256C21.8167 22.0402 19.5649 28.1672 13.8918 32.512C8.22833 28.1672 5.97648 22.0402 4.73942 15.3256Z" fill="#132530"/>
<path d="M6.23731 15.0076C7.28108 20.6915 9.44595 27.1557 13.9013 30.6912C20.5892 25.3734 22.5704 12.7341 22.5125 4.63222L13.9013 1.59763L5.28052 4.63222C5.28052 5.60522 5.30951 9.95962 6.23731 15.0076Z" fill="#5D9741"/>
<path d="M6.42092 15.0269C7.4357 20.5663 9.55224 26.8667 13.8916 30.3251C20.4152 25.1326 22.3385 12.8112 22.2902 4.90197L13.8916 1.94444L5.49312 4.9116C5.49312 5.87497 5.52212 10.1138 6.42092 15.0269ZM5.84105 15.1329C4.80694 9.47794 4.91325 4.49736 4.91325 4.49736L13.8916 1.33752L22.87 4.49736C22.87 4.49736 22.9763 9.47795 21.9422 15.1425C20.8985 20.8167 18.7626 27.3387 13.8916 31.0765C9.03036 27.3387 6.89449 20.8071 5.84105 15.1329ZM11.8041 14.9402L11.1662 10.3064C10.5864 10.1427 9.49426 9.77659 9.49426 9.01553C8.93371 8.75542 8.34417 8.34118 8.34417 7.75352C8.34417 7.07917 9.09801 6.63602 9.76486 6.36628C10.1901 5.87497 11.0213 5.53779 11.9587 5.34512C11.9974 5.07537 12.1617 4.81527 12.3453 4.65149C12.6062 4.42992 12.8769 4.27578 13.1571 4.16981L13.2441 4.05421L13.3987 2.05041C13.4954 1.48203 14.0849 1.54946 14.2589 1.75177C14.3362 1.82884 14.3942 1.94444 14.4039 2.06005L14.5682 4.05421L14.6551 4.17945C15.6313 4.56479 15.8246 5.05611 15.8729 5.34512C16.791 5.46072 17.6222 5.87497 18.0474 6.37591C18.7046 6.64566 19.4681 7.0888 19.4681 7.76316C19.4681 8.35081 18.8786 8.76506 18.318 9.0348C18.318 9.82476 17.2452 10.1812 16.6364 10.3353L15.9985 14.9498L11.8041 14.9402Z" fill="white"/>
<path d="M12.2488 14.9402L11.553 9.95962C10.6735 9.75731 9.92931 9.4105 9.92931 9.02515C9.92931 8.93845 9.95831 8.85175 10.0163 8.77468C9.30112 8.4953 8.86621 8.13886 8.86621 7.75351C8.86621 7.35854 9.30112 7.00209 10.0356 6.72271C10.3642 6.25067 11.2727 5.87496 12.4518 5.70155C12.2295 5.36437 12.6354 4.96939 12.6354 4.96939C12.8963 4.74782 13.1669 4.61295 13.4279 4.53588L13.6695 4.1987L13.8241 2.08894C13.9015 1.79029 13.9884 2.08894 13.9884 2.08894L14.1431 4.1987L14.3267 4.44918C15.0032 4.65148 15.2835 4.97903 15.2835 4.97903L15.1482 4.96939C14.52 5.04646 14.3557 5.37401 14.375 5.59558C16.0277 5.67265 17.371 6.1158 17.7769 6.71308C18.5018 6.99246 18.9464 7.3489 18.9464 7.74388C18.9464 8.12923 18.5115 8.4953 17.7963 8.76505C17.8543 8.84211 17.8833 8.92882 17.8833 9.01552C17.8833 9.40087 17.2357 9.74768 16.2403 9.95962L15.5541 14.9306H15.1965L15.5734 10.2583C15.5831 10.2005 15.5928 10.0463 15.3898 10.0849C15.2448 10.1138 14.8872 10.1619 14.8872 10.1619C14.7229 10.1908 14.7133 10.2968 14.7133 10.3642V14.9209H13.0896V10.3835C13.0896 10.3835 13.1283 10.1908 12.9157 10.1523L12.4228 10.0752C12.1715 10.0271 12.2198 10.239 12.2198 10.239L12.6064 14.9209L12.2488 14.9402Z" fill="#132530"/>
<path d="M15.4671 6.81904C15.1095 6.73233 14.7616 6.68417 14.3943 6.70343L14.52 6.636C14.9162 6.41442 15.5444 6.35662 16.0277 6.47223C16.4529 6.5782 17.5547 7.18512 17.2841 7.90764C17.1391 7.7535 16.9941 7.60899 16.8298 7.48376C16.8298 7.48376 16.6752 7.54156 16.7235 7.7246C17.0231 8.01361 17.1971 8.39895 17.0618 8.74576C16.6559 8.17738 15.7571 7.6957 15.0709 7.47412L15.0129 7.45486C15.3898 7.17548 15.8924 7.21402 16.3176 7.43559C16.3176 7.43559 16.4722 7.35852 16.4239 7.21402C16.1243 7.03098 15.8054 6.90574 15.4671 6.81904ZM10.9441 27.7626C11.4466 24.4486 11.7946 23.0517 11.9782 19.651H15.8247C16.0277 23.1577 16.3949 24.4486 16.9361 27.7818L13.9015 30.8549L10.9441 27.7626Z" fill="white"/>
<path d="M11.3016 28.0034C11.5626 26.5873 12.2681 23.3793 12.4421 19.6607H15.3511C15.5251 23.3793 16.2209 26.568 16.4819 27.9938L15.7957 28.8415C15.4767 27.2809 15.2931 26.3464 15.0032 24.7954C14.9549 24.5449 14.8969 24.4101 14.7906 24.4197C14.7036 24.4293 14.6649 24.5449 14.6552 24.8243L14.3073 30.0746L13.8917 30.7008L13.4762 30.0746L13.1379 24.8243C13.1282 24.5449 13.0896 24.4293 13.0026 24.4197C12.8963 24.4101 12.8286 24.5449 12.79 24.7954C12.5 26.3464 12.3261 27.252 12.0072 28.8126L11.3016 28.0034ZM0.129395 15.0654C4.64275 13.1387 8.98214 12.1657 13.9014 12.1657C18.8207 12.1657 23.1601 13.1483 27.6734 15.0654V23.7164C22.9861 21.7223 19.014 20.6722 13.9014 20.6722C8.78885 20.6722 4.81671 21.7223 0.129395 23.7164V15.0654Z" fill="#132530"/>
<path d="M0.999268 15.6242V22.5701C4.98107 20.8745 9.37845 19.9304 13.9788 19.9304C18.5888 19.9304 22.9765 20.8745 26.9583 22.5701V15.6242C22.9668 13.9287 18.5888 12.9846 13.9788 12.9846C9.37845 12.9846 4.99074 13.9287 0.999268 15.6242Z" fill="white"/>
<path d="M6.97177 15.7783C6.97177 16.0385 7.0974 16.077 7.39701 16.0192L7.80292 15.9421C8.24749 15.8554 8.34414 15.788 8.34414 15.4604C8.34414 15.104 8.22816 15.0944 7.70627 15.2003C7.34868 15.2678 7.31003 15.2774 7.31003 15.1714C7.31003 15.104 7.35835 15.0655 7.43567 15.0558L7.80292 14.9884C7.95755 14.9595 7.96722 14.998 7.96722 15.0847L8.30548 15.0173V14.9788C8.30548 14.7668 8.26682 14.6223 7.88024 14.6994L7.41634 14.7861C6.9911 14.8631 6.97177 15.0366 6.97177 15.2581C6.97177 15.5568 7.02975 15.6146 7.53231 15.5086C7.96722 15.4219 8.00588 15.4219 8.00588 15.5279C8.00588 15.6242 7.92856 15.6435 7.86091 15.6531L7.455 15.7302C7.35835 15.7494 7.31003 15.7494 7.31003 15.6242L6.97177 15.6916V15.7783ZM9.34925 15.6627L10.5573 15.5086V15.2196L9.67785 15.3256V15.1329L10.3737 15.0462L10.4897 14.7861L9.67785 14.8824V14.6897L10.538 14.5838V14.3044L9.34925 14.4489V15.6627ZM12.2486 14.4585L12.4612 14.892L12.036 14.9209L12.2486 14.4585ZM11.4368 15.4412L11.8041 15.4123L11.9007 15.1907L12.5772 15.1425L12.6835 15.3545L13.0508 15.3256L12.4516 14.1599L12.0167 14.1888L11.4368 15.4412ZM13.6983 14.4296L14.1719 14.4393V15.3448L14.5101 15.3545V14.4489L14.9837 14.4585V14.1599L13.708 14.1406V14.4296M15.6216 14.4874L16.0951 14.5163V15.4219L16.4237 15.4412V14.5356L16.8973 14.5645V14.2755L15.6216 14.1888V14.4874ZM17.7671 15.576L18.8495 15.7302V15.4219L18.1054 15.3159V14.42L17.7671 14.3718V15.576ZM19.6034 15.8554L20.8114 16.0866V15.7976L19.9416 15.6242V15.4315L20.6181 15.5568L20.7534 15.3352L19.9416 15.1811V14.9884L20.8018 15.1522V14.8728L19.613 14.6416L19.6034 15.8554ZM5.12583 17.628C4.71026 17.734 4.42998 18.1868 4.42998 18.7166C4.42998 19.2465 4.71026 19.5547 5.12583 19.4488C5.54141 19.3428 5.82168 18.8804 5.82168 18.3505C5.83135 17.8303 5.55107 17.522 5.12583 17.628ZM5.11617 20.0557C4.29468 20.2676 3.77279 19.7474 3.77279 18.89C3.77279 18.023 4.32367 17.2234 5.1355 17.0114C5.94732 16.7995 6.47887 17.3197 6.47887 18.1868C6.47887 19.0441 5.92799 19.8437 5.11617 20.0557ZM11.6011 15.9517L11.6108 18.7937L9.79382 17.3679L10.0644 17.7725L10.0548 18.89L9.38791 18.9671V16.1059L10.9342 17.3872L10.9439 16.0095L11.6011 15.9517ZM13.0798 18.0808C13.4374 18.0904 13.534 17.8688 13.534 17.6665V16.9055C13.534 16.3371 13.1571 16.4623 12.8092 16.4431V18.1L13.0798 18.0808ZM14.0849 16.761V17.6762C14.0849 18.418 13.505 18.6781 13.1958 18.6684C12.6352 18.6877 12.2003 18.6877 12.2003 18.6877V16.1926L11.9587 15.9132C11.9587 15.9132 12.6642 15.865 13.2827 15.865C13.679 15.8939 14.0849 16.0385 14.0849 16.761ZM16.3754 15.971V16.549L15.293 16.4816L15.2833 17.0211L16.2111 17.0982L15.9018 17.5702L15.293 17.5124V18.1L16.3851 18.1868L16.3947 18.7551L14.6648 18.6588L14.6551 17.233L14.3362 16.9344L14.6551 16.9633V15.8747L16.3754 15.971ZM17.9894 16.6839L17.5062 16.6068V17.3294L17.9894 17.4064C18.2117 17.4353 18.3663 17.3101 18.3663 17.0982C18.3663 16.8862 18.2213 16.7128 17.9894 16.6839ZM18.3953 18.9863L17.8734 17.8207L17.5062 17.7629V18.8515L16.9843 18.7744V16.2504L16.7426 16.0095L18.0184 16.2022C18.5596 16.2793 18.8785 16.7128 18.8785 17.1656C18.8785 17.5509 18.6562 17.7532 18.3953 17.811L18.9848 19.073L18.3953 18.9863ZM17.9894 17.445L17.4675 17.3679V16.549L18.0087 16.6261L17.999 16.6743L17.9894 16.7224L17.5545 16.6646V17.2908L18.0087 17.3583H18.086C18.2407 17.3486 18.3276 17.2619 18.3276 17.0982C18.3276 16.9151 18.1923 16.761 17.9894 16.7224L17.999 16.6743L18.0087 16.6261C18.2503 16.6646 18.4243 16.8477 18.4243 17.0885C18.4243 17.2908 18.289 17.4353 18.0957 17.445H17.9894ZM18.9172 19.0152L18.3373 17.7821L18.3953 17.7725C18.6369 17.7147 18.8399 17.5413 18.8399 17.1752C18.8399 16.7417 18.5306 16.3371 18.0184 16.26L16.8876 16.0963L17.0326 16.2408V18.7455L17.4578 18.8129V17.7243L17.9121 17.7918L18.434 18.9574L18.9172 19.0152ZM18.3373 18.9767L17.8444 17.8688L17.5545 17.8207V18.8707L16.9456 18.8033V16.3178L16.646 15.9903L18.086 16.1444C18.6466 16.2311 18.9365 16.6839 18.9365 17.1656C18.9365 17.5413 18.7239 17.7629 18.4726 17.8399L19.0525 19.0923L18.3373 18.9767ZM20.1349 19.3524C19.8256 19.2946 19.4584 19.0923 19.2168 18.89L19.3811 18.3313C19.6034 18.5432 19.8933 18.6973 20.1446 18.7551C20.3669 18.8033 20.4538 18.707 20.4442 18.5721C20.4442 18.4276 20.3765 18.312 19.9513 18.0615C19.4681 17.7629 19.2941 17.445 19.2941 17.1078C19.2844 16.6935 19.6034 16.366 20.2412 16.4912C20.5408 16.549 20.8404 16.7224 21.0047 16.8573L20.8598 17.4064C20.7051 17.2619 20.4442 17.0981 20.2509 17.0596C20.0189 17.0114 19.932 17.1078 19.932 17.2234C19.932 17.4064 20.0769 17.4931 20.4152 17.7147C20.9274 18.0326 21.082 18.3216 21.0917 18.6781C21.1014 19.1212 20.7921 19.4777 20.1349 19.3524ZM7.79325 19.391C7.11673 19.5066 6.74948 19.1597 6.74948 18.3505V16.6646L7.32936 16.5394V18.1868C7.32936 18.601 7.48399 18.8226 7.81258 18.7648C8.14118 18.707 8.28615 18.4276 8.28615 18.0037V16.3564L9.08831 16.2311L8.86602 16.5009V17.9459C8.86602 18.7744 8.46978 19.2657 7.79325 19.391ZM2.61304 20.9805C2.29411 21.0961 1.90753 21.1057 1.65625 21.019L1.83988 20.3158C2.07183 20.4121 2.36176 20.4121 2.63237 20.3158C2.86432 20.2291 2.9513 20.0846 2.9513 19.9401C2.9513 19.7859 2.87399 19.6992 2.44875 19.68C1.94619 19.6511 1.78189 19.4006 1.78189 19.0441C1.78189 18.601 2.12015 18.0519 2.77734 17.811C3.08661 17.6954 3.40554 17.6954 3.56984 17.7532L3.40554 18.4372C3.24124 18.3794 2.9803 18.3505 2.77734 18.418C2.53573 18.5047 2.43908 18.6588 2.43908 18.784C2.43908 18.9863 2.58405 18.996 2.93197 19.0249C3.46353 19.073 3.61816 19.285 3.61816 19.6703C3.61816 20.152 3.28956 20.73 2.61304 20.9805ZM22.3578 18.206V16.9729L24.0781 17.4353V18.0519L22.986 17.7629V18.3698L23.9331 18.6203L23.6238 19.0441L22.9956 18.8804V20.0557L22.3674 19.8919V18.4758L22.0485 18.1193L22.3578 18.206ZM22.3578 18.4661L22.0678 18.1386L22.3578 18.4661ZM25.5181 21.0576C24.6483 20.7397 24.0587 19.8919 24.0587 19.0345C24.0587 18.1771 24.6483 17.7532 25.5181 18.0711C25.8274 18.1867 26.1076 18.3891 26.3492 18.6299L26.1559 19.1308C25.9627 18.9382 25.7404 18.784 25.5181 18.707C25.0155 18.5239 24.7063 18.7455 24.7063 19.285C24.7063 19.8245 25.0155 20.2676 25.5181 20.4507C25.7404 20.5277 25.982 20.547 26.1849 20.4796L26.3686 21.1154C26.1463 21.1828 25.8274 21.1732 25.5181 21.0576Z" fill="#132530"/>
</g>
<defs>
<clipPath id="clip0_7_636">
<rect width="27.5382" height="40.2493" fill="white" transform="translate(0.127441 0.114044)"/>
</clipPath>
</defs>
</svg>
