<svg width="76" height="36" viewBox="0 0 76 36" fill="none" xmlns="http://www.w3.org/2000/svg">
<g clip-path="url(#clip0_7_1185)">
<path d="M34.2119 8.86192C34.2119 8.18335 34.4938 7.71537 35.0576 7.45797C35.6448 7.20058 36.279 7.06019 36.9602 7.03679C38.1817 6.99001 39.1448 7.2591 39.8494 7.84407C40.5776 8.42904 40.9417 8.72152 40.9417 8.72152H40.977V7.73876C40.977 7.73876 40.5542 7.59837 39.7086 7.31758C38.8864 7.01339 37.9703 6.86131 36.9602 6.86131C36.3495 6.86131 35.6214 7.0251 34.7757 7.35268C33.9536 7.68027 33.5425 8.35884 33.5425 9.3884C33.5425 10.418 33.9066 11.0731 34.6348 11.3539C35.363 11.6113 36.1616 11.7751 37.0307 11.8453C37.9233 11.8921 38.7454 11.9623 39.4971 12.0559C40.2253 12.1495 40.5894 12.5473 40.5894 13.2492C40.5894 14.0214 40.2018 14.5128 39.4267 14.7234C38.675 14.9106 38.1465 15.0159 37.8411 15.0393C36.4317 15.0393 35.41 14.7351 34.7757 14.1267C34.165 13.5183 33.8596 13.2141 33.8596 13.2141C33.8361 13.2141 33.8126 13.2141 33.7892 13.2141C33.7892 13.2141 33.7774 13.2141 33.7539 13.2141L33.8244 14.4777C33.8244 14.4777 34.2824 14.6064 35.1985 14.8638C36.1146 15.0978 36.9602 15.2148 37.7354 15.2148C39.2622 15.2148 40.2723 14.8521 40.7655 14.1267C41.2588 13.4013 41.5055 12.8983 41.5055 12.6175C41.482 11.5411 41.0944 10.8625 40.3427 10.5817C39.5911 10.301 38.7572 10.1372 37.8411 10.0904C36.925 10.0436 36.0911 9.98509 35.3394 9.91488C34.5878 9.84468 34.2119 9.49369 34.2119 8.86192ZM31.7808 5.59776L29.7724 4.89579C29.561 4.80219 29.3378 4.79048 29.1029 4.86065C28.8915 4.93085 28.7271 5.07124 28.6096 5.28184L31.2875 6.19439C31.3579 6.0774 31.4284 5.9721 31.4989 5.87851C31.5928 5.78491 31.6868 5.69135 31.7808 5.59776ZM29.2439 11.0731L28.1164 10.687L26.8479 10.2308C26.8479 10.3712 26.9536 10.5466 27.165 10.7572C27.3999 10.9678 27.5174 11.0731 27.5174 11.0731C27.5174 11.0731 27.3999 11.1784 27.165 11.389C26.9536 11.5996 26.8479 11.7751 26.8479 11.9155L28.1164 11.4592L29.2439 11.0731ZM33.7891 4.15872L31.3579 3.31635C31.123 3.24615 30.8764 3.23444 30.618 3.28122C30.3831 3.328 30.1717 3.4333 29.9838 3.59711L32.9435 4.61497C33.0844 4.54477 33.2254 4.47457 33.3663 4.40437C33.5072 4.31078 33.6482 4.22891 33.7891 4.15872ZM30.5475 7.28249L28.6449 6.61561C28.4335 6.54541 28.2338 6.55712 28.0459 6.65074C27.858 6.72094 27.717 6.84963 27.6231 7.03683L30.1952 7.9494C30.2422 7.8324 30.2891 7.7154 30.3361 7.5984C30.4066 7.48141 30.4771 7.37609 30.5475 7.28249ZM29.7724 9.1427L27.905 8.51094C27.6936 8.44074 27.5056 8.46413 27.3412 8.58111C27.1768 8.67471 27.0711 8.81511 27.0241 9.0023L29.5962 9.87975C29.6432 9.76276 29.6667 9.64577 29.6667 9.52878C29.6902 9.38838 29.7254 9.2597 29.7724 9.1427ZM37.3478 3.28125C37.6297 3.28125 37.8998 3.30464 38.1582 3.35142C38.4401 3.37485 38.7102 3.40994 38.9686 3.45672L42.8444 2.08788C42.586 1.92408 42.3041 1.83048 41.9987 1.80709C41.6934 1.78367 41.3998 1.83046 41.1179 1.94748L37.3478 3.24612L33.6129 1.98257C33.3311 1.86558 33.0374 1.83048 32.7321 1.87728C32.4267 1.9007 32.1448 1.9943 31.8865 2.15807L35.727 3.49182C35.9854 3.42162 36.2438 3.37482 36.5022 3.35142C36.784 3.30464 37.0659 3.28125 37.3478 3.28125ZM44.5004 7.91426L47.1077 7.0017C47.0138 6.81451 46.8611 6.68581 46.6497 6.61561C46.4618 6.52201 46.2739 6.5103 46.0859 6.58048L44.1833 7.24736C44.2302 7.36435 44.2772 7.48134 44.3242 7.59833C44.3947 7.69193 44.4534 7.79726 44.5004 7.91426ZM43.4081 6.15934L46.0859 5.24677C45.9685 5.05957 45.7923 4.93088 45.5574 4.86069C45.346 4.79049 45.1346 4.79049 44.9232 4.86069L42.8796 5.56266C42.9736 5.65626 43.0675 5.76155 43.1615 5.87855C43.2554 5.97214 43.3377 6.06574 43.4081 6.15934ZM41.7521 4.615L44.747 3.59714C44.5591 3.43335 44.336 3.32805 44.0776 3.28125C43.8427 3.23446 43.6078 3.24618 43.3729 3.31638L40.9065 4.15875C41.0474 4.20553 41.1884 4.27572 41.3293 4.36933C41.4702 4.43953 41.6112 4.5214 41.7521 4.615ZM40.0609 0.929651C40.0139 0.929651 39.9552 0.917939 39.8847 0.894518C39.8142 0.871096 39.7555 0.859385 39.7085 0.859385C39.3796 0.765789 39.0391 0.730692 38.6867 0.754089C38.3344 0.777511 38.0055 0.847705 37.7001 0.964681L37.3478 1.10508L36.9955 0.999779C36.6431 0.882786 36.279 0.812592 35.9032 0.789195C35.5508 0.765773 35.1867 0.80087 34.8109 0.894484C34.7874 0.917905 34.7522 0.941292 34.7052 0.964653C34.6817 0.964653 34.6465 0.964653 34.5995 0.964653L37.3126 1.91232L40.0609 0.929651ZM45.0994 9.84468L47.6715 8.93212C47.6245 8.74493 47.5188 8.60453 47.3544 8.51094C47.19 8.39394 47.002 8.37054 46.7906 8.44076L44.9232 9.10763C44.9702 9.22463 45.0054 9.35333 45.0289 9.49372C45.0524 9.61072 45.0759 9.72768 45.0994 9.84468ZM31.2522 15.9869L28.5744 16.9346C28.6919 17.1218 28.8563 17.2505 29.0677 17.3207C29.3026 17.3675 29.5257 17.3675 29.7372 17.3207L31.7455 16.5836C31.6516 16.49 31.5576 16.3964 31.4636 16.3028C31.3932 16.2092 31.3227 16.1039 31.2522 15.9869ZM44.1833 14.934L46.0859 15.6008C46.2739 15.671 46.4618 15.671 46.6497 15.6008C46.8611 15.5072 47.0138 15.3668 47.1077 15.1797L44.5356 14.3022C44.4887 14.3958 44.4299 14.5011 44.3595 14.6181C44.3125 14.7351 44.2538 14.8404 44.1833 14.934ZM40.9417 18.0928L43.3729 18.9001C43.6078 18.9937 43.8427 19.0171 44.0776 18.9703C44.336 18.9235 44.5591 18.8065 44.747 18.6193L41.7873 17.6015C41.6464 17.6717 41.5055 17.7536 41.3645 17.8472C41.2236 17.9174 41.0827 17.9992 40.9417 18.0928ZM42.9501 16.6187L44.9584 17.3207C45.1698 17.4143 45.3813 17.426 45.5927 17.3558C45.8276 17.2856 46.0037 17.1569 46.1212 16.9697L43.4434 16.022C43.3729 16.139 43.2907 16.2443 43.1967 16.3379C43.1028 16.4315 43.0205 16.5251 42.9501 16.6187ZM47.1077 11.0731C47.1077 11.0731 47.2369 10.9678 47.4953 10.7572C47.7537 10.5233 47.8829 10.3478 47.8829 10.2308L46.4735 10.687L45.346 11.0731L46.4735 11.4592L47.8829 11.9506C47.8829 11.8102 47.7537 11.6347 47.4953 11.4241C47.2369 11.1901 47.1077 11.0731 47.1077 11.0731ZM44.9584 13.0737L46.8259 13.7055C47.0373 13.7757 47.2252 13.764 47.3896 13.6704C47.554 13.5768 47.6598 13.4247 47.7067 13.2141L45.1346 12.3367C45.0877 12.4536 45.0524 12.5823 45.0289 12.7227C45.0289 12.8397 45.0054 12.9567 44.9584 13.0737ZM29.5962 12.3016L27.0241 13.2141C27.0476 13.4013 27.1416 13.5417 27.306 13.6353C27.4939 13.7289 27.6936 13.7406 27.905 13.6705L29.7724 13.0387C29.7254 12.9217 29.6902 12.8047 29.6667 12.6877C29.6432 12.5473 29.6197 12.4186 29.5962 12.3016ZM32.873 17.5313L29.9133 18.5842C30.1012 18.7714 30.3126 18.8884 30.5475 18.9352C30.8059 18.982 31.0643 18.9586 31.3227 18.865L33.7186 18.0577C33.5777 17.9641 33.4368 17.8822 33.2958 17.812C33.1784 17.7185 33.0374 17.6249 32.873 17.5313ZM30.1952 14.232L27.6231 15.1095C27.717 15.3201 27.858 15.4721 28.0459 15.5657C28.2338 15.6359 28.4335 15.6359 28.6449 15.5657L30.5475 14.934C30.4536 14.817 30.3831 14.7 30.3361 14.583C30.2892 14.466 30.2422 14.349 30.1952 14.232ZM37.3478 18.9352C37.0424 18.9352 36.7488 18.9235 36.4669 18.9001C36.1851 18.8533 35.9032 18.8065 35.6213 18.7597L31.816 20.0584C32.0744 20.2222 32.3445 20.3275 32.6264 20.3743C32.9317 20.3976 33.2371 20.3625 33.5425 20.269L37.3126 18.9352L41.1179 20.269C41.3998 20.3626 41.6934 20.3976 41.9987 20.3743C42.3041 20.3509 42.586 20.2573 42.8444 20.0935L39.0391 18.7597C38.7572 18.8065 38.4753 18.8533 38.1934 18.9001C37.935 18.9235 37.6532 18.9352 37.3478 18.9352ZM34.529 21.2166C34.9519 21.3336 35.3629 21.3921 35.7622 21.3921C36.1851 21.3687 36.5961 21.2868 36.9955 21.1464L37.3126 21.0762L37.5944 21.1464C37.9938 21.2868 38.4048 21.3687 38.8276 21.3921C39.2739 21.4155 39.7085 21.3687 40.1313 21.2517L37.3126 20.2689L34.529 21.2166ZM76 26.8324V35.7474L69.1645 28.7277V35.5368H68.2132V26.6569L75.0487 33.6766V26.8324H76ZM60.7082 26.692C59.3693 26.692 58.2536 27.1249 57.361 27.9906C56.4919 28.8564 56.0573 29.921 56.0573 31.1846C56.0573 32.4715 56.4919 33.5479 57.361 34.4137C58.2536 35.2794 59.3693 35.7123 60.7082 35.7123C62.0472 35.7123 63.1629 35.2794 64.0555 34.4137C64.9481 33.5479 65.3944 32.4715 65.3944 31.1846C65.3944 29.921 64.9481 28.8564 64.0555 27.9906C63.1629 27.1249 62.0472 26.692 60.7082 26.692ZM60.7082 34.9401C59.6277 34.9401 58.7234 34.5775 57.9952 33.8521C57.267 33.1501 56.9029 32.261 56.9029 31.1846C56.9029 30.1316 57.267 29.2425 57.9952 28.5171C58.7234 27.7917 59.6277 27.4291 60.7082 27.4291C61.7888 27.4291 62.6931 27.7917 63.4213 28.5171C64.1495 29.2425 64.5136 30.1316 64.5136 31.1846C64.5136 32.261 64.1495 33.1501 63.4213 33.8521C62.6931 34.5775 61.7888 34.9401 60.7082 34.9401ZM47.8829 26.8324H54.1546V27.6045H51.5121V35.5719H50.5607V27.6045H47.9181V26.8324H47.8829ZM6.20053 33.3958C6.20053 34.0978 5.9304 34.6594 5.39014 35.0805C4.87337 35.5017 4.15694 35.7123 3.24084 35.7123C2.46568 35.7123 1.79623 35.5368 1.23247 35.1858C0.668722 34.8348 0.257655 34.3435 -0.000732422 33.7117L0.80966 33.3958C1.02107 33.8872 1.33818 34.2616 1.76099 34.519C2.2073 34.7997 2.71232 34.9401 3.27607 34.9401C3.91029 34.9401 4.40357 34.7997 4.75592 34.519C5.13175 34.2382 5.31967 33.8638 5.31967 33.3958C5.31967 32.8342 5.12001 32.4247 4.72069 32.1674C4.34485 31.91 3.81633 31.6409 3.13513 31.3601C2.38347 31.0559 1.77274 30.74 1.30294 30.4124C0.83315 30.0614 0.598253 29.5467 0.598253 28.8681C0.598253 28.2129 0.844896 27.6864 1.33818 27.2887C1.85495 26.8909 2.50092 26.692 3.27607 26.692C3.83982 26.692 4.3331 26.809 4.75592 27.043C5.17873 27.2536 5.53108 27.5811 5.81295 28.0257L5.0378 28.4118C4.84988 28.0842 4.60324 27.8385 4.29787 27.6747C4.016 27.511 3.66365 27.4291 3.24084 27.4291C2.77105 27.4291 2.35998 27.5694 2.00763 27.8502C1.67878 28.1076 1.51435 28.4352 1.51435 28.833C1.51435 29.301 1.71401 29.6637 2.11334 29.921C2.51266 30.155 2.98245 30.3773 3.52271 30.5879C4.43881 30.9857 5.10827 31.3718 5.53108 31.7462C5.97738 32.1206 6.20053 32.6704 6.20053 33.3958ZM15.9957 26.8324H16.947V35.5719H15.9957V32.0621H10.4287V35.5719H9.51257V26.8324H10.4287V31.2548H15.9605L15.9957 26.8324ZM21.7389 34.7997H26.2489V35.5719H20.8228V26.8324H26.1785V27.6045H21.7389V31.2548H25.6852V32.027H21.7389V34.7997ZM33.8596 31.9217L36.1851 35.5719H35.0928L32.9435 32.0972L32.9082 32.0621H31.3579L31.6398 31.2899H32.8378C33.4015 31.2899 33.8713 31.1144 34.2472 30.7634C34.6465 30.4124 34.8461 29.9678 34.8461 29.4297C34.8461 28.9149 34.6582 28.4937 34.2824 28.1661C33.9301 27.8151 33.472 27.6397 32.9082 27.6397H30.6532V35.607H29.7372V26.8324H32.9787C33.7774 26.8324 34.4468 27.0781 34.9871 27.5695C35.5508 28.0608 35.8327 28.6692 35.8327 29.3946C35.8327 29.9562 35.6683 30.4592 35.3394 30.9038C35.0106 31.3484 34.5643 31.6643 34.0005 31.8515L33.8596 31.9217ZM42.5273 26.6569L38.2287 35.5719H39.2152L40.4484 32.9395H44.5356L45.7336 35.4315L45.8041 35.5368H46.8259L42.5273 26.6569ZM40.836 32.1674L42.5273 28.5873L44.1833 32.1674H40.836Z" fill="#030303"/>
</g>
<defs>
<clipPath id="clip0_7_1185">
<rect width="76" height="35" fill="white" transform="translate(0 0.74707)"/>
</clipPath>
</defs>
</svg>
