<svg width="35" height="36" viewBox="0 0 35 36" fill="none" xmlns="http://www.w3.org/2000/svg">
<g clip-path="url(#clip0_7_649)">
<path d="M17.4616 35.62C27.0309 35.62 34.7884 27.7337 34.7884 18.0055C34.7884 8.27728 27.0309 0.390991 17.4616 0.390991C7.89223 0.390991 0.134766 8.27728 0.134766 18.0055C0.134766 27.7337 7.89223 35.62 17.4616 35.62Z" fill="#003278"/>
<path fill-rule="evenodd" clip-rule="evenodd" d="M17.4128 6.24695C11.2157 6.24713 6.11657 11.4896 6.11657 17.8605C6.1164 24.2315 11.2157 29.4742 17.4128 29.4744C23.4995 29.469 28.5439 24.407 28.6962 18.1514H33.8645V17.634H28.7014C28.5823 11.3519 23.5246 6.25015 17.4128 6.24695ZM6.11657 17.8605V17.634H0.897705V18.1514H6.11657V17.8605Z" fill="white"/>
<path fill-rule="evenodd" clip-rule="evenodd" d="M17.3984 1.12778C8.37515 1.12778 1.02264 8.51281 0.866699 17.6482V17.6489L6.12704 17.6536C6.20195 14.8095 7.29739 11.9876 9.43296 9.81609C10.3557 8.8779 11.4017 8.14754 12.5135 7.60114L12.4764 7.60362L12.8764 7.41876H12.8985C13.08 7.33834 13.2627 7.26148 13.4479 7.1912L13.4323 7.18746C13.5483 7.14334 13.6631 7.10117 13.7795 7.06167L13.7972 7.0663C13.9773 7.00456 14.1565 6.93926 14.3396 6.88606L14.3317 6.88535C14.4668 6.84621 14.6002 6.80938 14.7355 6.77539L14.757 6.78251C14.9719 6.72896 15.1872 6.67451 15.4042 6.6343L15.399 6.63253C15.4989 6.61384 15.598 6.59356 15.6986 6.5779L15.7163 6.58822C15.8535 6.56776 15.9911 6.54427 16.1292 6.5279L16.1159 6.52275C16.1857 6.51492 16.2578 6.50549 16.3278 6.49908C19.5905 6.17099 22.9664 7.27571 25.4651 9.81663C26.6539 11.0244 27.5085 12.439 28.0559 13.9425L28.0902 13.9837C28.1576 14.1738 28.2226 14.365 28.2808 14.5597L28.2579 14.5129C28.295 14.6348 28.3206 14.7591 28.3535 14.8815L28.3792 14.9114C28.4125 15.033 28.4431 15.1559 28.4713 15.2783L28.4483 15.247C28.6335 16.0299 28.7462 16.8268 28.7695 17.6274H33.9276C33.9299 17.7317 33.9341 17.8359 33.9355 17.9407L33.9366 17.9418C33.9366 8.67098 26.5179 1.12796 17.3986 1.12796L17.3984 1.12778ZM11.3641 11.4548V15.7144H12.6659L12.6808 15.5407L12.6552 15.6263C12.6552 13.8094 13.5755 12.9998 15.6398 12.9998H15.9678V16.4448C15.9678 17.0353 15.547 17.3712 15.245 17.5472C15.5498 17.7064 15.9678 18.0181 15.9678 18.608V22.2974C15.9678 22.7758 15.6444 23.0624 15.0995 23.0624H14.4315V24.7207H19.8268V23.0624H19.1944C18.5934 23.0624 18.2898 22.8165 18.2898 22.3315V18.608C18.2898 18.0235 18.7781 17.7027 19.1178 17.5415C18.7824 17.3507 18.2898 16.9887 18.2898 16.4448V13.0071L18.4497 13.0082H18.5869C20.5877 13.0082 21.735 13.9275 21.735 15.5322L21.7336 15.7146H22.7051V11.4549L11.3641 11.4548Z" fill="#C0111F"/>
<path fill-rule="evenodd" clip-rule="evenodd" d="M16.873 2.31274L15.888 2.31559L16.2021 2.68069C16.2021 2.68104 16.7496 3.52796 16.8436 3.67279L16.7091 3.89466L16.9139 4.09588C16.8604 4.16901 16.1519 5.1209 16.1519 5.1209C16.1505 5.1209 15.8801 5.38066 15.8801 5.38066L15.7775 5.47994L16.7205 5.46909L16.6554 5.1789C16.6836 5.14225 17.195 4.46934 17.2736 4.36597C17.3474 4.47664 17.823 5.19722 17.8247 5.20007L17.8244 5.20505C17.8244 5.24099 17.8457 5.43315 17.8457 5.43315L17.8517 5.48279L18.9058 5.48172L18.5215 5.09795C18.5215 5.09652 17.9336 4.21064 17.8357 4.06208L17.9698 3.84626L17.7918 3.64432C17.8413 3.57546 18.5031 2.67464 18.5031 2.67464L18.8092 2.31559L17.8595 2.31274L17.8924 2.39085L17.9875 2.61593C17.954 2.66165 17.4885 3.28918 17.4104 3.39469L16.8989 2.5976L16.8996 2.59226C16.8996 2.55561 16.8789 2.3631 16.8789 2.3631L16.873 2.31274ZM11.5167 3.42209L11.4675 3.44931L9.58345 4.45653L9.92281 4.67058C9.92281 4.68605 10.2854 5.39846 10.3413 5.50948L10.2006 5.88241L10.5895 5.99645C10.6106 6.03915 11.014 6.87094 11.0158 6.87414C11.0104 6.8745 11.0083 7.14903 11.0083 7.14903L11.0079 7.2428L12.9168 6.22312L12.6281 5.6342C12.6281 5.6342 12.3108 6.06691 12.3108 6.06833C12.3076 6.06371 11.6992 6.39109 11.5713 6.45976C11.527 6.37205 11.1506 5.6237 11.108 5.53901L11.6303 5.26128C11.6303 5.26448 11.9024 5.22783 11.9024 5.22783L11.9789 5.21768L11.6975 4.64122L11.4428 4.91593C11.4414 4.9138 11.0424 5.12535 10.9262 5.18602L10.5494 4.4487C10.6357 4.40244 11.321 4.04073 11.3221 4.04002C11.3228 4.04553 11.7397 4.03717 11.7397 4.03717L11.8281 4.03539L11.5167 3.42209ZM23.8933 3.70481L23.8656 3.73097C23.8656 3.73097 22.9032 4.63499 22.9001 4.63748C22.8987 4.63001 22.535 4.68677 22.535 4.68677L22.4879 4.69424C22.4879 4.69424 22.4896 5.02713 22.4903 5.07054C22.455 5.10257 21.7311 5.76444 21.7311 5.76444C21.7385 5.75839 21.471 5.92777 21.471 5.92777L21.3856 5.9824L22.145 6.345C22.145 6.345 22.1538 6.03346 22.1557 5.99503L22.5073 5.6374C22.5703 5.6673 23.3644 6.04859 23.4291 6.07955C23.4216 6.14449 23.3786 6.53413 23.3745 6.57292L23.112 6.7996L24.1135 7.27625L24.0349 6.85102C24.0373 6.85102 24.17 5.87582 24.1721 5.86088C24.1807 5.86871 24.4519 5.62086 24.4519 5.62086L24.4906 5.58634C24.4906 5.58634 24.215 5.22961 24.2136 5.22872C24.2262 5.22765 24.2843 3.93415 24.2843 3.93415L24.2867 3.89679L23.8933 3.70481ZM23.576 4.60937C23.5511 4.82644 23.4746 5.50272 23.4617 5.62157L22.8307 5.3191C22.9216 5.23263 23.4197 4.75883 23.576 4.60937ZM6.53341 6.93802L6.50015 6.97983L4.89681 8.92435L5.40489 9.35029C5.40489 9.35029 5.5281 8.85353 5.5288 8.85211C5.5316 8.8546 5.7642 8.57348 5.84366 8.47758C5.91542 8.53826 6.42157 8.96135 6.45167 8.98591L6.49403 9.3631L6.86559 9.3462L7.60259 9.97569C7.60259 9.98725 7.72406 10.2534 7.72406 10.2534L7.76081 10.3347L8.44513 9.50241L8.04994 9.4405C8.04994 9.42965 7.32519 8.80958 7.31416 8.79909L7.31539 8.79268C7.31539 8.74376 7.26691 8.46922 7.26691 8.46922L7.25798 8.4178C7.25798 8.4178 6.9321 8.45303 6.89289 8.45641C6.86034 8.42901 6.35664 7.99879 6.28628 7.9383C6.34106 7.86909 6.58574 7.56964 6.58644 7.56786C6.58889 7.57178 6.97743 7.39563 6.97743 7.39563L7.06091 7.35738L6.53341 6.93802ZM28.5577 7.48798C28.4651 7.48976 28.3709 7.50915 28.2773 7.54989C28.2 7.58299 28.0934 7.64277 28.0279 7.7392C27.9488 7.85734 27.8963 8.01587 27.8804 8.18579L27.8734 8.30464L27.8665 8.36531C27.8574 8.35998 27.6975 8.51566 27.6975 8.51566L27.666 8.54591C27.666 8.54591 27.8637 8.91064 27.8637 8.91278V8.92435C27.8637 8.99373 27.8811 9.33873 27.8811 9.33873C27.8769 9.49459 27.807 9.65276 27.718 9.71023C27.6035 9.78531 27.4563 9.80666 27.3131 9.76966C27.1775 9.7355 26.9832 9.63301 26.8282 9.34371C26.6538 8.96117 26.7617 8.6781 26.8819 8.5089L26.9228 8.45196L26.6313 8.32261L26.6045 8.35571C26.4377 8.5637 26.3861 9.03964 26.6222 9.51381C26.8299 9.93032 27.1042 10.2025 27.4152 10.3006C27.6558 10.3774 27.9078 10.35 28.145 10.2196C28.2584 10.1593 28.3578 10.0458 28.4012 9.96715C28.4879 9.81805 28.511 9.63835 28.5113 9.58195L28.5159 9.30813L28.5038 9.15742L28.6932 8.961L28.5066 8.63664L28.5085 8.61636L28.5078 8.5532C28.5078 8.30962 28.572 8.14665 28.6911 8.09451C28.8349 8.02993 29.1629 8.03812 29.3043 8.34806C29.424 8.61209 29.4478 8.78539 29.3924 8.98911L29.3796 9.03768L29.6563 9.14764L29.6754 9.09088C29.769 8.79126 29.6172 8.40143 29.5191 8.19522C29.3323 7.80842 28.9588 7.48068 28.5577 7.48798ZM4.00264 12.3339L3.59748 13.6034H2.28467L3.34685 14.3875L2.94151 15.6573L4.00264 14.8719L5.06623 15.6573L4.65966 14.3875L5.72115 13.6034H4.40851L4.00264 12.3339ZM30.6842 12.3339L30.2786 13.603H28.9648L30.027 14.3882L29.6215 15.6573L30.6842 14.8723L31.7463 15.6573L31.3398 14.3882L32.4034 13.603H31.0892L30.6842 12.3339ZM5.38529 20.5875L5.32403 20.6473L5.10281 20.8638C5.09896 20.8613 4.83573 20.9581 4.83573 20.9581L4.3021 21.153C4.3021 21.1402 3.98339 21.0037 3.98339 21.0037L3.93386 20.9832L3.75832 21.3775C3.71877 21.3926 2.87378 21.7067 2.87203 21.707C2.87063 21.7038 2.58325 21.6873 2.58325 21.6873L2.49976 21.6817L2.8575 22.6973L3.13841 22.3975C3.14226 22.4013 3.85405 22.1317 4.05095 22.0573L4.11676 22.2479L3.1013 23.3871L3.38536 24.2102C3.38536 24.2102 3.63721 23.8188 3.64438 23.809C3.66101 23.7907 4.46854 22.9309 4.52787 22.8674C4.77833 23.1608 5.12871 23.2946 5.42519 23.1868C5.62244 23.1121 5.75825 22.9713 5.83701 22.7655C5.94447 22.4817 5.92382 22.0794 5.78293 21.6883L5.38529 20.5875ZM29.7181 21.0894L29.6454 21.1275C29.437 21.2385 29.2536 21.509 29.129 21.8883C28.9618 22.3991 29.0612 23.0521 29.5758 23.2583C29.6563 23.2896 29.7772 23.3281 29.8938 23.3044C30.0359 23.2758 30.1845 23.1975 30.3142 23.0889L30.3999 23.0094L30.4374 22.9792C30.4402 22.9889 30.6719 22.9929 30.6719 22.9929L30.7144 22.9932C30.7144 22.9932 30.8284 22.5824 30.8284 22.581C30.8329 22.5824 31.1054 22.2703 31.1054 22.2703C31.2096 22.17 31.3564 22.1112 31.4504 22.134C31.6083 22.1799 31.718 22.2765 31.7829 22.4052C31.8647 22.5671 31.8741 22.7705 31.8106 22.9939C31.6774 23.3704 31.4178 23.4893 31.2232 23.5213L31.155 23.5328L31.1485 23.6037L31.2582 23.8871L31.3156 23.8818C31.5456 23.8584 31.9474 23.5804 32.1177 23.0318C32.2495 22.6148 32.252 22.2397 32.1254 21.9506C32.012 21.6915 31.7961 21.5022 31.5158 21.4181C31.3921 21.3793 31.243 21.3876 31.1492 21.4117H31.1485C30.992 21.4554 30.8531 21.5581 30.7955 21.6124C30.7934 21.6134 30.6047 21.8027 30.6047 21.8027L30.5167 21.9098L30.2396 21.9138L30.1462 22.2911L30.1122 22.3239C29.8983 22.5534 29.7562 22.5545 29.6911 22.5343C29.553 22.4797 29.3176 22.2637 29.431 21.9454C29.5236 21.6814 29.622 21.5463 29.7926 21.449L29.8358 21.4246L29.8383 21.3649L29.7181 21.0894ZM5.32578 21.5951C5.35116 21.6634 5.40559 21.8214 5.40559 21.8214C5.43184 21.8933 5.44427 21.9607 5.44427 22.0225C5.44427 22.0735 5.43569 22.1207 5.41907 22.1644C5.37776 22.2755 5.28588 22.3603 5.15444 22.4102C5.01092 22.4623 4.85883 22.4536 4.74087 22.3876C4.65004 22.3386 4.58301 22.2593 4.54555 22.157L4.45069 21.8951L5.32578 21.5951ZM27.7421 25.7069C27.6919 25.7044 27.6395 25.7072 27.586 25.7156C27.2902 25.7594 26.9554 25.9748 26.6915 26.2924L25.945 27.1856C25.945 27.1856 26.3285 27.3014 26.3302 27.3014V27.3018C26.3302 27.3102 26.9556 27.8647 26.9622 27.8708L26.9594 27.89C26.9594 27.9633 26.9892 28.2266 26.9892 28.2266L26.9955 28.2805C26.9955 28.2805 27.3781 28.2471 27.4187 28.2428C27.4537 28.2725 28.1373 28.8698 28.1373 28.8698C28.1373 28.8798 28.2603 29.136 28.2603 29.136L28.2969 29.2114L28.9893 28.396L28.599 28.2939C28.599 28.2893 28.0174 27.7868 27.8564 27.6493L27.988 27.4964C28.0491 27.5112 29.4589 27.8414 29.4589 27.8414L30.0224 27.1842L29.5558 27.1511C29.5472 27.1493 28.4068 26.8525 28.3153 26.8289C28.3583 26.7059 28.3905 26.5819 28.3905 26.4652C28.3905 26.2284 28.3072 26.015 28.1478 25.8745C28.0277 25.77 27.8926 25.7144 27.7421 25.7069ZM8.08057 26.0094L8.02946 26.027C8.02946 26.027 6.85877 26.4424 6.85439 26.4435C6.85404 26.436 6.50453 26.349 6.50453 26.349L6.4599 26.3378C6.4599 26.3378 6.32094 26.6383 6.30326 26.6748L5.32316 27.0098L5.33016 27.013C5.28605 27.0151 5.20502 27.0271 5.02878 27.0543L4.88894 27.0778L5.48767 27.7763C5.48767 27.7763 5.62734 27.4758 5.64292 27.4411L6.07469 27.2662C6.11844 27.3169 6.6687 27.9516 6.71158 28.0017C6.68112 28.0549 6.50313 28.3723 6.4872 28.4022L6.13472 28.5108L6.91495 29.4176L7.01576 28.9525C7.01716 28.9607 7.2179 28.6195 7.2179 28.6195L7.53731 28.0802C7.54099 28.09 7.84902 27.9669 7.84902 27.9669L7.89085 27.951C7.89085 27.951 7.82784 27.519 7.82714 27.5176C7.83677 27.519 8.37092 26.4004 8.37092 26.4004L8.38685 26.367L8.08057 26.0094ZM27.3641 26.3796C27.451 26.3874 27.5365 26.4269 27.6163 26.4969C27.7325 26.5985 27.7992 26.7379 27.802 26.8751V26.8835C27.802 26.9847 27.7666 27.0806 27.699 27.1609L27.5235 27.376C27.451 27.3087 26.9053 26.8054 26.8381 26.7433L26.9918 26.5613C27.0795 26.457 27.1763 26.3956 27.2766 26.3821C27.3058 26.3777 27.335 26.3769 27.3641 26.3796ZM7.37875 26.7821C7.27618 26.9627 6.99721 27.4559 6.94137 27.555C6.86857 27.4713 6.61287 27.1755 6.53691 27.0867C6.64997 27.0465 7.185 26.8525 7.37875 26.7821ZM13.2629 28.5154C13.1557 28.5382 13.0584 28.5453 12.9567 28.5392C13.1704 28.6334 13.3873 28.7159 13.6048 28.796C13.4907 28.7289 13.3859 28.652 13.2629 28.5154ZM11.0652 28.6481L11.0711 28.7442L11.0951 29.1082C11.0902 29.1011 10.8861 29.5251 10.8861 29.5251L10.7403 29.8285C10.7022 29.8427 10.3733 29.9704 10.3733 29.9704C10.3733 29.9704 10.4792 30.3781 10.4806 30.3816C10.4678 30.3795 10.2014 30.9273 10.2014 30.9273L10.0446 31.2485C10.0408 31.2438 9.80152 31.4226 9.80152 31.4226L9.72871 31.4773L10.6005 31.9169C10.6005 31.9169 10.5485 31.4694 10.5474 31.4684C10.5548 31.4684 11.1003 30.3523 11.2983 29.9489L11.7309 32.4913L12.089 32.675C12.089 32.675 12.6704 31.4671 12.6725 31.4611C12.6781 31.4718 12.9728 31.3326 12.9728 31.3326L13.0143 31.3129L12.9233 30.9366C12.9361 30.9366 13.1566 30.4761 13.1566 30.4761L13.3031 30.1711C13.3091 30.1722 13.5369 29.9895 13.5369 29.9895L13.6048 29.9349L12.7616 29.5007L12.7999 29.9406C12.7935 29.9359 12.3997 30.7514 12.3997 30.7514C12.3997 30.7514 12.2861 30.9889 12.2087 31.1492C12.1574 30.8615 11.8296 29.0291 11.8296 29.0291L11.0652 28.6481ZM23.7631 28.8629L23.6887 28.896L21.7213 29.7648L22.067 30.0222C22.067 30.037 22.3866 30.7946 22.4146 30.8618C22.3972 30.9013 22.2446 31.2326 22.2446 31.2326L22.6321 31.3776L22.9841 32.256C22.9795 32.2567 22.9559 32.5603 22.9559 32.5603L22.9484 32.6535L24.9616 31.7618L24.7022 31.1435L24.3336 31.5758C24.3315 31.5707 23.8658 31.778 23.8658 31.778L23.6136 31.8909C23.5915 31.837 23.266 31.0476 23.2293 30.9567C23.3112 30.9206 23.731 30.7369 23.7321 30.7366C23.7328 30.7385 24.0371 30.7207 24.0371 30.7207L24.1149 30.7172L23.8471 30.0612L23.5544 30.337C23.5537 30.3348 23.0679 30.5485 23.0679 30.5485L23.0591 30.5521C23.0227 30.4667 22.7742 29.8808 22.7385 29.795C22.8148 29.7619 23.4575 29.4813 23.4816 29.4698C23.5112 29.4723 24.0272 29.5011 24.0272 29.5011L23.7629 28.8623L23.7631 28.8629ZM17.8874 30.4596C17.1201 30.4521 16.4214 30.9307 16.1878 31.623L16.1486 31.7696C16.1465 31.7639 15.927 31.9956 15.927 31.9956L15.8953 32.0304L16.1382 32.3553C16.2695 33.1362 17.0091 33.7283 17.8518 33.7358C18.4441 33.7419 18.6168 33.6547 18.819 33.5524L18.9364 33.4926L18.9413 32.3916C18.9492 32.3916 19.096 32.1262 19.096 32.1262L19.1419 32.0438L18.0228 32.0354L18.2146 32.4107C18.2085 32.4107 18.2071 32.6898 18.2071 32.6898L18.2057 33.2351C18.1443 33.2535 18.0727 33.312 17.8559 33.3099C17.3229 33.306 17.0093 32.8201 16.9347 32.3416C16.9393 32.3381 17.1743 32.1002 17.1743 32.1002L17.2097 32.0639L16.9631 31.7664L16.9794 31.6716C17.0882 31.2885 17.3851 30.877 17.8895 30.8891C18.2523 30.8971 18.5229 30.9873 18.6511 31.1428L18.6958 31.1992L18.7899 31.3168L18.8076 30.7302L18.7709 30.7053C18.5108 30.5257 18.2866 30.4635 17.8874 30.4596Z" fill="white"/>
<path fill-rule="evenodd" clip-rule="evenodd" d="M16.3659 6.4939L16.3278 6.49852C16.2578 6.50511 16.1857 6.51436 16.1158 6.52236L16.1291 6.52735C16.2165 6.56151 16.4739 6.66559 16.5107 6.72876L16.6419 6.70865C16.6419 6.70865 16.4807 6.5761 16.3659 6.4939ZM15.6986 6.5777C15.5976 6.59353 15.4989 6.61328 15.3993 6.63196L15.4046 6.63392C15.5883 6.6841 15.7593 6.7937 15.9445 6.88568L16.1232 6.86949C16.1232 6.86949 15.9566 6.72466 15.7163 6.58784L15.6986 6.5777ZM14.7355 6.77484C14.5998 6.809 14.4668 6.84618 14.3317 6.88497L14.3396 6.88568C14.4286 6.90063 14.6014 6.93746 14.6665 7.01289C14.8679 6.97624 15.0074 7.07926 15.1354 7.14598L15.4368 7.04777C15.4368 7.04777 15.0456 6.85188 14.9021 6.8485C14.841 6.81878 14.8023 6.79494 14.757 6.78196L14.7355 6.77484ZM13.7793 7.06112C13.6631 7.10097 13.5481 7.14278 13.4323 7.18708L13.4478 7.19064C13.5037 7.20399 13.6915 7.25149 13.7876 7.33565C13.9981 7.29935 14.2057 7.40522 14.3565 7.5029L14.6607 7.39383C14.6273 7.33707 14.2346 7.1636 14.0147 7.15933C13.9416 7.10079 13.8653 7.08087 13.7972 7.06574L13.7793 7.06112ZM13.0707 7.41322C13.0124 7.4102 12.9501 7.42052 12.8985 7.41838H12.8764L12.4763 7.60325L12.5134 7.6004C12.6247 7.58847 12.9168 7.54933 12.9539 7.63527C13.1804 7.6125 13.4244 7.75287 13.5718 7.84806L13.8952 7.7632C13.7205 7.60342 13.402 7.47763 13.2189 7.48777C13.1832 7.43279 13.129 7.41625 13.0707 7.41322ZM12.149 7.88703L11.7598 8.10143C11.8095 8.10463 12.1384 8.11122 12.1816 8.20925C12.4063 8.18986 12.6545 8.26956 12.7978 8.36066L13.0807 8.14199C12.8587 8.02065 12.5117 7.95286 12.3312 7.96176C12.24 7.92991 12.2532 7.90038 12.149 7.88703ZM11.171 8.50318L10.901 8.73554C11.0296 8.77646 11.073 8.88642 11.152 8.99922C11.4155 8.94887 11.803 8.84283 12.1812 8.92912L12.4653 8.67291C12.0384 8.59641 11.5858 8.61793 11.3557 8.6795C11.3005 8.59249 11.171 8.50318 11.171 8.50318ZM10.3649 9.35525L10.1407 9.56502C10.2704 9.60523 10.3113 9.75468 10.3922 9.86464C10.6103 9.75468 11.0916 9.67622 11.5773 9.74347L11.8281 9.41467C11.0916 9.36148 10.7883 9.45613 10.5592 9.56965C10.4804 9.43425 10.3649 9.35525 10.3649 9.35525ZM9.67463 10.2258L9.49734 10.5103C9.65958 10.6009 9.64435 10.708 9.72241 10.8201C9.94258 10.708 10.3906 10.4947 10.8784 10.5632L11.1278 10.2356C10.3649 10.2523 9.94486 10.3199 9.88938 10.4998C9.81272 10.3641 9.67463 10.2258 9.67463 10.2258ZM9.06924 11.0743L8.93623 11.3962C9.05419 11.4864 9.12665 11.7076 9.20821 11.82C9.42663 11.7051 9.70894 11.4866 10.1944 11.5585L10.4244 11.1768C9.80572 11.1768 9.40703 11.3051 9.3512 11.4866C9.27419 11.2987 9.06924 11.0743 9.06924 11.0743ZM23.0094 11.1642V16.0238H21.4483L22.3517 16.8929H23.8275V11.9417L23.0094 11.1644V11.1642ZM8.57954 11.9768L8.44793 12.3351C8.61192 12.4257 8.63835 12.6465 8.71781 12.7555C8.93623 12.6449 9.26509 12.4392 9.75567 12.5055L9.95729 12.1275C9.36222 12.1275 8.95023 12.2581 8.8972 12.439C8.79937 12.1904 8.57954 11.9768 8.57954 11.9768ZM8.09614 13.0836L7.98763 13.4549C8.1497 13.5478 8.22583 13.7683 8.30459 13.8818C8.52406 13.7683 8.79289 13.5841 9.28049 13.6523L9.43678 13.2941C8.69541 13.3404 8.50271 13.4041 8.44793 13.5829C8.33697 13.3605 8.09614 13.0836 8.09614 13.0836ZM15.6398 13.3099C13.7361 13.3099 12.9592 13.9807 12.9574 15.6448L12.9553 16.024H11.0744L11.9322 16.8412H13.7209L13.7226 16.5357C13.7226 14.8319 13.8863 13.7578 15.6641 13.5779V13.3099H15.6398ZM18.5939 13.3188V16.4446C18.5939 17.0312 19.5217 17.4075 19.532 17.4116L19.9137 17.5633C19.6755 17.3751 19.4527 17.1176 19.4527 16.7935V13.6298L19.5999 13.6389C20.171 13.6887 20.5821 13.8425 20.8747 14.067C20.401 13.5855 19.6365 13.322 18.5939 13.3188ZM27.9014 13.7754L27.8562 13.9321C28.0013 14.0928 28.1415 14.2638 28.2577 14.5127L28.2808 14.5595C28.2224 14.3648 28.1574 14.1732 28.0904 13.9832L28.0554 13.9423C28.0158 13.8951 27.9689 13.8432 27.9014 13.7754ZM7.65002 14.1339L7.57721 14.5056C7.74191 14.5976 7.81506 14.8178 7.89592 14.931C8.1133 14.8178 8.47838 14.6146 8.96493 14.6806L9.08692 14.3113C8.3718 14.355 8.05869 14.4262 8.00216 14.608C7.92305 14.473 7.65002 14.1339 7.65002 14.1339ZM27.7141 14.2271L27.6586 14.3947C27.865 14.5751 28.0038 14.7246 28.1341 15.0436L28.212 14.8796C28.0792 14.6045 28.0095 14.531 27.7141 14.2271ZM27.4924 14.7166L27.3903 14.8837C27.6684 15.1358 27.7911 15.2751 27.9204 15.6436L27.9856 15.503L27.9777 15.5245C28.134 15.656 28.3109 15.866 28.4171 16.4455L28.4978 16.1167C28.4665 15.6992 28.0846 15.2359 28.0298 15.3795L28.0064 15.445C27.8753 15.1771 27.7892 14.9925 27.4924 14.7166ZM28.2689 14.7847L28.1923 14.9616C28.2766 15.023 28.3611 15.1139 28.448 15.2468L28.4711 15.2774C28.4431 15.1553 28.4122 15.0324 28.379 14.9109L28.3533 14.881L28.2689 14.7847ZM27.1859 15.2295L27.0475 15.4167C27.2568 15.5482 27.4742 15.866 27.607 16.1871L27.6749 16.0734C27.7901 16.1748 27.9964 16.328 28.1313 17.1216L28.2357 16.8454C28.1208 16.0907 27.7747 15.8064 27.7467 15.9752L27.6982 16.0361L27.7355 15.9752C27.6023 15.7037 27.4407 15.4087 27.1859 15.2295ZM7.32309 15.2347L7.24661 15.6311C7.4085 15.7838 7.52944 16.0672 7.60854 16.1818C7.82767 16.0683 8.1707 15.7578 8.65463 15.8281L8.73058 15.4964C8.02281 15.551 7.90992 15.6309 7.73736 15.8453C7.66 15.7089 7.32309 15.2347 7.32309 15.2347ZM26.7676 15.7925L26.5935 15.98C26.8028 16.1102 27.119 16.4599 27.2514 16.7817L27.3761 16.591C27.2444 16.3181 27.0231 15.9725 26.7676 15.7925ZM26.2231 16.3811L26.0234 16.5455C26.169 16.6431 26.674 17.0753 26.8051 17.3975L26.9577 17.1835C26.8254 16.9102 26.4884 16.5634 26.2231 16.3811ZM7.00771 16.4638L6.95117 16.8476C7.2389 17.099 7.35792 17.34 7.44158 17.445C7.53591 17.2536 7.89365 17.0742 8.38317 17.1155L8.4439 16.754C7.86337 16.7885 7.60207 16.8855 7.52541 17.055C7.4407 16.92 7.00771 16.4638 7.00771 16.4638ZM27.4656 16.4828L27.4398 16.4958L27.3509 16.6522C27.6002 16.9766 27.6957 17.3417 27.7243 17.8309L27.9008 17.5559C27.8956 17.0773 27.6045 16.4622 27.4656 16.4828ZM27.1337 16.9735L26.9568 17.2077C27.0725 17.5998 27.1439 18.2674 27.0807 18.654L27.3096 18.3478C27.3481 17.9096 27.2132 17.3639 27.1337 16.9735ZM25.5871 16.9968L25.3762 17.187C25.5869 17.3146 26.0215 17.7242 26.1515 18.0453L26.325 17.8587C26.1923 17.5867 25.8433 17.1757 25.5871 16.9968ZM19.9386 17.5842L19.5177 17.7048C19.5084 17.7073 18.5948 17.9763 18.5948 18.6072V22.3311C18.5948 22.5836 18.6963 22.7519 19.1949 22.7519H19.4529L19.4532 22.6779V21.5506C19.7119 21.7815 19.9835 21.9707 20.1895 21.9945L20.2793 21.9406C20.283 22.3943 20.2452 22.6628 20.3516 22.9797L20.1318 22.7718V25.03H14.1456L15.0862 25.9342H15.4935C15.5542 26.0341 15.6242 26.1116 15.71 26.136L15.9046 25.9342H20.8567V23.4581L20.4986 23.12L20.7843 22.9983C20.5711 22.7713 20.58 22.103 20.6021 21.7413L20.5028 21.8006C20.1061 21.7339 19.6764 21.3309 19.4779 21.057L19.4531 21.0675V18.9568C19.4531 18.196 20.4902 17.9041 20.4902 17.9041C20.4902 17.9041 20.2081 17.7904 19.9386 17.5842ZM24.9894 17.5968L24.7778 17.7872C24.9892 17.9153 25.4231 18.3252 25.5539 18.6457L25.6939 18.4935C25.736 19.005 25.7331 19.5797 25.6755 19.8482L25.9356 19.637C25.9781 19.1759 25.9501 18.6423 25.8687 18.2523L25.6855 18.3886C25.5339 18.1206 25.2245 17.7621 24.9894 17.5968ZM26.5347 17.6728L26.3376 17.8717C26.403 18.0434 26.4536 18.2524 26.4023 19.2885L26.651 19.0529C26.6582 18.2759 26.6169 18.0635 26.5347 17.6728ZM6.81361 17.7665L6.78858 18.1355C6.93192 18.2014 7.1969 18.6526 7.27636 18.7633C7.29509 18.7428 7.31854 18.675 7.36737 18.6143C7.45435 18.5081 7.70498 18.3565 8.24351 18.3795L8.27431 18.0411C7.653 18.0485 7.45435 18.2026 7.40167 18.2647C7.35214 18.309 7.33306 18.3928 7.31959 18.44C7.22385 18.1823 6.81361 17.7665 6.81361 17.7665ZM24.2897 18.1763L24.0707 18.3428C24.163 18.369 24.4101 18.6202 24.761 19.1508L24.9709 18.9748C24.9997 19.5639 25.0458 20.1222 24.9829 20.3916L25.2355 20.1916C25.2864 19.7614 25.2733 19.2609 25.2126 18.8036L24.9775 18.9583C24.6712 18.501 24.4668 18.2964 24.2895 18.1736L24.2897 18.1763ZM23.3619 18.8978L23.0633 19.0828C23.1983 19.1858 23.8079 19.9016 24.0926 19.7934C24.0926 19.7934 23.9638 20.6786 23.9869 21.1366L24.3138 20.9238C24.3032 20.683 24.3187 19.6673 24.3779 19.4306C24.3898 19.4177 24.1941 19.623 24.1135 19.5655C23.9852 19.4746 23.7659 19.3483 23.3619 18.8978ZM6.72838 18.9259L6.73625 19.3331C6.89692 19.4312 7.1479 19.6886 7.22158 19.8039C7.32239 19.6315 7.43668 19.5422 8.16283 19.6982L8.16668 19.3456C7.31014 19.3032 7.32256 19.3821 7.29526 19.4934C7.22175 19.3552 6.72838 18.9259 6.72838 18.9259ZM22.2502 19.4956L21.8436 19.7212C22.079 19.9683 22.8502 20.5909 23.0082 20.596L23.0297 20.5791C23.0325 21.1036 22.9678 21.376 23.1652 21.778L23.534 21.6216C23.3215 21.397 23.3313 20.7265 23.3521 20.3651L23.3393 20.3423C23.2079 20.3891 23.0409 20.3487 22.8918 20.2194C22.7434 20.0904 22.2502 19.4956 22.2502 19.4956ZM6.72803 20.1324L6.74973 20.4971C6.9398 20.5427 7.17257 20.662 7.25361 20.7738C7.4715 20.6603 7.78164 20.6704 8.1679 20.8802L8.15758 20.5183C7.68975 20.305 7.44858 20.3429 7.27688 20.4464C7.19813 20.3073 6.72803 20.1324 6.72803 20.1324ZM20.838 20.3781L20.4677 20.5338C20.8033 20.8898 21.2482 21.2801 21.5496 21.315L21.6401 21.2622C21.6448 21.797 21.5767 22.068 21.775 22.4751L22.1454 22.3183C21.932 22.0931 21.9413 21.4221 21.9625 21.0618L21.8648 21.1204C21.4663 21.0554 21.0377 20.6528 20.838 20.3781ZM6.81046 21.1049L6.90287 21.5104C7.11552 21.5661 7.25431 21.6684 7.33411 21.7815C7.37629 21.668 7.51211 21.7307 7.68975 21.8107C7.84639 21.8844 7.96313 21.9687 8.1441 22.0694L8.13482 21.7047C7.73981 21.4467 7.35389 21.2503 7.29806 21.4294C7.22105 21.294 6.81046 21.1049 6.81046 21.1049ZM6.9937 22.0385L7.04341 22.4057C7.21545 22.4776 7.34777 22.577 7.42862 22.6994C7.61484 22.6758 7.77989 22.7493 8.1798 23.0405L8.15005 22.6955C7.74156 22.3479 7.54239 22.3678 7.39677 22.3678C7.31731 22.2199 6.9937 22.0385 6.9937 22.0385ZM14.1266 24.8039L14.0102 24.9311L14.1266 24.9852V24.8039ZM13.5917 25.512L13.4296 25.7595C13.8257 25.9711 14.2127 25.9869 14.5608 25.9869L14.5813 25.957C14.7262 26.2824 14.8662 26.6201 15.2175 26.7548L15.4168 26.52C15.1588 26.4143 14.8202 25.9654 14.7572 25.6955L14.7353 25.7282C14.3404 25.8044 13.8733 25.5965 13.5917 25.512ZM13.1197 26.2301L12.9742 26.4915C13.37 26.6159 13.7142 26.6361 14.1549 26.5858L14.1777 26.5449C14.3369 26.8429 14.3781 27.0203 14.7908 27.2667L14.9906 27.0322C14.7309 26.9258 14.4157 26.5002 14.353 26.2301L14.31 26.2999C13.9004 26.407 13.4027 26.3141 13.1197 26.2301ZM12.7616 26.9786L12.6431 27.253C13.0721 27.4025 13.4703 27.4336 13.7604 27.372C13.9081 27.6201 14.0688 27.8542 14.4229 27.9887L14.5524 27.7542C14.2598 27.6316 13.9864 27.4742 13.8906 27.11C13.4787 27.2158 13.0457 27.0626 12.7616 26.9786ZM12.532 27.611L12.4537 27.8549C12.8505 28.0636 13.2326 28.0318 13.5219 27.9684C13.6813 28.1988 13.8154 28.328 14.1677 28.4616L14.2941 28.2761C13.9185 28.2296 13.7711 28.0343 13.6015 27.7765C13.1923 27.8823 12.8136 27.6957 12.532 27.611Z" fill="#003278"/>
</g>
<defs>
<clipPath id="clip0_7_649">
<rect width="34.6536" height="35.229" fill="white" transform="translate(0.134766 0.390991)"/>
</clipPath>
</defs>
</svg>
