<svg width="158" height="40" viewBox="0 0 158 40" fill="none" xmlns="http://www.w3.org/2000/svg">
<g filter="url(#filter0_d_7_210)">
<path d="M21.0594 1.36229C21.021 1.05529 21.2704 0.882612 21.232 0.671552C21.0402 0.613991 21.2896 0.345367 21.1169 0.249431C20.8099 0.498865 21.0786 0.0191872 20.9059 0C20.4454 0.460493 20.0041 0.978548 19.6203 1.53498C18.1813 3.77988 17.0492 6.06316 16.1474 8.53831C15.9556 8.86449 15.8213 9.20986 15.7253 9.59361C15.5718 9.76629 15.5526 10.1308 15.4567 10.3227C15.5718 10.5338 15.3608 10.6681 15.38 10.8791C15.2456 10.8983 15.3416 11.1861 15.2073 11.0326C15.1113 11.0326 15.3224 11.3588 15.1689 11.5507C15.1497 11.7042 15.0154 11.6274 14.9962 11.7042C15.1881 11.7809 14.7851 11.7618 14.9962 11.8961C15.073 11.9728 14.9578 12.1071 14.9195 12.2031C14.8427 12.0688 14.8235 12.3566 14.7468 12.4333C14.7084 12.4525 14.8619 12.4333 14.8043 12.5101C14.67 12.7019 14.8043 12.6827 14.7851 12.8554C14.7468 12.8746 14.7468 12.913 14.7084 12.8938C14.67 12.8554 14.7276 12.8171 14.67 12.8171C14.7276 12.913 14.5165 13.431 14.5165 13.431H14.6508C14.6508 13.431 14.9195 13.2775 14.4206 13.9491C14.4014 13.8724 14.3438 13.8148 14.363 13.9491C14.459 14.1985 14.152 14.2561 14.2671 14.4096C14.1903 14.6015 14.3055 14.8893 14.056 14.966C14.0944 15.0428 14.152 14.966 14.1328 15.0811C13.9217 16.1364 13.8258 16.1364 13.8258 16.1364C13.8258 16.1364 13.9985 16.2899 13.8642 16.3667C13.7682 16.2516 13.7682 16.5969 13.8258 16.4818C13.8833 16.6161 13.7682 16.8272 13.8066 16.9999C13.7299 17.0766 13.4996 17.3452 13.7299 17.115C13.5955 17.326 13.6915 17.7098 13.4996 17.8441C13.6147 17.9976 13.4612 18.2278 13.5188 18.343C13.3269 18.5348 13.4229 18.8035 13.3077 19.0337C13.3461 19.1105 13.3461 19.2064 13.2694 19.2448C13.1734 19.6861 13.1542 20.0698 13.0775 20.5495C13.0775 20.6646 13.0007 20.8373 12.9432 20.8181C12.8472 21.1827 12.8472 21.8542 12.6937 22.3339C12.8089 22.6601 12.6554 23.0247 12.6362 23.3125C12.6746 23.3125 12.6937 23.3316 12.7321 23.3316C12.7513 23.3508 12.7705 23.37 12.7705 23.3892C12.5402 23.3508 12.8089 23.5619 12.6362 23.5811C12.617 23.6003 12.617 23.6195 12.617 23.6195C12.6362 23.6003 12.6937 23.5811 12.6937 23.6386C12.4827 23.773 12.7705 24.0224 12.5978 24.1567C12.5019 24.4637 12.4443 24.7899 12.4635 25.0393C12.5786 25.1161 12.3484 25.2312 12.4635 25.2312C12.5402 25.2696 12.4443 25.2887 12.4251 25.3271C12.3867 25.4614 12.2524 25.73 12.4251 25.8452C12.5978 25.7492 12.3867 25.8068 12.3867 25.7109C12.4635 25.6725 12.4827 25.5957 12.5402 25.5574C12.3292 25.3463 12.9624 25.2504 12.5402 25.0777C12.6554 24.9817 12.6362 25.1352 12.7129 25.1544C12.8089 24.9817 12.617 24.8858 12.5978 24.7323C12.9048 24.598 12.8281 24.4061 12.9432 24.0799C12.7513 23.9265 13.1159 23.8689 13.1159 23.7346C12.6937 23.5811 13.4037 23.4276 13.1542 23.159C13.1926 23.1014 13.3077 22.8712 13.1542 23.0438C13.2118 22.9671 13.0775 22.8136 13.2502 22.8328C13.2118 22.6793 13.3461 22.5066 13.3653 22.3531C13.5188 22.238 13.2885 22.0077 13.4996 21.9502C13.4037 21.8542 13.3653 21.6624 13.4804 21.6624C13.5955 21.6624 13.5955 21.4513 13.4996 21.3746C13.7299 20.8565 13.7107 20.3576 13.8258 19.9739C13.8642 19.8396 13.8642 19.6477 13.9409 19.571C13.9409 18.8227 14.3438 18.1511 14.4782 17.4604C14.6125 17.3261 14.459 17.0191 14.6892 17.0766C14.4398 17.6139 14.4782 18.1703 14.2287 18.6692C14.3438 18.8418 14.1712 19.4558 14.0177 19.7053C13.9601 19.8012 13.9025 19.9739 13.9985 20.089C13.9025 20.3193 13.7874 20.4536 13.8833 20.703C13.7682 20.8181 14.0368 21.1443 13.749 21.2978C13.6147 21.931 13.442 22.4874 13.4037 23.1014C13.442 23.0438 13.4037 23.0055 13.4612 22.9863C13.5188 23.0247 13.4996 23.0822 13.4804 23.1398C13.4037 23.1782 13.442 23.5427 13.3269 23.3316C13.135 23.6386 13.2694 23.9456 13.1159 24.291C13.2885 24.5596 12.8856 24.6364 13.0199 24.905C13.0199 25.0585 12.8856 25.2312 12.8664 25.3847C12.9048 25.5382 12.924 25.4039 12.924 25.3655C13.0199 25.2887 13.0391 25.4039 13.0199 25.4806C13.0391 25.4039 13.1159 25.3655 13.0967 25.2696C13.0967 25.1928 13.0391 25.1352 13.0391 25.2696C13.0007 25.2887 13.0007 25.3079 12.9624 25.2887C12.9432 25.2696 12.924 25.2504 12.9432 25.212C12.9815 25.1161 13.0775 24.8282 13.0967 25.0777C13.2118 24.7899 13.3269 24.291 13.3461 23.9648C13.3653 23.9648 13.3845 23.9264 13.4229 23.9264C13.3653 23.677 13.6531 23.5043 13.6147 23.2741C13.6147 23.2357 13.6531 23.1206 13.6723 23.0438C13.5955 23.1398 13.5955 23.0055 13.5572 22.9479C13.8258 22.852 13.6339 22.6217 13.8066 22.4874C13.9025 22.9479 13.5955 23.466 13.6723 23.8881C13.7107 23.6578 13.7299 23.5043 13.749 23.3316C13.8258 23.2357 13.8642 23.1206 13.845 22.9671C13.9793 22.7944 13.9217 22.6025 14.0177 22.449C14.1328 22.3531 14.056 22.2188 14.152 22.2188C14.1328 22.1804 14.0752 22.1996 14.0752 22.1612C14.1712 22.1229 14.0368 21.835 14.1903 22.0269C14.2863 21.9694 14.056 21.6432 14.2863 21.6048C14.1712 21.2786 14.5933 21.01 14.459 20.6838C14.4398 20.5111 14.5165 20.3001 14.5741 20.0314C14.7084 19.9739 14.5933 19.6861 14.766 19.8396C14.5933 20.7222 14.4782 21.5089 14.2863 22.3915C14.4206 22.2764 14.3438 22.1804 14.4782 22.1612C14.363 21.835 14.5741 21.8159 14.5741 21.6624C14.6125 21.6048 14.459 21.5472 14.5741 21.4705C14.67 21.4897 14.6125 21.4513 14.5741 21.4129C14.7276 21.2019 14.67 21.4897 14.7084 21.528C14.7276 21.4705 14.7084 21.4513 14.7084 21.4129C14.7468 21.3745 14.766 21.2594 14.8235 21.3746C14.6316 21.8542 14.9195 21.2402 14.8619 21.2786C14.6892 21.3937 14.5933 21.317 14.6316 21.1443C14.5933 20.9332 14.7468 20.8757 14.8619 20.703C14.9195 20.7797 14.9003 20.8949 14.8811 20.9716C14.9578 20.7797 14.9195 20.5687 15.1113 20.4919C14.9195 20.4536 15.0921 20.2041 14.9003 20.2809C14.8043 20.2425 14.8427 20.1466 14.9195 20.089C15.1113 19.9931 14.9386 20.1849 15.0154 20.2617C15.1113 20.0314 15.0538 20.1082 15.2073 19.8779C15.1113 19.782 15.2073 19.6861 15.2073 19.6477C15.2456 19.4942 15.3608 19.3023 15.4375 19.1105C15.4375 18.957 15.2073 19.0337 15.1305 19.1105C15.0921 19.0721 15.1305 18.9953 15.1305 18.957C15.2073 18.8418 15.4567 18.957 15.3224 18.8802C15.4183 18.8227 15.5526 18.8035 15.5526 18.6692C15.3608 18.4581 15.6678 18.3813 15.5526 18.1895C15.5718 18.1511 15.6102 18.1703 15.6486 18.1703C15.6678 18.1895 15.6869 18.2087 15.6869 18.247C15.7445 18.1703 15.7637 18.036 15.7445 17.9592C15.4951 17.7865 15.8788 17.8441 15.8788 17.6906C15.8788 17.5755 15.7829 17.6714 15.8404 17.729C15.8021 17.7482 15.7829 17.8057 15.7445 17.7865C15.7637 17.5179 15.8213 17.1726 15.9748 16.9615C16.0131 17.1342 16.2626 16.6353 15.9748 16.9039C15.9748 16.8272 15.9748 16.7696 15.9748 16.7121C16.0131 16.4242 16.0899 16.8464 15.9556 16.5202C16.0131 16.5394 16.0707 16.5202 16.1091 16.5202C15.9939 16.3283 16.3969 16.1364 16.1091 16.194C15.9556 16.0021 16.1666 16.1364 16.2242 16.0213C16.2817 15.8678 16.3201 15.7143 16.3393 15.6376C16.2434 15.5992 16.3585 15.58 16.3777 15.5608C16.4352 15.273 16.4736 15.369 16.2626 15.4457C16.205 15.4073 16.3009 15.3498 16.2817 15.2922C16.7422 15.2155 16.512 14.6974 16.7039 14.5247C16.6463 14.4096 16.8382 14.5439 16.7998 14.3712C16.7614 14.3137 16.9341 14.2369 16.7806 14.2561C16.7039 14.1793 16.819 14.1218 16.8382 14.0642C16.8766 14.1026 16.8574 14.141 16.8574 14.1793C16.9341 14.045 16.9533 13.8915 17.0109 13.7572C16.9533 13.834 16.9341 13.8724 16.8957 13.9683C16.7614 13.6613 17.3754 13.7189 16.9725 13.6037C16.9917 13.5078 17.1068 13.431 17.03 13.3159C17.0684 13.2967 17.126 13.1816 17.1644 13.2775C17.126 13.3351 17.0301 13.6997 17.1452 13.4502C17.2795 13.2967 17.2219 13.0281 17.3754 12.9322C17.2411 12.8171 17.2795 13.1049 17.1644 13.1432C17.2027 13.0281 16.9917 12.9897 17.1835 12.9706C17.1835 12.9322 17.2219 12.8554 17.1644 12.8554C17.1835 12.8554 17.2795 12.606 17.3946 12.7787C17.644 12.5101 17.3754 12.8171 17.2795 12.6252C17.1835 12.4333 17.433 12.4141 17.5289 12.3182C17.4905 12.3182 17.4522 12.299 17.4522 12.2606C17.5097 12.2031 17.5865 12.1839 17.644 12.1647C17.7208 12.0304 17.6824 11.9536 17.7592 11.8577C18.1045 11.167 18.354 10.3611 18.6418 9.61279C18.5267 9.67035 18.5458 9.86223 18.4115 9.91979C18.354 9.78548 18.5267 9.70873 18.4883 9.55523C18.8145 8.90286 18.9871 8.11619 19.3901 7.54057C19.8122 6.61959 20.1 5.67941 20.5221 4.73924C20.5413 4.66249 20.6564 4.48981 20.6948 4.45143C20.7524 4.39387 20.6948 4.45143 20.5413 4.52818C20.6564 4.18281 21.021 3.54963 20.9059 3.56882C20.8483 3.68394 20.8099 3.72232 20.7332 3.79907C20.7332 3.60719 20.9826 3.3002 20.9059 3.05077C21.1169 2.74377 20.9251 2.36003 21.1553 2.01466C21.0402 2.03384 21.021 1.91872 21.021 1.8036C21.0018 1.61172 21.2512 1.20879 21.0594 1.36229ZM12.924 20.8373C12.924 20.8565 12.9815 20.9716 12.9815 20.9908C12.8856 20.9908 12.924 20.8565 12.924 20.8373ZM14.2479 14.2561C14.2671 14.2561 14.3247 14.2753 14.3438 14.2945C14.3247 14.4096 14.2287 14.2945 14.2479 14.2561ZM13.0583 24.7899H13.0775C13.0775 24.8091 13.0583 24.8474 13.0583 24.7899ZM13.135 24.2334C13.135 24.291 13.1734 24.3294 13.1734 24.3869C13.1542 24.4061 13.135 24.4061 13.135 24.2334ZM13.8258 22.238C13.8258 22.2764 13.8258 22.3147 13.8258 22.3531C13.8258 22.3531 13.7874 22.3531 13.8258 22.238ZM13.9409 21.5664C13.9601 21.6048 13.9601 21.6432 13.9601 21.6624C13.9409 21.6432 13.9217 21.6432 13.9409 21.5664ZM16.6655 12.1455C16.6847 12.0879 16.7614 12.0496 16.7998 11.992C16.7998 12.0496 16.7614 12.0879 16.7614 12.1455C16.7422 12.1839 16.7231 12.2223 16.7039 12.2606C16.6655 12.2223 16.6655 12.1839 16.6655 12.1455ZM16.2817 13.0857C16.3009 13.1049 16.3009 13.1241 16.205 13.1624C16.2242 13.1624 16.2626 13.1241 16.2817 13.0857ZM16.1858 13.2967C16.205 13.2967 16.2242 13.2967 16.2242 13.3351C16.1474 13.3927 16.1666 13.3543 16.1858 13.2967ZM15.9364 13.527C15.9364 13.5654 15.9172 13.6037 15.9172 13.6421C15.9172 13.6421 15.898 13.6229 15.9364 13.527ZM15.5718 14.0067C15.5718 14.0259 15.6294 14.0642 15.5526 14.1026C15.5718 14.0642 15.5718 14.0259 15.5718 14.0067ZM15.4375 13.7189C15.4375 13.738 15.4375 13.7572 15.4567 13.7572C15.3608 13.8148 15.4375 13.738 15.4375 13.7189ZM15.4183 15.3114C15.4183 15.2922 15.4183 15.2538 15.4375 15.2155C15.4183 15.2538 15.4759 15.273 15.4183 15.3114ZM15.3608 17.8249C15.4183 17.8825 15.3608 17.9017 15.3608 17.94C15.3608 17.9209 15.38 17.8825 15.3608 17.8249ZM15.2265 17.3452C15.284 17.3452 15.2265 17.4028 15.2456 17.422C15.1881 17.4795 15.1881 17.3644 15.2265 17.3452ZM15.2073 16.6161C15.2073 16.6545 15.1881 16.7121 15.1881 16.7504C15.1497 16.6737 15.2073 16.6545 15.2073 16.6161ZM15.073 14.6974C15.1305 14.755 15.0346 15.0044 14.977 14.8509C15.073 14.8509 15.0538 14.755 15.073 14.6974ZM14.766 15.4457C14.8811 15.3498 15.0346 15.273 14.9003 15.4841C14.8619 15.4841 14.8619 15.5225 14.8235 15.5225C14.8235 15.6568 14.8235 15.4265 14.766 15.4457L14.7468 15.4649C14.7468 15.4649 14.7468 15.4457 14.766 15.4457ZM14.8427 16.8656C14.8427 16.9039 14.8235 16.9615 14.8235 16.9999C14.8235 17.0191 14.766 17.0191 14.8427 16.8656ZM14.7468 17.2493C14.7468 17.2301 14.7276 17.2301 14.7276 17.2109C14.7468 17.2109 14.766 17.2109 14.7851 17.2109C14.766 17.2301 14.766 17.2493 14.7468 17.2493C14.7851 17.326 14.7276 17.2877 14.7468 17.2493ZM14.7468 16.2324C14.7468 16.3475 14.7084 16.4243 14.67 16.501C14.6508 16.5586 14.6508 16.5969 14.6508 16.6545C14.6316 16.5969 14.6316 16.5394 14.6508 16.4818C14.67 16.4051 14.7276 16.3283 14.7468 16.2324ZM14.6508 15.8294C14.6508 15.8486 14.6316 15.8678 14.6125 15.8678C14.5357 15.7143 14.6892 15.6568 14.6508 15.8294ZM14.6316 17.4795C14.7468 17.4795 14.7851 17.5371 14.67 17.5563C14.6125 17.6139 14.5549 17.4795 14.6316 17.4795ZM14.0177 21.1251C14.0368 21.1251 14.0368 21.1251 14.056 21.1251C14.0368 21.1635 14.0368 21.1827 14.0177 21.1251ZM14.056 20.8757C14.0752 20.8949 14.0752 20.9141 14.0944 20.9141C14.056 20.9141 14.0368 20.9141 14.056 20.8757ZM14.2479 20.1849C14.2095 20.3001 14.056 20.4536 14.1328 20.6454C14.0944 20.6454 14.0944 20.6838 14.056 20.6646C13.8642 20.5495 14.2095 20.4919 14.0177 20.4152C14.2287 20.3384 13.9985 20.2809 14.2095 20.1849C14.1903 20.1466 14.152 20.1466 14.1328 20.1466C14.152 20.0698 14.2479 20.089 14.2479 20.1849ZM14.2863 19.7244C14.3055 19.4942 14.3055 19.6669 14.363 19.4175C14.3247 19.5326 14.3438 19.6669 14.2863 19.7244ZM14.3438 19.2448C14.3438 19.2256 14.3822 19.1488 14.3822 19.1296C14.3822 19.1488 14.4398 19.2256 14.3438 19.2448ZM14.5357 17.8249C14.5549 17.7482 14.6316 17.7674 14.67 17.729C14.67 17.7098 14.6892 17.6714 14.7084 17.6522C14.7084 17.6906 14.6892 17.7098 14.67 17.729C14.6316 17.8633 14.7084 18.036 14.4973 17.9976C14.459 17.9017 14.67 17.8825 14.5357 17.8249ZM14.8427 20.3384C14.8427 20.4344 14.8235 20.6071 14.6892 20.5495C14.6125 20.396 14.7851 20.1849 14.8427 20.3384ZM14.9003 19.6477C14.9003 19.6285 14.9386 19.571 14.9386 19.5518C14.9386 19.571 14.9578 19.6285 14.9003 19.6477ZM14.977 19.8012C14.9962 19.8012 14.9962 19.8012 15.0154 19.8012C15.0154 19.8396 15.0154 19.8588 14.977 19.8012ZM14.9962 19.6477C15.0154 19.6669 15.0154 19.6669 15.0346 19.6669C15.0154 19.6861 15.0154 19.7053 14.9962 19.6477ZM14.7084 19.6285C14.5933 19.6477 14.8043 19.4175 14.5741 19.4558C14.5741 19.6093 14.5165 19.571 14.5165 19.4175C14.5357 19.3023 14.6125 19.4366 14.6508 19.3791C14.5741 19.2448 14.9003 19.1488 14.7276 19.0145C14.9195 18.9953 14.8235 18.6692 14.9195 18.5348C14.9386 18.4389 14.977 18.2087 15.0538 18.0552C14.9578 18.4965 14.8619 19.168 14.7084 19.6285ZM15.0921 15.6184C15.0921 15.6376 15.0538 15.6568 15.0538 15.6568C15.0538 15.5992 15.0921 15.6184 15.0921 15.6184ZM15.1305 17.7098C15.1305 17.7674 15.1113 17.8057 15.1113 17.8633C15.073 17.8057 15.1305 17.7482 15.1305 17.7098ZM15.3608 18.2087C15.2265 18.247 15.3224 18.4197 15.1881 18.4773C15.0346 18.3813 15.2648 18.3622 15.2073 18.2278C15.2456 18.1895 15.3032 18.2087 15.3416 18.1511C15.3032 18.036 15.3032 18.0744 15.38 18.1319C15.4183 18.0552 15.3991 18.2278 15.3608 18.2087ZM15.591 17.422C15.5334 17.4604 15.5334 17.5947 15.4567 17.5563C15.4183 17.4604 15.5718 17.422 15.4951 17.3452C15.4375 17.4028 15.3799 17.4604 15.3991 17.5563C15.3799 17.4412 15.4951 17.3452 15.4375 17.3069C15.6678 17.3644 15.4183 17.115 15.591 17.1342C15.6294 17.2301 15.5334 17.3452 15.591 17.422ZM15.6486 15.7143C15.4183 15.7143 15.7445 15.5033 15.6678 15.369C15.8596 15.4841 15.6486 15.5992 15.6486 15.7143ZM15.7445 12.913C15.7445 12.8746 15.7061 12.8554 15.7253 12.8171C15.7253 12.8554 15.7829 12.8362 15.7445 12.913ZM15.9172 15.4457C16.0707 15.4457 15.8788 15.5416 15.9172 15.6376C15.8596 15.6376 15.9172 15.5416 15.9172 15.4457ZM15.9939 16.1748C15.9939 16.2132 15.9939 16.2324 15.9748 16.2516C15.9748 16.2708 15.9748 16.2899 15.9556 16.3283C15.9364 16.2899 15.9364 16.2708 15.9556 16.2516C15.9748 16.2324 15.9939 16.2132 15.9939 16.1748ZM16.0323 15.2155C16.0515 15.1771 16.0707 15.1387 16.0707 15.0811C16.0707 15.1387 16.1283 15.1771 16.0323 15.2155ZM16.205 14.5631C16.2242 14.5631 16.2242 14.5823 16.2242 14.6015C16.205 14.6207 16.1666 14.6398 16.205 14.5631ZM16.3777 14.8125C16.3393 14.8317 16.3393 14.7933 16.3393 14.7933C16.3585 14.7933 16.3777 14.8125 16.3777 14.8125ZM16.3585 14.2753C16.3777 14.3904 16.1283 14.448 16.1858 14.4096C16.1283 14.3137 16.1283 14.4863 16.0515 14.4863C16.1474 14.5055 16.0899 14.6398 16.0515 14.6782C16.0131 14.6974 16.0131 14.7358 16.0131 14.7742C16.0323 14.8893 16.1474 14.6782 16.1283 14.8317C16.0515 14.8893 15.9364 14.8317 15.8404 14.8893C15.9364 14.7166 15.7253 14.5631 15.898 14.448C16.0515 14.3904 16.205 14.352 16.3393 14.2369C16.2817 14.1793 16.3393 14.045 16.4161 14.1602C16.2626 14.1026 16.4352 14.2561 16.3585 14.2753ZM16.4161 13.9107C16.4161 13.9299 16.4161 13.9299 16.4161 13.9299C16.3969 13.9491 16.3585 13.9683 16.4161 13.9107ZM16.4352 13.4502C16.3201 13.3927 16.4352 13.1241 16.5696 13.0281C16.5696 13.0665 16.5504 13.1049 16.5887 13.1432C16.6655 13.0665 16.7422 12.9897 16.819 12.913C16.8382 13.2967 16.4544 13.0473 16.4352 13.4502ZM16.4544 14.5055C16.4736 14.4863 16.4928 14.4672 16.4928 14.4096C16.5312 14.5055 16.4736 14.4863 16.4544 14.5055ZM16.512 13.6229C16.4928 13.6421 16.4928 13.6421 16.5504 13.3735C16.5312 13.4694 16.5696 13.527 16.512 13.6229ZM16.6655 13.9491C16.7231 13.9491 16.6655 14.0258 16.6847 14.0642C16.6463 14.0642 16.5312 14.1793 16.5887 14.045C16.6271 14.0642 16.6463 14.0067 16.6655 14.0067C16.6271 13.9299 16.5504 13.7956 16.6847 13.7572C16.819 13.9299 16.6463 13.8148 16.6655 13.9491ZM16.7422 13.4502C16.7614 13.4502 16.7998 13.4502 16.8382 13.4502C16.7998 13.4502 16.819 13.4886 16.7422 13.4502ZM16.7806 12.0304C16.7806 12.0112 16.819 11.9536 16.819 11.9153C16.8766 12.0112 16.7806 12.0112 16.7806 12.0304ZM17.7016 10.7256C17.7016 10.7448 17.7016 10.7832 17.6632 10.7256C17.6824 10.7256 17.6824 10.7256 17.7016 10.7256ZM17.337 11.9153C17.3754 11.8001 17.5289 11.7042 17.5481 11.8193C17.4714 11.8769 17.3946 11.8961 17.337 11.9153ZM17.5865 11.5699C17.644 11.4548 17.6632 11.2821 17.7592 11.1861C17.7016 11.3013 17.6824 11.4548 17.5865 11.5699ZM17.8167 10.9751C17.7784 10.9751 17.7208 10.9175 17.7784 10.8983C17.8167 10.9175 17.8359 10.9367 17.8167 10.9751ZM17.9127 10.8216C17.8935 10.8024 17.8743 10.7832 17.9318 10.7065C17.9127 10.7448 17.9127 10.7832 17.9127 10.8216ZM18.2197 9.72791C18.1621 9.80466 18.1045 9.70873 18.1813 9.68954C18.2197 9.68954 18.2388 9.70873 18.2197 9.72791Z" fill="#E51F2F"/>
<path d="M17.3948 12.2798C17.3178 12.4917 17.3756 12.2605 17.4719 12.3569C17.5104 12.3761 17.4334 12.2605 17.3948 12.2798Z" fill="#231F20"/>
<path d="M15.975 14.7548C15.9558 14.6589 16.0709 14.6205 16.0517 14.5246C16.0134 14.5054 15.9174 14.6973 15.975 14.7548Z" fill="#231F20"/>
<path d="M14.0176 14.9853C14.0176 15.0237 13.9792 15.1196 13.9792 15.158C14.056 15.1388 13.9984 15.0237 14.0176 14.9853Z" fill="#231F20"/>
<path d="M13.4421 17.9206C13.4228 17.9206 13.4228 18.017 13.4036 18.017C13.4421 18.0555 13.4228 17.9399 13.4421 17.9206Z" fill="#231F20"/>
<path d="M13.2502 18.7267C13.2502 18.6691 13.2886 18.5924 13.2886 18.554C13.2119 18.5924 13.2694 18.6691 13.2502 18.7267Z" fill="#231F20"/>
<path d="M12.9241 20.2235C13.0008 20.1468 13.0008 19.9741 13.0008 19.9357C13.0008 19.9741 12.9433 20.1851 12.9241 20.2235Z" fill="#231F20"/>
<path d="M14.977 20.607C14.9195 20.4343 14.9003 20.9716 14.9579 20.6838C14.9387 20.6838 14.977 20.607 14.977 20.607Z" fill="#231F20"/>
<path d="M12.9049 20.5879C12.9049 20.5495 12.9433 20.5303 12.9433 20.4919C12.9817 20.1466 12.8474 20.6262 12.9049 20.5879Z" fill="#231F20"/>
<path d="M13.7111 20.991C13.7111 21.0295 13.634 21.0873 13.634 21.1259C13.6533 21.0873 13.7496 21.1066 13.7111 20.991Z" fill="#231F20"/>
<path d="M14.5359 21.6436C14.5744 21.5858 14.5552 21.5666 14.5552 21.5088C14.5552 21.5666 14.5552 21.6051 14.5359 21.6436Z" fill="#231F20"/>
<path d="M14.6321 21.6434C14.6513 21.5856 14.6899 21.6049 14.6706 21.5471C14.6706 21.5664 14.6513 21.6049 14.6321 21.6434Z" fill="#231F20"/>
<path d="M14.5358 22.0652C14.555 22.0652 14.6126 22.0268 14.5742 22.0077C14.5166 22.0652 14.2864 21.9885 14.5358 22.0652Z" fill="#231F20"/>
<path d="M14.3823 22.3533C14.4209 22.3341 14.4594 22.2955 14.4787 22.2763C14.4594 22.2955 14.4209 22.257 14.3823 22.3533Z" fill="#231F20"/>
<path d="M14.3249 22.3149C14.2673 22.3917 14.2865 22.43 14.2673 22.4876C14.3249 22.43 14.2865 22.3725 14.3249 22.3149Z" fill="#231F20"/>
<path d="M12.9433 24.1765C12.9433 24.1572 12.924 24.0801 12.924 24.0416C12.924 24.0801 12.9047 24.1572 12.9433 24.1765Z" fill="#231F20"/>
<path d="M13.4231 24.3295C13.4615 24.2911 13.4807 24.2911 13.4807 24.2144C13.4998 24.08 13.4231 24.2911 13.4231 24.3295Z" fill="#231F20"/>
<path d="M12.3293 24.521C12.4253 24.5402 12.3485 24.3483 12.3677 24.2524C12.2718 24.2908 12.3677 24.3483 12.3293 24.521Z" fill="#231F20"/>
<path d="M12.6752 25.5001C12.6367 25.423 12.5981 25.4615 12.5789 25.4615C12.5789 25.4615 12.6559 25.4615 12.6752 25.5001Z" fill="#231F20"/>
<path d="M12.79 25.8833C12.7707 25.8833 12.7322 25.8833 12.7322 25.8833C12.7514 25.9218 12.7707 26.0374 12.79 25.8833Z" fill="#231F20"/>
<path d="M12.5979 30.9494C12.5979 30.9301 12.6172 30.8916 12.6557 30.8723C12.6364 30.8723 12.5979 30.8723 12.5979 30.8723C12.6172 30.8723 12.6172 30.9108 12.5979 30.9494Z" fill="#231F20"/>
<path d="M12.3291 26.2104C12.3869 26.1333 12.3484 26.1141 12.3484 26.0755C12.3484 26.1333 12.3291 26.1719 12.3291 26.2104Z" fill="#231F20"/>
<path d="M13.6339 27.4184C13.5764 27.3992 13.4804 27.2841 13.4421 27.3992C13.4037 27.3225 13.2886 27.3033 13.2886 27.3033C13.2886 27.3033 13.2118 27.3225 13.1159 27.2649C13.02 27.1114 12.8665 27.2841 12.6554 27.3033C12.6938 27.3801 12.6362 27.3609 12.5978 27.3992C12.713 27.6871 12.2717 27.3801 12.1373 27.5527C12.0222 27.4184 11.8495 27.7254 11.8112 27.476C11.696 27.6103 11.5809 27.6295 11.485 27.7638C11.2547 27.6487 11.485 27.9365 11.2547 27.8406C10.775 28.1092 11.0437 28.6464 10.4872 28.9534C10.4872 28.9918 10.4681 29.1261 10.5448 29.1645C10.8134 29.222 10.8518 29.4907 10.871 29.6633C11.2164 29.8552 11.0437 30.2773 11.3507 30.3925C11.2931 30.8529 11.5809 30.1622 11.6577 30.6035C12.003 30.7378 11.5617 30.8721 11.6577 31.0832C11.696 31.1216 11.9071 31.2559 11.8495 31.1024C12.1757 31.4861 11.9071 30.7762 12.1949 30.7954C12.1949 30.757 12.2141 30.7186 12.1757 30.6994C12.4443 30.6419 12.31 30.4884 12.2908 30.3349C12.617 30.3349 12.4827 30.8529 12.5786 30.7954C12.6362 30.8529 12.7705 30.4884 12.8089 30.3733C12.8089 30.4308 12.8665 30.5459 12.9624 30.45C12.9432 30.3157 13.4804 30.0663 13.2502 29.9511C13.6915 29.7401 13.1734 29.2988 13.5572 29.0685C13.5956 29.1645 13.7299 28.9342 13.8258 28.9342C13.8834 28.704 13.6339 28.6656 13.6339 28.4354C13.8834 28.1092 13.5188 27.8022 13.6339 27.4184ZM12.4251 30.2965C12.3868 30.0855 12.4827 29.7785 12.5595 30.1814C12.5403 30.2581 12.5403 30.3541 12.4251 30.2965Z" fill="#E51F2F"/>
<path fill-rule="evenodd" clip-rule="evenodd" d="M14.4973 19.9164C14.4589 20.0507 14.4397 20.1658 14.4014 20.2618C14.4589 20.2809 14.5165 20.2809 14.5741 20.3001C14.5932 20.1466 14.6316 19.9739 14.67 19.8013C14.6316 19.8013 14.6124 19.7821 14.5741 19.7821C14.5741 19.8396 14.5549 19.8972 14.4973 19.9164Z" fill="#231F20"/>
<path fill-rule="evenodd" clip-rule="evenodd" d="M13.922 19.6668C13.8836 19.6668 13.8452 19.6476 13.8069 19.6476C13.7877 19.7244 13.7877 19.8011 13.7685 19.8779C13.7493 19.9546 13.7109 20.0505 13.7109 20.1465C13.7685 20.1657 13.8069 20.1657 13.8644 20.1849C13.8836 20.1273 13.922 20.0697 13.9412 19.993C13.8644 19.897 13.8836 19.7627 13.922 19.6668Z" fill="#231F20"/>
<path fill-rule="evenodd" clip-rule="evenodd" d="M13.5574 23.178C13.5766 23.3123 13.4998 23.4274 13.4231 23.5425C13.4807 23.5617 13.5574 23.5617 13.615 23.5809C13.6342 23.4466 13.6533 23.3123 13.6917 23.178C13.6533 23.178 13.5958 23.1588 13.5574 23.1588V23.178Z" fill="#231F20"/>
<path fill-rule="evenodd" clip-rule="evenodd" d="M12.9431 23.4662C13.0199 23.4854 13.0966 23.5045 13.1734 23.5045C13.1925 23.4086 13.2117 23.3319 13.2693 23.2359C13.346 23.3894 13.346 23.2359 13.3652 23.1208C13.2693 23.1016 13.1925 23.0824 13.1158 23.0824C13.2309 23.2167 13.0007 23.351 12.9431 23.4662Z" fill="#231F20"/>
<path fill-rule="evenodd" clip-rule="evenodd" d="M14.1328 20.1274C14.1521 20.1274 14.2099 20.1274 14.2291 20.166C14.1906 20.1852 14.1713 20.2045 14.1521 20.2238C14.1713 20.2238 14.2099 20.243 14.2291 20.243C14.2484 20.2238 14.2484 20.2045 14.2484 20.1852C14.2484 20.0889 14.1521 20.0696 14.1328 20.1274Z" fill="#231F20"/>
<path fill-rule="evenodd" clip-rule="evenodd" d="M14.7275 20.3193C14.7661 20.3193 14.8239 20.3385 14.8624 20.3385V20.3193C14.8239 20.2422 14.7661 20.2807 14.7275 20.3193Z" fill="#231F20"/>
<path fill-rule="evenodd" clip-rule="evenodd" d="M26.5662 13.2968C27.1802 11.4548 25.2807 9.99659 23.8992 9.0756C23.9951 8.71104 23.9184 8.0203 23.7265 7.59819C22.8439 5.58353 20.3688 4.06774 17.9512 3.54969C17.7017 3.49212 17.3564 3.43456 17.011 3.39619C16.6081 3.35781 16.3586 3.31944 15.7638 3.35781C14.344 3.41538 12.6939 3.91424 12.1758 5.41085C10.5449 5.44922 8.43432 5.48759 7.32146 6.73476C6.63072 7.52144 6.64991 8.19299 6.91853 8.92211C5.88242 9.2291 4.52013 9.86228 4.32826 11.1094C4.2707 11.9153 4.90388 12.4526 5.40274 13.0282C5.26843 13.1049 5.11493 13.1817 4.96144 13.2776C4.48176 13.6613 3.9637 14.1027 4.00208 14.755C3.94451 16.0214 5.09575 16.8464 5.97836 17.4412C5.69055 17.5947 5.44112 18.132 5.40274 18.4773C5.38356 20.2234 6.93772 20.9909 8.05058 21.7583C8.79888 23.5236 10.7176 24.387 12.4061 24.7899C12.4061 24.6748 12.4253 24.5405 12.4444 24.4254C12.4253 24.4254 12.3869 24.4062 12.3677 24.4062C12.3677 24.4637 12.3677 24.5213 12.3101 24.5213C12.3293 24.4829 12.3293 24.4254 12.3293 24.4062C10.7752 23.9841 9.20181 23.1782 8.58782 21.9886C9.87336 22.6026 11.2357 23.1015 12.6363 23.3893C12.6171 23.3317 12.5979 23.2741 12.7131 23.3125C12.7323 23.2933 12.7131 23.2741 12.6747 23.2549C12.6555 23.2549 12.6171 23.255 12.5788 23.2358C12.5788 23.159 12.5979 23.0631 12.6171 22.9671C10.9095 22.5834 9.95011 22.1037 8.56863 21.5281C8.72213 20.7606 9.58555 20.6071 10.4874 20.6647C10.9287 20.7031 12.3869 20.8757 13.6149 21.317C14.4399 21.624 15.3033 22.1229 15.3225 22.545C15.3225 22.9096 14.958 22.948 14.958 22.948C15.0347 23.1015 15.2266 23.0631 15.476 22.9863C15.783 22.8904 16.1092 22.4299 15.879 21.9886C15.1307 20.5879 12.5596 19.8588 10.967 19.8013C10.4106 19.7821 9.85418 19.8396 9.33612 19.9931C8.81807 20.1466 8.30001 20.4728 8.10814 21.01L8.05058 21.2787C7.05284 20.6647 6.01673 19.8972 5.88242 18.9954C5.7673 18.2279 6.53479 17.8633 6.53479 17.8633C6.53479 17.8633 6.99528 18.1128 8.20408 18.5733C9.77743 19.1681 11.4467 19.6669 13.0776 20.0315C13.0968 19.8588 13.116 19.6861 13.1544 19.5134C13.0393 19.4943 12.9433 19.4751 12.8282 19.4367C8.93319 18.5541 7.16797 17.6331 7.16797 17.6331C7.24471 17.6331 7.5709 17.518 7.76277 17.4988C9.52799 17.1726 11.4275 17.4604 13.2311 17.9209C14.958 18.3622 16.8383 19.1681 18.4692 20.2234C17.4715 20.2234 16.6464 20.2042 15.0539 19.9164C15.0155 19.9931 15.0155 19.9931 14.9388 20.1658C14.862 20.0891 15.0347 19.8972 14.8429 19.9931C14.7661 20.0699 14.7277 20.1466 14.8045 20.185C14.9772 20.1274 14.862 20.3193 14.9772 20.3961C16.3778 20.6263 17.7209 20.7414 18.9297 20.7031C19.4094 21.2595 19.9466 21.9694 19.9083 22.7945C18.0855 23.4084 16.3011 23.6003 13.7492 23.1974H13.73C13.7108 23.2166 13.7108 23.2358 13.6916 23.2549C13.6916 23.3701 13.6532 23.4468 13.6341 23.6003C13.73 23.6195 13.8451 23.6387 13.9411 23.6387C15.6679 23.8498 17.6058 24.0416 19.5821 23.3893C18.2198 24.8475 15.3993 24.8859 13.7108 24.6748C13.5189 24.6556 13.3462 24.6172 13.1544 24.5981C13.116 24.7324 13.0776 24.8475 13.0393 24.9434C13.3846 25.001 13.7108 25.0585 13.9986 25.0777C15.4568 25.2312 19.1024 25.1737 20.5031 22.9863C21.8654 22.4491 23.5538 21.624 23.669 19.9356C24.6283 19.4751 25.7796 18.5733 26.0866 17.4796C26.336 16.4627 25.9906 15.5417 25.4918 14.755C26.0482 14.2945 26.3552 13.93 26.5662 13.2968ZM15.6871 4.33636C19.0832 4.4323 22.6712 6.10159 23.2468 8.6343C20.2536 6.8307 16.9151 5.73703 13.3079 5.41085C13.1352 5.41085 12.9817 5.39166 12.8474 5.39166C13.3846 4.47067 15.1307 4.35555 15.6871 4.33636ZM7.34065 7.79006C7.7244 6.86907 9.93092 6.58126 10.8327 6.54289C11.2357 6.5237 12.1375 6.5237 12.1375 6.5237C12.1375 6.5237 12.2142 6.6772 12.3485 6.90745C13.1544 8.00112 14.6894 8.53836 15.9557 8.76861C15.9941 8.71105 16.1092 8.67267 16.09 8.57674C14.958 8.30811 13.3846 7.7325 12.7706 6.60045C16.4929 6.90745 19.9083 7.92437 22.959 9.84309C22.6137 10.4955 21.7119 11.1094 21.0403 11.3589C20.3112 11.0327 17.2413 9.55528 14.6126 9.0756C11.984 8.57673 9.43206 8.42324 7.55171 8.80698L7.35984 8.84536C7.34065 8.82617 7.07203 8.44242 7.34065 7.79006ZM4.94225 11.5699C4.90387 10.8792 5.40274 10.4763 5.93998 10.246C6.43885 10.0158 6.95691 9.88146 7.53252 9.84309C7.53252 9.84309 7.95464 10.2652 8.53026 10.6298C9.87336 11.5316 12.4253 12.2991 14.7277 12.6252C14.7085 12.5869 14.7277 12.5485 14.7853 12.4526C14.8428 12.3758 14.7085 12.395 14.7277 12.3758C14.7661 12.3374 14.7853 12.2607 14.8045 12.1839C14.1137 12.088 13.3079 11.9345 12.4061 11.7234C11.2357 11.4548 9.41287 10.7065 8.14651 9.76634C12.0031 9.30585 15.6871 10.342 19.0257 11.6851L19.6013 11.9729C19.0832 12.1072 18.3925 12.3182 17.2413 12.3566C17.2413 12.3758 17.2413 12.4142 17.2604 12.4526C17.3564 12.6444 17.6058 12.3374 17.3756 12.606C17.2604 12.4334 17.1645 12.702 17.1453 12.6828C17.2029 12.6828 17.1837 12.7212 17.1645 12.7595C17.1837 12.7595 17.2221 12.7595 17.2604 12.7595C17.2796 12.7212 17.2988 12.702 17.3564 12.7595C18.7762 12.6828 19.8123 12.395 20.2536 12.2415C20.292 12.2223 21.7119 13.0665 22.2875 13.3927C23.0358 13.834 23.7265 14.3521 24.3981 15.0045C23.5155 15.5609 22.4985 15.8103 21.5008 16.0597C18.9489 14.1218 15.3033 13.2009 13.2503 12.7595C11.1973 12.2991 8.03139 12.1839 5.88242 12.8171C5.42193 12.5293 5.05737 12.088 4.94225 11.5699ZM19.7548 20.1658C17.7401 18.2471 14.4015 17.0191 12.5212 16.6737C9.95011 16.2132 7.83952 16.2708 6.34292 17.1342C5.53705 16.6354 4.40501 15.8295 4.61607 14.8126C5.03819 13.834 6.45804 13.7573 6.45804 13.7573C6.45804 13.7573 8.81807 15.3114 13.3654 16.2324C13.4997 16.2516 13.6341 16.29 13.7684 16.3092C13.7684 16.2516 13.8067 16.2132 13.8451 16.2708C13.9794 16.1941 13.8067 16.0406 13.8067 16.0406C13.8067 16.0406 13.8259 16.0406 13.8835 15.9254C11.3892 15.4458 9.0675 14.6015 7.01447 13.6038C9.25937 13.1625 11.7345 13.5078 13.9219 14.0067C16.1284 14.5248 18.5076 15.4841 19.8891 16.3092C18.5844 16.3859 17.2988 16.3667 16.0516 16.2324C16.0325 16.2708 16.0325 16.3092 16.0708 16.3476C16.0325 16.3476 15.9941 16.3859 15.9365 16.3667C15.9173 16.6162 15.9173 16.7121 15.9173 16.6354C18.0279 16.8848 19.4094 16.7697 20.5415 16.6545C21.5392 17.2877 22.9015 18.3238 23.0742 19.5902C22.5369 19.8588 20.8484 20.0891 19.7548 20.1658ZM22.7288 21.1252C22.1532 21.8735 21.4049 22.1997 20.6566 22.5066C20.7909 21.8159 20.5415 21.1635 20.1577 20.5879C21.2514 20.5112 22.5561 20.2426 23.0742 20.0891C23.055 20.5304 22.9015 20.8374 22.7288 21.1252ZM25.3958 17.8058C25.1464 18.3622 24.5708 19.0146 23.669 19.4175C23.5155 18.3047 22.8439 17.1726 21.9613 16.4435C22.6712 16.2516 23.7841 15.9638 24.6475 15.4266C25.2039 16.0406 25.8179 16.904 25.3958 17.8058ZM25.2231 14.3905C24.2254 13.2392 22.8631 12.3758 21.5776 11.6467C22.2491 11.2821 22.9782 10.8024 23.4579 10.1309C24.2638 10.649 25.7604 11.6083 25.9139 12.8555C25.9331 13.4503 25.7412 14.0835 25.2231 14.3905Z" fill="#231F20"/>
<path fill-rule="evenodd" clip-rule="evenodd" d="M13.001 24.5594C12.9051 24.5402 12.8091 24.521 12.7132 24.5019C12.6748 24.5402 12.6173 24.5978 12.5405 24.617C12.5597 24.7129 12.6365 24.7705 12.6748 24.8664C12.7708 24.8856 12.8667 24.9048 12.9626 24.924C12.9818 24.8856 12.9818 24.8472 12.9818 24.8089C12.9243 24.7129 12.9626 24.6362 13.001 24.5594Z" fill="#231F20"/>
<path fill-rule="evenodd" clip-rule="evenodd" d="M12.9817 24.9245C13.001 24.9245 13.0202 24.9245 13.0395 24.9438C13.0395 24.8667 13.001 24.886 12.9817 24.9245Z" fill="#231F20"/>
<path fill-rule="evenodd" clip-rule="evenodd" d="M13.0583 24.7899C13.0778 24.8483 13.0778 24.8288 13.0778 24.7899H13.0583Z" fill="#F79E6D"/>
<path d="M45.3504 10.649C44.5062 12.5869 41.9926 17.9785 40.5536 21.5089C40.5152 21.413 40.3425 21.0101 40.3233 20.9141C40.9949 19.0722 43.873 13.1817 44.5637 10.2652C44.8515 9.09482 44.6021 8.71107 42.8944 8.38489C42.645 8.34651 42.7218 8.11627 42.9136 8.17383C43.7195 8.28895 45.1585 8.28895 45.5998 8.28895C46.233 8.28895 47.5569 8.26976 48.0558 8.17383C48.2669 8.15464 48.286 8.34651 48.0942 8.38489C46.9429 8.63432 46.233 8.65351 45.3504 10.649ZM39.7094 23.9841C39.7285 24.1568 39.4791 24.1376 39.4983 23.9841C39.3064 23.3317 39.0378 22.8329 38.5006 21.4322C38.0017 20.1275 34.4712 11.1862 34.0683 10.3036C33.4927 8.99888 32.9171 8.48083 31.9385 8.38489C31.7083 8.3657 31.7275 8.13545 31.9577 8.17383C32.802 8.23139 34.0491 8.26976 34.5288 8.26976C35.0085 8.26976 36.4283 8.2122 37.1958 8.17383C37.4453 8.15464 37.4836 8.34651 37.1958 8.38489C36.1597 8.5192 35.6609 8.97969 36.0062 10.1501C36.1214 10.553 39.9012 19.7053 40.3233 20.8949C40.3425 20.9909 40.5152 21.3938 40.5536 21.4898C40.2466 22.2572 39.882 23.2358 39.7094 23.9841Z" fill="#231F20"/>
<path d="M55.5009 23.6579C54.906 23.6003 53.9851 23.5812 53.7164 23.5812C53.4286 23.5812 52.6036 23.5812 52.0663 23.6579C51.932 23.6771 51.8937 23.5236 52.028 23.5044C52.949 23.3701 53.1024 23.2166 53.1024 20.0123V16.4435C53.1024 13.4119 53.0449 13.316 52.0472 13.1625C51.8553 13.1433 51.8937 12.9898 52.0663 13.009C52.6228 13.0858 53.4286 13.1433 53.7164 13.1433C53.9659 13.1433 54.9444 13.1049 55.4625 13.009C55.6352 12.9898 55.6352 13.1241 55.4817 13.1625C54.4647 13.3736 54.3304 13.4119 54.3304 16.4435V20.0507C54.3304 23.1974 54.5415 23.4085 55.52 23.5236C55.6735 23.5044 55.6543 23.6771 55.5009 23.6579Z" fill="#231F20"/>
<path d="M71.119 23.7346C69.2579 23.7346 68.3561 22.4875 66.0344 18.3622C65.9001 18.3814 65.7658 18.3814 65.6123 18.3814C65.4204 18.3814 65.1518 18.343 65.0175 18.3239V18.1128C65.0942 18.132 65.3245 18.1895 65.6123 18.1895C67.0321 18.1895 68.2409 17.6331 68.2409 15.772C68.2409 14.141 67.6653 13.1241 66.0728 13.1241V12.9514C68.4904 12.9514 69.5457 14.1219 69.5457 15.6952C69.5457 16.904 68.7782 17.8058 67.3775 18.1895C68.6439 20.6071 70.6393 23.466 71.5987 23.466C71.8097 23.466 71.9441 23.4085 72.1359 23.2742C72.2894 23.159 72.3854 23.255 72.2511 23.3893C72.0208 23.5428 71.6371 23.7346 71.119 23.7346ZM66.1879 23.6579C65.5163 23.6003 64.8256 23.5812 64.4035 23.5812C64.0773 23.5812 63.2139 23.6387 62.7534 23.6579C62.5999 23.6771 62.5999 23.5236 62.7342 23.5236C63.7127 23.4468 63.7895 23.2166 63.7895 20.0123V16.4435C63.7895 13.4119 63.6168 13.2776 62.8877 13.1433C62.7342 13.1241 62.7726 12.9706 62.9069 12.9898C63.3098 13.0474 63.7895 13.0474 64.0965 13.0474C64.461 13.0474 65.5355 12.9514 66.0728 12.9323V13.1049C65.6507 13.1049 65.1326 13.1625 64.9599 13.2201C65.0367 13.6038 64.9983 14.7167 64.9983 15.4842V20.0123C64.9983 23.1782 65.171 23.4085 66.1879 23.5236C66.3414 23.5236 66.3414 23.6579 66.1879 23.6579Z" fill="#231F20"/>
<path d="M85.6826 15.5801C85.6826 15.7528 85.5483 15.7336 85.5483 15.5609C85.4715 13.8149 84.6848 13.4887 83.3801 13.412C82.9772 13.3736 82.4399 13.3736 82.0178 13.3736C82.0178 13.316 81.9986 13.2393 81.9794 13.2009C82.2673 13.2201 83.0156 13.2009 83.3993 13.1625C84.2052 13.1241 85.2221 13.0474 85.721 12.9706C85.8169 12.8939 85.9128 12.9515 85.8361 13.0858C85.8169 13.2009 85.721 14.1603 85.6826 15.5801ZM80.7898 13.3928C80.5788 13.412 79.8305 13.4311 79.3892 13.4311C78.1804 13.4695 77.5472 13.7957 77.1059 15.4074C77.0675 15.5609 76.914 15.5417 76.9524 15.369C77.1251 14.6399 77.1443 13.3544 77.1443 13.0474C77.0867 12.9323 77.2402 12.8747 77.2978 12.9706C77.6815 13.105 78.449 13.2201 79.37 13.2201C80.0415 13.2201 80.7323 13.2393 80.8282 13.2393C80.809 13.2968 80.7898 13.3352 80.7898 13.3928ZM83.476 23.6579C82.8812 23.5812 81.6533 23.562 81.3655 23.562C81.116 23.562 80.0607 23.562 79.3892 23.6579C79.2549 23.6771 79.2357 23.5236 79.37 23.5044C80.5788 23.2934 80.809 23.2166 80.809 20.0124C80.809 18.6501 80.8282 13.6806 80.7898 13.3928C80.7898 13.3352 80.809 13.2968 80.8282 13.2201C80.8858 13.2201 81.9219 13.2009 81.9794 13.2009C81.9986 13.2393 82.0178 13.316 82.0178 13.3736C81.9411 14.1219 81.9794 18.746 81.9794 20.0315C81.9794 23.2358 82.1521 23.2934 83.476 23.5044C83.6104 23.5044 83.5912 23.6771 83.476 23.6579Z" fill="#231F20"/>
<path d="M114.866 23.6388C114.866 23.5621 114.847 23.4854 114.847 23.4086C116.938 22.9481 118.147 21.0486 118.147 19.0723C118.147 15.8297 116.017 13.0475 113.619 13.0475C113.542 13.0475 113.35 13.0667 113.254 13.0667C113.235 13.0091 113.235 12.9132 113.216 12.8556C113.369 12.8365 113.657 12.8173 113.811 12.8173C117.015 12.8173 119.49 15.2732 119.49 18.2472C119.509 21.0102 117.495 23.1784 114.866 23.6388ZM114.041 23.7156C110.837 23.7156 108.362 21.2213 108.362 18.2664C108.362 15.4075 110.511 13.1818 113.216 12.8364C113.235 12.9132 113.235 13.0091 113.254 13.0475C110.933 13.3161 109.705 15.3692 109.705 17.4222C109.705 20.6648 111.7 23.4278 114.214 23.4278C114.386 23.4278 114.674 23.4086 114.847 23.3702C114.847 23.447 114.866 23.5237 114.866 23.6005C114.636 23.6772 114.29 23.7156 114.041 23.7156Z" fill="#231F20"/>
<path d="M131.405 15.1581C131.137 14.2563 130.772 13.1434 129.352 13.1434C128.988 13.1434 128.566 13.2201 128.316 13.3161C128.297 13.2585 128.259 13.201 128.239 13.1434C128.642 12.9323 129.18 12.8556 129.659 12.8556C130.235 12.8556 130.772 12.9323 131.233 13.105C131.271 12.9707 131.424 13.0283 131.386 13.201C131.386 13.2393 131.463 14.5249 131.559 15.1389C131.616 15.2732 131.463 15.3307 131.405 15.1581ZM129.755 23.4086C129.736 23.3318 129.678 23.2742 129.659 23.1975C130.35 22.8905 130.714 22.3341 130.714 21.4515C130.714 20.2235 130.081 19.5327 129.064 18.9571C128.757 18.7844 128.22 18.4774 127.913 18.2856C126.8 17.5948 126.34 16.693 126.34 15.7912C126.34 14.3714 127.568 13.412 128.239 13.1242C128.278 13.201 128.297 13.2393 128.316 13.2969C127.625 13.6039 127.299 14.1795 127.299 14.9854C127.299 15.7337 127.606 16.4244 128.489 17.0192C128.777 17.2303 129.563 17.6908 129.909 17.8826C131.194 18.5926 131.808 19.5519 131.808 20.5688C131.827 21.4706 131.386 22.6986 129.755 23.4086ZM128.22 23.7156C127.338 23.7156 126.704 23.6964 125.975 23.3318C125.918 23.4853 125.726 23.3702 125.803 23.2359C125.803 23.2359 125.534 20.8375 125.534 20.8758C125.534 20.7799 125.63 20.684 125.687 20.8375C126.052 22.43 126.647 23.4469 128.22 23.4469C128.757 23.4469 129.391 23.3126 129.64 23.1783C129.659 23.2551 129.717 23.3126 129.736 23.3894C129.448 23.5429 128.911 23.7156 128.22 23.7156Z" fill="#231F20"/>
<path d="M144.664 23.6388C144.664 23.5621 144.645 23.4854 144.645 23.4086C146.736 22.9481 147.945 21.0486 147.945 19.0723C147.945 15.8297 145.815 13.0475 143.417 13.0475C143.34 13.0475 143.148 13.0667 143.052 13.0667C143.033 13.0091 143.033 12.9132 143.014 12.8556C143.167 12.8365 143.455 12.8173 143.609 12.8173C146.813 12.8173 149.288 15.2732 149.288 18.2472C149.307 21.0102 147.293 23.1784 144.664 23.6388ZM143.839 23.7156C140.635 23.7156 138.159 21.2213 138.159 18.2664C138.159 15.4075 140.308 13.1818 143.014 12.8364C143.033 12.9132 143.052 13.0091 143.052 13.0475C140.711 13.3161 139.503 15.3692 139.503 17.4222C139.503 20.6648 141.498 23.4278 144.012 23.4278C144.184 23.4278 144.472 23.4086 144.645 23.3702C144.645 23.447 144.664 23.5237 144.664 23.6005C144.434 23.6772 144.088 23.7156 143.839 23.7156Z" fill="#231F20"/>
<path d="M101.531 15.8678C101.531 16.1173 101.531 16.4626 101.531 16.7121C101.531 16.6737 101.435 16.6929 101.396 16.6929C101.358 16.6929 101.166 16.6545 101.166 16.6545C101.166 16.6545 101.185 16.1173 101.166 15.8295C101.089 13.7189 100.84 13.3735 99.6888 13.22C99.5353 13.2008 99.5545 13.0473 99.6888 13.0665C100.284 13.1241 100.84 13.1624 101.358 13.1624C101.857 13.1624 102.375 13.1241 102.989 13.0665C103.104 13.0665 103.104 13.1816 103.008 13.22C101.876 13.3735 101.531 14.0451 101.531 15.8678ZM97.1561 23.9265C94.1437 23.9265 92.9541 22.1229 92.8773 20.2809C92.8006 18.8994 92.8006 17.8825 92.8198 16.501C92.839 13.4694 92.8198 13.3543 91.8988 13.22C91.7261 13.2008 91.7837 13.0473 91.918 13.0665C92.5703 13.1432 93.0884 13.1816 93.4146 13.1816C93.8751 13.1816 94.7769 13.1624 95.3333 13.0665C95.4484 13.0473 95.506 13.1816 95.3525 13.22C94.2588 13.4502 94.0861 13.4886 94.0094 16.501C93.971 18.0936 93.9902 19.1297 94.0286 19.9547C94.1053 21.7583 94.9687 23.5811 97.5398 23.5811C99.2091 23.6003 101.128 22.0845 101.128 19.5134C101.147 17.8057 101.128 17.5371 101.128 16.6161C101.128 16.5394 101.435 16.5586 101.512 16.5586V19.5518C101.531 22.2956 99.708 23.9265 97.1561 23.9265Z" fill="#231F20"/>
<path d="M153.394 22.7176C153.394 22.1804 152.953 21.7199 152.396 21.7199C151.859 21.7199 151.399 22.1612 151.399 22.7176C151.399 23.2549 151.84 23.7154 152.396 23.7154C152.953 23.7154 153.394 23.2549 153.394 22.7176ZM152.396 23.6003C151.917 23.6003 151.514 23.1973 151.514 22.7176C151.514 22.238 151.917 21.835 152.396 21.835C152.876 21.835 153.279 22.238 153.279 22.7176C153.279 23.1973 152.895 23.6003 152.396 23.6003Z" fill="#231F20"/>
<path d="M152.511 22.7754C152.684 22.7562 152.818 22.6219 152.799 22.4684C152.799 22.2573 152.684 22.123 152.415 22.123H152.012V23.2742H152.147V22.7754H152.358L152.665 23.2742H152.837L152.511 22.7754ZM152.166 22.6602V22.2573H152.415C152.55 22.2573 152.684 22.2957 152.684 22.4492C152.684 22.6219 152.531 22.6602 152.396 22.6602H152.166Z" fill="#231F20"/>
</g>
<defs>
<filter id="filter0_d_7_210" x="0" y="0" width="157.394" height="39.2163" filterUnits="userSpaceOnUse" color-interpolation-filters="sRGB">
<feFlood flood-opacity="0" result="BackgroundImageFix"/>
<feColorMatrix in="SourceAlpha" type="matrix" values="0 0 0 0 0 0 0 0 0 0 0 0 0 0 0 0 0 0 127 0" result="hardAlpha"/>
<feOffset dy="4"/>
<feGaussianBlur stdDeviation="2"/>
<feComposite in2="hardAlpha" operator="out"/>
<feColorMatrix type="matrix" values="0 0 0 0 0 0 0 0 0 0 0 0 0 0 0 0 0 0 0.25 0"/>
<feBlend mode="normal" in2="BackgroundImageFix" result="effect1_dropShadow_7_210"/>
<feBlend mode="normal" in="SourceGraphic" in2="effect1_dropShadow_7_210" result="shape"/>
</filter>
</defs>
</svg>
